<?xml version="1.0" encoding="utf-8" standalone="no"?>
<!DOCTYPE svg PUBLIC "-//W3C//DTD SVG 1.1//EN"
  "http://www.w3.org/Graphics/SVG/1.1/DTD/svg11.dtd">
<svg xmlns:xlink="http://www.w3.org/1999/xlink" width="510.23622pt" height="453.543307pt" viewBox="0 0 510.23622 453.543307" xmlns="http://www.w3.org/2000/svg" version="1.1">
 <metadata>
  <rdf:RDF xmlns:dc="http://purl.org/dc/elements/1.1/" xmlns:cc="http://creativecommons.org/ns#" xmlns:rdf="http://www.w3.org/1999/02/22-rdf-syntax-ns#">
   <cc:Work>
    <dc:type rdf:resource="http://purl.org/dc/dcmitype/StillImage"/>
    <dc:date>2026-01-19T14:12:19.640633</dc:date>
    <dc:format>image/svg+xml</dc:format>
    <dc:creator>
     <cc:Agent>
      <dc:title>Matplotlib v3.10.6, https://matplotlib.org/</dc:title>
     </cc:Agent>
    </dc:creator>
   </cc:Work>
  </rdf:RDF>
 </metadata>
 <defs>
  <style type="text/css">*{stroke-linejoin: round; stroke-linecap: butt}</style>
 </defs>
 <g id="figure_1">
  <g id="patch_1">
   <path d="M 0 453.543307 
L 510.23622 453.543307 
L 510.23622 0 
L 0 0 
z
" style="fill: #ffffff"/>
  </g>
  <g id="axes_1">
   <g id="patch_2">
    <path d="M 56.45 250.404705 
L 497.27622 250.404705 
L 497.27622 29.04 
L 56.45 29.04 
z
" style="fill: #ffffff"/>
   </g>
   <g id="matplotlib.axis_1">
    <g id="xtick_1">
     <g id="line2d_1">
      <path d="M 76.487555 250.404705 
L 76.487555 29.04 
" clip-path="url(#p2ab7542d95)" style="fill: none; stroke-dasharray: 0.8,1.32; stroke-dashoffset: 0; stroke: #ffffff; stroke-opacity: 0.5; stroke-width: 0.8"/>
     </g>
     <g id="text_1">
      <!-- 0.0 -->
      <g transform="translate(68.987555 265.737205) scale(0.12 -0.12)">
       <defs>
        <path id="TimesNewRomanPSMT-30" d="M 231 2094 
Q 231 2819 450 3342 
Q 669 3866 1031 4122 
Q 1313 4325 1613 4325 
Q 2100 4325 2488 3828 
Q 2972 3213 2972 2159 
Q 2972 1422 2759 906 
Q 2547 391 2217 158 
Q 1888 -75 1581 -75 
Q 975 -75 572 641 
Q 231 1244 231 2094 
z
M 844 2016 
Q 844 1141 1059 588 
Q 1238 122 1591 122 
Q 1759 122 1940 273 
Q 2122 425 2216 781 
Q 2359 1319 2359 2297 
Q 2359 3022 2209 3506 
Q 2097 3866 1919 4016 
Q 1791 4119 1609 4119 
Q 1397 4119 1231 3928 
Q 1006 3669 925 3112 
Q 844 2556 844 2016 
z
" transform="scale(0.015625)"/>
        <path id="TimesNewRomanPSMT-2e" d="M 800 606 
Q 947 606 1047 504 
Q 1147 403 1147 259 
Q 1147 116 1045 14 
Q 944 -88 800 -88 
Q 656 -88 554 14 
Q 453 116 453 259 
Q 453 406 554 506 
Q 656 606 800 606 
z
" transform="scale(0.015625)"/>
       </defs>
       <use xlink:href="#TimesNewRomanPSMT-30"/>
       <use xlink:href="#TimesNewRomanPSMT-2e" transform="translate(50 0)"/>
       <use xlink:href="#TimesNewRomanPSMT-30" transform="translate(75 0)"/>
      </g>
     </g>
    </g>
    <g id="xtick_2">
     <g id="line2d_2">
      <path d="M 156.637777 250.404705 
L 156.637777 29.04 
" clip-path="url(#p2ab7542d95)" style="fill: none; stroke-dasharray: 0.8,1.32; stroke-dashoffset: 0; stroke: #ffffff; stroke-opacity: 0.5; stroke-width: 0.8"/>
     </g>
     <g id="text_2">
      <!-- 0.1 -->
      <g transform="translate(149.137777 265.737205) scale(0.12 -0.12)">
       <defs>
        <path id="TimesNewRomanPSMT-31" d="M 750 3822 
L 1781 4325 
L 1884 4325 
L 1884 747 
Q 1884 391 1914 303 
Q 1944 216 2037 169 
Q 2131 122 2419 116 
L 2419 0 
L 825 0 
L 825 116 
Q 1125 122 1212 167 
Q 1300 213 1334 289 
Q 1369 366 1369 747 
L 1369 3034 
Q 1369 3497 1338 3628 
Q 1316 3728 1258 3775 
Q 1200 3822 1119 3822 
Q 1003 3822 797 3725 
L 750 3822 
z
" transform="scale(0.015625)"/>
       </defs>
       <use xlink:href="#TimesNewRomanPSMT-30"/>
       <use xlink:href="#TimesNewRomanPSMT-2e" transform="translate(50 0)"/>
       <use xlink:href="#TimesNewRomanPSMT-31" transform="translate(75 0)"/>
      </g>
     </g>
    </g>
    <g id="xtick_3">
     <g id="line2d_3">
      <path d="M 236.787999 250.404705 
L 236.787999 29.04 
" clip-path="url(#p2ab7542d95)" style="fill: none; stroke-dasharray: 0.8,1.32; stroke-dashoffset: 0; stroke: #ffffff; stroke-opacity: 0.5; stroke-width: 0.8"/>
     </g>
     <g id="text_3">
      <!-- 0.2 -->
      <g transform="translate(229.287999 265.737205) scale(0.12 -0.12)">
       <defs>
        <path id="TimesNewRomanPSMT-32" d="M 2934 816 
L 2638 0 
L 138 0 
L 138 116 
Q 1241 1122 1691 1759 
Q 2141 2397 2141 2925 
Q 2141 3328 1894 3587 
Q 1647 3847 1303 3847 
Q 991 3847 742 3664 
Q 494 3481 375 3128 
L 259 3128 
Q 338 3706 661 4015 
Q 984 4325 1469 4325 
Q 1984 4325 2329 3994 
Q 2675 3663 2675 3213 
Q 2675 2891 2525 2569 
Q 2294 2063 1775 1497 
Q 997 647 803 472 
L 1909 472 
Q 2247 472 2383 497 
Q 2519 522 2628 598 
Q 2738 675 2819 816 
L 2934 816 
z
" transform="scale(0.015625)"/>
       </defs>
       <use xlink:href="#TimesNewRomanPSMT-30"/>
       <use xlink:href="#TimesNewRomanPSMT-2e" transform="translate(50 0)"/>
       <use xlink:href="#TimesNewRomanPSMT-32" transform="translate(75 0)"/>
      </g>
     </g>
    </g>
    <g id="xtick_4">
     <g id="line2d_4">
      <path d="M 316.938221 250.404705 
L 316.938221 29.04 
" clip-path="url(#p2ab7542d95)" style="fill: none; stroke-dasharray: 0.8,1.32; stroke-dashoffset: 0; stroke: #ffffff; stroke-opacity: 0.5; stroke-width: 0.8"/>
     </g>
     <g id="text_4">
      <!-- 0.3 -->
      <g transform="translate(309.438221 265.737205) scale(0.12 -0.12)">
       <defs>
        <path id="TimesNewRomanPSMT-33" d="M 325 3431 
Q 506 3859 782 4092 
Q 1059 4325 1472 4325 
Q 1981 4325 2253 3994 
Q 2459 3747 2459 3466 
Q 2459 3003 1878 2509 
Q 2269 2356 2469 2072 
Q 2669 1788 2669 1403 
Q 2669 853 2319 450 
Q 1863 -75 997 -75 
Q 569 -75 414 31 
Q 259 138 259 259 
Q 259 350 332 419 
Q 406 488 509 488 
Q 588 488 669 463 
Q 722 447 909 348 
Q 1097 250 1169 231 
Q 1284 197 1416 197 
Q 1734 197 1970 444 
Q 2206 691 2206 1028 
Q 2206 1275 2097 1509 
Q 2016 1684 1919 1775 
Q 1784 1900 1550 2001 
Q 1316 2103 1072 2103 
L 972 2103 
L 972 2197 
Q 1219 2228 1467 2375 
Q 1716 2522 1828 2728 
Q 1941 2934 1941 3181 
Q 1941 3503 1739 3701 
Q 1538 3900 1238 3900 
Q 753 3900 428 3381 
L 325 3431 
z
" transform="scale(0.015625)"/>
       </defs>
       <use xlink:href="#TimesNewRomanPSMT-30"/>
       <use xlink:href="#TimesNewRomanPSMT-2e" transform="translate(50 0)"/>
       <use xlink:href="#TimesNewRomanPSMT-33" transform="translate(75 0)"/>
      </g>
     </g>
    </g>
    <g id="xtick_5">
     <g id="line2d_5">
      <path d="M 397.088443 250.404705 
L 397.088443 29.04 
" clip-path="url(#p2ab7542d95)" style="fill: none; stroke-dasharray: 0.8,1.32; stroke-dashoffset: 0; stroke: #ffffff; stroke-opacity: 0.5; stroke-width: 0.8"/>
     </g>
     <g id="text_5">
      <!-- 0.4 -->
      <g transform="translate(389.588443 265.737205) scale(0.12 -0.12)">
       <defs>
        <path id="TimesNewRomanPSMT-34" d="M 2978 1563 
L 2978 1119 
L 2409 1119 
L 2409 0 
L 1894 0 
L 1894 1119 
L 100 1119 
L 100 1519 
L 2066 4325 
L 2409 4325 
L 2409 1563 
L 2978 1563 
z
M 1894 1563 
L 1894 3666 
L 406 1563 
L 1894 1563 
z
" transform="scale(0.015625)"/>
       </defs>
       <use xlink:href="#TimesNewRomanPSMT-30"/>
       <use xlink:href="#TimesNewRomanPSMT-2e" transform="translate(50 0)"/>
       <use xlink:href="#TimesNewRomanPSMT-34" transform="translate(75 0)"/>
      </g>
     </g>
    </g>
    <g id="xtick_6">
     <g id="line2d_6">
      <path d="M 477.238665 250.404705 
L 477.238665 29.04 
" clip-path="url(#p2ab7542d95)" style="fill: none; stroke-dasharray: 0.8,1.32; stroke-dashoffset: 0; stroke: #ffffff; stroke-opacity: 0.5; stroke-width: 0.8"/>
     </g>
     <g id="text_6">
      <!-- 0.5 -->
      <g transform="translate(469.738665 265.737205) scale(0.12 -0.12)">
       <defs>
        <path id="TimesNewRomanPSMT-35" d="M 2778 4238 
L 2534 3706 
L 1259 3706 
L 981 3138 
Q 1809 3016 2294 2522 
Q 2709 2097 2709 1522 
Q 2709 1188 2573 903 
Q 2438 619 2231 419 
Q 2025 219 1772 97 
Q 1413 -75 1034 -75 
Q 653 -75 479 54 
Q 306 184 306 341 
Q 306 428 378 495 
Q 450 563 559 563 
Q 641 563 702 538 
Q 763 513 909 409 
Q 1144 247 1384 247 
Q 1750 247 2026 523 
Q 2303 800 2303 1197 
Q 2303 1581 2056 1914 
Q 1809 2247 1375 2428 
Q 1034 2569 447 2591 
L 1259 4238 
L 2778 4238 
z
" transform="scale(0.015625)"/>
       </defs>
       <use xlink:href="#TimesNewRomanPSMT-30"/>
       <use xlink:href="#TimesNewRomanPSMT-2e" transform="translate(50 0)"/>
       <use xlink:href="#TimesNewRomanPSMT-35" transform="translate(75 0)"/>
      </g>
     </g>
    </g>
   </g>
   <g id="matplotlib.axis_2">
    <g id="ytick_1">
     <g id="line2d_7">
      <path d="M 56.45 224.824909 
L 497.27622 224.824909 
" clip-path="url(#p2ab7542d95)" style="fill: none; stroke-dasharray: 0.8,1.32; stroke-dashoffset: 0; stroke: #ffffff; stroke-opacity: 0.5; stroke-width: 0.8"/>
     </g>
     <g id="text_7">
      <!-- 2 -->
      <g transform="translate(43.45 228.991159) scale(0.12 -0.12)">
       <use xlink:href="#TimesNewRomanPSMT-32"/>
      </g>
     </g>
    </g>
    <g id="ytick_2">
     <g id="line2d_8">
      <path d="M 56.45 193.934258 
L 497.27622 193.934258 
" clip-path="url(#p2ab7542d95)" style="fill: none; stroke-dasharray: 0.8,1.32; stroke-dashoffset: 0; stroke: #ffffff; stroke-opacity: 0.5; stroke-width: 0.8"/>
     </g>
     <g id="text_8">
      <!-- 4 -->
      <g transform="translate(43.45 198.100508) scale(0.12 -0.12)">
       <use xlink:href="#TimesNewRomanPSMT-34"/>
      </g>
     </g>
    </g>
    <g id="ytick_3">
     <g id="line2d_9">
      <path d="M 56.45 163.043607 
L 497.27622 163.043607 
" clip-path="url(#p2ab7542d95)" style="fill: none; stroke-dasharray: 0.8,1.32; stroke-dashoffset: 0; stroke: #ffffff; stroke-opacity: 0.5; stroke-width: 0.8"/>
     </g>
     <g id="text_9">
      <!-- 6 -->
      <g transform="translate(43.45 167.209857) scale(0.12 -0.12)">
       <defs>
        <path id="TimesNewRomanPSMT-36" d="M 2869 4325 
L 2869 4209 
Q 2456 4169 2195 4045 
Q 1934 3922 1679 3669 
Q 1425 3416 1258 3105 
Q 1091 2794 978 2366 
Q 1428 2675 1881 2675 
Q 2316 2675 2634 2325 
Q 2953 1975 2953 1425 
Q 2953 894 2631 456 
Q 2244 -75 1606 -75 
Q 1172 -75 869 213 
Q 275 772 275 1663 
Q 275 2231 503 2743 
Q 731 3256 1154 3653 
Q 1578 4050 1965 4187 
Q 2353 4325 2688 4325 
L 2869 4325 
z
M 925 2138 
Q 869 1716 869 1456 
Q 869 1156 980 804 
Q 1091 453 1309 247 
Q 1469 100 1697 100 
Q 1969 100 2183 356 
Q 2397 613 2397 1088 
Q 2397 1622 2184 2012 
Q 1972 2403 1581 2403 
Q 1463 2403 1327 2353 
Q 1191 2303 925 2138 
z
" transform="scale(0.015625)"/>
       </defs>
       <use xlink:href="#TimesNewRomanPSMT-36"/>
      </g>
     </g>
    </g>
    <g id="ytick_4">
     <g id="line2d_10">
      <path d="M 56.45 132.152956 
L 497.27622 132.152956 
" clip-path="url(#p2ab7542d95)" style="fill: none; stroke-dasharray: 0.8,1.32; stroke-dashoffset: 0; stroke: #ffffff; stroke-opacity: 0.5; stroke-width: 0.8"/>
     </g>
     <g id="text_10">
      <!-- 8 -->
      <g transform="translate(43.45 136.319206) scale(0.12 -0.12)">
       <defs>
        <path id="TimesNewRomanPSMT-38" d="M 1228 2134 
Q 725 2547 579 2797 
Q 434 3047 434 3316 
Q 434 3728 753 4026 
Q 1072 4325 1600 4325 
Q 2113 4325 2425 4047 
Q 2738 3769 2738 3413 
Q 2738 3175 2569 2928 
Q 2400 2681 1866 2347 
Q 2416 1922 2594 1678 
Q 2831 1359 2831 1006 
Q 2831 559 2490 242 
Q 2150 -75 1597 -75 
Q 994 -75 656 303 
Q 388 606 388 966 
Q 388 1247 577 1523 
Q 766 1800 1228 2134 
z
M 1719 2469 
Q 2094 2806 2194 3001 
Q 2294 3197 2294 3444 
Q 2294 3772 2109 3958 
Q 1925 4144 1606 4144 
Q 1288 4144 1088 3959 
Q 888 3775 888 3528 
Q 888 3366 970 3203 
Q 1053 3041 1206 2894 
L 1719 2469 
z
M 1375 2016 
Q 1116 1797 991 1539 
Q 866 1281 866 981 
Q 866 578 1086 336 
Q 1306 94 1647 94 
Q 1984 94 2187 284 
Q 2391 475 2391 747 
Q 2391 972 2272 1150 
Q 2050 1481 1375 2016 
z
" transform="scale(0.015625)"/>
       </defs>
       <use xlink:href="#TimesNewRomanPSMT-38"/>
      </g>
     </g>
    </g>
    <g id="ytick_5">
     <g id="line2d_11">
      <path d="M 56.45 101.262305 
L 497.27622 101.262305 
" clip-path="url(#p2ab7542d95)" style="fill: none; stroke-dasharray: 0.8,1.32; stroke-dashoffset: 0; stroke: #ffffff; stroke-opacity: 0.5; stroke-width: 0.8"/>
     </g>
     <g id="text_11">
      <!-- 10 -->
      <g transform="translate(37.45 105.428555) scale(0.12 -0.12)">
       <use xlink:href="#TimesNewRomanPSMT-31"/>
       <use xlink:href="#TimesNewRomanPSMT-30" transform="translate(50 0)"/>
      </g>
     </g>
    </g>
    <g id="ytick_6">
     <g id="line2d_12">
      <path d="M 56.45 70.371654 
L 497.27622 70.371654 
" clip-path="url(#p2ab7542d95)" style="fill: none; stroke-dasharray: 0.8,1.32; stroke-dashoffset: 0; stroke: #ffffff; stroke-opacity: 0.5; stroke-width: 0.8"/>
     </g>
     <g id="text_12">
      <!-- 12 -->
      <g transform="translate(37.45 74.537904) scale(0.12 -0.12)">
       <use xlink:href="#TimesNewRomanPSMT-31"/>
       <use xlink:href="#TimesNewRomanPSMT-32" transform="translate(50 0)"/>
      </g>
     </g>
    </g>
    <g id="ytick_7">
     <g id="line2d_13">
      <path d="M 56.45 39.481004 
L 497.27622 39.481004 
" clip-path="url(#p2ab7542d95)" style="fill: none; stroke-dasharray: 0.8,1.32; stroke-dashoffset: 0; stroke: #ffffff; stroke-opacity: 0.5; stroke-width: 0.8"/>
     </g>
     <g id="text_13">
      <!-- 14 -->
      <g transform="translate(37.45 43.647254) scale(0.12 -0.12)">
       <use xlink:href="#TimesNewRomanPSMT-31"/>
       <use xlink:href="#TimesNewRomanPSMT-34" transform="translate(50 0)"/>
      </g>
     </g>
    </g>
    <g id="text_14">
     <!-- Corrente RMS -->
     <g transform="translate(30.883125 174.887977) rotate(-90) scale(0.12 -0.12)">
      <defs>
       <path id="TimesNewRomanPSMT-43" d="M 3853 4334 
L 3950 2894 
L 3853 2894 
Q 3659 3541 3300 3825 
Q 2941 4109 2438 4109 
Q 2016 4109 1675 3895 
Q 1334 3681 1139 3212 
Q 944 2744 944 2047 
Q 944 1472 1128 1050 
Q 1313 628 1683 403 
Q 2053 178 2528 178 
Q 2941 178 3256 354 
Q 3572 531 3950 1056 
L 4047 994 
Q 3728 428 3303 165 
Q 2878 -97 2294 -97 
Q 1241 -97 663 684 
Q 231 1266 231 2053 
Q 231 2688 515 3219 
Q 800 3750 1298 4042 
Q 1797 4334 2388 4334 
Q 2847 4334 3294 4109 
Q 3425 4041 3481 4041 
Q 3566 4041 3628 4100 
Q 3709 4184 3744 4334 
L 3853 4334 
z
" transform="scale(0.015625)"/>
       <path id="TimesNewRomanPSMT-6f" d="M 1600 2947 
Q 2250 2947 2644 2453 
Q 2978 2031 2978 1484 
Q 2978 1100 2793 706 
Q 2609 313 2286 112 
Q 1963 -88 1566 -88 
Q 919 -88 538 428 
Q 216 863 216 1403 
Q 216 1797 411 2186 
Q 606 2575 925 2761 
Q 1244 2947 1600 2947 
z
M 1503 2744 
Q 1338 2744 1170 2645 
Q 1003 2547 900 2300 
Q 797 2053 797 1666 
Q 797 1041 1045 587 
Q 1294 134 1700 134 
Q 2003 134 2200 384 
Q 2397 634 2397 1244 
Q 2397 2006 2069 2444 
Q 1847 2744 1503 2744 
z
" transform="scale(0.015625)"/>
       <path id="TimesNewRomanPSMT-72" d="M 1038 2947 
L 1038 2303 
Q 1397 2947 1775 2947 
Q 1947 2947 2059 2842 
Q 2172 2738 2172 2600 
Q 2172 2478 2090 2393 
Q 2009 2309 1897 2309 
Q 1788 2309 1652 2417 
Q 1516 2525 1450 2525 
Q 1394 2525 1328 2463 
Q 1188 2334 1038 2041 
L 1038 669 
Q 1038 431 1097 309 
Q 1138 225 1241 169 
Q 1344 113 1538 113 
L 1538 0 
L 72 0 
L 72 113 
Q 291 113 397 181 
Q 475 231 506 341 
Q 522 394 522 644 
L 522 1753 
Q 522 2253 501 2348 
Q 481 2444 426 2487 
Q 372 2531 291 2531 
Q 194 2531 72 2484 
L 41 2597 
L 906 2947 
L 1038 2947 
z
" transform="scale(0.015625)"/>
       <path id="TimesNewRomanPSMT-65" d="M 681 1784 
Q 678 1147 991 784 
Q 1303 422 1725 422 
Q 2006 422 2214 576 
Q 2422 731 2563 1106 
L 2659 1044 
Q 2594 616 2278 264 
Q 1963 -88 1488 -88 
Q 972 -88 605 314 
Q 238 716 238 1394 
Q 238 2128 614 2539 
Q 991 2950 1559 2950 
Q 2041 2950 2350 2633 
Q 2659 2316 2659 1784 
L 681 1784 
z
M 681 1966 
L 2006 1966 
Q 1991 2241 1941 2353 
Q 1863 2528 1708 2628 
Q 1553 2728 1384 2728 
Q 1125 2728 920 2526 
Q 716 2325 681 1966 
z
" transform="scale(0.015625)"/>
       <path id="TimesNewRomanPSMT-6e" d="M 1034 2341 
Q 1538 2947 1994 2947 
Q 2228 2947 2397 2830 
Q 2566 2713 2666 2444 
Q 2734 2256 2734 1869 
L 2734 647 
Q 2734 375 2778 278 
Q 2813 200 2889 156 
Q 2966 113 3172 113 
L 3172 0 
L 1756 0 
L 1756 113 
L 1816 113 
Q 2016 113 2095 173 
Q 2175 234 2206 353 
Q 2219 400 2219 647 
L 2219 1819 
Q 2219 2209 2117 2386 
Q 2016 2563 1775 2563 
Q 1403 2563 1034 2156 
L 1034 647 
Q 1034 356 1069 288 
Q 1113 197 1189 155 
Q 1266 113 1500 113 
L 1500 0 
L 84 0 
L 84 113 
L 147 113 
Q 366 113 442 223 
Q 519 334 519 647 
L 519 1709 
Q 519 2225 495 2337 
Q 472 2450 423 2490 
Q 375 2531 294 2531 
Q 206 2531 84 2484 
L 38 2597 
L 900 2947 
L 1034 2947 
L 1034 2341 
z
" transform="scale(0.015625)"/>
       <path id="TimesNewRomanPSMT-74" d="M 1031 3803 
L 1031 2863 
L 1700 2863 
L 1700 2644 
L 1031 2644 
L 1031 788 
Q 1031 509 1111 412 
Q 1191 316 1316 316 
Q 1419 316 1516 380 
Q 1613 444 1666 569 
L 1788 569 
Q 1678 263 1478 108 
Q 1278 -47 1066 -47 
Q 922 -47 784 33 
Q 647 113 581 261 
Q 516 409 516 719 
L 516 2644 
L 63 2644 
L 63 2747 
Q 234 2816 414 2980 
Q 594 3144 734 3369 
Q 806 3488 934 3803 
L 1031 3803 
z
" transform="scale(0.015625)"/>
       <path id="TimesNewRomanPSMT-20" transform="scale(0.015625)"/>
       <path id="TimesNewRomanPSMT-52" d="M 4325 0 
L 3194 0 
L 1759 1981 
Q 1600 1975 1500 1975 
Q 1459 1975 1412 1976 
Q 1366 1978 1316 1981 
L 1316 750 
Q 1316 350 1403 253 
Q 1522 116 1759 116 
L 1925 116 
L 1925 0 
L 109 0 
L 109 116 
L 269 116 
Q 538 116 653 291 
Q 719 388 719 750 
L 719 3488 
Q 719 3888 631 3984 
Q 509 4122 269 4122 
L 109 4122 
L 109 4238 
L 1653 4238 
Q 2328 4238 2648 4139 
Q 2969 4041 3192 3777 
Q 3416 3513 3416 3147 
Q 3416 2756 3161 2468 
Q 2906 2181 2372 2063 
L 3247 847 
Q 3547 428 3762 290 
Q 3978 153 4325 116 
L 4325 0 
z
M 1316 2178 
Q 1375 2178 1419 2176 
Q 1463 2175 1491 2175 
Q 2097 2175 2405 2437 
Q 2713 2700 2713 3106 
Q 2713 3503 2464 3751 
Q 2216 4000 1806 4000 
Q 1625 4000 1316 3941 
L 1316 2178 
z
" transform="scale(0.015625)"/>
       <path id="TimesNewRomanPSMT-4d" d="M 2619 0 
L 981 3566 
L 981 734 
Q 981 344 1066 247 
Q 1181 116 1431 116 
L 1581 116 
L 1581 0 
L 106 0 
L 106 116 
L 256 116 
Q 525 116 638 278 
Q 706 378 706 734 
L 706 3503 
Q 706 3784 644 3909 
Q 600 4000 483 4061 
Q 366 4122 106 4122 
L 106 4238 
L 1306 4238 
L 2844 922 
L 4356 4238 
L 5556 4238 
L 5556 4122 
L 5409 4122 
Q 5138 4122 5025 3959 
Q 4956 3859 4956 3503 
L 4956 734 
Q 4956 344 5044 247 
Q 5159 116 5409 116 
L 5556 116 
L 5556 0 
L 3756 0 
L 3756 116 
L 3906 116 
Q 4178 116 4288 278 
Q 4356 378 4356 734 
L 4356 3566 
L 2722 0 
L 2619 0 
z
" transform="scale(0.015625)"/>
       <path id="TimesNewRomanPSMT-53" d="M 2934 4334 
L 2934 2869 
L 2819 2869 
Q 2763 3291 2617 3541 
Q 2472 3791 2203 3937 
Q 1934 4084 1647 4084 
Q 1322 4084 1109 3886 
Q 897 3688 897 3434 
Q 897 3241 1031 3081 
Q 1225 2847 1953 2456 
Q 2547 2138 2764 1967 
Q 2981 1797 3098 1565 
Q 3216 1334 3216 1081 
Q 3216 600 2842 251 
Q 2469 -97 1881 -97 
Q 1697 -97 1534 -69 
Q 1438 -53 1133 45 
Q 828 144 747 144 
Q 669 144 623 97 
Q 578 50 556 -97 
L 441 -97 
L 441 1356 
L 556 1356 
Q 638 900 775 673 
Q 913 447 1195 297 
Q 1478 147 1816 147 
Q 2206 147 2432 353 
Q 2659 559 2659 841 
Q 2659 997 2573 1156 
Q 2488 1316 2306 1453 
Q 2184 1547 1640 1851 
Q 1097 2156 867 2337 
Q 638 2519 519 2737 
Q 400 2956 400 3219 
Q 400 3675 750 4004 
Q 1100 4334 1641 4334 
Q 1978 4334 2356 4169 
Q 2531 4091 2603 4091 
Q 2684 4091 2736 4139 
Q 2788 4188 2819 4334 
L 2934 4334 
z
" transform="scale(0.015625)"/>
      </defs>
      <use xlink:href="#TimesNewRomanPSMT-43"/>
      <use xlink:href="#TimesNewRomanPSMT-6f" transform="translate(66.699219 0)"/>
      <use xlink:href="#TimesNewRomanPSMT-72" transform="translate(116.699219 0)"/>
      <use xlink:href="#TimesNewRomanPSMT-72" transform="translate(150 0)"/>
      <use xlink:href="#TimesNewRomanPSMT-65" transform="translate(183.300781 0)"/>
      <use xlink:href="#TimesNewRomanPSMT-6e" transform="translate(227.685547 0)"/>
      <use xlink:href="#TimesNewRomanPSMT-74" transform="translate(277.685547 0)"/>
      <use xlink:href="#TimesNewRomanPSMT-65" transform="translate(305.46875 0)"/>
      <use xlink:href="#TimesNewRomanPSMT-20" transform="translate(349.853516 0)"/>
      <use xlink:href="#TimesNewRomanPSMT-52" transform="translate(374.853516 0)"/>
      <use xlink:href="#TimesNewRomanPSMT-4d" transform="translate(441.552734 0)"/>
      <use xlink:href="#TimesNewRomanPSMT-53" transform="translate(530.46875 0)"/>
     </g>
    </g>
   </g>
   <g id="line2d_14">
    <path d="M 76.487555 100.557227 
L 76.728006 99.824577 
L 78.01041 98.956048 
L 78.491311 96.987562 
L 78.691687 95.802883 
L 79.493189 86.187862 
L 80.254616 73.56148 
L 81.416794 53.852889 
L 81.977846 46.857952 
L 82.498822 42.307709 
L 83.099949 39.546737 
L 83.340399 39.102032 
L 83.42055 39.506983 
L 83.620925 40.299521 
L 83.861376 40.356825 
L 84.462503 40.386504 
L 84.743028 41.195204 
L 84.783103 41.132308 
L 84.983479 40.682243 
L 85.023554 40.723575 
L 85.103704 41.064549 
L 85.264005 42.267465 
L 85.30408 42.232063 
L 85.584606 41.456861 
L 85.624681 41.521774 
L 86.105582 42.594298 
L 86.145657 42.569011 
L 86.346033 41.683138 
L 86.426183 41.893308 
L 86.546408 42.899013 
L 86.666634 43.716223 
L 86.706709 43.622679 
L 86.947159 42.323806 
L 87.02731 42.536823 
L 87.307835 44.049784 
L 87.387986 43.840755 
L 87.588361 43.434972 
L 87.668511 43.32457 
L 87.708587 43.378846 
L 88.029187 44.510077 
L 88.109338 44.386796 
L 88.349788 43.605614 
L 88.389863 43.675914 
L 88.670389 44.91394 
L 88.710464 44.852498 
L 88.91084 44.2434 
L 88.99099 44.283916 
L 89.151291 44.739971 
L 89.271516 44.892764 
L 89.311591 44.875811 
L 89.511967 44.708951 
L 89.672267 44.647597 
L 89.792492 44.68659 
L 90.032943 44.931094 
L 90.553919 44.916761 
L 91.155046 44.952442 
L 91.355422 44.960935 
L 91.716098 45.177492 
L 92.036699 44.979778 
L 92.317224 45.558449 
L 92.357299 45.528289 
L 92.59775 45.171954 
L 92.637825 45.214594 
L 93.038576 45.750232 
L 93.238952 45.660616 
L 93.439327 45.796529 
L 93.719853 46.279493 
L 93.800003 46.162005 
L 93.960304 45.936618 
L 94.080529 46.151192 
L 94.280905 46.692642 
L 94.32098 46.659034 
L 94.561431 46.364161 
L 94.601506 46.416755 
L 94.922107 46.883285 
L 95.403008 46.85712 
L 95.723609 47.146443 
L 95.763684 47.093745 
L 95.964059 46.957974 
L 96.324735 47.2099 
L 96.565186 47.144924 
L 98.08804 47.170059 
L 98.288416 47.223609 
L 98.568942 47.242654 
L 98.969693 47.25041 
L 99.490669 47.264966 
L 99.610894 47.275175 
L 99.851345 47.446182 
L 100.372322 47.427224 
L 100.732998 47.406569 
L 101.053598 47.394615 
L 101.253974 47.472811 
L 101.77495 47.42588 
L 102.015401 47.353464 
L 102.456227 47.325117 
L 102.776828 47.287987 
L 103.057354 47.262202 
L 103.618406 47.235069 
L 108.307194 47.416571 
L 109.108696 47.324527 
L 109.910198 47.265026 
L 111.232677 47.249151 
L 114.919587 47.419445 
L 117.003493 47.247366 
L 118.486272 47.295499 
L 121.53198 47.420141 
L 124.257088 47.242722 
L 126.180693 47.388098 
L 128.064223 47.429738 
L 132.19196 47.324821 
L 134.516316 47.440853 
L 139.48563 47.383852 
L 141.248935 47.438381 
L 145.777422 47.346757 
L 147.821253 47.442662 
L 152.670341 47.367582 
L 154.553872 47.440743 
L 159.162509 47.349423 
L 161.20634 47.44173 
L 166.055428 47.370152 
L 167.938959 47.439607 
L 172.547596 47.352027 
L 174.591427 47.440739 
L 179.280215 47.35725 
L 181.283971 47.440177 
L 185.932683 47.354624 
L 187.936439 47.441258 
L 192.665302 47.359835 
L 194.628983 47.440721 
L 199.317771 47.357238 
L 201.281451 47.441762 
L 206.851891 47.33347 
L 207.613319 47.301583 
L 211.580754 47.023894 
L 214.586388 47.044352 
L 217.752322 46.770513 
L 219.395401 46.885874 
L 220.557579 46.979132 
L 222.200659 46.906004 
L 224.004039 46.77021 
L 225.607043 46.842719 
L 227.410423 46.970342 
L 228.933278 46.901254 
L 231.858761 46.804819 
L 235.14492 46.942237 
L 238.431079 46.796969 
L 241.957689 46.930894 
L 245.163697 46.800844 
L 248.530007 46.93954 
L 251.816166 46.798924 
L 255.22255 46.938628 
L 258.468634 46.797055 
L 261.955169 46.934503 
L 265.081028 46.792568 
L 268.727863 46.926935 
L 271.693421 46.788395 
L 275.540632 46.91542 
L 278.225664 46.780397 
L 282.513701 46.88787 
L 284.797982 46.77566 
L 289.446695 46.862999 
L 291.450451 46.774629 
L 296.219389 46.853877 
L 298.142994 46.775138 
L 302.871857 46.856477 
L 304.835538 46.775663 
L 309.524326 46.859072 
L 311.488006 46.774627 
L 316.256944 46.853882 
L 318.18055 46.775138 
L 322.909413 46.856471 
L 324.873093 46.775663 
L 329.561881 46.859078 
L 331.525562 46.774626 
L 336.2945 46.853879 
L 338.218105 46.775136 
L 342.946968 46.856469 
L 344.910649 46.775662 
L 349.559362 46.862996 
L 351.563117 46.774627 
L 356.332055 46.853873 
L 358.255661 46.775136 
L 362.984524 46.856475 
L 364.948204 46.775661 
L 369.596917 46.862998 
L 371.600673 46.774628 
L 376.369611 46.853875 
L 378.293216 46.775138 
L 383.022079 46.856477 
L 384.98576 46.775662 
L 389.634472 46.863003 
L 391.638228 46.774628 
L 396.407166 46.85388 
L 398.330772 46.775138 
L 403.059635 46.856472 
L 404.943165 46.781122 
L 406.185493 46.929173 
L 409.351427 47.447078 
L 412.437211 47.466377 
L 416.324496 47.870236 
L 418.849228 47.819207 
L 420.532383 47.851562 
L 425.501697 47.509863 
L 428.58748 47.5719 
L 432.19424 47.414422 
L 435.56055 47.551112 
L 438.766558 47.40606 
L 442.373318 47.540045 
L 445.378952 47.402431 
L 449.146012 47.532111 
L 451.95127 47.396225 
L 456.038931 47.512734 
L 458.483513 47.389177 
L 463.052076 47.480382 
L 465.135981 47.388086 
L 469.824769 47.471239 
L 470.626272 47.482439 
L 470.946873 47.851209 
L 471.307549 47.934089 
L 471.78845 48.021361 
L 472.068976 48.328996 
L 472.349501 48.992733 
L 472.710177 50.54432 
L 473.110929 53.371063 
L 473.59183 58.420769 
L 474.233032 67.745303 
L 476.557388 104.397741 
L 476.998214 107.417249 
L 477.238665 108.359855 
L 477.238665 108.359855 
" clip-path="url(#p2ab7542d95)" style="fill: none; stroke: #0000ff; stroke-width: 1.2; stroke-linecap: round"/>
   </g>
   <g id="line2d_15">
    <path d="M 76.487555 229.213894 
L 76.728006 229.047598 
L 77.048607 228.960555 
L 77.409283 228.778684 
L 78.731762 228.428801 
L 78.932137 228.236437 
L 79.372963 227.998188 
L 80.134391 227.116122 
L 80.334766 226.841013 
L 80.575217 226.668131 
L 80.935893 226.123815 
L 81.456869 225.547034 
L 81.69732 225.188637 
L 81.977846 225.006509 
L 82.218296 224.687665 
L 83.260249 224.274427 
L 83.540775 224.321047 
L 83.620925 224.684126 
L 83.781226 225.269682 
L 84.582728 228.24231 
L 84.823179 228.275572 
L 85.183855 228.349718 
L 85.46438 229.030446 
L 85.744906 229.486517 
L 85.945282 230.633239 
L 86.025432 230.585347 
L 86.265883 230.474998 
L 86.466258 230.714089 
L 86.586483 230.708175 
L 86.746784 230.951359 
L 86.907084 230.845725 
L 87.02731 230.720656 
L 87.067385 230.780372 
L 87.147535 231.02473 
L 87.307835 231.874803 
L 87.347911 231.843171 
L 87.628436 231.550541 
L 87.708587 231.720021 
L 87.868887 232.113743 
L 88.429939 231.881052 
L 88.710464 232.423143 
L 88.750539 232.389097 
L 88.99099 232.240445 
L 89.111215 232.459319 
L 89.231441 232.71528 
L 89.271516 232.695603 
L 89.672267 232.57763 
L 89.872643 232.664547 
L 90.032943 232.758935 
L 90.393619 232.803016 
L 90.754295 233.00699 
L 91.315347 233.023328 
L 91.555797 233.111713 
L 91.716098 233.173768 
L 92.036699 233.169858 
L 92.277149 233.366719 
L 92.798126 233.3235 
L 93.238952 233.305563 
L 93.399252 233.316567 
L 93.599628 233.654177 
L 94.000379 233.567261 
L 94.200755 233.619371 
L 94.841956 233.639861 
L 95.002257 233.766379 
L 95.322858 233.608922 
L 95.523233 233.807083 
L 96.004135 233.736537 
L 96.725487 233.764435 
L 96.925862 233.846202 
L 97.567064 233.866379 
L 111.272752 233.980854 
L 119.167549 233.99249 
L 125.900167 233.992979 
L 214.746688 234.00051 
L 222.200659 233.999467 
L 225.045992 233.984822 
L 472.469727 234.183316 
L 473.070853 234.468645 
L 473.631905 234.988132 
L 474.313182 235.952926 
L 475.47536 238.097127 
L 476.397088 239.598748 
L 476.998214 240.199808 
L 477.238665 240.342673 
L 477.238665 240.342673 
" clip-path="url(#p2ab7542d95)" style="fill: none; stroke: #ff0000; stroke-width: 1.2; stroke-linecap: round"/>
   </g>
   <g id="line2d_16">
    <path d="M 76.487555 227.337909 
L 76.687931 227.255509 
L 76.888307 227.140526 
L 77.088682 226.912472 
L 77.248983 226.816965 
L 77.649734 226.440513 
L 77.729884 226.311295 
L 78.050485 225.513968 
L 78.25086 225.443289 
L 78.571461 224.699703 
L 78.771837 224.529699 
L 79.413039 223.579725 
L 79.693564 223.41189 
L 79.97409 222.918615 
L 80.254616 222.753926 
L 80.535142 222.540922 
L 82.378597 222.147575 
L 83.58085 222.13822 
L 83.821301 222.914161 
L 84.061751 223.034328 
L 84.302202 224.739813 
L 84.382352 224.68507 
L 84.582728 224.613423 
L 84.863254 225.529294 
L 84.903329 225.477894 
L 84.983479 225.373218 
L 85.023554 225.411666 
L 85.264005 225.479784 
L 85.504455 225.22781 
L 85.744906 226.36224 
L 85.784981 226.32315 
L 85.985357 226.227085 
L 86.105582 226.671172 
L 86.265883 227.784251 
L 86.305958 227.746818 
L 86.546408 227.557827 
L 86.786859 228.024788 
L 86.826934 227.983426 
L 86.947159 227.903258 
L 87.26776 228.157932 
L 87.468136 228.082345 
L 87.788737 229.077547 
L 87.949037 229.18195 
L 88.029187 229.263454 
L 88.229563 229.904672 
L 88.429939 229.988262 
L 88.750539 230.114937 
L 89.111215 230.224316 
L 89.552042 230.8454 
L 89.672267 230.874559 
L 89.912718 231.477189 
L 90.193243 231.429502 
L 90.393619 231.641496 
L 90.433694 231.601157 
L 90.593995 231.552587 
L 90.834445 231.820468 
L 90.914595 231.718893 
L 91.034821 231.564834 
L 91.074896 231.646026 
L 91.315347 232.385581 
L 91.355422 232.333819 
L 91.595872 232.022405 
L 91.836323 232.617412 
L 91.876398 232.575303 
L 92.116849 232.414916 
L 92.277149 232.551288 
L 92.317224 232.504109 
L 92.5176 232.425977 
L 92.758051 232.736379 
L 92.798126 232.690187 
L 92.998501 232.472301 
L 93.238952 232.970123 
L 93.359177 232.863456 
L 93.559553 232.759925 
L 93.759928 232.938231 
L 94.521355 232.925246 
L 94.721731 232.983683 
L 95.082407 233.009382 
L 95.403008 233.054844 
L 96.845712 233.164642 
L 97.046087 233.13172 
L 97.246463 233.09713 
L 97.526989 233.199614 
L 97.807515 233.159179 
L 98.128115 233.161299 
L 98.488791 233.17936 
L 98.649092 233.140602 
L 98.969693 233.233774 
L 99.210143 233.178492 
L 99.450594 233.263933 
L 99.691045 233.217917 
L 99.97157 233.222061 
L 100.212021 233.261588 
L 100.372322 233.277766 
L 100.692922 233.256488 
L 100.933373 233.275971 
L 101.334124 233.284224 
L 103.377955 233.333569 
L 103.979082 233.358256 
L 104.299682 233.344149 
L 104.500058 233.366773 
L 104.820659 233.36771 
L 105.14126 233.334684 
L 107.465616 233.350972 
L 108.227043 233.351762 
L 113.156282 233.365154 
L 115.280263 233.354629 
L 148.181929 233.358425 
L 164.131823 233.36965 
L 173.9903 233.366637 
L 184.049153 233.368414 
L 194.228231 233.364551 
L 204.046634 233.373923 
L 206.090464 233.380211 
L 208.17437 233.349863 
L 211.540679 233.370136 
L 214.706613 233.350317 
L 231.578235 233.374897 
L 239.272656 233.378839 
L 284.597607 233.37216 
L 295.097286 233.358715 
L 310.886879 233.367815 
L 321.146108 233.36451 
L 331.325186 233.371902 
L 341.70464 233.359769 
L 356.492356 233.357741 
L 380.176746 233.375084 
L 396.447241 233.357168 
L 422.095312 233.358695 
L 430.831687 233.365577 
L 442.092793 233.359408 
L 457.922462 233.369812 
L 468.18169 233.364588 
L 470.746497 233.439057 
L 471.307549 233.86396 
L 471.908675 234.606849 
L 472.750253 236.055633 
L 474.273107 238.73925 
L 474.874233 239.356624 
L 475.435285 239.625293 
L 476.156637 239.686999 
L 476.998214 239.788464 
L 477.238665 239.89819 
L 477.238665 239.89819 
" clip-path="url(#p2ab7542d95)" style="fill: none; stroke: #008000; stroke-width: 1.2; stroke-linecap: round"/>
   </g>
   <g id="line2d_17">
    <path d="M 83.340399 250.404705 
L 83.340399 29.04 
" clip-path="url(#p2ab7542d95)" style="fill: none; stroke-dasharray: 5.55,2.4; stroke-dashoffset: 0; stroke: #ff0000; stroke-opacity: 0.7; stroke-width: 1.5"/>
   </g>
   <g id="patch_3">
    <path d="M 56.45 250.404705 
L 56.45 29.04 
" style="fill: none; stroke: #000000; stroke-width: 0.8; stroke-linejoin: miter; stroke-linecap: square"/>
   </g>
   <g id="patch_4">
    <path d="M 497.27622 250.404705 
L 497.27622 29.04 
" style="fill: none; stroke: #000000; stroke-width: 0.8; stroke-linejoin: miter; stroke-linecap: square"/>
   </g>
   <g id="patch_5">
    <path d="M 56.45 250.404705 
L 497.27622 250.404705 
" style="fill: none; stroke: #000000; stroke-width: 0.8; stroke-linejoin: miter; stroke-linecap: square"/>
   </g>
   <g id="patch_6">
    <path d="M 56.45 29.04 
L 497.27622 29.04 
" style="fill: none; stroke: #000000; stroke-width: 0.8; stroke-linejoin: miter; stroke-linecap: square"/>
   </g>
   <g id="text_15">
    <g id="patch_7">
     <path d="M 78.491311 53.399329 
L 149.697405 53.399329 
Q 152.997405 53.399329 152.997405 50.099329 
L 152.997405 40.108235 
Q 152.997405 36.808235 149.697405 36.808235 
L 78.491311 36.808235 
Q 75.191311 36.808235 75.191311 40.108235 
L 75.191311 50.099329 
Q 75.191311 53.399329 78.491311 53.399329 
z
" style="fill: #ffffff; opacity: 0.8; stroke: #808080; stroke-linejoin: miter"/>
    </g>
    <!-- Máx RMS: 14.0 -->
    <g transform="translate(78.491311 47.74636) scale(0.11 -0.11)">
     <defs>
      <path id="TimesNewRomanPSMT-e1" d="M 1822 413 
Q 1381 72 1269 19 
Q 1100 -59 909 -59 
Q 613 -59 420 144 
Q 228 347 228 678 
Q 228 888 322 1041 
Q 450 1253 767 1440 
Q 1084 1628 1822 1897 
L 1822 2009 
Q 1822 2438 1686 2597 
Q 1550 2756 1291 2756 
Q 1094 2756 978 2650 
Q 859 2544 859 2406 
L 866 2225 
Q 866 2081 792 2003 
Q 719 1925 600 1925 
Q 484 1925 411 2006 
Q 338 2088 338 2228 
Q 338 2497 613 2722 
Q 888 2947 1384 2947 
Q 1766 2947 2009 2819 
Q 2194 2722 2281 2516 
Q 2338 2381 2338 1966 
L 2338 994 
Q 2338 584 2353 492 
Q 2369 400 2405 369 
Q 2441 338 2488 338 
Q 2538 338 2575 359 
Q 2641 400 2828 588 
L 2828 413 
Q 2478 -56 2159 -56 
Q 2006 -56 1915 50 
Q 1825 156 1822 413 
z
M 1822 616 
L 1822 1706 
Q 1350 1519 1213 1441 
Q 966 1303 859 1153 
Q 753 1003 753 825 
Q 753 600 887 451 
Q 1022 303 1197 303 
Q 1434 303 1822 616 
z
M 2131 4344 
L 1209 3266 
L 1103 3266 
L 1431 4344 
L 2131 4344 
z
" transform="scale(0.015625)"/>
      <path id="TimesNewRomanPSMT-78" d="M 84 2863 
L 1431 2863 
L 1431 2747 
Q 1303 2747 1251 2703 
Q 1200 2659 1200 2588 
Q 1200 2513 1309 2356 
Q 1344 2306 1413 2200 
L 1616 1875 
L 1850 2200 
Q 2075 2509 2075 2591 
Q 2075 2656 2022 2701 
Q 1969 2747 1850 2747 
L 1850 2863 
L 2819 2863 
L 2819 2747 
Q 2666 2738 2553 2663 
Q 2400 2556 2134 2200 
L 1744 1678 
L 2456 653 
Q 2719 275 2831 198 
Q 2944 122 3122 113 
L 3122 0 
L 1772 0 
L 1772 113 
Q 1913 113 1991 175 
Q 2050 219 2050 291 
Q 2050 363 1850 653 
L 1431 1266 
L 972 653 
Q 759 369 759 316 
Q 759 241 829 180 
Q 900 119 1041 113 
L 1041 0 
L 106 0 
L 106 113 
Q 219 128 303 191 
Q 422 281 703 653 
L 1303 1450 
L 759 2238 
Q 528 2575 401 2661 
Q 275 2747 84 2747 
L 84 2863 
z
" transform="scale(0.015625)"/>
      <path id="TimesNewRomanPSMT-3a" d="M 903 2950 
Q 1047 2950 1148 2848 
Q 1250 2747 1250 2603 
Q 1250 2459 1148 2357 
Q 1047 2256 903 2256 
Q 759 2256 657 2357 
Q 556 2459 556 2603 
Q 556 2747 657 2848 
Q 759 2950 903 2950 
z
M 897 609 
Q 1044 609 1145 506 
Q 1247 403 1247 259 
Q 1247 116 1144 14 
Q 1041 -88 897 -88 
Q 753 -88 651 14 
Q 550 116 550 259 
Q 550 403 651 506 
Q 753 609 897 609 
z
" transform="scale(0.015625)"/>
     </defs>
     <use xlink:href="#TimesNewRomanPSMT-4d"/>
     <use xlink:href="#TimesNewRomanPSMT-e1" transform="translate(88.916016 0)"/>
     <use xlink:href="#TimesNewRomanPSMT-78" transform="translate(133.300781 0)"/>
     <use xlink:href="#TimesNewRomanPSMT-20" transform="translate(183.300781 0)"/>
     <use xlink:href="#TimesNewRomanPSMT-52" transform="translate(208.300781 0)"/>
     <use xlink:href="#TimesNewRomanPSMT-4d" transform="translate(275 0)"/>
     <use xlink:href="#TimesNewRomanPSMT-53" transform="translate(363.916016 0)"/>
     <use xlink:href="#TimesNewRomanPSMT-3a" transform="translate(419.53125 0)"/>
     <use xlink:href="#TimesNewRomanPSMT-20" transform="translate(447.314453 0)"/>
     <use xlink:href="#TimesNewRomanPSMT-31" transform="translate(472.314453 0)"/>
     <use xlink:href="#TimesNewRomanPSMT-34" transform="translate(522.314453 0)"/>
     <use xlink:href="#TimesNewRomanPSMT-2e" transform="translate(572.314453 0)"/>
     <use xlink:href="#TimesNewRomanPSMT-30" transform="translate(597.314453 0)"/>
    </g>
   </g>
   <g id="text_16">
    <!-- Análise RMS - I 800 -->
    <g transform="translate(216.86461 23.04) scale(0.144 -0.144)">
     <defs>
      <path id="TimesNewRomanPSMT-41" d="M 2928 1419 
L 1288 1419 
L 1000 750 
Q 894 503 894 381 
Q 894 284 986 211 
Q 1078 138 1384 116 
L 1384 0 
L 50 0 
L 50 116 
Q 316 163 394 238 
Q 553 388 747 847 
L 2238 4334 
L 2347 4334 
L 3822 809 
Q 4000 384 4145 257 
Q 4291 131 4550 116 
L 4550 0 
L 2878 0 
L 2878 116 
Q 3131 128 3220 200 
Q 3309 272 3309 375 
Q 3309 513 3184 809 
L 2928 1419 
z
M 2841 1650 
L 2122 3363 
L 1384 1650 
L 2841 1650 
z
" transform="scale(0.015625)"/>
      <path id="TimesNewRomanPSMT-6c" d="M 1184 4444 
L 1184 647 
Q 1184 378 1223 290 
Q 1263 203 1344 158 
Q 1425 113 1647 113 
L 1647 0 
L 244 0 
L 244 113 
Q 441 113 512 153 
Q 584 194 625 287 
Q 666 381 666 647 
L 666 3247 
Q 666 3731 644 3842 
Q 622 3953 573 3993 
Q 525 4034 450 4034 
Q 369 4034 244 3984 
L 191 4094 
L 1044 4444 
L 1184 4444 
z
" transform="scale(0.015625)"/>
      <path id="TimesNewRomanPSMT-69" d="M 928 4444 
Q 1059 4444 1151 4351 
Q 1244 4259 1244 4128 
Q 1244 3997 1151 3903 
Q 1059 3809 928 3809 
Q 797 3809 703 3903 
Q 609 3997 609 4128 
Q 609 4259 701 4351 
Q 794 4444 928 4444 
z
M 1188 2947 
L 1188 647 
Q 1188 378 1227 289 
Q 1266 200 1342 156 
Q 1419 113 1622 113 
L 1622 0 
L 231 0 
L 231 113 
Q 441 113 512 153 
Q 584 194 626 287 
Q 669 381 669 647 
L 669 1750 
Q 669 2216 641 2353 
Q 619 2453 572 2492 
Q 525 2531 444 2531 
Q 356 2531 231 2484 
L 188 2597 
L 1050 2947 
L 1188 2947 
z
" transform="scale(0.015625)"/>
      <path id="TimesNewRomanPSMT-73" d="M 2050 2947 
L 2050 1972 
L 1947 1972 
Q 1828 2431 1642 2597 
Q 1456 2763 1169 2763 
Q 950 2763 815 2647 
Q 681 2531 681 2391 
Q 681 2216 781 2091 
Q 878 1963 1175 1819 
L 1631 1597 
Q 2266 1288 2266 781 
Q 2266 391 1970 151 
Q 1675 -88 1309 -88 
Q 1047 -88 709 6 
Q 606 38 541 38 
Q 469 38 428 -44 
L 325 -44 
L 325 978 
L 428 978 
Q 516 541 762 319 
Q 1009 97 1316 97 
Q 1531 97 1667 223 
Q 1803 350 1803 528 
Q 1803 744 1651 891 
Q 1500 1038 1047 1263 
Q 594 1488 453 1669 
Q 313 1847 313 2119 
Q 313 2472 555 2709 
Q 797 2947 1181 2947 
Q 1350 2947 1591 2875 
Q 1750 2828 1803 2828 
Q 1853 2828 1881 2850 
Q 1909 2872 1947 2947 
L 2050 2947 
z
" transform="scale(0.015625)"/>
      <path id="TimesNewRomanPSMT-2d" d="M 259 1672 
L 1875 1672 
L 1875 1200 
L 259 1200 
L 259 1672 
z
" transform="scale(0.015625)"/>
      <path id="TimesNewRomanPSMT-49" d="M 1975 116 
L 1975 0 
L 159 0 
L 159 116 
L 309 116 
Q 572 116 691 269 
Q 766 369 766 750 
L 766 3488 
Q 766 3809 725 3913 
Q 694 3991 597 4047 
Q 459 4122 309 4122 
L 159 4122 
L 159 4238 
L 1975 4238 
L 1975 4122 
L 1822 4122 
Q 1563 4122 1444 3969 
Q 1366 3869 1366 3488 
L 1366 750 
Q 1366 428 1406 325 
Q 1438 247 1538 191 
Q 1672 116 1822 116 
L 1975 116 
z
" transform="scale(0.015625)"/>
     </defs>
     <use xlink:href="#TimesNewRomanPSMT-41"/>
     <use xlink:href="#TimesNewRomanPSMT-6e" transform="translate(72.216797 0)"/>
     <use xlink:href="#TimesNewRomanPSMT-e1" transform="translate(122.216797 0)"/>
     <use xlink:href="#TimesNewRomanPSMT-6c" transform="translate(166.601562 0)"/>
     <use xlink:href="#TimesNewRomanPSMT-69" transform="translate(194.384766 0)"/>
     <use xlink:href="#TimesNewRomanPSMT-73" transform="translate(222.167969 0)"/>
     <use xlink:href="#TimesNewRomanPSMT-65" transform="translate(261.083984 0)"/>
     <use xlink:href="#TimesNewRomanPSMT-20" transform="translate(305.46875 0)"/>
     <use xlink:href="#TimesNewRomanPSMT-52" transform="translate(330.46875 0)"/>
     <use xlink:href="#TimesNewRomanPSMT-4d" transform="translate(397.167969 0)"/>
     <use xlink:href="#TimesNewRomanPSMT-53" transform="translate(486.083984 0)"/>
     <use xlink:href="#TimesNewRomanPSMT-20" transform="translate(541.699219 0)"/>
     <use xlink:href="#TimesNewRomanPSMT-2d" transform="translate(566.699219 0)"/>
     <use xlink:href="#TimesNewRomanPSMT-20" transform="translate(600 0)"/>
     <use xlink:href="#TimesNewRomanPSMT-49" transform="translate(625 0)"/>
     <use xlink:href="#TimesNewRomanPSMT-20" transform="translate(658.300781 0)"/>
     <use xlink:href="#TimesNewRomanPSMT-38" transform="translate(683.300781 0)"/>
     <use xlink:href="#TimesNewRomanPSMT-30" transform="translate(733.300781 0)"/>
     <use xlink:href="#TimesNewRomanPSMT-30" transform="translate(783.300781 0)"/>
    </g>
   </g>
   <g id="legend_1">
    <g id="patch_8">
     <path d="M 417.47247 89.540625 
L 488.87622 89.540625 
Q 491.27622 89.540625 491.27622 87.140625 
L 491.27622 37.44 
Q 491.27622 35.04 488.87622 35.04 
L 417.47247 35.04 
Q 415.07247 35.04 415.07247 37.44 
L 415.07247 87.140625 
Q 415.07247 89.540625 417.47247 89.540625 
z
" style="fill: #ffffff; opacity: 0.8; stroke: #cccccc; stroke-linejoin: miter"/>
    </g>
    <g id="line2d_18">
     <path d="M 419.87247 44.04 
L 431.87247 44.04 
L 443.87247 44.04 
" style="fill: none; stroke: #0000ff; stroke-width: 1.2; stroke-linecap: round"/>
    </g>
    <g id="text_17">
     <!-- Fase A -->
     <g transform="translate(453.47247 48.24) scale(0.12 -0.12)">
      <defs>
       <path id="TimesNewRomanPSMT-46" d="M 1309 4006 
L 1309 2341 
L 2081 2341 
Q 2347 2341 2470 2458 
Q 2594 2575 2634 2922 
L 2750 2922 
L 2750 1488 
L 2634 1488 
Q 2631 1734 2570 1850 
Q 2509 1966 2401 2023 
Q 2294 2081 2081 2081 
L 1309 2081 
L 1309 750 
Q 1309 428 1350 325 
Q 1381 247 1481 191 
Q 1619 116 1769 116 
L 1922 116 
L 1922 0 
L 103 0 
L 103 116 
L 253 116 
Q 516 116 634 269 
Q 709 369 709 750 
L 709 3488 
Q 709 3809 669 3913 
Q 638 3991 541 4047 
Q 406 4122 253 4122 
L 103 4122 
L 103 4238 
L 3256 4238 
L 3297 3306 
L 3188 3306 
Q 3106 3603 2998 3742 
Q 2891 3881 2733 3943 
Q 2575 4006 2244 4006 
L 1309 4006 
z
" transform="scale(0.015625)"/>
       <path id="TimesNewRomanPSMT-61" d="M 1822 413 
Q 1381 72 1269 19 
Q 1100 -59 909 -59 
Q 613 -59 420 144 
Q 228 347 228 678 
Q 228 888 322 1041 
Q 450 1253 767 1440 
Q 1084 1628 1822 1897 
L 1822 2009 
Q 1822 2438 1686 2597 
Q 1550 2756 1291 2756 
Q 1094 2756 978 2650 
Q 859 2544 859 2406 
L 866 2225 
Q 866 2081 792 2003 
Q 719 1925 600 1925 
Q 484 1925 411 2006 
Q 338 2088 338 2228 
Q 338 2497 613 2722 
Q 888 2947 1384 2947 
Q 1766 2947 2009 2819 
Q 2194 2722 2281 2516 
Q 2338 2381 2338 1966 
L 2338 994 
Q 2338 584 2353 492 
Q 2369 400 2405 369 
Q 2441 338 2488 338 
Q 2538 338 2575 359 
Q 2641 400 2828 588 
L 2828 413 
Q 2478 -56 2159 -56 
Q 2006 -56 1915 50 
Q 1825 156 1822 413 
z
M 1822 616 
L 1822 1706 
Q 1350 1519 1213 1441 
Q 966 1303 859 1153 
Q 753 1003 753 825 
Q 753 600 887 451 
Q 1022 303 1197 303 
Q 1434 303 1822 616 
z
" transform="scale(0.015625)"/>
      </defs>
      <use xlink:href="#TimesNewRomanPSMT-46"/>
      <use xlink:href="#TimesNewRomanPSMT-61" transform="translate(55.615234 0)"/>
      <use xlink:href="#TimesNewRomanPSMT-73" transform="translate(100 0)"/>
      <use xlink:href="#TimesNewRomanPSMT-65" transform="translate(138.916016 0)"/>
      <use xlink:href="#TimesNewRomanPSMT-20" transform="translate(183.300781 0)"/>
      <use xlink:href="#TimesNewRomanPSMT-41" transform="translate(202.800781 0)"/>
     </g>
    </g>
    <g id="line2d_19">
     <path d="M 419.87247 61.006875 
L 431.87247 61.006875 
L 443.87247 61.006875 
" style="fill: none; stroke: #ff0000; stroke-width: 1.2; stroke-linecap: round"/>
    </g>
    <g id="text_18">
     <!-- Fase B -->
     <g transform="translate(453.47247 65.206875) scale(0.12 -0.12)">
      <defs>
       <path id="TimesNewRomanPSMT-42" d="M 2956 2163 
Q 3397 2069 3616 1863 
Q 3919 1575 3919 1159 
Q 3919 844 3719 555 
Q 3519 266 3170 133 
Q 2822 0 2106 0 
L 106 0 
L 106 116 
L 266 116 
Q 531 116 647 284 
Q 719 394 719 750 
L 719 3488 
Q 719 3881 628 3984 
Q 506 4122 266 4122 
L 106 4122 
L 106 4238 
L 1938 4238 
Q 2450 4238 2759 4163 
Q 3228 4050 3475 3764 
Q 3722 3478 3722 3106 
Q 3722 2788 3528 2536 
Q 3334 2284 2956 2163 
z
M 1319 2331 
Q 1434 2309 1582 2298 
Q 1731 2288 1909 2288 
Q 2366 2288 2595 2386 
Q 2825 2484 2947 2687 
Q 3069 2891 3069 3131 
Q 3069 3503 2766 3765 
Q 2463 4028 1881 4028 
Q 1569 4028 1319 3959 
L 1319 2331 
z
M 1319 306 
Q 1681 222 2034 222 
Q 2600 222 2897 476 
Q 3194 731 3194 1106 
Q 3194 1353 3059 1581 
Q 2925 1809 2622 1940 
Q 2319 2072 1872 2072 
Q 1678 2072 1540 2065 
Q 1403 2059 1319 2044 
L 1319 306 
z
" transform="scale(0.015625)"/>
      </defs>
      <use xlink:href="#TimesNewRomanPSMT-46"/>
      <use xlink:href="#TimesNewRomanPSMT-61" transform="translate(55.615234 0)"/>
      <use xlink:href="#TimesNewRomanPSMT-73" transform="translate(100 0)"/>
      <use xlink:href="#TimesNewRomanPSMT-65" transform="translate(138.916016 0)"/>
      <use xlink:href="#TimesNewRomanPSMT-20" transform="translate(183.300781 0)"/>
      <use xlink:href="#TimesNewRomanPSMT-42" transform="translate(208.300781 0)"/>
     </g>
    </g>
    <g id="line2d_20">
     <path d="M 419.87247 77.97375 
L 431.87247 77.97375 
L 443.87247 77.97375 
" style="fill: none; stroke: #008000; stroke-width: 1.2; stroke-linecap: round"/>
    </g>
    <g id="text_19">
     <!-- Fase C -->
     <g transform="translate(453.47247 82.17375) scale(0.12 -0.12)">
      <use xlink:href="#TimesNewRomanPSMT-46"/>
      <use xlink:href="#TimesNewRomanPSMT-61" transform="translate(55.615234 0)"/>
      <use xlink:href="#TimesNewRomanPSMT-73" transform="translate(100 0)"/>
      <use xlink:href="#TimesNewRomanPSMT-65" transform="translate(138.916016 0)"/>
      <use xlink:href="#TimesNewRomanPSMT-20" transform="translate(183.300781 0)"/>
      <use xlink:href="#TimesNewRomanPSMT-43" transform="translate(208.300781 0)"/>
     </g>
    </g>
   </g>
  </g>
  <g id="axes_2">
   <g id="patch_9">
    <path d="M 56.45 406.487057 
L 254.10311 406.487057 
L 254.10311 295.804705 
L 56.45 295.804705 
z
" style="fill: #ffffff"/>
   </g>
   <g id="matplotlib.axis_3">
    <g id="xtick_7">
     <g id="line2d_21">
      <path d="M 76.215311 406.487057 
L 76.215311 295.804705 
" clip-path="url(#p2ca10b31ce)" style="fill: none; stroke-dasharray: 0.8,1.32; stroke-dashoffset: 0; stroke: #ffffff; stroke-opacity: 0.5; stroke-width: 0.8"/>
     </g>
     <g id="text_20">
      <!-- −0.04 -->
      <g transform="translate(62.331874 421.819557) scale(0.12 -0.12)">
       <defs>
        <path id="TimesNewRomanPSMT-2212" d="M 3484 2000 
L 116 2000 
L 116 2256 
L 3484 2256 
L 3484 2000 
z
" transform="scale(0.015625)"/>
       </defs>
       <use xlink:href="#TimesNewRomanPSMT-2212"/>
       <use xlink:href="#TimesNewRomanPSMT-30" transform="translate(56.396484 0)"/>
       <use xlink:href="#TimesNewRomanPSMT-2e" transform="translate(106.396484 0)"/>
       <use xlink:href="#TimesNewRomanPSMT-30" transform="translate(131.396484 0)"/>
       <use xlink:href="#TimesNewRomanPSMT-34" transform="translate(181.396484 0)"/>
      </g>
     </g>
    </g>
    <g id="xtick_8">
     <g id="line2d_22">
      <path d="M 115.745933 406.487057 
L 115.745933 295.804705 
" clip-path="url(#p2ca10b31ce)" style="fill: none; stroke-dasharray: 0.8,1.32; stroke-dashoffset: 0; stroke: #ffffff; stroke-opacity: 0.5; stroke-width: 0.8"/>
     </g>
     <g id="text_21">
      <!-- −0.02 -->
      <g transform="translate(101.862496 421.819557) scale(0.12 -0.12)">
       <use xlink:href="#TimesNewRomanPSMT-2212"/>
       <use xlink:href="#TimesNewRomanPSMT-30" transform="translate(56.396484 0)"/>
       <use xlink:href="#TimesNewRomanPSMT-2e" transform="translate(106.396484 0)"/>
       <use xlink:href="#TimesNewRomanPSMT-30" transform="translate(131.396484 0)"/>
       <use xlink:href="#TimesNewRomanPSMT-32" transform="translate(181.396484 0)"/>
      </g>
     </g>
    </g>
    <g id="xtick_9">
     <g id="line2d_23">
      <path d="M 155.276555 406.487057 
L 155.276555 295.804705 
" clip-path="url(#p2ca10b31ce)" style="fill: none; stroke-dasharray: 0.8,1.32; stroke-dashoffset: 0; stroke: #ffffff; stroke-opacity: 0.5; stroke-width: 0.8"/>
     </g>
     <g id="text_22">
      <!-- 0.00 -->
      <g transform="translate(144.776555 421.819557) scale(0.12 -0.12)">
       <use xlink:href="#TimesNewRomanPSMT-30"/>
       <use xlink:href="#TimesNewRomanPSMT-2e" transform="translate(50 0)"/>
       <use xlink:href="#TimesNewRomanPSMT-30" transform="translate(75 0)"/>
       <use xlink:href="#TimesNewRomanPSMT-30" transform="translate(125 0)"/>
      </g>
     </g>
    </g>
    <g id="xtick_10">
     <g id="line2d_24">
      <path d="M 194.807177 406.487057 
L 194.807177 295.804705 
" clip-path="url(#p2ca10b31ce)" style="fill: none; stroke-dasharray: 0.8,1.32; stroke-dashoffset: 0; stroke: #ffffff; stroke-opacity: 0.5; stroke-width: 0.8"/>
     </g>
     <g id="text_23">
      <!-- 0.02 -->
      <g transform="translate(184.307177 421.819557) scale(0.12 -0.12)">
       <use xlink:href="#TimesNewRomanPSMT-30"/>
       <use xlink:href="#TimesNewRomanPSMT-2e" transform="translate(50 0)"/>
       <use xlink:href="#TimesNewRomanPSMT-30" transform="translate(75 0)"/>
       <use xlink:href="#TimesNewRomanPSMT-32" transform="translate(125 0)"/>
      </g>
     </g>
    </g>
    <g id="xtick_11">
     <g id="line2d_25">
      <path d="M 234.337799 406.487057 
L 234.337799 295.804705 
" clip-path="url(#p2ca10b31ce)" style="fill: none; stroke-dasharray: 0.8,1.32; stroke-dashoffset: 0; stroke: #ffffff; stroke-opacity: 0.5; stroke-width: 0.8"/>
     </g>
     <g id="text_24">
      <!-- 0.04 -->
      <g transform="translate(223.837799 421.819557) scale(0.12 -0.12)">
       <use xlink:href="#TimesNewRomanPSMT-30"/>
       <use xlink:href="#TimesNewRomanPSMT-2e" transform="translate(50 0)"/>
       <use xlink:href="#TimesNewRomanPSMT-30" transform="translate(75 0)"/>
       <use xlink:href="#TimesNewRomanPSMT-34" transform="translate(125 0)"/>
      </g>
     </g>
    </g>
    <g id="text_25">
     <!-- Tempo (s) -->
     <g transform="translate(130.870618 436.718932) scale(0.12 -0.12)">
      <defs>
       <path id="TimesNewRomanPSMT-54" d="M 3703 4238 
L 3750 3244 
L 3631 3244 
Q 3597 3506 3538 3619 
Q 3441 3800 3280 3886 
Q 3119 3972 2856 3972 
L 2259 3972 
L 2259 734 
Q 2259 344 2344 247 
Q 2463 116 2709 116 
L 2856 116 
L 2856 0 
L 1059 0 
L 1059 116 
L 1209 116 
Q 1478 116 1591 278 
Q 1659 378 1659 734 
L 1659 3972 
L 1150 3972 
Q 853 3972 728 3928 
Q 566 3869 450 3700 
Q 334 3531 313 3244 
L 194 3244 
L 244 4238 
L 3703 4238 
z
" transform="scale(0.015625)"/>
       <path id="TimesNewRomanPSMT-6d" d="M 1050 2338 
Q 1363 2650 1419 2697 
Q 1559 2816 1721 2881 
Q 1884 2947 2044 2947 
Q 2313 2947 2506 2790 
Q 2700 2634 2766 2338 
Q 3088 2713 3309 2830 
Q 3531 2947 3766 2947 
Q 3994 2947 4170 2830 
Q 4347 2713 4450 2447 
Q 4519 2266 4519 1878 
L 4519 647 
Q 4519 378 4559 278 
Q 4591 209 4675 161 
Q 4759 113 4950 113 
L 4950 0 
L 3538 0 
L 3538 113 
L 3597 113 
Q 3781 113 3884 184 
Q 3956 234 3988 344 
Q 4000 397 4000 647 
L 4000 1878 
Q 4000 2228 3916 2372 
Q 3794 2572 3525 2572 
Q 3359 2572 3192 2489 
Q 3025 2406 2788 2181 
L 2781 2147 
L 2788 2013 
L 2788 647 
Q 2788 353 2820 281 
Q 2853 209 2943 161 
Q 3034 113 3253 113 
L 3253 0 
L 1806 0 
L 1806 113 
Q 2044 113 2133 169 
Q 2222 225 2256 338 
Q 2272 391 2272 647 
L 2272 1878 
Q 2272 2228 2169 2381 
Q 2031 2581 1784 2581 
Q 1616 2581 1450 2491 
Q 1191 2353 1050 2181 
L 1050 647 
Q 1050 366 1089 281 
Q 1128 197 1204 155 
Q 1281 113 1516 113 
L 1516 0 
L 100 0 
L 100 113 
Q 297 113 375 155 
Q 453 197 493 289 
Q 534 381 534 647 
L 534 1741 
Q 534 2213 506 2350 
Q 484 2453 437 2492 
Q 391 2531 309 2531 
Q 222 2531 100 2484 
L 53 2597 
L 916 2947 
L 1050 2947 
L 1050 2338 
z
" transform="scale(0.015625)"/>
       <path id="TimesNewRomanPSMT-70" d="M -6 2578 
L 875 2934 
L 994 2934 
L 994 2266 
Q 1216 2644 1439 2795 
Q 1663 2947 1909 2947 
Q 2341 2947 2628 2609 
Q 2981 2197 2981 1534 
Q 2981 794 2556 309 
Q 2206 -88 1675 -88 
Q 1444 -88 1275 -22 
Q 1150 25 994 166 
L 994 -706 
Q 994 -1000 1030 -1079 
Q 1066 -1159 1155 -1206 
Q 1244 -1253 1478 -1253 
L 1478 -1369 
L -22 -1369 
L -22 -1253 
L 56 -1253 
Q 228 -1256 350 -1188 
Q 409 -1153 442 -1076 
Q 475 -1000 475 -688 
L 475 2019 
Q 475 2297 450 2372 
Q 425 2447 370 2484 
Q 316 2522 222 2522 
Q 147 2522 31 2478 
L -6 2578 
z
M 994 2081 
L 994 1013 
Q 994 666 1022 556 
Q 1066 375 1236 237 
Q 1406 100 1666 100 
Q 1978 100 2172 344 
Q 2425 663 2425 1241 
Q 2425 1897 2138 2250 
Q 1938 2494 1663 2494 
Q 1513 2494 1366 2419 
Q 1253 2363 994 2081 
z
" transform="scale(0.015625)"/>
       <path id="TimesNewRomanPSMT-28" d="M 1988 -1253 
L 1988 -1369 
Q 1516 -1131 1200 -813 
Q 750 -359 506 256 
Q 263 872 263 1534 
Q 263 2503 741 3301 
Q 1219 4100 1988 4444 
L 1988 4313 
Q 1603 4100 1356 3731 
Q 1109 3363 987 2797 
Q 866 2231 866 1616 
Q 866 947 969 400 
Q 1050 -31 1165 -292 
Q 1281 -553 1476 -793 
Q 1672 -1034 1988 -1253 
z
" transform="scale(0.015625)"/>
       <path id="TimesNewRomanPSMT-29" d="M 144 4313 
L 144 4444 
Q 619 4209 934 3891 
Q 1381 3434 1625 2820 
Q 1869 2206 1869 1541 
Q 1869 572 1392 -226 
Q 916 -1025 144 -1369 
L 144 -1253 
Q 528 -1038 776 -670 
Q 1025 -303 1145 264 
Q 1266 831 1266 1447 
Q 1266 2113 1163 2663 
Q 1084 3094 967 3353 
Q 850 3613 656 3853 
Q 463 4094 144 4313 
z
" transform="scale(0.015625)"/>
      </defs>
      <use xlink:href="#TimesNewRomanPSMT-54"/>
      <use xlink:href="#TimesNewRomanPSMT-65" transform="translate(54.083984 0)"/>
      <use xlink:href="#TimesNewRomanPSMT-6d" transform="translate(98.46875 0)"/>
      <use xlink:href="#TimesNewRomanPSMT-70" transform="translate(176.251953 0)"/>
      <use xlink:href="#TimesNewRomanPSMT-6f" transform="translate(226.251953 0)"/>
      <use xlink:href="#TimesNewRomanPSMT-20" transform="translate(276.251953 0)"/>
      <use xlink:href="#TimesNewRomanPSMT-28" transform="translate(301.251953 0)"/>
      <use xlink:href="#TimesNewRomanPSMT-73" transform="translate(334.552734 0)"/>
      <use xlink:href="#TimesNewRomanPSMT-29" transform="translate(373.46875 0)"/>
     </g>
    </g>
   </g>
   <g id="matplotlib.axis_4">
    <g id="ytick_8">
     <g id="line2d_26">
      <path d="M 56.45 395.689812 
L 254.10311 395.689812 
" clip-path="url(#p2ca10b31ce)" style="fill: none; stroke-dasharray: 0.8,1.32; stroke-dashoffset: 0; stroke: #ffffff; stroke-opacity: 0.5; stroke-width: 0.8"/>
     </g>
     <g id="text_26">
      <!-- 2.5 -->
      <g transform="translate(34.45 399.856062) scale(0.12 -0.12)">
       <use xlink:href="#TimesNewRomanPSMT-32"/>
       <use xlink:href="#TimesNewRomanPSMT-2e" transform="translate(50 0)"/>
       <use xlink:href="#TimesNewRomanPSMT-35" transform="translate(75 0)"/>
      </g>
     </g>
    </g>
    <g id="ytick_9">
     <g id="line2d_27">
      <path d="M 56.45 364.661623 
L 254.10311 364.661623 
" clip-path="url(#p2ca10b31ce)" style="fill: none; stroke-dasharray: 0.8,1.32; stroke-dashoffset: 0; stroke: #ffffff; stroke-opacity: 0.5; stroke-width: 0.8"/>
     </g>
     <g id="text_27">
      <!-- 5.0 -->
      <g transform="translate(34.45 368.827873) scale(0.12 -0.12)">
       <use xlink:href="#TimesNewRomanPSMT-35"/>
       <use xlink:href="#TimesNewRomanPSMT-2e" transform="translate(50 0)"/>
       <use xlink:href="#TimesNewRomanPSMT-30" transform="translate(75 0)"/>
      </g>
     </g>
    </g>
    <g id="ytick_10">
     <g id="line2d_28">
      <path d="M 56.45 333.633434 
L 254.10311 333.633434 
" clip-path="url(#p2ca10b31ce)" style="fill: none; stroke-dasharray: 0.8,1.32; stroke-dashoffset: 0; stroke: #ffffff; stroke-opacity: 0.5; stroke-width: 0.8"/>
     </g>
     <g id="text_28">
      <!-- 7.5 -->
      <g transform="translate(34.45 337.799684) scale(0.12 -0.12)">
       <defs>
        <path id="TimesNewRomanPSMT-37" d="M 644 4238 
L 2916 4238 
L 2916 4119 
L 1503 -88 
L 1153 -88 
L 2419 3728 
L 1253 3728 
Q 900 3728 750 3644 
Q 488 3500 328 3200 
L 238 3234 
L 644 4238 
z
" transform="scale(0.015625)"/>
       </defs>
       <use xlink:href="#TimesNewRomanPSMT-37"/>
       <use xlink:href="#TimesNewRomanPSMT-2e" transform="translate(50 0)"/>
       <use xlink:href="#TimesNewRomanPSMT-35" transform="translate(75 0)"/>
      </g>
     </g>
    </g>
    <g id="ytick_11">
     <g id="line2d_29">
      <path d="M 56.45 302.605245 
L 254.10311 302.605245 
" clip-path="url(#p2ca10b31ce)" style="fill: none; stroke-dasharray: 0.8,1.32; stroke-dashoffset: 0; stroke: #ffffff; stroke-opacity: 0.5; stroke-width: 0.8"/>
     </g>
     <g id="text_29">
      <!-- 10.0 -->
      <g transform="translate(28.45 306.771495) scale(0.12 -0.12)">
       <use xlink:href="#TimesNewRomanPSMT-31"/>
       <use xlink:href="#TimesNewRomanPSMT-30" transform="translate(50 0)"/>
       <use xlink:href="#TimesNewRomanPSMT-2e" transform="translate(100 0)"/>
       <use xlink:href="#TimesNewRomanPSMT-30" transform="translate(125 0)"/>
      </g>
     </g>
    </g>
    <g id="text_30">
     <!-- Corrente RMS -->
     <g transform="translate(21.883125 386.311506) rotate(-90) scale(0.12 -0.12)">
      <use xlink:href="#TimesNewRomanPSMT-43"/>
      <use xlink:href="#TimesNewRomanPSMT-6f" transform="translate(66.699219 0)"/>
      <use xlink:href="#TimesNewRomanPSMT-72" transform="translate(116.699219 0)"/>
      <use xlink:href="#TimesNewRomanPSMT-72" transform="translate(150 0)"/>
      <use xlink:href="#TimesNewRomanPSMT-65" transform="translate(183.300781 0)"/>
      <use xlink:href="#TimesNewRomanPSMT-6e" transform="translate(227.685547 0)"/>
      <use xlink:href="#TimesNewRomanPSMT-74" transform="translate(277.685547 0)"/>
      <use xlink:href="#TimesNewRomanPSMT-65" transform="translate(305.46875 0)"/>
      <use xlink:href="#TimesNewRomanPSMT-20" transform="translate(349.853516 0)"/>
      <use xlink:href="#TimesNewRomanPSMT-52" transform="translate(374.853516 0)"/>
      <use xlink:href="#TimesNewRomanPSMT-4d" transform="translate(441.552734 0)"/>
      <use xlink:href="#TimesNewRomanPSMT-53" transform="translate(530.46875 0)"/>
     </g>
    </g>
   </g>
   <g id="line2d_30">
    <path d="M 155.276555 302.038671 
L 155.573035 301.627555 
L 155.968341 301.430306 
L 156.85778 301.258175 
L 157.351913 301.180282 
L 158.834311 300.914403 
L 159.229617 300.534103 
L 160.02023 299.451722 
L 160.613189 298.504907 
L 161.107322 296.787754 
L 161.700281 294.926954 
L 162.095587 293.593777 
L 162.688547 290.491996 
L 164.072119 283.48615 
L 165.356864 276.080012 
L 167.531048 264.018685 
L 168.32166 260.617509 
L 169.606406 256.244106 
L 170.298191 254.878908 
L 171.18763 253.324207 
L 171.978243 252.744709 
L 172.175896 252.655616 
L 172.274723 252.740549 
L 172.670029 253.539101 
L 172.966508 253.610944 
L 173.559468 253.663811 
L 174.94304 253.687768 
L 175.634825 254.337609 
L 176.030132 254.045379 
L 176.227785 253.925413 
L 176.425438 254.049212 
L 176.623091 254.529685 
L 176.919571 255.199237 
L 177.117224 255.086279 
L 177.80901 254.600028 
L 178.994928 255.461868 
L 179.192581 255.322419 
L 179.587888 254.729694 
L 179.785541 254.898579 
L 179.983194 255.300662 
L 180.279674 256.31149 
L 180.3785 256.363404 
L 180.576153 256.126884 
L 181.070286 255.24451 
L 181.169113 255.271398 
L 181.366766 255.689331 
L 181.663245 256.37585 
L 181.959725 256.631441 
L 182.157378 256.463473 
L 182.453858 256.206127 
L 183.046817 256.192379 
L 183.83743 256.981094 
L 184.133909 256.631634 
L 184.529215 256.274523 
L 184.726869 256.497186 
L 185.122175 257.215385 
L 185.319828 257.325843 
L 185.517481 257.165729 
L 185.912787 256.787023 
L 186.209267 256.873552 
L 186.802226 257.308828 
L 188.185798 257.206177 
L 188.581104 257.337101 
L 189.174064 257.244543 
L 189.668196 257.265558 
L 190.755288 257.395318 
L 191.447074 257.356782 
L 192.040034 257.390499 
L 192.929473 257.513571 
L 193.720085 257.453458 
L 194.313044 257.843747 
L 194.609524 257.673298 
L 194.906004 257.527366 
L 195.202483 257.621061 
L 195.795443 258.015871 
L 197.080188 258.035059 
L 197.574321 258.373967 
L 197.8708 258.40044 
L 198.364933 258.147629 
L 198.661413 258.320052 
L 199.056719 258.75696 
L 199.353199 258.685517 
L 199.847331 258.491186 
L 201.03325 258.892077 
L 202.219169 259.028879 
L 202.515648 259.15562 
L 203.009781 259.010088 
L 203.405087 259.005474 
L 203.89922 259.185789 
L 204.393353 259.124482 
L 205.085139 259.133199 
L 206.271058 259.134008 
L 209.137028 259.195602 
L 215.363101 259.300613 
L 215.857233 259.319219 
L 216.351366 259.382055 
L 218.82203 259.260844 
L 226.234022 259.235398 
L 229.099992 259.324261 
L 245.604026 259.328358 
L 251.632446 259.290493 
L 254.201937 259.215514 
L 254.201937 259.215514 
" clip-path="url(#p2ca10b31ce)" style="fill: none; stroke: #0000ff; stroke-width: 1.5; stroke-linecap: round"/>
   </g>
   <g id="line2d_31">
    <path d="M 155.276555 405.422271 
L 155.770688 405.291105 
L 156.758953 405.189945 
L 157.253086 405.095841 
L 159.624924 404.938823 
L 160.415536 404.915933 
L 160.810842 404.7914 
L 161.206148 404.646992 
L 162.490894 404.414496 
L 163.18268 404.148169 
L 164.170945 403.838748 
L 164.566251 403.565193 
L 165.653343 403.179447 
L 166.542782 402.813099 
L 168.420487 402.16153 
L 168.815793 402.041376 
L 169.309926 401.802471 
L 171.879416 401.448093 
L 172.768855 401.55478 
L 173.164162 402.197901 
L 173.361815 402.386062 
L 174.251254 403.845289 
L 174.448907 404.025977 
L 174.64656 404.072878 
L 175.239519 404.641543 
L 175.832479 404.668271 
L 176.721918 404.727852 
L 177.21605 405.275061 
L 177.51253 405.319476 
L 177.80901 405.429856 
L 178.006663 405.49053 
L 178.303142 406.07323 
L 178.599622 406.562803 
L 179.390235 406.435646 
L 179.686714 406.593673 
L 180.279674 406.720603 
L 180.576153 406.818432 
L 180.971459 406.733548 
L 181.267939 406.633048 
L 181.564419 406.87739 
L 181.959725 407.560476 
L 182.849164 407.338163 
L 183.343297 407.752479 
L 184.726869 407.565498 
L 185.418654 408.001101 
L 186.209267 407.888628 
L 186.40692 408.030171 
L 186.604573 408.231574 
L 187.197532 408.165599 
L 187.988145 408.133477 
L 188.383451 408.243002 
L 188.877584 408.264442 
L 189.668196 408.338204 
L 190.162329 408.444433 
L 193.621259 408.601133 
L 194.115391 408.768406 
L 195.59779 408.73155 
L 196.289575 408.817861 
L 196.882535 408.676501 
L 197.179014 408.89628 
L 197.475494 408.990314 
L 198.46376 408.920471 
L 198.957892 408.962345 
L 200.637944 409.030217 
L 200.934424 409.080475 
L 201.725036 408.953948 
L 202.120342 409.11172 
L 216.944326 409.223967 
L 218.52555 409.230411 
L 225.14693 409.24931 
L 254.201937 409.25626 
L 254.201937 409.25626 
" clip-path="url(#p2ca10b31ce)" style="fill: none; stroke: #ff0000; stroke-width: 1.5; stroke-linecap: round"/>
   </g>
   <g id="line2d_32">
    <path d="M 155.276555 403.914801 
L 155.671861 403.860994 
L 156.363647 403.678576 
L 156.660127 403.57428 
L 157.15426 403.49619 
L 158.043699 403.19532 
L 158.340178 403.089853 
L 159.031964 402.449157 
L 159.624924 402.392356 
L 160.217883 401.823875 
L 161.008495 401.601966 
L 161.304975 401.439465 
L 161.897934 401.26421 
L 162.58972 400.8853 
L 163.083853 400.826017 
L 163.973292 400.357431 
L 164.467425 400.290922 
L 164.961558 400.09778 
L 166.443956 399.931089 
L 172.670029 399.674728 
L 172.867682 399.90589 
L 173.065335 400.32158 
L 173.757121 400.40744 
L 173.855947 400.372064 
L 174.053601 400.676637 
L 174.547733 401.82707 
L 175.239519 401.725508 
L 175.931305 402.461467 
L 176.326611 402.366945 
L 176.919571 402.421682 
L 177.51253 402.219205 
L 177.710183 402.717695 
L 177.907836 403.061386 
L 178.204316 403.099379 
L 178.698449 403.022185 
L 178.896102 403.173689 
L 179.093755 403.754313 
L 179.291408 404.23604 
L 179.489061 404.243384 
L 180.08202 404.091518 
L 180.773806 404.433514 
L 181.070286 404.369094 
L 181.762072 404.580038 
L 182.355031 404.513001 
L 182.849164 405.223433 
L 183.145644 405.312707 
L 183.442123 405.40113 
L 183.738603 405.462095 
L 184.035083 405.978584 
L 185.319828 406.117468 
L 186.505747 406.291222 
L 187.296359 406.670593 
L 187.592839 406.723882 
L 187.790492 406.756718 
L 188.284625 407.248104 
L 189.174064 407.240029 
L 189.470543 407.387525 
L 190.162329 407.330063 
L 190.458809 407.532328 
L 190.755288 407.478562 
L 191.249421 407.37664 
L 191.842381 407.970918 
L 192.534166 407.679084 
L 193.127126 408.157209 
L 193.818912 407.99449 
L 194.313044 408.066162 
L 194.807177 408.003378 
L 195.498963 408.215688 
L 195.993096 408.040603 
L 196.388402 408.360677 
L 196.586055 408.440634 
L 197.475494 408.331077 
L 197.969627 408.411431 
L 198.760239 408.39915 
L 200.73677 408.432345 
L 221.98448 408.727295 
L 223.664531 408.715662 
L 224.751623 408.721179 
L 249.062956 408.752762 
L 254.201937 408.755374 
L 254.201937 408.755374 
" clip-path="url(#p2ca10b31ce)" style="fill: none; stroke: #008000; stroke-width: 1.5; stroke-linecap: round"/>
   </g>
   <g id="patch_10">
    <path d="M 56.45 406.487057 
L 56.45 295.804705 
" style="fill: none; stroke: #000000; stroke-width: 0.8; stroke-linejoin: miter; stroke-linecap: square"/>
   </g>
   <g id="patch_11">
    <path d="M 254.10311 406.487057 
L 254.10311 295.804705 
" style="fill: none; stroke: #000000; stroke-width: 0.8; stroke-linejoin: miter; stroke-linecap: square"/>
   </g>
   <g id="patch_12">
    <path d="M 56.45 406.487057 
L 254.10311 406.487057 
" style="fill: none; stroke: #000000; stroke-width: 0.8; stroke-linejoin: miter; stroke-linecap: square"/>
   </g>
   <g id="patch_13">
    <path d="M 56.45 295.804705 
L 254.10311 295.804705 
" style="fill: none; stroke: #000000; stroke-width: 0.8; stroke-linejoin: miter; stroke-linecap: square"/>
   </g>
   <g id="text_31">
    <!-- Zoom: Pré-Evento -->
    <g transform="translate(118.202336 289.804705) scale(0.1 -0.1)">
     <defs>
      <path id="TimesNewRomanPSMT-5a" d="M 3681 4238 
L 897 256 
L 2634 256 
Q 3034 256 3248 431 
Q 3463 606 3628 1141 
L 3731 1122 
L 3531 0 
L 81 0 
L 81 116 
L 2800 3984 
L 1444 3984 
Q 1106 3984 954 3911 
Q 803 3838 723 3698 
Q 644 3559 578 3178 
L 459 3178 
L 547 4238 
L 3681 4238 
z
" transform="scale(0.015625)"/>
      <path id="TimesNewRomanPSMT-50" d="M 1313 1984 
L 1313 750 
Q 1313 350 1400 253 
Q 1519 116 1759 116 
L 1922 116 
L 1922 0 
L 106 0 
L 106 116 
L 266 116 
Q 534 116 650 291 
Q 713 388 713 750 
L 713 3488 
Q 713 3888 628 3984 
Q 506 4122 266 4122 
L 106 4122 
L 106 4238 
L 1659 4238 
Q 2228 4238 2556 4120 
Q 2884 4003 3109 3725 
Q 3334 3447 3334 3066 
Q 3334 2547 2992 2222 
Q 2650 1897 2025 1897 
Q 1872 1897 1694 1919 
Q 1516 1941 1313 1984 
z
M 1313 2163 
Q 1478 2131 1606 2115 
Q 1734 2100 1825 2100 
Q 2150 2100 2386 2351 
Q 2622 2603 2622 3003 
Q 2622 3278 2509 3514 
Q 2397 3750 2190 3867 
Q 1984 3984 1722 3984 
Q 1563 3984 1313 3925 
L 1313 2163 
z
" transform="scale(0.015625)"/>
      <path id="TimesNewRomanPSMT-e9" d="M 681 1784 
Q 678 1147 991 784 
Q 1303 422 1725 422 
Q 2006 422 2214 576 
Q 2422 731 2563 1106 
L 2659 1044 
Q 2594 616 2278 264 
Q 1963 -88 1488 -88 
Q 972 -88 605 314 
Q 238 716 238 1394 
Q 238 2128 614 2539 
Q 991 2950 1559 2950 
Q 2041 2950 2350 2633 
Q 2659 2316 2659 1784 
L 681 1784 
z
M 681 1966 
L 2006 1966 
Q 1991 2241 1941 2353 
Q 1863 2528 1708 2628 
Q 1553 2728 1384 2728 
Q 1125 2728 920 2526 
Q 716 2325 681 1966 
z
M 2172 4344 
L 1250 3266 
L 1144 3266 
L 1472 4344 
L 2172 4344 
z
" transform="scale(0.015625)"/>
      <path id="TimesNewRomanPSMT-45" d="M 1338 4006 
L 1338 2331 
L 2269 2331 
Q 2631 2331 2753 2441 
Q 2916 2584 2934 2947 
L 3050 2947 
L 3050 1472 
L 2934 1472 
Q 2891 1781 2847 1869 
Q 2791 1978 2662 2040 
Q 2534 2103 2269 2103 
L 1338 2103 
L 1338 706 
Q 1338 425 1363 364 
Q 1388 303 1450 267 
Q 1513 231 1688 231 
L 2406 231 
Q 2766 231 2928 281 
Q 3091 331 3241 478 
Q 3434 672 3638 1063 
L 3763 1063 
L 3397 0 
L 131 0 
L 131 116 
L 281 116 
Q 431 116 566 188 
Q 666 238 702 338 
Q 738 438 738 747 
L 738 3500 
Q 738 3903 656 3997 
Q 544 4122 281 4122 
L 131 4122 
L 131 4238 
L 3397 4238 
L 3444 3309 
L 3322 3309 
Q 3256 3644 3176 3769 
Q 3097 3894 2941 3959 
Q 2816 4006 2500 4006 
L 1338 4006 
z
" transform="scale(0.015625)"/>
      <path id="TimesNewRomanPSMT-76" d="M 53 2863 
L 1400 2863 
L 1400 2747 
L 1313 2747 
Q 1191 2747 1127 2687 
Q 1063 2628 1063 2528 
Q 1063 2419 1128 2269 
L 1794 688 
L 2463 2328 
Q 2534 2503 2534 2594 
Q 2534 2638 2509 2666 
Q 2475 2713 2422 2730 
Q 2369 2747 2206 2747 
L 2206 2863 
L 3141 2863 
L 3141 2747 
Q 2978 2734 2916 2681 
Q 2806 2588 2719 2369 
L 1703 -88 
L 1575 -88 
L 553 2328 
Q 484 2497 421 2570 
Q 359 2644 263 2694 
Q 209 2722 53 2747 
L 53 2863 
z
" transform="scale(0.015625)"/>
     </defs>
     <use xlink:href="#TimesNewRomanPSMT-5a"/>
     <use xlink:href="#TimesNewRomanPSMT-6f" transform="translate(61.083984 0)"/>
     <use xlink:href="#TimesNewRomanPSMT-6f" transform="translate(111.083984 0)"/>
     <use xlink:href="#TimesNewRomanPSMT-6d" transform="translate(161.083984 0)"/>
     <use xlink:href="#TimesNewRomanPSMT-3a" transform="translate(238.867188 0)"/>
     <use xlink:href="#TimesNewRomanPSMT-20" transform="translate(266.650391 0)"/>
     <use xlink:href="#TimesNewRomanPSMT-50" transform="translate(291.650391 0)"/>
     <use xlink:href="#TimesNewRomanPSMT-72" transform="translate(347.265625 0)"/>
     <use xlink:href="#TimesNewRomanPSMT-e9" transform="translate(380.566406 0)"/>
     <use xlink:href="#TimesNewRomanPSMT-2d" transform="translate(424.951172 0)"/>
     <use xlink:href="#TimesNewRomanPSMT-45" transform="translate(458.251953 0)"/>
     <use xlink:href="#TimesNewRomanPSMT-76" transform="translate(519.335938 0)"/>
     <use xlink:href="#TimesNewRomanPSMT-65" transform="translate(569.335938 0)"/>
     <use xlink:href="#TimesNewRomanPSMT-6e" transform="translate(613.720703 0)"/>
     <use xlink:href="#TimesNewRomanPSMT-74" transform="translate(663.720703 0)"/>
     <use xlink:href="#TimesNewRomanPSMT-6f" transform="translate(691.503906 0)"/>
    </g>
   </g>
  </g>
  <g id="axes_3">
   <g id="patch_14">
    <path d="M 299.62311 406.487057 
L 497.27622 406.487057 
L 497.27622 295.804705 
L 299.62311 295.804705 
z
" style="fill: #ffffff"/>
   </g>
   <g id="matplotlib.axis_5">
    <g id="xtick_12">
     <g id="line2d_33">
      <path d="M 299.62311 406.487057 
L 299.62311 295.804705 
" clip-path="url(#p26b678581a)" style="fill: none; stroke-dasharray: 0.8,1.32; stroke-dashoffset: 0; stroke: #ffffff; stroke-opacity: 0.5; stroke-width: 0.8"/>
     </g>
     <g id="text_32">
      <!-- 0.000 -->
      <g transform="translate(286.12311 421.819557) scale(0.12 -0.12)">
       <use xlink:href="#TimesNewRomanPSMT-30"/>
       <use xlink:href="#TimesNewRomanPSMT-2e" transform="translate(50 0)"/>
       <use xlink:href="#TimesNewRomanPSMT-30" transform="translate(75 0)"/>
       <use xlink:href="#TimesNewRomanPSMT-30" transform="translate(125 0)"/>
       <use xlink:href="#TimesNewRomanPSMT-30" transform="translate(175 0)"/>
      </g>
     </g>
    </g>
    <g id="xtick_13">
     <g id="line2d_34">
      <path d="M 345.144324 406.487057 
L 345.144324 295.804705 
" clip-path="url(#p26b678581a)" style="fill: none; stroke-dasharray: 0.8,1.32; stroke-dashoffset: 0; stroke: #ffffff; stroke-opacity: 0.5; stroke-width: 0.8"/>
     </g>
     <g id="text_33">
      <!-- 0.025 -->
      <g transform="translate(331.644324 421.819557) scale(0.12 -0.12)">
       <use xlink:href="#TimesNewRomanPSMT-30"/>
       <use xlink:href="#TimesNewRomanPSMT-2e" transform="translate(50 0)"/>
       <use xlink:href="#TimesNewRomanPSMT-30" transform="translate(75 0)"/>
       <use xlink:href="#TimesNewRomanPSMT-32" transform="translate(125 0)"/>
       <use xlink:href="#TimesNewRomanPSMT-35" transform="translate(175 0)"/>
      </g>
     </g>
    </g>
    <g id="xtick_14">
     <g id="line2d_35">
      <path d="M 390.665538 406.487057 
L 390.665538 295.804705 
" clip-path="url(#p26b678581a)" style="fill: none; stroke-dasharray: 0.8,1.32; stroke-dashoffset: 0; stroke: #ffffff; stroke-opacity: 0.5; stroke-width: 0.8"/>
     </g>
     <g id="text_34">
      <!-- 0.050 -->
      <g transform="translate(377.165538 421.819557) scale(0.12 -0.12)">
       <use xlink:href="#TimesNewRomanPSMT-30"/>
       <use xlink:href="#TimesNewRomanPSMT-2e" transform="translate(50 0)"/>
       <use xlink:href="#TimesNewRomanPSMT-30" transform="translate(75 0)"/>
       <use xlink:href="#TimesNewRomanPSMT-35" transform="translate(125 0)"/>
       <use xlink:href="#TimesNewRomanPSMT-30" transform="translate(175 0)"/>
      </g>
     </g>
    </g>
    <g id="xtick_15">
     <g id="line2d_36">
      <path d="M 436.186752 406.487057 
L 436.186752 295.804705 
" clip-path="url(#p26b678581a)" style="fill: none; stroke-dasharray: 0.8,1.32; stroke-dashoffset: 0; stroke: #ffffff; stroke-opacity: 0.5; stroke-width: 0.8"/>
     </g>
     <g id="text_35">
      <!-- 0.075 -->
      <g transform="translate(422.686752 421.819557) scale(0.12 -0.12)">
       <use xlink:href="#TimesNewRomanPSMT-30"/>
       <use xlink:href="#TimesNewRomanPSMT-2e" transform="translate(50 0)"/>
       <use xlink:href="#TimesNewRomanPSMT-30" transform="translate(75 0)"/>
       <use xlink:href="#TimesNewRomanPSMT-37" transform="translate(125 0)"/>
       <use xlink:href="#TimesNewRomanPSMT-35" transform="translate(175 0)"/>
      </g>
     </g>
    </g>
    <g id="xtick_16">
     <g id="line2d_37">
      <path d="M 481.707965 406.487057 
L 481.707965 295.804705 
" clip-path="url(#p26b678581a)" style="fill: none; stroke-dasharray: 0.8,1.32; stroke-dashoffset: 0; stroke: #ffffff; stroke-opacity: 0.5; stroke-width: 0.8"/>
     </g>
     <g id="text_36">
      <!-- 0.100 -->
      <g transform="translate(468.207965 421.819557) scale(0.12 -0.12)">
       <use xlink:href="#TimesNewRomanPSMT-30"/>
       <use xlink:href="#TimesNewRomanPSMT-2e" transform="translate(50 0)"/>
       <use xlink:href="#TimesNewRomanPSMT-31" transform="translate(75 0)"/>
       <use xlink:href="#TimesNewRomanPSMT-30" transform="translate(125 0)"/>
       <use xlink:href="#TimesNewRomanPSMT-30" transform="translate(175 0)"/>
      </g>
     </g>
    </g>
    <g id="text_37">
     <!-- Tempo (s) -->
     <g transform="translate(374.043728 436.718932) scale(0.12 -0.12)">
      <use xlink:href="#TimesNewRomanPSMT-54"/>
      <use xlink:href="#TimesNewRomanPSMT-65" transform="translate(54.083984 0)"/>
      <use xlink:href="#TimesNewRomanPSMT-6d" transform="translate(98.46875 0)"/>
      <use xlink:href="#TimesNewRomanPSMT-70" transform="translate(176.251953 0)"/>
      <use xlink:href="#TimesNewRomanPSMT-6f" transform="translate(226.251953 0)"/>
      <use xlink:href="#TimesNewRomanPSMT-20" transform="translate(276.251953 0)"/>
      <use xlink:href="#TimesNewRomanPSMT-28" transform="translate(301.251953 0)"/>
      <use xlink:href="#TimesNewRomanPSMT-73" transform="translate(334.552734 0)"/>
      <use xlink:href="#TimesNewRomanPSMT-29" transform="translate(373.46875 0)"/>
     </g>
    </g>
   </g>
   <g id="matplotlib.axis_6">
    <g id="ytick_12">
     <g id="line2d_38">
      <path d="M 299.62311 406.487057 
L 497.27622 406.487057 
" clip-path="url(#p26b678581a)" style="fill: none; stroke-dasharray: 0.8,1.32; stroke-dashoffset: 0; stroke: #ffffff; stroke-opacity: 0.5; stroke-width: 0.8"/>
     </g>
     <g id="text_38">
      <!-- 0 -->
      <g transform="translate(286.62311 410.653307) scale(0.12 -0.12)">
       <use xlink:href="#TimesNewRomanPSMT-30"/>
      </g>
     </g>
    </g>
    <g id="ytick_13">
     <g id="line2d_39">
      <path d="M 299.62311 370.614099 
L 497.27622 370.614099 
" clip-path="url(#p26b678581a)" style="fill: none; stroke-dasharray: 0.8,1.32; stroke-dashoffset: 0; stroke: #ffffff; stroke-opacity: 0.5; stroke-width: 0.8"/>
     </g>
     <g id="text_39">
      <!-- 5 -->
      <g transform="translate(286.62311 374.780349) scale(0.12 -0.12)">
       <use xlink:href="#TimesNewRomanPSMT-35"/>
      </g>
     </g>
    </g>
    <g id="ytick_14">
     <g id="line2d_40">
      <path d="M 299.62311 334.741141 
L 497.27622 334.741141 
" clip-path="url(#p26b678581a)" style="fill: none; stroke-dasharray: 0.8,1.32; stroke-dashoffset: 0; stroke: #ffffff; stroke-opacity: 0.5; stroke-width: 0.8"/>
     </g>
     <g id="text_40">
      <!-- 10 -->
      <g transform="translate(280.62311 338.907391) scale(0.12 -0.12)">
       <use xlink:href="#TimesNewRomanPSMT-31"/>
       <use xlink:href="#TimesNewRomanPSMT-30" transform="translate(50 0)"/>
      </g>
     </g>
    </g>
    <g id="ytick_15">
     <g id="line2d_41">
      <path d="M 299.62311 298.868183 
L 497.27622 298.868183 
" clip-path="url(#p26b678581a)" style="fill: none; stroke-dasharray: 0.8,1.32; stroke-dashoffset: 0; stroke: #ffffff; stroke-opacity: 0.5; stroke-width: 0.8"/>
     </g>
     <g id="text_41">
      <!-- 15 -->
      <g transform="translate(280.62311 303.034433) scale(0.12 -0.12)">
       <use xlink:href="#TimesNewRomanPSMT-31"/>
       <use xlink:href="#TimesNewRomanPSMT-35" transform="translate(50 0)"/>
      </g>
     </g>
    </g>
   </g>
   <g id="line2d_42">
    <path d="M 299.62311 334.413622 
L 299.98728 334.132345 
L 300.442492 334.055928 
L 301.170832 333.941611 
L 302.445425 333.840514 
L 303.082722 333.669849 
L 303.993147 332.918183 
L 304.539401 332.370857 
L 305.085656 331.160869 
L 305.63191 330.146061 
L 306.087123 329.007158 
L 309.182565 318.377311 
L 310.092989 315.086914 
L 312.278008 309.069698 
L 313.006347 307.682488 
L 314.280941 306.25323 
L 315.100323 305.885236 
L 315.282408 305.915834 
L 315.73762 306.413016 
L 317.103256 306.460673 
L 317.831596 306.525449 
L 318.37785 306.839047 
L 319.10619 306.672334 
L 319.379317 307.141075 
L 319.561402 307.337129 
L 319.925572 307.170355 
L 320.289741 306.960591 
L 320.927038 307.276046 
L 321.291208 307.47404 
L 321.655378 307.408337 
L 322.019547 307.0657 
L 322.292675 307.248518 
L 322.838929 307.966647 
L 323.476226 307.378843 
L 323.658311 307.620438 
L 323.931438 308.017294 
L 324.204566 308.165044 
L 324.477693 307.986764 
L 324.932905 307.842719 
L 325.206032 307.911235 
L 325.934372 308.367168 
L 326.662711 307.991375 
L 327.300008 308.566457 
L 327.573135 308.398399 
L 327.846263 308.254981 
L 328.210432 308.358885 
L 328.665645 308.556621 
L 330.031281 308.534182 
L 330.577536 308.559218 
L 331.396917 308.544134 
L 332.580469 308.608913 
L 333.672978 308.627886 
L 334.583402 308.628938 
L 334.947572 308.59704 
L 335.675912 308.851832 
L 336.313209 308.706116 
L 337.314675 308.93583 
L 337.678845 308.9133 
L 338.2251 309.027258 
L 338.771354 309.200778 
L 339.590736 309.14118 
L 340.045948 309.392692 
L 340.86533 309.3061 
L 341.411584 309.472148 
L 342.230966 309.446258 
L 342.777221 309.514711 
L 343.232433 309.619385 
L 344.051815 309.568833 
L 344.598069 309.643672 
L 345.690579 309.618868 
L 351.244167 309.706243 
L 351.881464 309.658545 
L 352.336676 309.711838 
L 352.88293 309.727354 
L 353.61127 309.709149 
L 356.069415 309.738497 
L 356.797755 309.701744 
L 357.708179 309.694155 
L 359.802155 309.654987 
L 389.208859 309.685515 
L 394.671405 309.66499 
L 403.229393 309.708109 
L 410.057575 309.668996 
L 418.797648 309.701445 
L 425.079575 309.666472 
L 433.910691 309.702435 
L 440.738873 309.674775 
L 448.568522 309.71252 
L 456.034001 309.676967 
L 463.772607 309.71194 
L 471.238086 309.677544 
L 478.976693 309.711331 
L 486.533214 309.679828 
L 494.089736 309.712513 
L 497.367263 309.654933 
L 497.367263 309.654933 
" clip-path="url(#p26b678581a)" style="fill: none; stroke: #0000ff; stroke-width: 1.5; stroke-linecap: round"/>
   </g>
   <g id="line2d_43">
    <path d="M 299.62311 394.176625 
L 300.260407 394.099038 
L 304.539401 393.866753 
L 305.449826 393.714526 
L 306.269207 393.59406 
L 307.725886 393.319625 
L 308.272141 393.087973 
L 309.455692 392.801088 
L 313.279474 392.007438 
L 315.37345 391.868664 
L 315.73762 391.940943 
L 316.10179 392.312712 
L 316.374917 392.502852 
L 317.285341 393.369469 
L 317.558468 393.466906 
L 318.013681 393.725309 
L 318.924105 393.743211 
L 319.470359 393.846236 
L 319.925572 394.085835 
L 320.562869 394.216083 
L 320.927038 394.70499 
L 321.109123 394.835933 
L 321.928505 394.808345 
L 322.292675 394.873488 
L 322.838929 394.980927 
L 323.385184 394.909392 
L 323.658311 394.904278 
L 323.840396 395.017786 
L 324.204566 395.412658 
L 325.11499 395.34076 
L 325.388117 395.524125 
L 326.480626 395.428522 
L 326.753754 395.415561 
L 327.482093 395.651556 
L 328.11939 395.602353 
L 329.029814 395.762462 
L 329.940239 395.755261 
L 330.577536 395.8196 
L 331.85213 395.925081 
L 337.49676 396.119087 
L 338.043015 396.08238 
L 338.498227 396.239205 
L 339.863863 396.223037 
L 342.686178 396.29887 
L 343.323475 396.262974 
L 348.694979 396.345357 
L 351.790421 396.377795 
L 360.803622 396.383113 
L 368.178058 396.401851 
L 374.642071 396.396979 
L 389.755114 396.394966 
L 431.179418 396.402092 
L 497.367263 396.393327 
L 497.367263 396.393327 
" clip-path="url(#p26b678581a)" style="fill: none; stroke: #ff0000; stroke-width: 1.5; stroke-linecap: round"/>
   </g>
   <g id="line2d_44">
    <path d="M 299.62311 393.305201 
L 300.169365 393.266489 
L 300.715619 393.131387 
L 302.62751 392.702899 
L 303.082722 392.457955 
L 303.720019 392.359549 
L 304.175232 392.096499 
L 305.358783 391.855363 
L 305.905038 391.679283 
L 306.269207 391.559467 
L 306.997547 391.431909 
L 307.543801 391.252371 
L 308.454226 391.116916 
L 309.455692 391.015008 
L 315.73762 390.889866 
L 316.192832 391.239819 
L 316.921171 391.433314 
L 317.376384 392.098345 
L 318.013681 392.039635 
L 318.74202 392.441196 
L 319.10619 392.423313 
L 320.198699 392.423707 
L 320.471826 392.811867 
L 320.835996 392.820542 
L 321.473293 392.995491 
L 321.74642 393.4909 
L 322.019547 393.472739 
L 322.565802 393.443579 
L 323.203099 393.578963 
L 323.567269 393.600467 
L 324.386651 393.643944 
L 324.568735 393.651003 
L 325.11499 394.062482 
L 325.843329 394.199646 
L 326.207499 394.499635 
L 327.391051 394.582455 
L 329.576069 394.948029 
L 330.122323 395.22796 
L 330.850663 395.227417 
L 331.214833 395.304284 
L 331.761087 395.279463 
L 332.125257 395.398565 
L 332.853596 395.368627 
L 333.399851 395.625878 
L 333.946105 395.481222 
L 334.49236 395.757612 
L 335.220699 395.680467 
L 335.493827 395.726896 
L 336.040081 395.668687 
L 336.768421 395.761322 
L 337.223633 395.719594 
L 337.769887 395.907547 
L 338.498227 395.85812 
L 339.044481 395.896667 
L 340.410118 395.868763 
L 341.957839 395.949046 
L 344.871197 395.981458 
L 346.783088 395.980448 
L 347.693512 396.000426 
L 419.708072 396.101253 
L 497.367263 396.104151 
L 497.367263 396.104151 
" clip-path="url(#p26b678581a)" style="fill: none; stroke: #008000; stroke-width: 1.5; stroke-linecap: round"/>
   </g>
   <g id="line2d_45">
    <path d="M 315.191365 406.487057 
L 315.191365 295.804705 
" clip-path="url(#p26b678581a)" style="fill: none; stroke-dasharray: 5.55,2.4; stroke-dashoffset: 0; stroke: #ff0000; stroke-opacity: 0.7; stroke-width: 1.5"/>
   </g>
   <g id="patch_15">
    <path d="M 299.62311 406.487057 
L 299.62311 295.804705 
" style="fill: none; stroke: #000000; stroke-width: 0.8; stroke-linejoin: miter; stroke-linecap: square"/>
   </g>
   <g id="patch_16">
    <path d="M 497.27622 406.487057 
L 497.27622 295.804705 
" style="fill: none; stroke: #000000; stroke-width: 0.8; stroke-linejoin: miter; stroke-linecap: square"/>
   </g>
   <g id="patch_17">
    <path d="M 299.62311 406.487057 
L 497.27622 406.487057 
" style="fill: none; stroke: #000000; stroke-width: 0.8; stroke-linejoin: miter; stroke-linecap: square"/>
   </g>
   <g id="patch_18">
    <path d="M 299.62311 295.804705 
L 497.27622 295.804705 
" style="fill: none; stroke: #000000; stroke-width: 0.8; stroke-linejoin: miter; stroke-linecap: square"/>
   </g>
   <g id="text_42">
    <!-- Zoom: Evento Principal -->
    <g transform="translate(350.403572 289.804705) scale(0.1 -0.1)">
     <defs>
      <path id="TimesNewRomanPSMT-63" d="M 2631 1088 
Q 2516 522 2178 217 
Q 1841 -88 1431 -88 
Q 944 -88 581 321 
Q 219 731 219 1428 
Q 219 2103 620 2525 
Q 1022 2947 1584 2947 
Q 2006 2947 2278 2723 
Q 2550 2500 2550 2259 
Q 2550 2141 2473 2067 
Q 2397 1994 2259 1994 
Q 2075 1994 1981 2113 
Q 1928 2178 1911 2362 
Q 1894 2547 1784 2644 
Q 1675 2738 1481 2738 
Q 1169 2738 978 2506 
Q 725 2200 725 1697 
Q 725 1184 976 792 
Q 1228 400 1656 400 
Q 1963 400 2206 609 
Q 2378 753 2541 1131 
L 2631 1088 
z
" transform="scale(0.015625)"/>
     </defs>
     <use xlink:href="#TimesNewRomanPSMT-5a"/>
     <use xlink:href="#TimesNewRomanPSMT-6f" transform="translate(61.083984 0)"/>
     <use xlink:href="#TimesNewRomanPSMT-6f" transform="translate(111.083984 0)"/>
     <use xlink:href="#TimesNewRomanPSMT-6d" transform="translate(161.083984 0)"/>
     <use xlink:href="#TimesNewRomanPSMT-3a" transform="translate(238.867188 0)"/>
     <use xlink:href="#TimesNewRomanPSMT-20" transform="translate(266.650391 0)"/>
     <use xlink:href="#TimesNewRomanPSMT-45" transform="translate(291.650391 0)"/>
     <use xlink:href="#TimesNewRomanPSMT-76" transform="translate(352.734375 0)"/>
     <use xlink:href="#TimesNewRomanPSMT-65" transform="translate(402.734375 0)"/>
     <use xlink:href="#TimesNewRomanPSMT-6e" transform="translate(447.119141 0)"/>
     <use xlink:href="#TimesNewRomanPSMT-74" transform="translate(497.119141 0)"/>
     <use xlink:href="#TimesNewRomanPSMT-6f" transform="translate(524.902344 0)"/>
     <use xlink:href="#TimesNewRomanPSMT-20" transform="translate(574.902344 0)"/>
     <use xlink:href="#TimesNewRomanPSMT-50" transform="translate(599.902344 0)"/>
     <use xlink:href="#TimesNewRomanPSMT-72" transform="translate(655.517578 0)"/>
     <use xlink:href="#TimesNewRomanPSMT-69" transform="translate(688.818359 0)"/>
     <use xlink:href="#TimesNewRomanPSMT-6e" transform="translate(716.601562 0)"/>
     <use xlink:href="#TimesNewRomanPSMT-63" transform="translate(766.601562 0)"/>
     <use xlink:href="#TimesNewRomanPSMT-69" transform="translate(810.986328 0)"/>
     <use xlink:href="#TimesNewRomanPSMT-70" transform="translate(838.769531 0)"/>
     <use xlink:href="#TimesNewRomanPSMT-61" transform="translate(888.769531 0)"/>
     <use xlink:href="#TimesNewRomanPSMT-6c" transform="translate(933.154297 0)"/>
    </g>
   </g>
  </g>
 </g>
 <defs>
  <clipPath id="p2ab7542d95">
   <rect x="56.45" y="29.04" width="440.82622" height="221.364705"/>
  </clipPath>
  <clipPath id="p2ca10b31ce">
   <rect x="56.45" y="295.804705" width="197.65311" height="110.682352"/>
  </clipPath>
  <clipPath id="p26b678581a">
   <rect x="299.62311" y="295.804705" width="197.65311" height="110.682352"/>
  </clipPath>
 </defs>
</svg>
