<?xml version="1.0" encoding="utf-8" standalone="no"?>
<!DOCTYPE svg PUBLIC "-//W3C//DTD SVG 1.1//EN"
  "http://www.w3.org/Graphics/SVG/1.1/DTD/svg11.dtd">
<svg xmlns:xlink="http://www.w3.org/1999/xlink" width="453.543307pt" height="283.464567pt" viewBox="0 0 453.543307 283.464567" xmlns="http://www.w3.org/2000/svg" version="1.1">
 <metadata>
  <rdf:RDF xmlns:dc="http://purl.org/dc/elements/1.1/" xmlns:cc="http://creativecommons.org/ns#" xmlns:rdf="http://www.w3.org/1999/02/22-rdf-syntax-ns#">
   <cc:Work>
    <dc:type rdf:resource="http://purl.org/dc/dcmitype/StillImage"/>
    <dc:date>2026-01-19T14:13:16.596391</dc:date>
    <dc:format>image/svg+xml</dc:format>
    <dc:creator>
     <cc:Agent>
      <dc:title>Matplotlib v3.10.6, https://matplotlib.org/</dc:title>
     </cc:Agent>
    </dc:creator>
   </cc:Work>
  </rdf:RDF>
 </metadata>
 <defs>
  <style type="text/css">*{stroke-linejoin: round; stroke-linecap: butt}</style>
 </defs>
 <g id="figure_1">
  <g id="patch_1">
   <path d="M 0 283.464567 
L 453.543307 283.464567 
L 453.543307 0 
L 0 0 
z
" style="fill: #ffffff"/>
  </g>
  <g id="axes_1">
   <g id="patch_2">
    <path d="M 65.63 236.408317 
L 440.583307 236.408317 
L 440.583307 29.04 
L 65.63 29.04 
z
" style="fill: #ffffff"/>
   </g>
   <g id="matplotlib.axis_1">
    <g id="xtick_1">
     <g id="line2d_1">
      <path d="M 82.673332 236.408317 
L 82.673332 29.04 
" clip-path="url(#p77055718f3)" style="fill: none; stroke-dasharray: 2.96,1.28; stroke-dashoffset: 0; stroke: #ffffff; stroke-opacity: 0.6; stroke-width: 0.8"/>
     </g>
     <g id="text_1">
      <!-- 0.0 -->
      <g transform="translate(75.173332 251.740817) scale(0.12 -0.12)">
       <defs>
        <path id="TimesNewRomanPSMT-30" d="M 231 2094 
Q 231 2819 450 3342 
Q 669 3866 1031 4122 
Q 1313 4325 1613 4325 
Q 2100 4325 2488 3828 
Q 2972 3213 2972 2159 
Q 2972 1422 2759 906 
Q 2547 391 2217 158 
Q 1888 -75 1581 -75 
Q 975 -75 572 641 
Q 231 1244 231 2094 
z
M 844 2016 
Q 844 1141 1059 588 
Q 1238 122 1591 122 
Q 1759 122 1940 273 
Q 2122 425 2216 781 
Q 2359 1319 2359 2297 
Q 2359 3022 2209 3506 
Q 2097 3866 1919 4016 
Q 1791 4119 1609 4119 
Q 1397 4119 1231 3928 
Q 1006 3669 925 3112 
Q 844 2556 844 2016 
z
" transform="scale(0.015625)"/>
        <path id="TimesNewRomanPSMT-2e" d="M 800 606 
Q 947 606 1047 504 
Q 1147 403 1147 259 
Q 1147 116 1045 14 
Q 944 -88 800 -88 
Q 656 -88 554 14 
Q 453 116 453 259 
Q 453 406 554 506 
Q 656 606 800 606 
z
" transform="scale(0.015625)"/>
       </defs>
       <use xlink:href="#TimesNewRomanPSMT-30"/>
       <use xlink:href="#TimesNewRomanPSMT-2e" transform="translate(50 0)"/>
       <use xlink:href="#TimesNewRomanPSMT-30" transform="translate(75 0)"/>
      </g>
     </g>
    </g>
    <g id="xtick_2">
     <g id="line2d_2">
      <path d="M 150.846661 236.408317 
L 150.846661 29.04 
" clip-path="url(#p77055718f3)" style="fill: none; stroke-dasharray: 2.96,1.28; stroke-dashoffset: 0; stroke: #ffffff; stroke-opacity: 0.6; stroke-width: 0.8"/>
     </g>
     <g id="text_2">
      <!-- 0.1 -->
      <g transform="translate(143.346661 251.740817) scale(0.12 -0.12)">
       <defs>
        <path id="TimesNewRomanPSMT-31" d="M 750 3822 
L 1781 4325 
L 1884 4325 
L 1884 747 
Q 1884 391 1914 303 
Q 1944 216 2037 169 
Q 2131 122 2419 116 
L 2419 0 
L 825 0 
L 825 116 
Q 1125 122 1212 167 
Q 1300 213 1334 289 
Q 1369 366 1369 747 
L 1369 3034 
Q 1369 3497 1338 3628 
Q 1316 3728 1258 3775 
Q 1200 3822 1119 3822 
Q 1003 3822 797 3725 
L 750 3822 
z
" transform="scale(0.015625)"/>
       </defs>
       <use xlink:href="#TimesNewRomanPSMT-30"/>
       <use xlink:href="#TimesNewRomanPSMT-2e" transform="translate(50 0)"/>
       <use xlink:href="#TimesNewRomanPSMT-31" transform="translate(75 0)"/>
      </g>
     </g>
    </g>
    <g id="xtick_3">
     <g id="line2d_3">
      <path d="M 219.019989 236.408317 
L 219.019989 29.04 
" clip-path="url(#p77055718f3)" style="fill: none; stroke-dasharray: 2.96,1.28; stroke-dashoffset: 0; stroke: #ffffff; stroke-opacity: 0.6; stroke-width: 0.8"/>
     </g>
     <g id="text_3">
      <!-- 0.2 -->
      <g transform="translate(211.519989 251.740817) scale(0.12 -0.12)">
       <defs>
        <path id="TimesNewRomanPSMT-32" d="M 2934 816 
L 2638 0 
L 138 0 
L 138 116 
Q 1241 1122 1691 1759 
Q 2141 2397 2141 2925 
Q 2141 3328 1894 3587 
Q 1647 3847 1303 3847 
Q 991 3847 742 3664 
Q 494 3481 375 3128 
L 259 3128 
Q 338 3706 661 4015 
Q 984 4325 1469 4325 
Q 1984 4325 2329 3994 
Q 2675 3663 2675 3213 
Q 2675 2891 2525 2569 
Q 2294 2063 1775 1497 
Q 997 647 803 472 
L 1909 472 
Q 2247 472 2383 497 
Q 2519 522 2628 598 
Q 2738 675 2819 816 
L 2934 816 
z
" transform="scale(0.015625)"/>
       </defs>
       <use xlink:href="#TimesNewRomanPSMT-30"/>
       <use xlink:href="#TimesNewRomanPSMT-2e" transform="translate(50 0)"/>
       <use xlink:href="#TimesNewRomanPSMT-32" transform="translate(75 0)"/>
      </g>
     </g>
    </g>
    <g id="xtick_4">
     <g id="line2d_4">
      <path d="M 287.193318 236.408317 
L 287.193318 29.04 
" clip-path="url(#p77055718f3)" style="fill: none; stroke-dasharray: 2.96,1.28; stroke-dashoffset: 0; stroke: #ffffff; stroke-opacity: 0.6; stroke-width: 0.8"/>
     </g>
     <g id="text_4">
      <!-- 0.3 -->
      <g transform="translate(279.693318 251.740817) scale(0.12 -0.12)">
       <defs>
        <path id="TimesNewRomanPSMT-33" d="M 325 3431 
Q 506 3859 782 4092 
Q 1059 4325 1472 4325 
Q 1981 4325 2253 3994 
Q 2459 3747 2459 3466 
Q 2459 3003 1878 2509 
Q 2269 2356 2469 2072 
Q 2669 1788 2669 1403 
Q 2669 853 2319 450 
Q 1863 -75 997 -75 
Q 569 -75 414 31 
Q 259 138 259 259 
Q 259 350 332 419 
Q 406 488 509 488 
Q 588 488 669 463 
Q 722 447 909 348 
Q 1097 250 1169 231 
Q 1284 197 1416 197 
Q 1734 197 1970 444 
Q 2206 691 2206 1028 
Q 2206 1275 2097 1509 
Q 2016 1684 1919 1775 
Q 1784 1900 1550 2001 
Q 1316 2103 1072 2103 
L 972 2103 
L 972 2197 
Q 1219 2228 1467 2375 
Q 1716 2522 1828 2728 
Q 1941 2934 1941 3181 
Q 1941 3503 1739 3701 
Q 1538 3900 1238 3900 
Q 753 3900 428 3381 
L 325 3431 
z
" transform="scale(0.015625)"/>
       </defs>
       <use xlink:href="#TimesNewRomanPSMT-30"/>
       <use xlink:href="#TimesNewRomanPSMT-2e" transform="translate(50 0)"/>
       <use xlink:href="#TimesNewRomanPSMT-33" transform="translate(75 0)"/>
      </g>
     </g>
    </g>
    <g id="xtick_5">
     <g id="line2d_5">
      <path d="M 355.366646 236.408317 
L 355.366646 29.04 
" clip-path="url(#p77055718f3)" style="fill: none; stroke-dasharray: 2.96,1.28; stroke-dashoffset: 0; stroke: #ffffff; stroke-opacity: 0.6; stroke-width: 0.8"/>
     </g>
     <g id="text_5">
      <!-- 0.4 -->
      <g transform="translate(347.866646 251.740817) scale(0.12 -0.12)">
       <defs>
        <path id="TimesNewRomanPSMT-34" d="M 2978 1563 
L 2978 1119 
L 2409 1119 
L 2409 0 
L 1894 0 
L 1894 1119 
L 100 1119 
L 100 1519 
L 2066 4325 
L 2409 4325 
L 2409 1563 
L 2978 1563 
z
M 1894 1563 
L 1894 3666 
L 406 1563 
L 1894 1563 
z
" transform="scale(0.015625)"/>
       </defs>
       <use xlink:href="#TimesNewRomanPSMT-30"/>
       <use xlink:href="#TimesNewRomanPSMT-2e" transform="translate(50 0)"/>
       <use xlink:href="#TimesNewRomanPSMT-34" transform="translate(75 0)"/>
      </g>
     </g>
    </g>
    <g id="xtick_6">
     <g id="line2d_6">
      <path d="M 423.539975 236.408317 
L 423.539975 29.04 
" clip-path="url(#p77055718f3)" style="fill: none; stroke-dasharray: 2.96,1.28; stroke-dashoffset: 0; stroke: #ffffff; stroke-opacity: 0.6; stroke-width: 0.8"/>
     </g>
     <g id="text_6">
      <!-- 0.5 -->
      <g transform="translate(416.039975 251.740817) scale(0.12 -0.12)">
       <defs>
        <path id="TimesNewRomanPSMT-35" d="M 2778 4238 
L 2534 3706 
L 1259 3706 
L 981 3138 
Q 1809 3016 2294 2522 
Q 2709 2097 2709 1522 
Q 2709 1188 2573 903 
Q 2438 619 2231 419 
Q 2025 219 1772 97 
Q 1413 -75 1034 -75 
Q 653 -75 479 54 
Q 306 184 306 341 
Q 306 428 378 495 
Q 450 563 559 563 
Q 641 563 702 538 
Q 763 513 909 409 
Q 1144 247 1384 247 
Q 1750 247 2026 523 
Q 2303 800 2303 1197 
Q 2303 1581 2056 1914 
Q 1809 2247 1375 2428 
Q 1034 2569 447 2591 
L 1259 4238 
L 2778 4238 
z
" transform="scale(0.015625)"/>
       </defs>
       <use xlink:href="#TimesNewRomanPSMT-30"/>
       <use xlink:href="#TimesNewRomanPSMT-2e" transform="translate(50 0)"/>
       <use xlink:href="#TimesNewRomanPSMT-35" transform="translate(75 0)"/>
      </g>
     </g>
    </g>
    <g id="text_7">
     <!-- Tempo (s) -->
     <g transform="translate(228.700716 266.640192) scale(0.12 -0.12)">
      <defs>
       <path id="TimesNewRomanPSMT-54" d="M 3703 4238 
L 3750 3244 
L 3631 3244 
Q 3597 3506 3538 3619 
Q 3441 3800 3280 3886 
Q 3119 3972 2856 3972 
L 2259 3972 
L 2259 734 
Q 2259 344 2344 247 
Q 2463 116 2709 116 
L 2856 116 
L 2856 0 
L 1059 0 
L 1059 116 
L 1209 116 
Q 1478 116 1591 278 
Q 1659 378 1659 734 
L 1659 3972 
L 1150 3972 
Q 853 3972 728 3928 
Q 566 3869 450 3700 
Q 334 3531 313 3244 
L 194 3244 
L 244 4238 
L 3703 4238 
z
" transform="scale(0.015625)"/>
       <path id="TimesNewRomanPSMT-65" d="M 681 1784 
Q 678 1147 991 784 
Q 1303 422 1725 422 
Q 2006 422 2214 576 
Q 2422 731 2563 1106 
L 2659 1044 
Q 2594 616 2278 264 
Q 1963 -88 1488 -88 
Q 972 -88 605 314 
Q 238 716 238 1394 
Q 238 2128 614 2539 
Q 991 2950 1559 2950 
Q 2041 2950 2350 2633 
Q 2659 2316 2659 1784 
L 681 1784 
z
M 681 1966 
L 2006 1966 
Q 1991 2241 1941 2353 
Q 1863 2528 1708 2628 
Q 1553 2728 1384 2728 
Q 1125 2728 920 2526 
Q 716 2325 681 1966 
z
" transform="scale(0.015625)"/>
       <path id="TimesNewRomanPSMT-6d" d="M 1050 2338 
Q 1363 2650 1419 2697 
Q 1559 2816 1721 2881 
Q 1884 2947 2044 2947 
Q 2313 2947 2506 2790 
Q 2700 2634 2766 2338 
Q 3088 2713 3309 2830 
Q 3531 2947 3766 2947 
Q 3994 2947 4170 2830 
Q 4347 2713 4450 2447 
Q 4519 2266 4519 1878 
L 4519 647 
Q 4519 378 4559 278 
Q 4591 209 4675 161 
Q 4759 113 4950 113 
L 4950 0 
L 3538 0 
L 3538 113 
L 3597 113 
Q 3781 113 3884 184 
Q 3956 234 3988 344 
Q 4000 397 4000 647 
L 4000 1878 
Q 4000 2228 3916 2372 
Q 3794 2572 3525 2572 
Q 3359 2572 3192 2489 
Q 3025 2406 2788 2181 
L 2781 2147 
L 2788 2013 
L 2788 647 
Q 2788 353 2820 281 
Q 2853 209 2943 161 
Q 3034 113 3253 113 
L 3253 0 
L 1806 0 
L 1806 113 
Q 2044 113 2133 169 
Q 2222 225 2256 338 
Q 2272 391 2272 647 
L 2272 1878 
Q 2272 2228 2169 2381 
Q 2031 2581 1784 2581 
Q 1616 2581 1450 2491 
Q 1191 2353 1050 2181 
L 1050 647 
Q 1050 366 1089 281 
Q 1128 197 1204 155 
Q 1281 113 1516 113 
L 1516 0 
L 100 0 
L 100 113 
Q 297 113 375 155 
Q 453 197 493 289 
Q 534 381 534 647 
L 534 1741 
Q 534 2213 506 2350 
Q 484 2453 437 2492 
Q 391 2531 309 2531 
Q 222 2531 100 2484 
L 53 2597 
L 916 2947 
L 1050 2947 
L 1050 2338 
z
" transform="scale(0.015625)"/>
       <path id="TimesNewRomanPSMT-70" d="M -6 2578 
L 875 2934 
L 994 2934 
L 994 2266 
Q 1216 2644 1439 2795 
Q 1663 2947 1909 2947 
Q 2341 2947 2628 2609 
Q 2981 2197 2981 1534 
Q 2981 794 2556 309 
Q 2206 -88 1675 -88 
Q 1444 -88 1275 -22 
Q 1150 25 994 166 
L 994 -706 
Q 994 -1000 1030 -1079 
Q 1066 -1159 1155 -1206 
Q 1244 -1253 1478 -1253 
L 1478 -1369 
L -22 -1369 
L -22 -1253 
L 56 -1253 
Q 228 -1256 350 -1188 
Q 409 -1153 442 -1076 
Q 475 -1000 475 -688 
L 475 2019 
Q 475 2297 450 2372 
Q 425 2447 370 2484 
Q 316 2522 222 2522 
Q 147 2522 31 2478 
L -6 2578 
z
M 994 2081 
L 994 1013 
Q 994 666 1022 556 
Q 1066 375 1236 237 
Q 1406 100 1666 100 
Q 1978 100 2172 344 
Q 2425 663 2425 1241 
Q 2425 1897 2138 2250 
Q 1938 2494 1663 2494 
Q 1513 2494 1366 2419 
Q 1253 2363 994 2081 
z
" transform="scale(0.015625)"/>
       <path id="TimesNewRomanPSMT-6f" d="M 1600 2947 
Q 2250 2947 2644 2453 
Q 2978 2031 2978 1484 
Q 2978 1100 2793 706 
Q 2609 313 2286 112 
Q 1963 -88 1566 -88 
Q 919 -88 538 428 
Q 216 863 216 1403 
Q 216 1797 411 2186 
Q 606 2575 925 2761 
Q 1244 2947 1600 2947 
z
M 1503 2744 
Q 1338 2744 1170 2645 
Q 1003 2547 900 2300 
Q 797 2053 797 1666 
Q 797 1041 1045 587 
Q 1294 134 1700 134 
Q 2003 134 2200 384 
Q 2397 634 2397 1244 
Q 2397 2006 2069 2444 
Q 1847 2744 1503 2744 
z
" transform="scale(0.015625)"/>
       <path id="TimesNewRomanPSMT-20" transform="scale(0.015625)"/>
       <path id="TimesNewRomanPSMT-28" d="M 1988 -1253 
L 1988 -1369 
Q 1516 -1131 1200 -813 
Q 750 -359 506 256 
Q 263 872 263 1534 
Q 263 2503 741 3301 
Q 1219 4100 1988 4444 
L 1988 4313 
Q 1603 4100 1356 3731 
Q 1109 3363 987 2797 
Q 866 2231 866 1616 
Q 866 947 969 400 
Q 1050 -31 1165 -292 
Q 1281 -553 1476 -793 
Q 1672 -1034 1988 -1253 
z
" transform="scale(0.015625)"/>
       <path id="TimesNewRomanPSMT-73" d="M 2050 2947 
L 2050 1972 
L 1947 1972 
Q 1828 2431 1642 2597 
Q 1456 2763 1169 2763 
Q 950 2763 815 2647 
Q 681 2531 681 2391 
Q 681 2216 781 2091 
Q 878 1963 1175 1819 
L 1631 1597 
Q 2266 1288 2266 781 
Q 2266 391 1970 151 
Q 1675 -88 1309 -88 
Q 1047 -88 709 6 
Q 606 38 541 38 
Q 469 38 428 -44 
L 325 -44 
L 325 978 
L 428 978 
Q 516 541 762 319 
Q 1009 97 1316 97 
Q 1531 97 1667 223 
Q 1803 350 1803 528 
Q 1803 744 1651 891 
Q 1500 1038 1047 1263 
Q 594 1488 453 1669 
Q 313 1847 313 2119 
Q 313 2472 555 2709 
Q 797 2947 1181 2947 
Q 1350 2947 1591 2875 
Q 1750 2828 1803 2828 
Q 1853 2828 1881 2850 
Q 1909 2872 1947 2947 
L 2050 2947 
z
" transform="scale(0.015625)"/>
       <path id="TimesNewRomanPSMT-29" d="M 144 4313 
L 144 4444 
Q 619 4209 934 3891 
Q 1381 3434 1625 2820 
Q 1869 2206 1869 1541 
Q 1869 572 1392 -226 
Q 916 -1025 144 -1369 
L 144 -1253 
Q 528 -1038 776 -670 
Q 1025 -303 1145 264 
Q 1266 831 1266 1447 
Q 1266 2113 1163 2663 
Q 1084 3094 967 3353 
Q 850 3613 656 3853 
Q 463 4094 144 4313 
z
" transform="scale(0.015625)"/>
      </defs>
      <use xlink:href="#TimesNewRomanPSMT-54"/>
      <use xlink:href="#TimesNewRomanPSMT-65" transform="translate(54.083984 0)"/>
      <use xlink:href="#TimesNewRomanPSMT-6d" transform="translate(98.46875 0)"/>
      <use xlink:href="#TimesNewRomanPSMT-70" transform="translate(176.251953 0)"/>
      <use xlink:href="#TimesNewRomanPSMT-6f" transform="translate(226.251953 0)"/>
      <use xlink:href="#TimesNewRomanPSMT-20" transform="translate(276.251953 0)"/>
      <use xlink:href="#TimesNewRomanPSMT-28" transform="translate(301.251953 0)"/>
      <use xlink:href="#TimesNewRomanPSMT-73" transform="translate(334.552734 0)"/>
      <use xlink:href="#TimesNewRomanPSMT-29" transform="translate(373.46875 0)"/>
     </g>
    </g>
   </g>
   <g id="matplotlib.axis_2">
    <g id="ytick_1">
     <g id="line2d_7">
      <path d="M 65.63 214.282582 
L 440.583307 214.282582 
" clip-path="url(#p77055718f3)" style="fill: none; stroke-dasharray: 2.96,1.28; stroke-dashoffset: 0; stroke: #ffffff; stroke-opacity: 0.6; stroke-width: 0.8"/>
     </g>
     <g id="text_8">
      <!-- 11000 -->
      <g transform="translate(29.08 218.448832) scale(0.12 -0.12)">
       <use xlink:href="#TimesNewRomanPSMT-31"/>
       <use xlink:href="#TimesNewRomanPSMT-31" transform="translate(46.25 0)"/>
       <use xlink:href="#TimesNewRomanPSMT-30" transform="translate(96.25 0)"/>
       <use xlink:href="#TimesNewRomanPSMT-30" transform="translate(146.25 0)"/>
       <use xlink:href="#TimesNewRomanPSMT-30" transform="translate(196.25 0)"/>
      </g>
     </g>
    </g>
    <g id="ytick_2">
     <g id="line2d_8">
      <path d="M 65.63 171.580624 
L 440.583307 171.580624 
" clip-path="url(#p77055718f3)" style="fill: none; stroke-dasharray: 2.96,1.28; stroke-dashoffset: 0; stroke: #ffffff; stroke-opacity: 0.6; stroke-width: 0.8"/>
     </g>
     <g id="text_9">
      <!-- 12000 -->
      <g transform="translate(28.63 175.746874) scale(0.12 -0.12)">
       <use xlink:href="#TimesNewRomanPSMT-31"/>
       <use xlink:href="#TimesNewRomanPSMT-32" transform="translate(50 0)"/>
       <use xlink:href="#TimesNewRomanPSMT-30" transform="translate(100 0)"/>
       <use xlink:href="#TimesNewRomanPSMT-30" transform="translate(150 0)"/>
       <use xlink:href="#TimesNewRomanPSMT-30" transform="translate(200 0)"/>
      </g>
     </g>
    </g>
    <g id="ytick_3">
     <g id="line2d_9">
      <path d="M 65.63 128.878666 
L 440.583307 128.878666 
" clip-path="url(#p77055718f3)" style="fill: none; stroke-dasharray: 2.96,1.28; stroke-dashoffset: 0; stroke: #ffffff; stroke-opacity: 0.6; stroke-width: 0.8"/>
     </g>
     <g id="text_10">
      <!-- 13000 -->
      <g transform="translate(28.63 133.044916) scale(0.12 -0.12)">
       <use xlink:href="#TimesNewRomanPSMT-31"/>
       <use xlink:href="#TimesNewRomanPSMT-33" transform="translate(50 0)"/>
       <use xlink:href="#TimesNewRomanPSMT-30" transform="translate(100 0)"/>
       <use xlink:href="#TimesNewRomanPSMT-30" transform="translate(150 0)"/>
       <use xlink:href="#TimesNewRomanPSMT-30" transform="translate(200 0)"/>
      </g>
     </g>
    </g>
    <g id="ytick_4">
     <g id="line2d_10">
      <path d="M 65.63 86.176708 
L 440.583307 86.176708 
" clip-path="url(#p77055718f3)" style="fill: none; stroke-dasharray: 2.96,1.28; stroke-dashoffset: 0; stroke: #ffffff; stroke-opacity: 0.6; stroke-width: 0.8"/>
     </g>
     <g id="text_11">
      <!-- 14000 -->
      <g transform="translate(28.63 90.342958) scale(0.12 -0.12)">
       <use xlink:href="#TimesNewRomanPSMT-31"/>
       <use xlink:href="#TimesNewRomanPSMT-34" transform="translate(50 0)"/>
       <use xlink:href="#TimesNewRomanPSMT-30" transform="translate(100 0)"/>
       <use xlink:href="#TimesNewRomanPSMT-30" transform="translate(150 0)"/>
       <use xlink:href="#TimesNewRomanPSMT-30" transform="translate(200 0)"/>
      </g>
     </g>
    </g>
    <g id="ytick_5">
     <g id="line2d_11">
      <path d="M 65.63 43.47475 
L 440.583307 43.47475 
" clip-path="url(#p77055718f3)" style="fill: none; stroke-dasharray: 2.96,1.28; stroke-dashoffset: 0; stroke: #ffffff; stroke-opacity: 0.6; stroke-width: 0.8"/>
     </g>
     <g id="text_12">
      <!-- 15000 -->
      <g transform="translate(28.63 47.641) scale(0.12 -0.12)">
       <use xlink:href="#TimesNewRomanPSMT-31"/>
       <use xlink:href="#TimesNewRomanPSMT-35" transform="translate(50 0)"/>
       <use xlink:href="#TimesNewRomanPSMT-30" transform="translate(100 0)"/>
       <use xlink:href="#TimesNewRomanPSMT-30" transform="translate(150 0)"/>
       <use xlink:href="#TimesNewRomanPSMT-30" transform="translate(200 0)"/>
      </g>
     </g>
    </g>
    <g id="text_13">
     <!-- Tensão Máxima (RMS) -->
     <g transform="translate(22.063125 189.296658) rotate(-90) scale(0.12 -0.12)">
      <defs>
       <path id="TimesNewRomanPSMT-6e" d="M 1034 2341 
Q 1538 2947 1994 2947 
Q 2228 2947 2397 2830 
Q 2566 2713 2666 2444 
Q 2734 2256 2734 1869 
L 2734 647 
Q 2734 375 2778 278 
Q 2813 200 2889 156 
Q 2966 113 3172 113 
L 3172 0 
L 1756 0 
L 1756 113 
L 1816 113 
Q 2016 113 2095 173 
Q 2175 234 2206 353 
Q 2219 400 2219 647 
L 2219 1819 
Q 2219 2209 2117 2386 
Q 2016 2563 1775 2563 
Q 1403 2563 1034 2156 
L 1034 647 
Q 1034 356 1069 288 
Q 1113 197 1189 155 
Q 1266 113 1500 113 
L 1500 0 
L 84 0 
L 84 113 
L 147 113 
Q 366 113 442 223 
Q 519 334 519 647 
L 519 1709 
Q 519 2225 495 2337 
Q 472 2450 423 2490 
Q 375 2531 294 2531 
Q 206 2531 84 2484 
L 38 2597 
L 900 2947 
L 1034 2947 
L 1034 2341 
z
" transform="scale(0.015625)"/>
       <path id="TimesNewRomanPSMT-e3" d="M 1822 413 
Q 1381 72 1269 19 
Q 1100 -59 909 -59 
Q 613 -59 420 144 
Q 228 347 228 678 
Q 228 888 322 1041 
Q 450 1253 767 1440 
Q 1084 1628 1822 1897 
L 1822 2009 
Q 1822 2438 1686 2597 
Q 1550 2756 1291 2756 
Q 1094 2756 978 2650 
Q 859 2544 859 2406 
L 866 2225 
Q 866 2081 792 2003 
Q 719 1925 600 1925 
Q 484 1925 411 2006 
Q 338 2088 338 2228 
Q 338 2497 613 2722 
Q 888 2947 1384 2947 
Q 1766 2947 2009 2819 
Q 2194 2722 2281 2516 
Q 2338 2381 2338 1966 
L 2338 994 
Q 2338 584 2353 492 
Q 2369 400 2405 369 
Q 2441 338 2488 338 
Q 2538 338 2575 359 
Q 2641 400 2828 588 
L 2828 413 
Q 2478 -56 2159 -56 
Q 2006 -56 1915 50 
Q 1825 156 1822 413 
z
M 1822 616 
L 1822 1706 
Q 1350 1519 1213 1441 
Q 966 1303 859 1153 
Q 753 1003 753 825 
Q 753 600 887 451 
Q 1022 303 1197 303 
Q 1434 303 1822 616 
z
M 534 3428 
L 434 3428 
Q 447 3856 612 4047 
Q 778 4238 1022 4238 
Q 1150 4238 1256 4197 
Q 1397 4144 1655 3973 
Q 1913 3803 2038 3803 
Q 2138 3803 2214 3887 
Q 2291 3972 2334 4238 
L 2431 4238 
Q 2434 3947 2354 3776 
Q 2275 3606 2129 3511 
Q 1984 3416 1838 3416 
Q 1591 3416 1225 3666 
Q 1028 3800 959 3828 
Q 891 3856 825 3856 
Q 697 3856 622 3744 
Q 588 3691 534 3428 
z
" transform="scale(0.015625)"/>
       <path id="TimesNewRomanPSMT-4d" d="M 2619 0 
L 981 3566 
L 981 734 
Q 981 344 1066 247 
Q 1181 116 1431 116 
L 1581 116 
L 1581 0 
L 106 0 
L 106 116 
L 256 116 
Q 525 116 638 278 
Q 706 378 706 734 
L 706 3503 
Q 706 3784 644 3909 
Q 600 4000 483 4061 
Q 366 4122 106 4122 
L 106 4238 
L 1306 4238 
L 2844 922 
L 4356 4238 
L 5556 4238 
L 5556 4122 
L 5409 4122 
Q 5138 4122 5025 3959 
Q 4956 3859 4956 3503 
L 4956 734 
Q 4956 344 5044 247 
Q 5159 116 5409 116 
L 5556 116 
L 5556 0 
L 3756 0 
L 3756 116 
L 3906 116 
Q 4178 116 4288 278 
Q 4356 378 4356 734 
L 4356 3566 
L 2722 0 
L 2619 0 
z
" transform="scale(0.015625)"/>
       <path id="TimesNewRomanPSMT-e1" d="M 1822 413 
Q 1381 72 1269 19 
Q 1100 -59 909 -59 
Q 613 -59 420 144 
Q 228 347 228 678 
Q 228 888 322 1041 
Q 450 1253 767 1440 
Q 1084 1628 1822 1897 
L 1822 2009 
Q 1822 2438 1686 2597 
Q 1550 2756 1291 2756 
Q 1094 2756 978 2650 
Q 859 2544 859 2406 
L 866 2225 
Q 866 2081 792 2003 
Q 719 1925 600 1925 
Q 484 1925 411 2006 
Q 338 2088 338 2228 
Q 338 2497 613 2722 
Q 888 2947 1384 2947 
Q 1766 2947 2009 2819 
Q 2194 2722 2281 2516 
Q 2338 2381 2338 1966 
L 2338 994 
Q 2338 584 2353 492 
Q 2369 400 2405 369 
Q 2441 338 2488 338 
Q 2538 338 2575 359 
Q 2641 400 2828 588 
L 2828 413 
Q 2478 -56 2159 -56 
Q 2006 -56 1915 50 
Q 1825 156 1822 413 
z
M 1822 616 
L 1822 1706 
Q 1350 1519 1213 1441 
Q 966 1303 859 1153 
Q 753 1003 753 825 
Q 753 600 887 451 
Q 1022 303 1197 303 
Q 1434 303 1822 616 
z
M 2131 4344 
L 1209 3266 
L 1103 3266 
L 1431 4344 
L 2131 4344 
z
" transform="scale(0.015625)"/>
       <path id="TimesNewRomanPSMT-78" d="M 84 2863 
L 1431 2863 
L 1431 2747 
Q 1303 2747 1251 2703 
Q 1200 2659 1200 2588 
Q 1200 2513 1309 2356 
Q 1344 2306 1413 2200 
L 1616 1875 
L 1850 2200 
Q 2075 2509 2075 2591 
Q 2075 2656 2022 2701 
Q 1969 2747 1850 2747 
L 1850 2863 
L 2819 2863 
L 2819 2747 
Q 2666 2738 2553 2663 
Q 2400 2556 2134 2200 
L 1744 1678 
L 2456 653 
Q 2719 275 2831 198 
Q 2944 122 3122 113 
L 3122 0 
L 1772 0 
L 1772 113 
Q 1913 113 1991 175 
Q 2050 219 2050 291 
Q 2050 363 1850 653 
L 1431 1266 
L 972 653 
Q 759 369 759 316 
Q 759 241 829 180 
Q 900 119 1041 113 
L 1041 0 
L 106 0 
L 106 113 
Q 219 128 303 191 
Q 422 281 703 653 
L 1303 1450 
L 759 2238 
Q 528 2575 401 2661 
Q 275 2747 84 2747 
L 84 2863 
z
" transform="scale(0.015625)"/>
       <path id="TimesNewRomanPSMT-69" d="M 928 4444 
Q 1059 4444 1151 4351 
Q 1244 4259 1244 4128 
Q 1244 3997 1151 3903 
Q 1059 3809 928 3809 
Q 797 3809 703 3903 
Q 609 3997 609 4128 
Q 609 4259 701 4351 
Q 794 4444 928 4444 
z
M 1188 2947 
L 1188 647 
Q 1188 378 1227 289 
Q 1266 200 1342 156 
Q 1419 113 1622 113 
L 1622 0 
L 231 0 
L 231 113 
Q 441 113 512 153 
Q 584 194 626 287 
Q 669 381 669 647 
L 669 1750 
Q 669 2216 641 2353 
Q 619 2453 572 2492 
Q 525 2531 444 2531 
Q 356 2531 231 2484 
L 188 2597 
L 1050 2947 
L 1188 2947 
z
" transform="scale(0.015625)"/>
       <path id="TimesNewRomanPSMT-61" d="M 1822 413 
Q 1381 72 1269 19 
Q 1100 -59 909 -59 
Q 613 -59 420 144 
Q 228 347 228 678 
Q 228 888 322 1041 
Q 450 1253 767 1440 
Q 1084 1628 1822 1897 
L 1822 2009 
Q 1822 2438 1686 2597 
Q 1550 2756 1291 2756 
Q 1094 2756 978 2650 
Q 859 2544 859 2406 
L 866 2225 
Q 866 2081 792 2003 
Q 719 1925 600 1925 
Q 484 1925 411 2006 
Q 338 2088 338 2228 
Q 338 2497 613 2722 
Q 888 2947 1384 2947 
Q 1766 2947 2009 2819 
Q 2194 2722 2281 2516 
Q 2338 2381 2338 1966 
L 2338 994 
Q 2338 584 2353 492 
Q 2369 400 2405 369 
Q 2441 338 2488 338 
Q 2538 338 2575 359 
Q 2641 400 2828 588 
L 2828 413 
Q 2478 -56 2159 -56 
Q 2006 -56 1915 50 
Q 1825 156 1822 413 
z
M 1822 616 
L 1822 1706 
Q 1350 1519 1213 1441 
Q 966 1303 859 1153 
Q 753 1003 753 825 
Q 753 600 887 451 
Q 1022 303 1197 303 
Q 1434 303 1822 616 
z
" transform="scale(0.015625)"/>
       <path id="TimesNewRomanPSMT-52" d="M 4325 0 
L 3194 0 
L 1759 1981 
Q 1600 1975 1500 1975 
Q 1459 1975 1412 1976 
Q 1366 1978 1316 1981 
L 1316 750 
Q 1316 350 1403 253 
Q 1522 116 1759 116 
L 1925 116 
L 1925 0 
L 109 0 
L 109 116 
L 269 116 
Q 538 116 653 291 
Q 719 388 719 750 
L 719 3488 
Q 719 3888 631 3984 
Q 509 4122 269 4122 
L 109 4122 
L 109 4238 
L 1653 4238 
Q 2328 4238 2648 4139 
Q 2969 4041 3192 3777 
Q 3416 3513 3416 3147 
Q 3416 2756 3161 2468 
Q 2906 2181 2372 2063 
L 3247 847 
Q 3547 428 3762 290 
Q 3978 153 4325 116 
L 4325 0 
z
M 1316 2178 
Q 1375 2178 1419 2176 
Q 1463 2175 1491 2175 
Q 2097 2175 2405 2437 
Q 2713 2700 2713 3106 
Q 2713 3503 2464 3751 
Q 2216 4000 1806 4000 
Q 1625 4000 1316 3941 
L 1316 2178 
z
" transform="scale(0.015625)"/>
       <path id="TimesNewRomanPSMT-53" d="M 2934 4334 
L 2934 2869 
L 2819 2869 
Q 2763 3291 2617 3541 
Q 2472 3791 2203 3937 
Q 1934 4084 1647 4084 
Q 1322 4084 1109 3886 
Q 897 3688 897 3434 
Q 897 3241 1031 3081 
Q 1225 2847 1953 2456 
Q 2547 2138 2764 1967 
Q 2981 1797 3098 1565 
Q 3216 1334 3216 1081 
Q 3216 600 2842 251 
Q 2469 -97 1881 -97 
Q 1697 -97 1534 -69 
Q 1438 -53 1133 45 
Q 828 144 747 144 
Q 669 144 623 97 
Q 578 50 556 -97 
L 441 -97 
L 441 1356 
L 556 1356 
Q 638 900 775 673 
Q 913 447 1195 297 
Q 1478 147 1816 147 
Q 2206 147 2432 353 
Q 2659 559 2659 841 
Q 2659 997 2573 1156 
Q 2488 1316 2306 1453 
Q 2184 1547 1640 1851 
Q 1097 2156 867 2337 
Q 638 2519 519 2737 
Q 400 2956 400 3219 
Q 400 3675 750 4004 
Q 1100 4334 1641 4334 
Q 1978 4334 2356 4169 
Q 2531 4091 2603 4091 
Q 2684 4091 2736 4139 
Q 2788 4188 2819 4334 
L 2934 4334 
z
" transform="scale(0.015625)"/>
      </defs>
      <use xlink:href="#TimesNewRomanPSMT-54"/>
      <use xlink:href="#TimesNewRomanPSMT-65" transform="translate(54.083984 0)"/>
      <use xlink:href="#TimesNewRomanPSMT-6e" transform="translate(98.46875 0)"/>
      <use xlink:href="#TimesNewRomanPSMT-73" transform="translate(148.46875 0)"/>
      <use xlink:href="#TimesNewRomanPSMT-e3" transform="translate(187.384766 0)"/>
      <use xlink:href="#TimesNewRomanPSMT-6f" transform="translate(231.769531 0)"/>
      <use xlink:href="#TimesNewRomanPSMT-20" transform="translate(281.769531 0)"/>
      <use xlink:href="#TimesNewRomanPSMT-4d" transform="translate(306.769531 0)"/>
      <use xlink:href="#TimesNewRomanPSMT-e1" transform="translate(395.685547 0)"/>
      <use xlink:href="#TimesNewRomanPSMT-78" transform="translate(440.070312 0)"/>
      <use xlink:href="#TimesNewRomanPSMT-69" transform="translate(490.070312 0)"/>
      <use xlink:href="#TimesNewRomanPSMT-6d" transform="translate(517.853516 0)"/>
      <use xlink:href="#TimesNewRomanPSMT-61" transform="translate(595.636719 0)"/>
      <use xlink:href="#TimesNewRomanPSMT-20" transform="translate(640.021484 0)"/>
      <use xlink:href="#TimesNewRomanPSMT-28" transform="translate(665.021484 0)"/>
      <use xlink:href="#TimesNewRomanPSMT-52" transform="translate(698.322266 0)"/>
      <use xlink:href="#TimesNewRomanPSMT-4d" transform="translate(765.021484 0)"/>
      <use xlink:href="#TimesNewRomanPSMT-53" transform="translate(853.9375 0)"/>
      <use xlink:href="#TimesNewRomanPSMT-29" transform="translate(909.552734 0)"/>
     </g>
    </g>
   </g>
   <g id="line2d_12">
    <path d="M 82.673332 226.688528 
L 83.252805 188.259458 
L 84.343579 116.024642 
L 84.923052 89.725918 
L 85.366179 77.681374 
L 85.741132 72.342009 
L 86.047912 70.534649 
L 86.286519 70.133657 
L 86.525125 70.101804 
L 87.547725 43.633011 
L 87.854505 41.376205 
L 88.127198 40.641479 
L 88.297632 40.408591 
L 88.433978 38.847729 
L 88.536238 38.751147 
L 88.570325 38.838236 
L 88.604412 38.924088 
L 88.672585 38.8926 
L 88.740758 38.710962 
L 88.774845 38.838059 
L 88.808932 38.863658 
L 89.013452 38.478843 
L 89.217972 38.856463 
L 89.490665 38.465833 
L 89.661098 38.618744 
L 90.581438 38.612493 
L 90.683698 38.609531 
L 90.888218 38.509698 
L 91.058652 38.800266 
L 91.092738 38.784845 
L 91.194998 38.698917 
L 91.331345 38.644352 
L 91.399518 38.722299 
L 91.433605 38.688564 
L 91.569952 38.63818 
L 91.740385 38.711234 
L 92.319858 38.649032 
L 93.001591 38.788086 
L 93.206111 38.8515 
L 93.410631 38.812942 
L 93.615151 39.056537 
L 93.785585 38.987175 
L 93.956018 39.094134 
L 94.058278 38.998452 
L 94.160538 38.931392 
L 94.194625 38.966338 
L 94.365058 39.136585 
L 94.569578 38.892405 
L 94.774098 38.85932 
L 95.012705 38.785135 
L 95.183138 38.785845 
L 95.387658 38.650312 
L 95.660351 38.662546 
L 96.001218 38.637247 
L 97.501031 38.694655 
L 98.285024 38.707319 
L 98.830411 38.856718 
L 99.000844 38.907481 
L 99.205364 38.953569 
L 99.375798 39.046864 
L 99.614404 39.125371 
L 99.955271 39.053795 
L 100.671091 38.808502 
L 100.977871 38.734291 
L 101.284651 38.67673 
L 102.136817 38.718482 
L 102.648117 38.799526 
L 103.670717 38.674697 
L 104.488797 38.833582 
L 105.443224 39.142457 
L 106.124957 38.899174 
L 107.147557 38.665033 
L 107.93155 38.737991 
L 108.374677 38.785394 
L 109.431364 38.681883 
L 110.317617 38.888726 
L 111.237957 39.090684 
L 112.056037 38.810681 
L 112.976377 38.660312 
L 113.76037 38.775656 
L 114.135323 38.767391 
L 114.98749 38.672659 
L 115.771483 38.820032 
L 116.964516 39.079178 
L 118.191636 38.702159 
L 119.009716 38.685353 
L 119.99823 38.727151 
L 120.782223 38.680517 
L 121.600303 38.865827 
L 122.656989 39.072439 
L 124.361323 38.660676 
L 125.145316 38.781791 
L 125.486182 38.773401 
L 126.270176 38.670257 
L 127.054169 38.795147 
L 128.349462 39.070806 
L 129.712929 38.67847 
L 130.496922 38.705054 
L 131.280915 38.744888 
L 132.098995 38.676983 
L 132.917075 38.850203 
L 133.973762 39.089839 
L 135.507662 38.667646 
L 136.257568 38.720624 
L 136.905215 38.758235 
L 137.723295 38.673382 
L 138.507288 38.821959 
L 139.666235 39.085818 
L 141.200135 38.666848 
L 141.950041 38.722975 
L 142.597688 38.755557 
L 143.415768 38.67398 
L 144.233848 38.835882 
L 145.358708 39.081799 
L 146.926694 38.664067 
L 147.676601 38.732875 
L 148.256074 38.761106 
L 149.074154 38.67282 
L 149.858147 38.818484 
L 151.051181 39.078096 
L 152.550994 38.667665 
L 153.300901 38.720595 
L 153.948547 38.75836 
L 154.766627 38.673371 
L 155.584707 38.832374 
L 156.709567 39.085713 
L 158.277554 38.664684 
L 159.02746 38.730338 
L 159.606933 38.76397 
L 160.425013 38.672298 
L 161.209007 38.815121 
L 162.40204 39.081931 
L 163.93594 38.666073 
L 164.685846 38.72541 
L 165.299406 38.761155 
L 166.117486 38.672808 
L 166.90148 38.818545 
L 168.094513 39.078058 
L 169.628413 38.665353 
L 170.378319 38.727849 
L 170.991879 38.758349 
L 171.809959 38.673377 
L 172.628039 38.832426 
L 173.752899 39.085782 
L 175.320886 38.664682 
L 176.070792 38.730352 
L 176.684352 38.755563 
L 177.502432 38.673996 
L 178.320512 38.835957 
L 179.445372 39.081923 
L 180.979272 38.666072 
L 181.729179 38.725393 
L 182.342738 38.761152 
L 183.160818 38.672811 
L 183.944812 38.81855 
L 185.137845 39.078035 
L 186.671745 38.665352 
L 187.421651 38.727854 
L 188.035211 38.758338 
L 188.853291 38.673378 
L 189.671371 38.832421 
L 190.796231 39.069804 
L 191.341618 38.870716 
L 192.432391 38.652425 
L 193.216384 38.744143 
L 193.795858 38.738156 
L 194.579851 38.67811 
L 195.466104 38.871016 
L 196.352358 39.116904 
L 197.477217 38.744094 
L 198.363471 38.656439 
L 200.033717 38.66275 
L 200.783624 38.755982 
L 202.35161 39.022927 
L 202.794737 38.866431 
L 203.37421 38.702759 
L 204.19229 38.6832 
L 205.146717 38.727481 
L 205.964797 38.658743 
L 206.714703 38.817423 
L 207.87365 39.079874 
L 209.237117 38.680609 
L 209.987023 38.697608 
L 210.83919 38.722554 
L 211.65727 38.660607 
L 212.47535 38.839351 
L 213.566123 39.07143 
L 214.861416 38.687906 
L 215.611323 38.688484 
L 216.531663 38.719357 
L 217.315656 38.659079 
L 218.133736 38.83228 
L 219.224509 39.077729 
L 220.724322 38.667832 
L 221.474229 38.720828 
L 222.087789 38.749117 
L 222.905869 38.653981 
L 223.689862 38.793947 
L 224.951069 39.062528 
L 226.382709 38.66962 
L 227.132615 38.716237 
L 227.780262 38.746201 
L 228.598342 38.654474 
L 229.382335 38.797251 
L 230.609455 39.070349 
L 232.143355 38.664245 
L 232.893262 38.733095 
L 233.438648 38.751961 
L 234.256728 38.653589 
L 235.040721 38.790635 
L 236.301928 39.06649 
L 237.801741 38.665546 
L 238.551648 38.728064 
L 239.131121 38.74905 
L 239.949201 38.654003 
L 240.733194 38.793976 
L 241.994401 39.062592 
L 243.460128 38.667025 
L 244.210034 38.723154 
L 244.823594 38.746191 
L 245.641674 38.654466 
L 246.425667 38.797339 
L 247.652787 39.070385 
L 249.1526 38.666259 
L 249.902507 38.725565 
L 250.48198 38.751954 
L 251.30006 38.653596 
L 252.084054 38.790598 
L 253.34526 39.066445 
L 254.845073 38.665543 
L 255.59498 38.728028 
L 256.174453 38.749035 
L 256.992533 38.654009 
L 257.776527 38.793962 
L 259.037733 39.062512 
L 260.50346 38.667019 
L 261.253366 38.723189 
L 261.866926 38.746157 
L 262.685006 38.654473 
L 263.468999 38.797349 
L 264.696119 39.070485 
L 266.161846 38.668721 
L 266.911753 38.718476 
L 267.559399 38.74332 
L 268.377479 38.654987 
L 269.161472 38.800756 
L 270.388592 39.066541 
L 271.854319 38.667849 
L 272.604226 38.720819 
L 273.217785 38.749063 
L 274.035865 38.654009 
L 274.819859 38.793909 
L 276.081065 39.062583 
L 277.546792 38.667026 
L 278.296698 38.723201 
L 278.910258 38.74617 
L 279.728338 38.654476 
L 280.512332 38.797293 
L 281.739452 39.070476 
L 283.205178 38.66872 
L 283.955085 38.718449 
L 284.602731 38.743318 
L 285.420811 38.654992 
L 286.204805 38.80071 
L 287.431924 39.066578 
L 288.897651 38.667854 
L 289.647558 38.720791 
L 290.261118 38.749088 
L 291.079198 38.654004 
L 291.863191 38.793927 
L 293.124397 39.062651 
L 294.556037 38.669623 
L 295.305944 38.716171 
L 295.953591 38.746203 
L 296.77167 38.654471 
L 297.555664 38.79729 
L 298.782784 39.070388 
L 300.282597 38.666264 
L 301.032504 38.725605 
L 301.611977 38.751972 
L 302.430057 38.65359 
L 303.21405 38.790627 
L 304.475257 39.066497 
L 305.97507 38.665543 
L 306.724976 38.728073 
L 307.30445 38.749068 
L 308.12253 38.654003 
L 308.906523 38.793967 
L 310.16773 39.062595 
L 311.633456 38.667027 
L 312.383363 38.723155 
L 312.996923 38.746199 
L 313.815003 38.654468 
L 314.598996 38.79733 
L 315.826116 39.070393 
L 317.325929 38.666261 
L 318.075836 38.725574 
L 318.655309 38.751953 
L 319.473389 38.653594 
L 320.257382 38.790604 
L 321.518589 39.06647 
L 323.018402 38.665544 
L 323.768309 38.728038 
L 324.347782 38.749037 
L 325.165862 38.654007 
L 325.949855 38.793959 
L 327.211062 39.062546 
L 328.676788 38.66702 
L 329.426695 38.723181 
L 330.040255 38.746162 
L 330.858335 38.654471 
L 331.642328 38.797339 
L 332.869448 39.070451 
L 334.369261 38.666253 
L 335.119168 38.725589 
L 335.698641 38.751987 
L 336.516721 38.653594 
L 337.300714 38.790576 
L 338.561921 39.066514 
L 340.027647 38.667848 
L 340.777554 38.720819 
L 341.391114 38.74906 
L 342.209194 38.654009 
L 342.993187 38.793928 
L 344.254394 39.062564 
L 345.72012 38.667026 
L 346.470027 38.723198 
L 347.083587 38.746171 
L 347.901667 38.654475 
L 348.68566 38.797311 
L 349.91278 39.070478 
L 351.378507 38.668719 
L 352.128413 38.718454 
L 352.77606 38.743322 
L 353.59414 38.654991 
L 354.378133 38.800725 
L 355.605253 39.066566 
L 357.07098 38.667851 
L 357.820886 38.720795 
L 358.434446 38.74908 
L 359.252526 38.654005 
L 360.036519 38.793921 
L 361.297726 39.062632 
L 362.729366 38.669628 
L 363.479272 38.716171 
L 364.126919 38.746195 
L 364.944999 38.654472 
L 365.728992 38.79729 
L 366.956112 39.07041 
L 368.455925 38.666261 
L 369.205832 38.725604 
L 369.785305 38.751979 
L 370.603385 38.65359 
L 371.387379 38.790622 
L 372.648585 39.066517 
L 374.114312 38.667846 
L 374.864218 38.720789 
L 375.477778 38.749071 
L 376.295858 38.654004 
L 377.079852 38.793959 
L 378.341058 39.062609 
L 379.806785 38.667029 
L 380.556691 38.723165 
L 381.170251 38.746196 
L 381.988331 38.654469 
L 382.772324 38.797323 
L 383.999444 39.070391 
L 385.499258 38.666262 
L 386.249164 38.725586 
L 386.828638 38.751962 
L 387.646717 38.653593 
L 388.430711 38.790606 
L 389.691917 39.066474 
L 391.191731 38.665544 
L 391.941637 38.72805 
L 392.52111 38.749049 
L 393.33919 38.654007 
L 394.123184 38.793958 
L 395.38439 39.062553 
L 396.850117 38.667022 
L 397.600023 38.723173 
L 398.213583 38.746175 
L 399.031663 38.654471 
L 399.815657 38.797335 
L 401.042777 39.070445 
L 402.54259 38.666255 
L 403.292496 38.725584 
L 403.87197 38.751976 
L 404.69005 38.653593 
L 405.474043 38.790583 
L 406.735249 39.066514 
L 408.200976 38.667846 
L 408.950883 38.720819 
L 409.564443 38.749052 
L 410.382523 38.654008 
L 411.166516 38.793933 
L 412.427722 39.062572 
L 413.893449 38.667025 
L 414.643356 38.723194 
L 415.256916 38.746167 
L 416.074995 38.654474 
L 416.858989 38.797314 
L 417.881589 39.137979 
L 418.461062 58.671571 
L 418.870102 66.355886 
L 419.210969 69.3388 
L 419.483662 70.148384 
L 419.722269 70.258608 
L 419.994962 70.350649 
L 420.165395 70.699096 
L 420.369915 71.695926 
L 420.642608 74.434609 
L 420.949388 80.018819 
L 421.324342 91.11773 
L 421.801555 112.430787 
L 422.483288 154.660619 
L 423.539975 226.982484 
L 423.539975 226.982484 
" clip-path="url(#p77055718f3)" style="fill: none; stroke: #ff0000; stroke-width: 1.5; stroke-linecap: round"/>
   </g>
   <g id="patch_3">
    <path d="M 65.63 236.408317 
L 65.63 29.04 
" style="fill: none; stroke: #000000; stroke-width: 0.8; stroke-linejoin: miter; stroke-linecap: square"/>
   </g>
   <g id="patch_4">
    <path d="M 440.583307 236.408317 
L 440.583307 29.04 
" style="fill: none; stroke: #000000; stroke-width: 0.8; stroke-linejoin: miter; stroke-linecap: square"/>
   </g>
   <g id="patch_5">
    <path d="M 65.63 236.408317 
L 440.583307 236.408317 
" style="fill: none; stroke: #000000; stroke-width: 0.8; stroke-linejoin: miter; stroke-linecap: square"/>
   </g>
   <g id="patch_6">
    <path d="M 65.63 29.04 
L 440.583307 29.04 
" style="fill: none; stroke: #000000; stroke-width: 0.8; stroke-linejoin: miter; stroke-linecap: square"/>
   </g>
   <g id="text_14">
    <g id="patch_7">
     <path d="M 201.496341 211.469944 
L 304.716966 211.469944 
Q 308.316966 211.469944 308.316966 207.869944 
L 308.316966 196.970569 
Q 308.316966 193.370569 304.716966 193.370569 
L 201.496341 193.370569 
Q 197.896341 193.370569 197.896341 196.970569 
L 197.896341 207.869944 
Q 197.896341 211.469944 201.496341 211.469944 
z
" style="fill: #ffffff; opacity: 0.9; stroke: #000000; stroke-linejoin: miter"/>
    </g>
    <!-- Max (RMS): 15117.3 -->
    <g transform="translate(201.496341 205.303069) scale(0.12 -0.12)">
     <defs>
      <path id="TimesNewRomanPSMT-3a" d="M 903 2950 
Q 1047 2950 1148 2848 
Q 1250 2747 1250 2603 
Q 1250 2459 1148 2357 
Q 1047 2256 903 2256 
Q 759 2256 657 2357 
Q 556 2459 556 2603 
Q 556 2747 657 2848 
Q 759 2950 903 2950 
z
M 897 609 
Q 1044 609 1145 506 
Q 1247 403 1247 259 
Q 1247 116 1144 14 
Q 1041 -88 897 -88 
Q 753 -88 651 14 
Q 550 116 550 259 
Q 550 403 651 506 
Q 753 609 897 609 
z
" transform="scale(0.015625)"/>
      <path id="TimesNewRomanPSMT-37" d="M 644 4238 
L 2916 4238 
L 2916 4119 
L 1503 -88 
L 1153 -88 
L 2419 3728 
L 1253 3728 
Q 900 3728 750 3644 
Q 488 3500 328 3200 
L 238 3234 
L 644 4238 
z
" transform="scale(0.015625)"/>
     </defs>
     <use xlink:href="#TimesNewRomanPSMT-4d"/>
     <use xlink:href="#TimesNewRomanPSMT-61" transform="translate(88.916016 0)"/>
     <use xlink:href="#TimesNewRomanPSMT-78" transform="translate(133.300781 0)"/>
     <use xlink:href="#TimesNewRomanPSMT-20" transform="translate(183.300781 0)"/>
     <use xlink:href="#TimesNewRomanPSMT-28" transform="translate(208.300781 0)"/>
     <use xlink:href="#TimesNewRomanPSMT-52" transform="translate(241.601562 0)"/>
     <use xlink:href="#TimesNewRomanPSMT-4d" transform="translate(308.300781 0)"/>
     <use xlink:href="#TimesNewRomanPSMT-53" transform="translate(397.216797 0)"/>
     <use xlink:href="#TimesNewRomanPSMT-29" transform="translate(452.832031 0)"/>
     <use xlink:href="#TimesNewRomanPSMT-3a" transform="translate(486.132812 0)"/>
     <use xlink:href="#TimesNewRomanPSMT-20" transform="translate(513.916016 0)"/>
     <use xlink:href="#TimesNewRomanPSMT-31" transform="translate(538.916016 0)"/>
     <use xlink:href="#TimesNewRomanPSMT-35" transform="translate(588.916016 0)"/>
     <use xlink:href="#TimesNewRomanPSMT-31" transform="translate(638.916016 0)"/>
     <use xlink:href="#TimesNewRomanPSMT-31" transform="translate(685.166016 0)"/>
     <use xlink:href="#TimesNewRomanPSMT-37" transform="translate(735.166016 0)"/>
     <use xlink:href="#TimesNewRomanPSMT-2e" transform="translate(785.166016 0)"/>
     <use xlink:href="#TimesNewRomanPSMT-33" transform="translate(810.166016 0)"/>
    </g>
   </g>
   <g id="text_15">
    <!-- Envelope de Tensão Máxima -->
    <g transform="translate(169.563029 23.04) scale(0.144 -0.144)">
     <defs>
      <path id="TimesNewRomanPSMT-45" d="M 1338 4006 
L 1338 2331 
L 2269 2331 
Q 2631 2331 2753 2441 
Q 2916 2584 2934 2947 
L 3050 2947 
L 3050 1472 
L 2934 1472 
Q 2891 1781 2847 1869 
Q 2791 1978 2662 2040 
Q 2534 2103 2269 2103 
L 1338 2103 
L 1338 706 
Q 1338 425 1363 364 
Q 1388 303 1450 267 
Q 1513 231 1688 231 
L 2406 231 
Q 2766 231 2928 281 
Q 3091 331 3241 478 
Q 3434 672 3638 1063 
L 3763 1063 
L 3397 0 
L 131 0 
L 131 116 
L 281 116 
Q 431 116 566 188 
Q 666 238 702 338 
Q 738 438 738 747 
L 738 3500 
Q 738 3903 656 3997 
Q 544 4122 281 4122 
L 131 4122 
L 131 4238 
L 3397 4238 
L 3444 3309 
L 3322 3309 
Q 3256 3644 3176 3769 
Q 3097 3894 2941 3959 
Q 2816 4006 2500 4006 
L 1338 4006 
z
" transform="scale(0.015625)"/>
      <path id="TimesNewRomanPSMT-76" d="M 53 2863 
L 1400 2863 
L 1400 2747 
L 1313 2747 
Q 1191 2747 1127 2687 
Q 1063 2628 1063 2528 
Q 1063 2419 1128 2269 
L 1794 688 
L 2463 2328 
Q 2534 2503 2534 2594 
Q 2534 2638 2509 2666 
Q 2475 2713 2422 2730 
Q 2369 2747 2206 2747 
L 2206 2863 
L 3141 2863 
L 3141 2747 
Q 2978 2734 2916 2681 
Q 2806 2588 2719 2369 
L 1703 -88 
L 1575 -88 
L 553 2328 
Q 484 2497 421 2570 
Q 359 2644 263 2694 
Q 209 2722 53 2747 
L 53 2863 
z
" transform="scale(0.015625)"/>
      <path id="TimesNewRomanPSMT-6c" d="M 1184 4444 
L 1184 647 
Q 1184 378 1223 290 
Q 1263 203 1344 158 
Q 1425 113 1647 113 
L 1647 0 
L 244 0 
L 244 113 
Q 441 113 512 153 
Q 584 194 625 287 
Q 666 381 666 647 
L 666 3247 
Q 666 3731 644 3842 
Q 622 3953 573 3993 
Q 525 4034 450 4034 
Q 369 4034 244 3984 
L 191 4094 
L 1044 4444 
L 1184 4444 
z
" transform="scale(0.015625)"/>
      <path id="TimesNewRomanPSMT-64" d="M 2222 322 
Q 2013 103 1813 7 
Q 1613 -88 1381 -88 
Q 913 -88 563 304 
Q 213 697 213 1313 
Q 213 1928 600 2439 
Q 988 2950 1597 2950 
Q 1975 2950 2222 2709 
L 2222 3238 
Q 2222 3728 2198 3840 
Q 2175 3953 2125 3993 
Q 2075 4034 2000 4034 
Q 1919 4034 1784 3984 
L 1744 4094 
L 2597 4444 
L 2738 4444 
L 2738 1134 
Q 2738 631 2761 520 
Q 2784 409 2836 365 
Q 2888 322 2956 322 
Q 3041 322 3181 375 
L 3216 266 
L 2366 -88 
L 2222 -88 
L 2222 322 
z
M 2222 541 
L 2222 2016 
Q 2203 2228 2109 2403 
Q 2016 2578 1861 2667 
Q 1706 2756 1559 2756 
Q 1284 2756 1069 2509 
Q 784 2184 784 1559 
Q 784 928 1059 592 
Q 1334 256 1672 256 
Q 1956 256 2222 541 
z
" transform="scale(0.015625)"/>
     </defs>
     <use xlink:href="#TimesNewRomanPSMT-45"/>
     <use xlink:href="#TimesNewRomanPSMT-6e" transform="translate(61.083984 0)"/>
     <use xlink:href="#TimesNewRomanPSMT-76" transform="translate(111.083984 0)"/>
     <use xlink:href="#TimesNewRomanPSMT-65" transform="translate(161.083984 0)"/>
     <use xlink:href="#TimesNewRomanPSMT-6c" transform="translate(205.46875 0)"/>
     <use xlink:href="#TimesNewRomanPSMT-6f" transform="translate(233.251953 0)"/>
     <use xlink:href="#TimesNewRomanPSMT-70" transform="translate(283.251953 0)"/>
     <use xlink:href="#TimesNewRomanPSMT-65" transform="translate(333.251953 0)"/>
     <use xlink:href="#TimesNewRomanPSMT-20" transform="translate(377.636719 0)"/>
     <use xlink:href="#TimesNewRomanPSMT-64" transform="translate(402.636719 0)"/>
     <use xlink:href="#TimesNewRomanPSMT-65" transform="translate(452.636719 0)"/>
     <use xlink:href="#TimesNewRomanPSMT-20" transform="translate(497.021484 0)"/>
     <use xlink:href="#TimesNewRomanPSMT-54" transform="translate(520.271484 0)"/>
     <use xlink:href="#TimesNewRomanPSMT-65" transform="translate(574.355469 0)"/>
     <use xlink:href="#TimesNewRomanPSMT-6e" transform="translate(618.740234 0)"/>
     <use xlink:href="#TimesNewRomanPSMT-73" transform="translate(668.740234 0)"/>
     <use xlink:href="#TimesNewRomanPSMT-e3" transform="translate(707.65625 0)"/>
     <use xlink:href="#TimesNewRomanPSMT-6f" transform="translate(752.041016 0)"/>
     <use xlink:href="#TimesNewRomanPSMT-20" transform="translate(802.041016 0)"/>
     <use xlink:href="#TimesNewRomanPSMT-4d" transform="translate(827.041016 0)"/>
     <use xlink:href="#TimesNewRomanPSMT-e1" transform="translate(915.957031 0)"/>
     <use xlink:href="#TimesNewRomanPSMT-78" transform="translate(960.341797 0)"/>
     <use xlink:href="#TimesNewRomanPSMT-69" transform="translate(1010.341797 0)"/>
     <use xlink:href="#TimesNewRomanPSMT-6d" transform="translate(1038.125 0)"/>
     <use xlink:href="#TimesNewRomanPSMT-61" transform="translate(1115.908203 0)"/>
    </g>
   </g>
  </g>
 </g>
 <defs>
  <clipPath id="p77055718f3">
   <rect x="65.63" y="29.04" width="374.953307" height="207.368317"/>
  </clipPath>
 </defs>
</svg>
