<?xml version="1.0" encoding="utf-8" standalone="no"?>
<!DOCTYPE svg PUBLIC "-//W3C//DTD SVG 1.1//EN"
  "http://www.w3.org/Graphics/SVG/1.1/DTD/svg11.dtd">
<svg xmlns:xlink="http://www.w3.org/1999/xlink" width="510.23622pt" height="453.543307pt" viewBox="0 0 510.23622 453.543307" xmlns="http://www.w3.org/2000/svg" version="1.1">
 <metadata>
  <rdf:RDF xmlns:dc="http://purl.org/dc/elements/1.1/" xmlns:cc="http://creativecommons.org/ns#" xmlns:rdf="http://www.w3.org/1999/02/22-rdf-syntax-ns#">
   <cc:Work>
    <dc:type rdf:resource="http://purl.org/dc/dcmitype/StillImage"/>
    <dc:date>2026-01-19T17:56:15.661529</dc:date>
    <dc:format>image/svg+xml</dc:format>
    <dc:creator>
     <cc:Agent>
      <dc:title>Matplotlib v3.10.6, https://matplotlib.org/</dc:title>
     </cc:Agent>
    </dc:creator>
   </cc:Work>
  </rdf:RDF>
 </metadata>
 <defs>
  <style type="text/css">*{stroke-linejoin: round; stroke-linecap: butt}</style>
 </defs>
 <g id="figure_1">
  <g id="patch_1">
   <path d="M 0 453.543307 
L 510.23622 453.543307 
L 510.23622 0 
L 0 0 
z
" style="fill: #ffffff"/>
  </g>
  <g id="axes_1">
   <g id="patch_2">
    <path d="M 65.63 248.964705 
L 497.27622 248.964705 
L 497.27622 29.04 
L 65.63 29.04 
z
" style="fill: #ffffff"/>
   </g>
   <g id="matplotlib.axis_1">
    <g id="xtick_1">
     <g id="line2d_1">
      <path d="M 85.250283 248.964705 
L 85.250283 29.04 
" clip-path="url(#pefc31597de)" style="fill: none; stroke-dasharray: 0.8,1.32; stroke-dashoffset: 0; stroke: #b0b0b0; stroke-opacity: 0.5; stroke-width: 0.8"/>
     </g>
     <g id="line2d_2">
      <defs>
       <path id="m7cc15facdb" d="M 0 0 
L 0 3.5 
" style="stroke: #000000; stroke-width: 0.8"/>
      </defs>
      <g>
       <use xlink:href="#m7cc15facdb" x="85.250283" y="248.964705" style="stroke: #000000; stroke-width: 0.8"/>
      </g>
     </g>
     <g id="text_1">
      <!-- 0.0 -->
      <g transform="translate(77.750283 264.297205) scale(0.12 -0.12)">
       <defs>
        <path id="TimesNewRomanPSMT-30" d="M 231 2094 
Q 231 2819 450 3342 
Q 669 3866 1031 4122 
Q 1313 4325 1613 4325 
Q 2100 4325 2488 3828 
Q 2972 3213 2972 2159 
Q 2972 1422 2759 906 
Q 2547 391 2217 158 
Q 1888 -75 1581 -75 
Q 975 -75 572 641 
Q 231 1244 231 2094 
z
M 844 2016 
Q 844 1141 1059 588 
Q 1238 122 1591 122 
Q 1759 122 1940 273 
Q 2122 425 2216 781 
Q 2359 1319 2359 2297 
Q 2359 3022 2209 3506 
Q 2097 3866 1919 4016 
Q 1791 4119 1609 4119 
Q 1397 4119 1231 3928 
Q 1006 3669 925 3112 
Q 844 2556 844 2016 
z
" transform="scale(0.015625)"/>
        <path id="TimesNewRomanPSMT-2e" d="M 800 606 
Q 947 606 1047 504 
Q 1147 403 1147 259 
Q 1147 116 1045 14 
Q 944 -88 800 -88 
Q 656 -88 554 14 
Q 453 116 453 259 
Q 453 406 554 506 
Q 656 606 800 606 
z
" transform="scale(0.015625)"/>
       </defs>
       <use xlink:href="#TimesNewRomanPSMT-30"/>
       <use xlink:href="#TimesNewRomanPSMT-2e" transform="translate(50 0)"/>
       <use xlink:href="#TimesNewRomanPSMT-30" transform="translate(75 0)"/>
      </g>
     </g>
    </g>
    <g id="xtick_2">
     <g id="line2d_3">
      <path d="M 163.731414 248.964705 
L 163.731414 29.04 
" clip-path="url(#pefc31597de)" style="fill: none; stroke-dasharray: 0.8,1.32; stroke-dashoffset: 0; stroke: #b0b0b0; stroke-opacity: 0.5; stroke-width: 0.8"/>
     </g>
     <g id="line2d_4">
      <g>
       <use xlink:href="#m7cc15facdb" x="163.731414" y="248.964705" style="stroke: #000000; stroke-width: 0.8"/>
      </g>
     </g>
     <g id="text_2">
      <!-- 0.1 -->
      <g transform="translate(156.231414 264.297205) scale(0.12 -0.12)">
       <defs>
        <path id="TimesNewRomanPSMT-31" d="M 750 3822 
L 1781 4325 
L 1884 4325 
L 1884 747 
Q 1884 391 1914 303 
Q 1944 216 2037 169 
Q 2131 122 2419 116 
L 2419 0 
L 825 0 
L 825 116 
Q 1125 122 1212 167 
Q 1300 213 1334 289 
Q 1369 366 1369 747 
L 1369 3034 
Q 1369 3497 1338 3628 
Q 1316 3728 1258 3775 
Q 1200 3822 1119 3822 
Q 1003 3822 797 3725 
L 750 3822 
z
" transform="scale(0.015625)"/>
       </defs>
       <use xlink:href="#TimesNewRomanPSMT-30"/>
       <use xlink:href="#TimesNewRomanPSMT-2e" transform="translate(50 0)"/>
       <use xlink:href="#TimesNewRomanPSMT-31" transform="translate(75 0)"/>
      </g>
     </g>
    </g>
    <g id="xtick_3">
     <g id="line2d_5">
      <path d="M 242.212545 248.964705 
L 242.212545 29.04 
" clip-path="url(#pefc31597de)" style="fill: none; stroke-dasharray: 0.8,1.32; stroke-dashoffset: 0; stroke: #b0b0b0; stroke-opacity: 0.5; stroke-width: 0.8"/>
     </g>
     <g id="line2d_6">
      <g>
       <use xlink:href="#m7cc15facdb" x="242.212545" y="248.964705" style="stroke: #000000; stroke-width: 0.8"/>
      </g>
     </g>
     <g id="text_3">
      <!-- 0.2 -->
      <g transform="translate(234.712545 264.297205) scale(0.12 -0.12)">
       <defs>
        <path id="TimesNewRomanPSMT-32" d="M 2934 816 
L 2638 0 
L 138 0 
L 138 116 
Q 1241 1122 1691 1759 
Q 2141 2397 2141 2925 
Q 2141 3328 1894 3587 
Q 1647 3847 1303 3847 
Q 991 3847 742 3664 
Q 494 3481 375 3128 
L 259 3128 
Q 338 3706 661 4015 
Q 984 4325 1469 4325 
Q 1984 4325 2329 3994 
Q 2675 3663 2675 3213 
Q 2675 2891 2525 2569 
Q 2294 2063 1775 1497 
Q 997 647 803 472 
L 1909 472 
Q 2247 472 2383 497 
Q 2519 522 2628 598 
Q 2738 675 2819 816 
L 2934 816 
z
" transform="scale(0.015625)"/>
       </defs>
       <use xlink:href="#TimesNewRomanPSMT-30"/>
       <use xlink:href="#TimesNewRomanPSMT-2e" transform="translate(50 0)"/>
       <use xlink:href="#TimesNewRomanPSMT-32" transform="translate(75 0)"/>
      </g>
     </g>
    </g>
    <g id="xtick_4">
     <g id="line2d_7">
      <path d="M 320.693676 248.964705 
L 320.693676 29.04 
" clip-path="url(#pefc31597de)" style="fill: none; stroke-dasharray: 0.8,1.32; stroke-dashoffset: 0; stroke: #b0b0b0; stroke-opacity: 0.5; stroke-width: 0.8"/>
     </g>
     <g id="line2d_8">
      <g>
       <use xlink:href="#m7cc15facdb" x="320.693676" y="248.964705" style="stroke: #000000; stroke-width: 0.8"/>
      </g>
     </g>
     <g id="text_4">
      <!-- 0.3 -->
      <g transform="translate(313.193676 264.297205) scale(0.12 -0.12)">
       <defs>
        <path id="TimesNewRomanPSMT-33" d="M 325 3431 
Q 506 3859 782 4092 
Q 1059 4325 1472 4325 
Q 1981 4325 2253 3994 
Q 2459 3747 2459 3466 
Q 2459 3003 1878 2509 
Q 2269 2356 2469 2072 
Q 2669 1788 2669 1403 
Q 2669 853 2319 450 
Q 1863 -75 997 -75 
Q 569 -75 414 31 
Q 259 138 259 259 
Q 259 350 332 419 
Q 406 488 509 488 
Q 588 488 669 463 
Q 722 447 909 348 
Q 1097 250 1169 231 
Q 1284 197 1416 197 
Q 1734 197 1970 444 
Q 2206 691 2206 1028 
Q 2206 1275 2097 1509 
Q 2016 1684 1919 1775 
Q 1784 1900 1550 2001 
Q 1316 2103 1072 2103 
L 972 2103 
L 972 2197 
Q 1219 2228 1467 2375 
Q 1716 2522 1828 2728 
Q 1941 2934 1941 3181 
Q 1941 3503 1739 3701 
Q 1538 3900 1238 3900 
Q 753 3900 428 3381 
L 325 3431 
z
" transform="scale(0.015625)"/>
       </defs>
       <use xlink:href="#TimesNewRomanPSMT-30"/>
       <use xlink:href="#TimesNewRomanPSMT-2e" transform="translate(50 0)"/>
       <use xlink:href="#TimesNewRomanPSMT-33" transform="translate(75 0)"/>
      </g>
     </g>
    </g>
    <g id="xtick_5">
     <g id="line2d_9">
      <path d="M 399.174807 248.964705 
L 399.174807 29.04 
" clip-path="url(#pefc31597de)" style="fill: none; stroke-dasharray: 0.8,1.32; stroke-dashoffset: 0; stroke: #b0b0b0; stroke-opacity: 0.5; stroke-width: 0.8"/>
     </g>
     <g id="line2d_10">
      <g>
       <use xlink:href="#m7cc15facdb" x="399.174807" y="248.964705" style="stroke: #000000; stroke-width: 0.8"/>
      </g>
     </g>
     <g id="text_5">
      <!-- 0.4 -->
      <g transform="translate(391.674807 264.297205) scale(0.12 -0.12)">
       <defs>
        <path id="TimesNewRomanPSMT-34" d="M 2978 1563 
L 2978 1119 
L 2409 1119 
L 2409 0 
L 1894 0 
L 1894 1119 
L 100 1119 
L 100 1519 
L 2066 4325 
L 2409 4325 
L 2409 1563 
L 2978 1563 
z
M 1894 1563 
L 1894 3666 
L 406 1563 
L 1894 1563 
z
" transform="scale(0.015625)"/>
       </defs>
       <use xlink:href="#TimesNewRomanPSMT-30"/>
       <use xlink:href="#TimesNewRomanPSMT-2e" transform="translate(50 0)"/>
       <use xlink:href="#TimesNewRomanPSMT-34" transform="translate(75 0)"/>
      </g>
     </g>
    </g>
    <g id="xtick_6">
     <g id="line2d_11">
      <path d="M 477.655938 248.964705 
L 477.655938 29.04 
" clip-path="url(#pefc31597de)" style="fill: none; stroke-dasharray: 0.8,1.32; stroke-dashoffset: 0; stroke: #b0b0b0; stroke-opacity: 0.5; stroke-width: 0.8"/>
     </g>
     <g id="line2d_12">
      <g>
       <use xlink:href="#m7cc15facdb" x="477.655938" y="248.964705" style="stroke: #000000; stroke-width: 0.8"/>
      </g>
     </g>
     <g id="text_6">
      <!-- 0.5 -->
      <g transform="translate(470.155938 264.297205) scale(0.12 -0.12)">
       <defs>
        <path id="TimesNewRomanPSMT-35" d="M 2778 4238 
L 2534 3706 
L 1259 3706 
L 981 3138 
Q 1809 3016 2294 2522 
Q 2709 2097 2709 1522 
Q 2709 1188 2573 903 
Q 2438 619 2231 419 
Q 2025 219 1772 97 
Q 1413 -75 1034 -75 
Q 653 -75 479 54 
Q 306 184 306 341 
Q 306 428 378 495 
Q 450 563 559 563 
Q 641 563 702 538 
Q 763 513 909 409 
Q 1144 247 1384 247 
Q 1750 247 2026 523 
Q 2303 800 2303 1197 
Q 2303 1581 2056 1914 
Q 1809 2247 1375 2428 
Q 1034 2569 447 2591 
L 1259 4238 
L 2778 4238 
z
" transform="scale(0.015625)"/>
       </defs>
       <use xlink:href="#TimesNewRomanPSMT-30"/>
       <use xlink:href="#TimesNewRomanPSMT-2e" transform="translate(50 0)"/>
       <use xlink:href="#TimesNewRomanPSMT-35" transform="translate(75 0)"/>
      </g>
     </g>
    </g>
   </g>
   <g id="matplotlib.axis_2">
    <g id="ytick_1">
     <g id="line2d_13">
      <path d="M 65.63 242.076295 
L 497.27622 242.076295 
" clip-path="url(#pefc31597de)" style="fill: none; stroke-dasharray: 0.8,1.32; stroke-dashoffset: 0; stroke: #b0b0b0; stroke-opacity: 0.5; stroke-width: 0.8"/>
     </g>
     <g id="line2d_14">
      <defs>
       <path id="me3bd40daf8" d="M 0 0 
L -3.5 0 
" style="stroke: #000000; stroke-width: 0.8"/>
      </defs>
      <g>
       <use xlink:href="#me3bd40daf8" x="65.63" y="242.076295" style="stroke: #000000; stroke-width: 0.8"/>
      </g>
     </g>
     <g id="text_7">
      <!-- 8000 -->
      <g transform="translate(34.63 246.242545) scale(0.12 -0.12)">
       <defs>
        <path id="TimesNewRomanPSMT-38" d="M 1228 2134 
Q 725 2547 579 2797 
Q 434 3047 434 3316 
Q 434 3728 753 4026 
Q 1072 4325 1600 4325 
Q 2113 4325 2425 4047 
Q 2738 3769 2738 3413 
Q 2738 3175 2569 2928 
Q 2400 2681 1866 2347 
Q 2416 1922 2594 1678 
Q 2831 1359 2831 1006 
Q 2831 559 2490 242 
Q 2150 -75 1597 -75 
Q 994 -75 656 303 
Q 388 606 388 966 
Q 388 1247 577 1523 
Q 766 1800 1228 2134 
z
M 1719 2469 
Q 2094 2806 2194 3001 
Q 2294 3197 2294 3444 
Q 2294 3772 2109 3958 
Q 1925 4144 1606 4144 
Q 1288 4144 1088 3959 
Q 888 3775 888 3528 
Q 888 3366 970 3203 
Q 1053 3041 1206 2894 
L 1719 2469 
z
M 1375 2016 
Q 1116 1797 991 1539 
Q 866 1281 866 981 
Q 866 578 1086 336 
Q 1306 94 1647 94 
Q 1984 94 2187 284 
Q 2391 475 2391 747 
Q 2391 972 2272 1150 
Q 2050 1481 1375 2016 
z
" transform="scale(0.015625)"/>
       </defs>
       <use xlink:href="#TimesNewRomanPSMT-38"/>
       <use xlink:href="#TimesNewRomanPSMT-30" transform="translate(50 0)"/>
       <use xlink:href="#TimesNewRomanPSMT-30" transform="translate(100 0)"/>
       <use xlink:href="#TimesNewRomanPSMT-30" transform="translate(150 0)"/>
      </g>
     </g>
    </g>
    <g id="ytick_2">
     <g id="line2d_15">
      <path d="M 65.63 208.789468 
L 497.27622 208.789468 
" clip-path="url(#pefc31597de)" style="fill: none; stroke-dasharray: 0.8,1.32; stroke-dashoffset: 0; stroke: #b0b0b0; stroke-opacity: 0.5; stroke-width: 0.8"/>
     </g>
     <g id="line2d_16">
      <g>
       <use xlink:href="#me3bd40daf8" x="65.63" y="208.789468" style="stroke: #000000; stroke-width: 0.8"/>
      </g>
     </g>
     <g id="text_8">
      <!-- 9000 -->
      <g transform="translate(34.63 212.955718) scale(0.12 -0.12)">
       <defs>
        <path id="TimesNewRomanPSMT-39" d="M 338 -88 
L 338 28 
Q 744 34 1094 217 
Q 1444 400 1770 856 
Q 2097 1313 2225 1859 
Q 1734 1544 1338 1544 
Q 891 1544 572 1889 
Q 253 2234 253 2806 
Q 253 3363 572 3797 
Q 956 4325 1575 4325 
Q 2097 4325 2469 3894 
Q 2925 3359 2925 2575 
Q 2925 1869 2578 1258 
Q 2231 647 1613 244 
Q 1109 -88 516 -88 
L 338 -88 
z
M 2275 2091 
Q 2331 2497 2331 2741 
Q 2331 3044 2228 3395 
Q 2125 3747 1936 3934 
Q 1747 4122 1506 4122 
Q 1228 4122 1018 3872 
Q 809 3622 809 3128 
Q 809 2469 1088 2097 
Q 1291 1828 1588 1828 
Q 1731 1828 1928 1897 
Q 2125 1966 2275 2091 
z
" transform="scale(0.015625)"/>
       </defs>
       <use xlink:href="#TimesNewRomanPSMT-39"/>
       <use xlink:href="#TimesNewRomanPSMT-30" transform="translate(50 0)"/>
       <use xlink:href="#TimesNewRomanPSMT-30" transform="translate(100 0)"/>
       <use xlink:href="#TimesNewRomanPSMT-30" transform="translate(150 0)"/>
      </g>
     </g>
    </g>
    <g id="ytick_3">
     <g id="line2d_17">
      <path d="M 65.63 175.502642 
L 497.27622 175.502642 
" clip-path="url(#pefc31597de)" style="fill: none; stroke-dasharray: 0.8,1.32; stroke-dashoffset: 0; stroke: #b0b0b0; stroke-opacity: 0.5; stroke-width: 0.8"/>
     </g>
     <g id="line2d_18">
      <g>
       <use xlink:href="#me3bd40daf8" x="65.63" y="175.502642" style="stroke: #000000; stroke-width: 0.8"/>
      </g>
     </g>
     <g id="text_9">
      <!-- 10000 -->
      <g transform="translate(28.63 179.668892) scale(0.12 -0.12)">
       <use xlink:href="#TimesNewRomanPSMT-31"/>
       <use xlink:href="#TimesNewRomanPSMT-30" transform="translate(50 0)"/>
       <use xlink:href="#TimesNewRomanPSMT-30" transform="translate(100 0)"/>
       <use xlink:href="#TimesNewRomanPSMT-30" transform="translate(150 0)"/>
       <use xlink:href="#TimesNewRomanPSMT-30" transform="translate(200 0)"/>
      </g>
     </g>
    </g>
    <g id="ytick_4">
     <g id="line2d_19">
      <path d="M 65.63 142.215815 
L 497.27622 142.215815 
" clip-path="url(#pefc31597de)" style="fill: none; stroke-dasharray: 0.8,1.32; stroke-dashoffset: 0; stroke: #b0b0b0; stroke-opacity: 0.5; stroke-width: 0.8"/>
     </g>
     <g id="line2d_20">
      <g>
       <use xlink:href="#me3bd40daf8" x="65.63" y="142.215815" style="stroke: #000000; stroke-width: 0.8"/>
      </g>
     </g>
     <g id="text_10">
      <!-- 11000 -->
      <g transform="translate(29.08 146.382065) scale(0.12 -0.12)">
       <use xlink:href="#TimesNewRomanPSMT-31"/>
       <use xlink:href="#TimesNewRomanPSMT-31" transform="translate(46.25 0)"/>
       <use xlink:href="#TimesNewRomanPSMT-30" transform="translate(96.25 0)"/>
       <use xlink:href="#TimesNewRomanPSMT-30" transform="translate(146.25 0)"/>
       <use xlink:href="#TimesNewRomanPSMT-30" transform="translate(196.25 0)"/>
      </g>
     </g>
    </g>
    <g id="ytick_5">
     <g id="line2d_21">
      <path d="M 65.63 108.928988 
L 497.27622 108.928988 
" clip-path="url(#pefc31597de)" style="fill: none; stroke-dasharray: 0.8,1.32; stroke-dashoffset: 0; stroke: #b0b0b0; stroke-opacity: 0.5; stroke-width: 0.8"/>
     </g>
     <g id="line2d_22">
      <g>
       <use xlink:href="#me3bd40daf8" x="65.63" y="108.928988" style="stroke: #000000; stroke-width: 0.8"/>
      </g>
     </g>
     <g id="text_11">
      <!-- 12000 -->
      <g transform="translate(28.63 113.095238) scale(0.12 -0.12)">
       <use xlink:href="#TimesNewRomanPSMT-31"/>
       <use xlink:href="#TimesNewRomanPSMT-32" transform="translate(50 0)"/>
       <use xlink:href="#TimesNewRomanPSMT-30" transform="translate(100 0)"/>
       <use xlink:href="#TimesNewRomanPSMT-30" transform="translate(150 0)"/>
       <use xlink:href="#TimesNewRomanPSMT-30" transform="translate(200 0)"/>
      </g>
     </g>
    </g>
    <g id="ytick_6">
     <g id="line2d_23">
      <path d="M 65.63 75.642161 
L 497.27622 75.642161 
" clip-path="url(#pefc31597de)" style="fill: none; stroke-dasharray: 0.8,1.32; stroke-dashoffset: 0; stroke: #b0b0b0; stroke-opacity: 0.5; stroke-width: 0.8"/>
     </g>
     <g id="line2d_24">
      <g>
       <use xlink:href="#me3bd40daf8" x="65.63" y="75.642161" style="stroke: #000000; stroke-width: 0.8"/>
      </g>
     </g>
     <g id="text_12">
      <!-- 13000 -->
      <g transform="translate(28.63 79.808411) scale(0.12 -0.12)">
       <use xlink:href="#TimesNewRomanPSMT-31"/>
       <use xlink:href="#TimesNewRomanPSMT-33" transform="translate(50 0)"/>
       <use xlink:href="#TimesNewRomanPSMT-30" transform="translate(100 0)"/>
       <use xlink:href="#TimesNewRomanPSMT-30" transform="translate(150 0)"/>
       <use xlink:href="#TimesNewRomanPSMT-30" transform="translate(200 0)"/>
      </g>
     </g>
    </g>
    <g id="ytick_7">
     <g id="line2d_25">
      <path d="M 65.63 42.355334 
L 497.27622 42.355334 
" clip-path="url(#pefc31597de)" style="fill: none; stroke-dasharray: 0.8,1.32; stroke-dashoffset: 0; stroke: #b0b0b0; stroke-opacity: 0.5; stroke-width: 0.8"/>
     </g>
     <g id="line2d_26">
      <g>
       <use xlink:href="#me3bd40daf8" x="65.63" y="42.355334" style="stroke: #000000; stroke-width: 0.8"/>
      </g>
     </g>
     <g id="text_13">
      <!-- 14000 -->
      <g transform="translate(28.63 46.521584) scale(0.12 -0.12)">
       <use xlink:href="#TimesNewRomanPSMT-31"/>
       <use xlink:href="#TimesNewRomanPSMT-34" transform="translate(50 0)"/>
       <use xlink:href="#TimesNewRomanPSMT-30" transform="translate(100 0)"/>
       <use xlink:href="#TimesNewRomanPSMT-30" transform="translate(150 0)"/>
       <use xlink:href="#TimesNewRomanPSMT-30" transform="translate(200 0)"/>
      </g>
     </g>
    </g>
    <g id="text_14">
     <!-- Tensão RMS -->
     <g transform="translate(22.063125 170.08329) rotate(-90) scale(0.12 -0.12)">
      <defs>
       <path id="TimesNewRomanPSMT-54" d="M 3703 4238 
L 3750 3244 
L 3631 3244 
Q 3597 3506 3538 3619 
Q 3441 3800 3280 3886 
Q 3119 3972 2856 3972 
L 2259 3972 
L 2259 734 
Q 2259 344 2344 247 
Q 2463 116 2709 116 
L 2856 116 
L 2856 0 
L 1059 0 
L 1059 116 
L 1209 116 
Q 1478 116 1591 278 
Q 1659 378 1659 734 
L 1659 3972 
L 1150 3972 
Q 853 3972 728 3928 
Q 566 3869 450 3700 
Q 334 3531 313 3244 
L 194 3244 
L 244 4238 
L 3703 4238 
z
" transform="scale(0.015625)"/>
       <path id="TimesNewRomanPSMT-65" d="M 681 1784 
Q 678 1147 991 784 
Q 1303 422 1725 422 
Q 2006 422 2214 576 
Q 2422 731 2563 1106 
L 2659 1044 
Q 2594 616 2278 264 
Q 1963 -88 1488 -88 
Q 972 -88 605 314 
Q 238 716 238 1394 
Q 238 2128 614 2539 
Q 991 2950 1559 2950 
Q 2041 2950 2350 2633 
Q 2659 2316 2659 1784 
L 681 1784 
z
M 681 1966 
L 2006 1966 
Q 1991 2241 1941 2353 
Q 1863 2528 1708 2628 
Q 1553 2728 1384 2728 
Q 1125 2728 920 2526 
Q 716 2325 681 1966 
z
" transform="scale(0.015625)"/>
       <path id="TimesNewRomanPSMT-6e" d="M 1034 2341 
Q 1538 2947 1994 2947 
Q 2228 2947 2397 2830 
Q 2566 2713 2666 2444 
Q 2734 2256 2734 1869 
L 2734 647 
Q 2734 375 2778 278 
Q 2813 200 2889 156 
Q 2966 113 3172 113 
L 3172 0 
L 1756 0 
L 1756 113 
L 1816 113 
Q 2016 113 2095 173 
Q 2175 234 2206 353 
Q 2219 400 2219 647 
L 2219 1819 
Q 2219 2209 2117 2386 
Q 2016 2563 1775 2563 
Q 1403 2563 1034 2156 
L 1034 647 
Q 1034 356 1069 288 
Q 1113 197 1189 155 
Q 1266 113 1500 113 
L 1500 0 
L 84 0 
L 84 113 
L 147 113 
Q 366 113 442 223 
Q 519 334 519 647 
L 519 1709 
Q 519 2225 495 2337 
Q 472 2450 423 2490 
Q 375 2531 294 2531 
Q 206 2531 84 2484 
L 38 2597 
L 900 2947 
L 1034 2947 
L 1034 2341 
z
" transform="scale(0.015625)"/>
       <path id="TimesNewRomanPSMT-73" d="M 2050 2947 
L 2050 1972 
L 1947 1972 
Q 1828 2431 1642 2597 
Q 1456 2763 1169 2763 
Q 950 2763 815 2647 
Q 681 2531 681 2391 
Q 681 2216 781 2091 
Q 878 1963 1175 1819 
L 1631 1597 
Q 2266 1288 2266 781 
Q 2266 391 1970 151 
Q 1675 -88 1309 -88 
Q 1047 -88 709 6 
Q 606 38 541 38 
Q 469 38 428 -44 
L 325 -44 
L 325 978 
L 428 978 
Q 516 541 762 319 
Q 1009 97 1316 97 
Q 1531 97 1667 223 
Q 1803 350 1803 528 
Q 1803 744 1651 891 
Q 1500 1038 1047 1263 
Q 594 1488 453 1669 
Q 313 1847 313 2119 
Q 313 2472 555 2709 
Q 797 2947 1181 2947 
Q 1350 2947 1591 2875 
Q 1750 2828 1803 2828 
Q 1853 2828 1881 2850 
Q 1909 2872 1947 2947 
L 2050 2947 
z
" transform="scale(0.015625)"/>
       <path id="TimesNewRomanPSMT-e3" d="M 1822 413 
Q 1381 72 1269 19 
Q 1100 -59 909 -59 
Q 613 -59 420 144 
Q 228 347 228 678 
Q 228 888 322 1041 
Q 450 1253 767 1440 
Q 1084 1628 1822 1897 
L 1822 2009 
Q 1822 2438 1686 2597 
Q 1550 2756 1291 2756 
Q 1094 2756 978 2650 
Q 859 2544 859 2406 
L 866 2225 
Q 866 2081 792 2003 
Q 719 1925 600 1925 
Q 484 1925 411 2006 
Q 338 2088 338 2228 
Q 338 2497 613 2722 
Q 888 2947 1384 2947 
Q 1766 2947 2009 2819 
Q 2194 2722 2281 2516 
Q 2338 2381 2338 1966 
L 2338 994 
Q 2338 584 2353 492 
Q 2369 400 2405 369 
Q 2441 338 2488 338 
Q 2538 338 2575 359 
Q 2641 400 2828 588 
L 2828 413 
Q 2478 -56 2159 -56 
Q 2006 -56 1915 50 
Q 1825 156 1822 413 
z
M 1822 616 
L 1822 1706 
Q 1350 1519 1213 1441 
Q 966 1303 859 1153 
Q 753 1003 753 825 
Q 753 600 887 451 
Q 1022 303 1197 303 
Q 1434 303 1822 616 
z
M 534 3428 
L 434 3428 
Q 447 3856 612 4047 
Q 778 4238 1022 4238 
Q 1150 4238 1256 4197 
Q 1397 4144 1655 3973 
Q 1913 3803 2038 3803 
Q 2138 3803 2214 3887 
Q 2291 3972 2334 4238 
L 2431 4238 
Q 2434 3947 2354 3776 
Q 2275 3606 2129 3511 
Q 1984 3416 1838 3416 
Q 1591 3416 1225 3666 
Q 1028 3800 959 3828 
Q 891 3856 825 3856 
Q 697 3856 622 3744 
Q 588 3691 534 3428 
z
" transform="scale(0.015625)"/>
       <path id="TimesNewRomanPSMT-6f" d="M 1600 2947 
Q 2250 2947 2644 2453 
Q 2978 2031 2978 1484 
Q 2978 1100 2793 706 
Q 2609 313 2286 112 
Q 1963 -88 1566 -88 
Q 919 -88 538 428 
Q 216 863 216 1403 
Q 216 1797 411 2186 
Q 606 2575 925 2761 
Q 1244 2947 1600 2947 
z
M 1503 2744 
Q 1338 2744 1170 2645 
Q 1003 2547 900 2300 
Q 797 2053 797 1666 
Q 797 1041 1045 587 
Q 1294 134 1700 134 
Q 2003 134 2200 384 
Q 2397 634 2397 1244 
Q 2397 2006 2069 2444 
Q 1847 2744 1503 2744 
z
" transform="scale(0.015625)"/>
       <path id="TimesNewRomanPSMT-20" transform="scale(0.015625)"/>
       <path id="TimesNewRomanPSMT-52" d="M 4325 0 
L 3194 0 
L 1759 1981 
Q 1600 1975 1500 1975 
Q 1459 1975 1412 1976 
Q 1366 1978 1316 1981 
L 1316 750 
Q 1316 350 1403 253 
Q 1522 116 1759 116 
L 1925 116 
L 1925 0 
L 109 0 
L 109 116 
L 269 116 
Q 538 116 653 291 
Q 719 388 719 750 
L 719 3488 
Q 719 3888 631 3984 
Q 509 4122 269 4122 
L 109 4122 
L 109 4238 
L 1653 4238 
Q 2328 4238 2648 4139 
Q 2969 4041 3192 3777 
Q 3416 3513 3416 3147 
Q 3416 2756 3161 2468 
Q 2906 2181 2372 2063 
L 3247 847 
Q 3547 428 3762 290 
Q 3978 153 4325 116 
L 4325 0 
z
M 1316 2178 
Q 1375 2178 1419 2176 
Q 1463 2175 1491 2175 
Q 2097 2175 2405 2437 
Q 2713 2700 2713 3106 
Q 2713 3503 2464 3751 
Q 2216 4000 1806 4000 
Q 1625 4000 1316 3941 
L 1316 2178 
z
" transform="scale(0.015625)"/>
       <path id="TimesNewRomanPSMT-4d" d="M 2619 0 
L 981 3566 
L 981 734 
Q 981 344 1066 247 
Q 1181 116 1431 116 
L 1581 116 
L 1581 0 
L 106 0 
L 106 116 
L 256 116 
Q 525 116 638 278 
Q 706 378 706 734 
L 706 3503 
Q 706 3784 644 3909 
Q 600 4000 483 4061 
Q 366 4122 106 4122 
L 106 4238 
L 1306 4238 
L 2844 922 
L 4356 4238 
L 5556 4238 
L 5556 4122 
L 5409 4122 
Q 5138 4122 5025 3959 
Q 4956 3859 4956 3503 
L 4956 734 
Q 4956 344 5044 247 
Q 5159 116 5409 116 
L 5556 116 
L 5556 0 
L 3756 0 
L 3756 116 
L 3906 116 
Q 4178 116 4288 278 
Q 4356 378 4356 734 
L 4356 3566 
L 2722 0 
L 2619 0 
z
" transform="scale(0.015625)"/>
       <path id="TimesNewRomanPSMT-53" d="M 2934 4334 
L 2934 2869 
L 2819 2869 
Q 2763 3291 2617 3541 
Q 2472 3791 2203 3937 
Q 1934 4084 1647 4084 
Q 1322 4084 1109 3886 
Q 897 3688 897 3434 
Q 897 3241 1031 3081 
Q 1225 2847 1953 2456 
Q 2547 2138 2764 1967 
Q 2981 1797 3098 1565 
Q 3216 1334 3216 1081 
Q 3216 600 2842 251 
Q 2469 -97 1881 -97 
Q 1697 -97 1534 -69 
Q 1438 -53 1133 45 
Q 828 144 747 144 
Q 669 144 623 97 
Q 578 50 556 -97 
L 441 -97 
L 441 1356 
L 556 1356 
Q 638 900 775 673 
Q 913 447 1195 297 
Q 1478 147 1816 147 
Q 2206 147 2432 353 
Q 2659 559 2659 841 
Q 2659 997 2573 1156 
Q 2488 1316 2306 1453 
Q 2184 1547 1640 1851 
Q 1097 2156 867 2337 
Q 638 2519 519 2737 
Q 400 2956 400 3219 
Q 400 3675 750 4004 
Q 1100 4334 1641 4334 
Q 1978 4334 2356 4169 
Q 2531 4091 2603 4091 
Q 2684 4091 2736 4139 
Q 2788 4188 2819 4334 
L 2934 4334 
z
" transform="scale(0.015625)"/>
      </defs>
      <use xlink:href="#TimesNewRomanPSMT-54"/>
      <use xlink:href="#TimesNewRomanPSMT-65" transform="translate(54.083984 0)"/>
      <use xlink:href="#TimesNewRomanPSMT-6e" transform="translate(98.46875 0)"/>
      <use xlink:href="#TimesNewRomanPSMT-73" transform="translate(148.46875 0)"/>
      <use xlink:href="#TimesNewRomanPSMT-e3" transform="translate(187.384766 0)"/>
      <use xlink:href="#TimesNewRomanPSMT-6f" transform="translate(231.769531 0)"/>
      <use xlink:href="#TimesNewRomanPSMT-20" transform="translate(281.769531 0)"/>
      <use xlink:href="#TimesNewRomanPSMT-52" transform="translate(306.769531 0)"/>
      <use xlink:href="#TimesNewRomanPSMT-4d" transform="translate(373.46875 0)"/>
      <use xlink:href="#TimesNewRomanPSMT-53" transform="translate(462.384766 0)"/>
     </g>
    </g>
   </g>
   <g id="line2d_27">
    <path d="M 85.250283 183.01333 
L 85.603448 182.923934 
L 85.799651 182.589991 
L 86.035094 181.637793 
L 86.309778 179.465022 
L 86.662943 174.560014 
L 87.094589 164.972631 
L 87.683198 146.054847 
L 90.037632 62.463788 
L 90.547759 53.900973 
L 90.979405 50.019012 
L 91.33257 48.632791 
L 91.607254 48.287907 
L 91.960419 48.248213 
L 93.059155 48.38523 
L 95.178146 48.707005 
L 96.276882 48.579471 
L 98.474353 48.247696 
L 99.573089 48.379963 
L 101.73132 48.70683 
L 102.830056 48.576873 
L 105.027528 48.247944 
L 106.126264 48.382594 
L 108.245254 48.707146 
L 109.34399 48.582055 
L 111.580702 48.248228 
L 112.679438 48.385238 
L 114.798429 48.707006 
L 115.897164 48.579472 
L 118.094636 48.247696 
L 119.193372 48.379964 
L 121.351603 48.706831 
L 122.450339 48.576872 
L 124.647811 48.247944 
L 125.746546 48.382593 
L 127.865537 48.707146 
L 128.964273 48.582055 
L 131.200985 48.248228 
L 132.299721 48.385238 
L 134.418711 48.707006 
L 135.517447 48.579472 
L 137.714919 48.247696 
L 138.813655 48.379964 
L 140.971886 48.706831 
L 142.070622 48.576872 
L 144.268093 48.247944 
L 145.366829 48.382593 
L 147.48582 48.707146 
L 148.584555 48.582055 
L 150.821268 48.248228 
L 151.920004 48.385238 
L 154.038994 48.707006 
L 155.13773 48.579472 
L 157.335202 48.247696 
L 158.433937 48.379964 
L 160.592169 48.706831 
L 161.690904 48.576872 
L 163.888376 48.247944 
L 164.987112 48.382593 
L 167.106102 48.707146 
L 168.204838 48.582055 
L 170.44155 48.248228 
L 171.540286 48.385238 
L 173.659277 48.707006 
L 174.758013 48.579472 
L 176.955484 48.247696 
L 178.05422 48.379964 
L 180.212451 48.706831 
L 181.311187 48.576872 
L 183.508659 48.247944 
L 184.607395 48.382593 
L 186.726385 48.707146 
L 187.825121 48.582055 
L 190.061833 48.248228 
L 191.160569 48.385238 
L 193.27956 48.707006 
L 194.378295 48.579472 
L 196.575767 48.247696 
L 197.674503 48.379964 
L 199.832734 48.706831 
L 200.93147 48.576872 
L 203.128942 48.247944 
L 204.227677 48.382593 
L 206.346668 48.707146 
L 207.445404 48.582055 
L 209.642875 48.248281 
L 209.917559 48.346275 
L 210.153003 48.67316 
L 210.427687 49.486602 
L 210.780852 51.347423 
L 211.212498 54.920887 
L 211.840347 62.244297 
L 213.488451 82.741857 
L 213.959338 85.923795 
L 214.312503 87.134838 
L 214.587187 87.4345 
L 214.783389 87.360441 
L 215.058073 86.941451 
L 215.646682 85.466881 
L 216.117569 84.585136 
L 216.353012 84.508389 
L 216.549215 84.707389 
L 216.784658 85.314385 
L 217.098583 86.814991 
L 217.490988 89.851592 
L 218.040356 96.10861 
L 218.98213 110.080125 
L 219.884663 122.303826 
L 220.39479 126.710418 
L 220.787196 128.514565 
L 221.06188 128.995407 
L 221.258083 128.999098 
L 221.493526 128.700068 
L 221.885932 127.727861 
L 222.592262 125.959949 
L 222.866946 125.755745 
L 223.14163 125.812767 
L 223.651757 126.216397 
L 224.868215 127.215318 
L 225.770748 127.606733 
L 226.791002 127.7325 
L 228.085941 127.57647 
L 229.498602 127.415661 
L 230.675818 127.508386 
L 233.187215 127.784335 
L 234.442913 127.613148 
L 236.130257 127.412445 
L 237.307474 127.52129 
L 239.544186 127.791986 
L 240.799884 127.646191 
L 242.722672 127.412671 
L 243.93913 127.536781 
L 246.01888 127.793168 
L 247.235337 127.664694 
L 249.275847 127.412801 
L 250.492304 127.539073 
L 252.572054 127.792928 
L 253.788512 127.662389 
L 255.829021 127.412959 
L 257.045478 127.541323 
L 259.125228 127.792712 
L 260.341686 127.660116 
L 262.382195 127.413147 
L 263.598653 127.543595 
L 265.639162 127.793126 
L 266.85562 127.664675 
L 268.93537 127.413366 
L 270.151827 127.545876 
L 272.192337 127.792935 
L 273.408794 127.662401 
L 275.449304 127.412959 
L 276.665761 127.541328 
L 278.745511 127.792716 
L 279.961969 127.660121 
L 282.002478 127.413147 
L 283.218936 127.543598 
L 285.259445 127.793125 
L 286.475903 127.66467 
L 288.555653 127.413366 
L 289.77211 127.545878 
L 291.81262 127.792935 
L 293.029077 127.662399 
L 295.069586 127.412959 
L 296.286044 127.541327 
L 298.365794 127.792716 
L 299.582251 127.660119 
L 301.622761 127.413148 
L 302.839218 127.543597 
L 304.879728 127.793124 
L 306.096185 127.664671 
L 308.175935 127.413366 
L 309.392393 127.545877 
L 311.432902 127.792935 
L 312.64936 127.6624 
L 314.689869 127.412959 
L 315.906327 127.541327 
L 317.986077 127.792716 
L 319.202534 127.660119 
L 321.243044 127.413147 
L 322.459501 127.543597 
L 324.500011 127.793124 
L 325.716468 127.664671 
L 327.796218 127.413366 
L 329.012676 127.545877 
L 331.053185 127.792935 
L 332.269643 127.6624 
L 334.310152 127.412959 
L 335.526609 127.541327 
L 337.606359 127.792716 
L 338.822817 127.660119 
L 340.863326 127.413147 
L 342.079784 127.543597 
L 344.120293 127.793124 
L 345.336751 127.664671 
L 347.416501 127.413366 
L 348.632958 127.545877 
L 350.673468 127.792935 
L 351.889925 127.6624 
L 353.930435 127.412959 
L 355.146892 127.541327 
L 357.226642 127.792716 
L 358.4431 127.660119 
L 360.483609 127.413147 
L 361.700067 127.543597 
L 363.740576 127.793124 
L 364.957034 127.664671 
L 367.036784 127.413366 
L 368.253241 127.545877 
L 370.293751 127.792935 
L 371.510208 127.6624 
L 373.550717 127.412959 
L 374.767175 127.541327 
L 376.846925 127.792716 
L 378.063382 127.660119 
L 380.103892 127.413147 
L 381.320349 127.543597 
L 383.360859 127.793124 
L 384.577316 127.664671 
L 386.657066 127.413366 
L 387.873524 127.545877 
L 389.914033 127.792935 
L 391.130491 127.6624 
L 393.171 127.412959 
L 394.387458 127.541327 
L 396.467208 127.792716 
L 397.683665 127.660119 
L 399.724175 127.413147 
L 400.940632 127.543597 
L 402.981142 127.793124 
L 404.197599 127.664671 
L 406.277349 127.413366 
L 407.493807 127.545877 
L 409.534316 127.792935 
L 410.750774 127.6624 
L 412.791283 127.412959 
L 414.00774 127.541327 
L 416.08749 127.792716 
L 417.303948 127.660119 
L 419.344457 127.413147 
L 420.560915 127.543597 
L 422.601424 127.793124 
L 423.817882 127.664671 
L 425.897632 127.413366 
L 427.114089 127.545877 
L 429.154599 127.792935 
L 430.371056 127.6624 
L 432.411566 127.412959 
L 433.628023 127.541327 
L 435.707773 127.792716 
L 436.924231 127.660119 
L 438.96474 127.413147 
L 440.181198 127.543597 
L 442.221707 127.793124 
L 443.438165 127.664671 
L 445.517915 127.413366 
L 446.734372 127.545877 
L 448.774882 127.792935 
L 449.991339 127.6624 
L 452.031848 127.412959 
L 453.248306 127.541327 
L 455.328056 127.792716 
L 456.544513 127.660119 
L 458.585023 127.413147 
L 459.80148 127.543597 
L 461.84199 127.793124 
L 463.058447 127.664671 
L 465.138197 127.413366 
L 466.354655 127.545877 
L 468.395164 127.792935 
L 469.611622 127.6624 
L 471.181244 127.472247 
L 471.455928 127.599458 
L 471.966056 127.740586 
L 472.201499 128.156645 
L 472.476183 129.210975 
L 472.790108 131.420944 
L 473.182513 136.026568 
L 473.6534 144.553131 
L 474.242009 159.637782 
L 475.223023 191.670562 
L 476.204037 221.302771 
L 476.753405 232.085427 
L 477.185051 236.860309 
L 477.538216 238.678719 
L 477.655938 238.968127 
L 477.655938 238.968127 
" clip-path="url(#pefc31597de)" style="fill: none; stroke: #0000ff; stroke-width: 1.5; stroke-linecap: square"/>
   </g>
   <g id="line2d_28">
    <path d="M 85.250283 187.316498 
L 86.074335 154.06929 
L 87.330033 104.521932 
L 87.957882 88.122965 
L 88.468009 80.182124 
L 88.860415 77.008169 
L 89.174339 75.874271 
L 89.449023 75.552851 
L 90.155353 75.221719 
L 90.390797 74.538793 
L 90.665481 72.967749 
L 91.018646 69.389917 
L 91.450292 62.3095 
L 91.764217 55.305016 
L 91.881938 55.327587 
L 93.059155 55.434226 
L 94.157891 55.29785 
L 96.276882 54.982439 
L 97.375617 55.109344 
L 99.573089 55.434801 
L 100.671825 55.303071 
L 102.830056 54.982631 
L 103.928792 55.111913 
L 106.087023 55.435224 
L 107.185759 55.308226 
L 109.383231 54.982859 
L 110.481966 55.114497 
L 112.640197 55.43503 
L 113.738933 55.305656 
L 115.897164 54.982438 
L 116.9959 55.109344 
L 119.193372 55.434802 
L 120.292108 55.303071 
L 122.450339 54.982631 
L 123.549075 55.111913 
L 125.707306 55.435223 
L 126.806042 55.308226 
L 129.003513 54.982859 
L 130.102249 55.114497 
L 132.26048 55.43503 
L 133.359216 55.305656 
L 135.517447 54.982438 
L 136.616183 55.109344 
L 138.813655 55.434802 
L 139.91239 55.303071 
L 142.070622 54.982631 
L 143.169357 55.111913 
L 145.327589 55.435223 
L 146.426324 55.308226 
L 148.623796 54.982859 
L 149.722532 55.114497 
L 151.880763 55.43503 
L 152.979499 55.305656 
L 155.13773 54.982438 
L 156.236466 55.109344 
L 158.433937 55.434802 
L 159.532673 55.303071 
L 161.690904 54.982631 
L 162.78964 55.111913 
L 164.947871 55.435223 
L 166.046607 55.308226 
L 168.244079 54.982859 
L 169.342815 55.114497 
L 171.501046 55.43503 
L 172.599782 55.305656 
L 174.758013 54.982438 
L 175.856748 55.109344 
L 178.05422 55.434802 
L 179.152956 55.303071 
L 181.311187 54.982631 
L 182.409923 55.111913 
L 184.568154 55.435223 
L 185.66689 55.308226 
L 187.864362 54.982859 
L 188.963097 55.114497 
L 191.121328 55.43503 
L 192.220064 55.305656 
L 194.378295 54.982438 
L 195.477031 55.109344 
L 197.674503 55.434802 
L 198.773239 55.303071 
L 200.93147 54.982631 
L 202.030206 55.111913 
L 204.188437 55.435223 
L 205.287173 55.308226 
L 207.484644 54.982859 
L 208.58338 55.114497 
L 209.682116 55.401467 
L 209.917559 55.907198 
L 210.270724 57.367906 
L 210.859333 61.021165 
L 212.389715 70.973609 
L 212.899842 72.834234 
L 213.331489 73.661924 
L 213.684654 73.923351 
L 214.077059 73.936371 
L 214.82263 73.911479 
L 215.136555 74.174459 
L 215.48972 74.833616 
L 215.882125 76.110758 
L 216.353012 78.452951 
L 217.020102 83.084589 
L 218.942889 97.328038 
L 219.453017 99.309521 
L 219.884663 100.179877 
L 220.237828 100.44813 
L 220.630234 100.454586 
L 221.336564 100.416665 
L 221.650488 100.673257 
L 221.964413 101.241771 
L 222.356819 102.49343 
L 223.377073 106.291744 
L 223.84796 106.975363 
L 224.279606 107.273615 
L 224.789734 107.405507 
L 225.496064 107.379202 
L 227.575814 107.294537 
L 231.068224 107.581592 
L 233.57962 107.247996 
L 234.796078 107.391209 
L 236.718866 107.648582 
L 237.935323 107.526827 
L 240.172035 107.249512 
L 241.388493 107.400895 
L 243.27204 107.648006 
L 244.410016 107.538382 
L 246.685969 107.248706 
L 247.902427 107.396 
L 249.825214 107.647953 
L 251.002431 107.529307 
L 253.199903 107.248039 
L 254.416361 107.391196 
L 256.378389 107.647873 
L 257.555606 107.527008 
L 259.713837 107.247503 
L 260.891054 107.379219 
L 262.970804 107.647287 
L 264.148021 107.51766 
L 266.227771 107.247094 
L 267.404988 107.374492 
L 269.523978 107.647075 
L 270.701195 107.51529 
L 272.780945 107.247283 
L 273.958162 107.376845 
L 276.037912 107.647494 
L 277.215129 107.520009 
L 279.33412 107.247504 
L 280.511337 107.37921 
L 282.591087 107.647304 
L 283.768304 107.517653 
L 285.848054 107.247094 
L 287.025271 107.374488 
L 289.144261 107.647082 
L 290.321478 107.515285 
L 292.401228 107.247283 
L 293.578445 107.376843 
L 295.658195 107.64749 
L 296.835412 107.520011 
L 298.954402 107.247504 
L 300.131619 107.37921 
L 302.211369 107.647301 
L 303.388586 107.517654 
L 305.468336 107.247094 
L 306.645553 107.374489 
L 308.764544 107.647081 
L 309.941761 107.515287 
L 312.021511 107.247283 
L 313.198728 107.376844 
L 315.278478 107.647491 
L 316.455695 107.52001 
L 318.574685 107.247504 
L 319.751902 107.37921 
L 321.831652 107.647302 
L 323.008869 107.517654 
L 325.088619 107.247094 
L 326.265836 107.374488 
L 328.384827 107.647081 
L 329.562044 107.515286 
L 331.641794 107.247283 
L 332.81901 107.376844 
L 334.89876 107.647491 
L 336.075977 107.52001 
L 338.194968 107.247504 
L 339.372185 107.37921 
L 341.451935 107.647302 
L 342.629152 107.517654 
L 344.708902 107.247094 
L 345.886119 107.374488 
L 348.005109 107.647081 
L 349.182326 107.515286 
L 351.262076 107.247283 
L 352.439293 107.376844 
L 354.519043 107.647491 
L 355.69626 107.52001 
L 357.815251 107.247504 
L 358.992468 107.37921 
L 361.072218 107.647302 
L 362.249435 107.517654 
L 364.329185 107.247094 
L 365.506402 107.374488 
L 367.625392 107.647081 
L 368.802609 107.515286 
L 370.882359 107.247283 
L 372.059576 107.376844 
L 374.139326 107.647491 
L 375.316543 107.52001 
L 377.435533 107.247504 
L 378.61275 107.37921 
L 380.6925 107.647302 
L 381.869717 107.517654 
L 383.949467 107.247094 
L 385.126684 107.374488 
L 387.245675 107.647081 
L 388.422892 107.515286 
L 390.502642 107.247283 
L 391.679859 107.376844 
L 393.759609 107.647491 
L 394.936826 107.52001 
L 397.055816 107.247504 
L 398.233033 107.37921 
L 400.312783 107.647302 
L 401.49 107.517654 
L 403.56975 107.247094 
L 404.746967 107.374488 
L 406.865958 107.647081 
L 408.043175 107.515286 
L 410.122925 107.247283 
L 411.300141 107.376844 
L 413.379891 107.647491 
L 414.557108 107.52001 
L 416.676099 107.247504 
L 417.853316 107.37921 
L 419.933066 107.647302 
L 421.110283 107.517654 
L 423.190033 107.247094 
L 424.36725 107.374488 
L 426.48624 107.647081 
L 427.663457 107.515286 
L 429.743207 107.247283 
L 430.920424 107.376844 
L 433.000174 107.647491 
L 434.177391 107.52001 
L 436.296382 107.247504 
L 437.473599 107.37921 
L 439.553349 107.647302 
L 440.730566 107.517654 
L 442.810316 107.247094 
L 443.987533 107.374488 
L 446.106523 107.647081 
L 447.28374 107.515286 
L 449.36349 107.247283 
L 450.540707 107.376844 
L 452.620457 107.647491 
L 453.797674 107.52001 
L 455.916664 107.247504 
L 457.093881 107.37921 
L 459.173631 107.647302 
L 460.350848 107.517654 
L 462.430598 107.247094 
L 463.607815 107.374488 
L 465.726806 107.647081 
L 466.904023 107.515286 
L 468.983773 107.247283 
L 470.16099 107.376844 
L 471.142004 107.557903 
L 471.809093 126.176162 
L 473.771122 184.532448 
L 474.281249 192.222979 
L 474.673655 195.259826 
L 474.987579 196.283746 
L 475.262263 196.53341 
L 475.850872 196.767974 
L 476.086315 197.379487 
L 476.360999 198.888914 
L 476.674924 202.011413 
L 477.067329 208.487798 
L 477.538216 220.532048 
L 477.655938 224.296506 
L 477.655938 224.296506 
" clip-path="url(#pefc31597de)" style="fill: none; stroke: #ff0000; stroke-width: 1.5; stroke-linecap: square"/>
   </g>
   <g id="line2d_29">
    <path d="M 85.250283 185.067638 
L 85.838891 167.094604 
L 86.309778 158.669706 
L 86.702184 155.075037 
L 87.016108 153.862991 
L 87.290792 153.559467 
L 87.879401 153.308129 
L 88.114844 152.641224 
L 88.389528 150.983977 
L 88.703453 147.578353 
L 89.095858 140.68491 
L 89.605986 127.334405 
L 90.390797 99.81519 
L 91.724976 53.285249 
L 91.842698 52.192648 
L 94.157891 51.855829 
L 95.295868 52.007451 
L 97.257896 52.310127 
L 98.317391 52.204978 
L 100.750306 51.857785 
L 101.888283 52.018394 
L 103.77183 52.309956 
L 104.831325 52.209772 
L 107.342721 51.860308 
L 108.519938 52.037914 
L 110.285764 52.309642 
L 111.345259 52.214485 
L 113.895896 51.861026 
L 115.073113 52.040733 
L 116.838938 52.309817 
L 117.898433 52.212139 
L 120.409829 51.859624 
L 121.587046 52.035101 
L 123.352872 52.309431 
L 124.412367 52.216811 
L 127.002244 51.862567 
L 128.179461 52.046392 
L 129.906046 52.309642 
L 130.965542 52.214485 
L 133.516178 51.861026 
L 134.693395 52.040733 
L 136.459221 52.309817 
L 137.518716 52.212139 
L 140.030112 51.859624 
L 141.207329 52.035101 
L 142.973155 52.309431 
L 144.03265 52.216811 
L 146.622527 51.862567 
L 147.799744 52.046392 
L 149.526329 52.309642 
L 150.585824 52.214485 
L 153.136461 51.861026 
L 154.313678 52.040733 
L 156.079503 52.309817 
L 157.138999 52.212139 
L 159.650395 51.859624 
L 160.827612 52.035101 
L 162.593437 52.309431 
L 163.652933 52.216811 
L 166.24281 51.862567 
L 167.420027 52.046392 
L 169.146612 52.309642 
L 170.206107 52.214485 
L 172.756744 51.861026 
L 173.933961 52.040733 
L 175.699786 52.309817 
L 176.759281 52.212139 
L 179.270678 51.859624 
L 180.447895 52.035101 
L 182.21372 52.309431 
L 183.273215 52.216811 
L 185.863093 51.862567 
L 187.04031 52.046392 
L 188.766895 52.309642 
L 189.82639 52.214485 
L 192.377027 51.861026 
L 193.554244 52.040733 
L 195.320069 52.309817 
L 196.379564 52.212139 
L 198.89096 51.859624 
L 200.068177 52.035101 
L 201.834003 52.309431 
L 202.893498 52.216811 
L 205.483375 51.862567 
L 206.660592 52.046392 
L 208.387177 52.309642 
L 209.446673 52.214485 
L 209.721357 52.077754 
L 209.9568 51.537743 
L 210.466927 49.665997 
L 211.251739 46.96335 
L 211.644144 46.319998 
L 211.918828 46.242186 
L 212.154272 46.41969 
L 212.468196 46.973254 
L 212.939083 48.325177 
L 214.234022 52.314295 
L 214.587187 52.692692 
L 214.82263 52.653742 
L 215.058073 52.37848 
L 215.411239 51.512347 
L 215.882125 49.634604 
L 216.784658 44.838382 
L 217.530229 41.394029 
L 218.001116 40.148774 
L 218.31504 39.833185 
L 218.550484 39.871337 
L 218.825168 40.19512 
L 219.217573 41.097338 
L 219.923904 43.45914 
L 220.669474 45.675912 
L 221.06188 46.219288 
L 221.297323 46.251895 
L 221.532767 46.04638 
L 221.846691 45.399839 
L 222.278337 43.884755 
L 223.259352 40.141691 
L 223.730238 39.493223 
L 224.240366 39.173611 
L 224.907455 39.040202 
L 225.809988 39.111465 
L 228.67455 39.564052 
L 229.655564 39.414733 
L 231.49987 39.11282 
L 232.559366 39.205601 
L 235.110002 39.574122 
L 236.287219 39.394394 
L 238.053045 39.112282 
L 239.11254 39.207489 
L 241.663177 39.573775 
L 242.801153 39.399949 
L 244.606219 39.112065 
L 245.665715 39.209788 
L 248.216351 39.573196 
L 249.354328 39.397016 
L 251.159394 39.111888 
L 252.218889 39.212214 
L 254.730285 39.574669 
L 255.868262 39.402743 
L 257.673328 39.112285 
L 258.732823 39.207436 
L 261.28346 39.573944 
L 262.421436 39.399892 
L 264.226502 39.112068 
L 265.285997 39.209832 
L 267.836634 39.573192 
L 268.97461 39.397019 
L 270.740436 39.112538 
L 271.799931 39.205073 
L 274.389808 39.572417 
L 275.567025 39.385437 
L 277.29361 39.112285 
L 278.353106 39.20744 
L 280.903742 39.573932 
L 282.041719 39.399894 
L 283.846785 39.112068 
L 284.90628 39.209829 
L 287.456917 39.573193 
L 288.594893 39.397018 
L 290.360719 39.112538 
L 291.420214 39.205073 
L 294.010091 39.572418 
L 295.187308 39.385437 
L 296.913893 39.112285 
L 297.973388 39.20744 
L 300.524025 39.573932 
L 301.662001 39.399895 
L 303.467067 39.112068 
L 304.526563 39.209829 
L 307.0772 39.573193 
L 308.215176 39.397018 
L 309.981001 39.112538 
L 311.040497 39.205073 
L 313.630374 39.572418 
L 314.807591 39.385437 
L 316.534176 39.112285 
L 317.593671 39.20744 
L 320.144308 39.573932 
L 321.282284 39.399895 
L 323.08735 39.112068 
L 324.146845 39.209829 
L 326.697482 39.573193 
L 327.835459 39.397018 
L 329.601284 39.112538 
L 330.660779 39.205073 
L 333.250657 39.572418 
L 334.427874 39.385437 
L 336.154459 39.112285 
L 337.213954 39.20744 
L 339.764591 39.573932 
L 340.902567 39.399895 
L 342.707633 39.112068 
L 343.767128 39.209829 
L 346.317765 39.573193 
L 347.455741 39.397018 
L 349.221567 39.112538 
L 350.281062 39.205073 
L 352.870939 39.572418 
L 354.048156 39.385437 
L 355.774741 39.112285 
L 356.834237 39.20744 
L 359.384873 39.573932 
L 360.52285 39.399895 
L 362.327916 39.112068 
L 363.387411 39.209829 
L 365.938048 39.573193 
L 367.076024 39.397018 
L 368.84185 39.112538 
L 369.901345 39.205073 
L 372.491222 39.572418 
L 373.668439 39.385437 
L 375.395024 39.112285 
L 376.454519 39.20744 
L 379.005156 39.573932 
L 380.143132 39.399895 
L 381.948198 39.112068 
L 383.007694 39.209829 
L 385.558331 39.573193 
L 386.696307 39.397018 
L 388.462132 39.112538 
L 389.521628 39.205073 
L 392.111505 39.572418 
L 393.288722 39.385437 
L 395.015307 39.112285 
L 396.074802 39.20744 
L 398.625439 39.573932 
L 399.763415 39.399895 
L 401.568481 39.112068 
L 402.627976 39.209829 
L 405.178613 39.573193 
L 406.31659 39.397018 
L 408.082415 39.112538 
L 409.14191 39.205073 
L 411.731788 39.572418 
L 412.909005 39.385437 
L 414.63559 39.112285 
L 415.695085 39.20744 
L 418.245722 39.573932 
L 419.383698 39.399895 
L 421.188764 39.112068 
L 422.248259 39.209829 
L 424.798896 39.573193 
L 425.936872 39.397018 
L 427.702698 39.112538 
L 428.762193 39.205073 
L 431.35207 39.572418 
L 432.529287 39.385437 
L 434.255872 39.112285 
L 435.315368 39.20744 
L 437.866004 39.573932 
L 439.003981 39.399895 
L 440.809047 39.112068 
L 441.868542 39.209829 
L 444.419179 39.573193 
L 445.557155 39.397018 
L 447.322981 39.112538 
L 448.382476 39.205073 
L 450.972353 39.572418 
L 452.14957 39.385437 
L 453.876155 39.112285 
L 454.93565 39.20744 
L 457.486287 39.573932 
L 458.624263 39.399895 
L 460.429329 39.112068 
L 461.488825 39.209829 
L 464.039461 39.573193 
L 465.177438 39.397018 
L 466.943263 39.112538 
L 468.002759 39.205073 
L 470.592636 39.572418 
L 471.142004 39.509849 
L 471.848334 57.675705 
L 472.358461 65.782772 
L 472.750867 69.11502 
L 473.064792 70.321579 
L 473.339476 70.66717 
L 474.045806 71.013648 
L 474.281249 71.73218 
L 474.555933 73.399237 
L 474.909098 77.250579 
L 475.301504 84.218424 
L 475.811631 97.855793 
L 476.478721 122.830095 
L 477.655938 175.98891 
L 477.655938 175.98891 
" clip-path="url(#pefc31597de)" style="fill: none; stroke: #008000; stroke-width: 1.5; stroke-linecap: square"/>
   </g>
   <g id="patch_3">
    <path d="M 65.63 248.964705 
L 65.63 29.04 
" style="fill: none; stroke: #000000; stroke-width: 0.8; stroke-linejoin: miter; stroke-linecap: square"/>
   </g>
   <g id="patch_4">
    <path d="M 497.27622 248.964705 
L 497.27622 29.04 
" style="fill: none; stroke: #000000; stroke-width: 0.8; stroke-linejoin: miter; stroke-linecap: square"/>
   </g>
   <g id="patch_5">
    <path d="M 65.63 248.964705 
L 497.27622 248.964705 
" style="fill: none; stroke: #000000; stroke-width: 0.8; stroke-linejoin: miter; stroke-linecap: square"/>
   </g>
   <g id="patch_6">
    <path d="M 65.63 29.04 
L 497.27622 29.04 
" style="fill: none; stroke: #000000; stroke-width: 0.8; stroke-linejoin: miter; stroke-linecap: square"/>
   </g>
   <g id="text_15">
    <!-- RMS Três Fases - V 818 -->
    <g transform="translate(210.682735 23.04) scale(0.144 -0.144)">
     <defs>
      <path id="TimesNewRomanPSMT-72" d="M 1038 2947 
L 1038 2303 
Q 1397 2947 1775 2947 
Q 1947 2947 2059 2842 
Q 2172 2738 2172 2600 
Q 2172 2478 2090 2393 
Q 2009 2309 1897 2309 
Q 1788 2309 1652 2417 
Q 1516 2525 1450 2525 
Q 1394 2525 1328 2463 
Q 1188 2334 1038 2041 
L 1038 669 
Q 1038 431 1097 309 
Q 1138 225 1241 169 
Q 1344 113 1538 113 
L 1538 0 
L 72 0 
L 72 113 
Q 291 113 397 181 
Q 475 231 506 341 
Q 522 394 522 644 
L 522 1753 
Q 522 2253 501 2348 
Q 481 2444 426 2487 
Q 372 2531 291 2531 
Q 194 2531 72 2484 
L 41 2597 
L 906 2947 
L 1038 2947 
z
" transform="scale(0.015625)"/>
      <path id="TimesNewRomanPSMT-ea" d="M 681 1784 
Q 678 1147 991 784 
Q 1303 422 1725 422 
Q 2006 422 2214 576 
Q 2422 731 2563 1106 
L 2659 1044 
Q 2594 616 2278 264 
Q 1963 -88 1488 -88 
Q 972 -88 605 314 
Q 238 716 238 1394 
Q 238 2128 614 2539 
Q 991 2950 1559 2950 
Q 2041 2950 2350 2633 
Q 2659 2316 2659 1784 
L 681 1784 
z
M 681 1966 
L 2006 1966 
Q 1991 2241 1941 2353 
Q 1863 2528 1708 2628 
Q 1553 2728 1384 2728 
Q 1125 2728 920 2526 
Q 716 2325 681 1966 
z
M 1259 4328 
L 1834 4328 
L 2428 3294 
L 2331 3294 
L 1478 3959 
L 763 3294 
L 669 3294 
L 1259 4328 
z
" transform="scale(0.015625)"/>
      <path id="TimesNewRomanPSMT-46" d="M 1309 4006 
L 1309 2341 
L 2081 2341 
Q 2347 2341 2470 2458 
Q 2594 2575 2634 2922 
L 2750 2922 
L 2750 1488 
L 2634 1488 
Q 2631 1734 2570 1850 
Q 2509 1966 2401 2023 
Q 2294 2081 2081 2081 
L 1309 2081 
L 1309 750 
Q 1309 428 1350 325 
Q 1381 247 1481 191 
Q 1619 116 1769 116 
L 1922 116 
L 1922 0 
L 103 0 
L 103 116 
L 253 116 
Q 516 116 634 269 
Q 709 369 709 750 
L 709 3488 
Q 709 3809 669 3913 
Q 638 3991 541 4047 
Q 406 4122 253 4122 
L 103 4122 
L 103 4238 
L 3256 4238 
L 3297 3306 
L 3188 3306 
Q 3106 3603 2998 3742 
Q 2891 3881 2733 3943 
Q 2575 4006 2244 4006 
L 1309 4006 
z
" transform="scale(0.015625)"/>
      <path id="TimesNewRomanPSMT-61" d="M 1822 413 
Q 1381 72 1269 19 
Q 1100 -59 909 -59 
Q 613 -59 420 144 
Q 228 347 228 678 
Q 228 888 322 1041 
Q 450 1253 767 1440 
Q 1084 1628 1822 1897 
L 1822 2009 
Q 1822 2438 1686 2597 
Q 1550 2756 1291 2756 
Q 1094 2756 978 2650 
Q 859 2544 859 2406 
L 866 2225 
Q 866 2081 792 2003 
Q 719 1925 600 1925 
Q 484 1925 411 2006 
Q 338 2088 338 2228 
Q 338 2497 613 2722 
Q 888 2947 1384 2947 
Q 1766 2947 2009 2819 
Q 2194 2722 2281 2516 
Q 2338 2381 2338 1966 
L 2338 994 
Q 2338 584 2353 492 
Q 2369 400 2405 369 
Q 2441 338 2488 338 
Q 2538 338 2575 359 
Q 2641 400 2828 588 
L 2828 413 
Q 2478 -56 2159 -56 
Q 2006 -56 1915 50 
Q 1825 156 1822 413 
z
M 1822 616 
L 1822 1706 
Q 1350 1519 1213 1441 
Q 966 1303 859 1153 
Q 753 1003 753 825 
Q 753 600 887 451 
Q 1022 303 1197 303 
Q 1434 303 1822 616 
z
" transform="scale(0.015625)"/>
      <path id="TimesNewRomanPSMT-2d" d="M 259 1672 
L 1875 1672 
L 1875 1200 
L 259 1200 
L 259 1672 
z
" transform="scale(0.015625)"/>
      <path id="TimesNewRomanPSMT-56" d="M 4544 4238 
L 4544 4122 
Q 4319 4081 4203 3978 
Q 4038 3825 3909 3509 
L 2431 -97 
L 2316 -97 
L 728 3556 
Q 606 3838 556 3900 
Q 478 3997 364 4051 
Q 250 4106 56 4122 
L 56 4238 
L 1788 4238 
L 1788 4122 
Q 1494 4094 1406 4022 
Q 1319 3950 1319 3838 
Q 1319 3681 1463 3350 
L 2541 866 
L 3541 3319 
Q 3688 3681 3688 3822 
Q 3688 3913 3597 3995 
Q 3506 4078 3291 4113 
Q 3275 4116 3238 4122 
L 3238 4238 
L 4544 4238 
z
" transform="scale(0.015625)"/>
     </defs>
     <use xlink:href="#TimesNewRomanPSMT-52"/>
     <use xlink:href="#TimesNewRomanPSMT-4d" transform="translate(66.699219 0)"/>
     <use xlink:href="#TimesNewRomanPSMT-53" transform="translate(155.615234 0)"/>
     <use xlink:href="#TimesNewRomanPSMT-20" transform="translate(211.230469 0)"/>
     <use xlink:href="#TimesNewRomanPSMT-54" transform="translate(234.480469 0)"/>
     <use xlink:href="#TimesNewRomanPSMT-72" transform="translate(292.064453 0)"/>
     <use xlink:href="#TimesNewRomanPSMT-ea" transform="translate(325.365234 0)"/>
     <use xlink:href="#TimesNewRomanPSMT-73" transform="translate(369.75 0)"/>
     <use xlink:href="#TimesNewRomanPSMT-20" transform="translate(408.666016 0)"/>
     <use xlink:href="#TimesNewRomanPSMT-46" transform="translate(433.666016 0)"/>
     <use xlink:href="#TimesNewRomanPSMT-61" transform="translate(489.28125 0)"/>
     <use xlink:href="#TimesNewRomanPSMT-73" transform="translate(533.666016 0)"/>
     <use xlink:href="#TimesNewRomanPSMT-65" transform="translate(572.582031 0)"/>
     <use xlink:href="#TimesNewRomanPSMT-73" transform="translate(616.966797 0)"/>
     <use xlink:href="#TimesNewRomanPSMT-20" transform="translate(655.882812 0)"/>
     <use xlink:href="#TimesNewRomanPSMT-2d" transform="translate(680.882812 0)"/>
     <use xlink:href="#TimesNewRomanPSMT-20" transform="translate(714.183594 0)"/>
     <use xlink:href="#TimesNewRomanPSMT-56" transform="translate(737.433594 0)"/>
     <use xlink:href="#TimesNewRomanPSMT-20" transform="translate(807.900391 0)"/>
     <use xlink:href="#TimesNewRomanPSMT-38" transform="translate(832.900391 0)"/>
     <use xlink:href="#TimesNewRomanPSMT-31" transform="translate(882.900391 0)"/>
     <use xlink:href="#TimesNewRomanPSMT-38" transform="translate(932.900391 0)"/>
    </g>
   </g>
   <g id="legend_1">
    <g id="patch_7">
     <path d="M 430.773095 79.457187 
L 490.27622 79.457187 
Q 492.27622 79.457187 492.27622 77.457187 
L 492.27622 36.04 
Q 492.27622 34.04 490.27622 34.04 
L 430.773095 34.04 
Q 428.773095 34.04 428.773095 36.04 
L 428.773095 77.457187 
Q 428.773095 79.457187 430.773095 79.457187 
z
" style="fill: #ffffff; stroke: #cccccc; stroke-linejoin: miter"/>
    </g>
    <g id="line2d_30">
     <path d="M 432.773095 41.54 
L 442.773095 41.54 
L 452.773095 41.54 
" style="fill: none; stroke: #0000ff; stroke-width: 1.5; stroke-linecap: square"/>
    </g>
    <g id="text_16">
     <!-- Fase A -->
     <g transform="translate(460.773095 45.04) scale(0.1 -0.1)">
      <defs>
       <path id="TimesNewRomanPSMT-41" d="M 2928 1419 
L 1288 1419 
L 1000 750 
Q 894 503 894 381 
Q 894 284 986 211 
Q 1078 138 1384 116 
L 1384 0 
L 50 0 
L 50 116 
Q 316 163 394 238 
Q 553 388 747 847 
L 2238 4334 
L 2347 4334 
L 3822 809 
Q 4000 384 4145 257 
Q 4291 131 4550 116 
L 4550 0 
L 2878 0 
L 2878 116 
Q 3131 128 3220 200 
Q 3309 272 3309 375 
Q 3309 513 3184 809 
L 2928 1419 
z
M 2841 1650 
L 2122 3363 
L 1384 1650 
L 2841 1650 
z
" transform="scale(0.015625)"/>
      </defs>
      <use xlink:href="#TimesNewRomanPSMT-46"/>
      <use xlink:href="#TimesNewRomanPSMT-61" transform="translate(55.615234 0)"/>
      <use xlink:href="#TimesNewRomanPSMT-73" transform="translate(100 0)"/>
      <use xlink:href="#TimesNewRomanPSMT-65" transform="translate(138.916016 0)"/>
      <use xlink:href="#TimesNewRomanPSMT-20" transform="translate(183.300781 0)"/>
      <use xlink:href="#TimesNewRomanPSMT-41" transform="translate(202.800781 0)"/>
     </g>
    </g>
    <g id="line2d_31">
     <path d="M 432.773095 55.679062 
L 442.773095 55.679062 
L 452.773095 55.679062 
" style="fill: none; stroke: #ff0000; stroke-width: 1.5; stroke-linecap: square"/>
    </g>
    <g id="text_17">
     <!-- Fase B -->
     <g transform="translate(460.773095 59.179062) scale(0.1 -0.1)">
      <defs>
       <path id="TimesNewRomanPSMT-42" d="M 2956 2163 
Q 3397 2069 3616 1863 
Q 3919 1575 3919 1159 
Q 3919 844 3719 555 
Q 3519 266 3170 133 
Q 2822 0 2106 0 
L 106 0 
L 106 116 
L 266 116 
Q 531 116 647 284 
Q 719 394 719 750 
L 719 3488 
Q 719 3881 628 3984 
Q 506 4122 266 4122 
L 106 4122 
L 106 4238 
L 1938 4238 
Q 2450 4238 2759 4163 
Q 3228 4050 3475 3764 
Q 3722 3478 3722 3106 
Q 3722 2788 3528 2536 
Q 3334 2284 2956 2163 
z
M 1319 2331 
Q 1434 2309 1582 2298 
Q 1731 2288 1909 2288 
Q 2366 2288 2595 2386 
Q 2825 2484 2947 2687 
Q 3069 2891 3069 3131 
Q 3069 3503 2766 3765 
Q 2463 4028 1881 4028 
Q 1569 4028 1319 3959 
L 1319 2331 
z
M 1319 306 
Q 1681 222 2034 222 
Q 2600 222 2897 476 
Q 3194 731 3194 1106 
Q 3194 1353 3059 1581 
Q 2925 1809 2622 1940 
Q 2319 2072 1872 2072 
Q 1678 2072 1540 2065 
Q 1403 2059 1319 2044 
L 1319 306 
z
" transform="scale(0.015625)"/>
      </defs>
      <use xlink:href="#TimesNewRomanPSMT-46"/>
      <use xlink:href="#TimesNewRomanPSMT-61" transform="translate(55.615234 0)"/>
      <use xlink:href="#TimesNewRomanPSMT-73" transform="translate(100 0)"/>
      <use xlink:href="#TimesNewRomanPSMT-65" transform="translate(138.916016 0)"/>
      <use xlink:href="#TimesNewRomanPSMT-20" transform="translate(183.300781 0)"/>
      <use xlink:href="#TimesNewRomanPSMT-42" transform="translate(208.300781 0)"/>
     </g>
    </g>
    <g id="line2d_32">
     <path d="M 432.773095 69.818125 
L 442.773095 69.818125 
L 452.773095 69.818125 
" style="fill: none; stroke: #008000; stroke-width: 1.5; stroke-linecap: square"/>
    </g>
    <g id="text_18">
     <!-- Fase C -->
     <g transform="translate(460.773095 73.318125) scale(0.1 -0.1)">
      <defs>
       <path id="TimesNewRomanPSMT-43" d="M 3853 4334 
L 3950 2894 
L 3853 2894 
Q 3659 3541 3300 3825 
Q 2941 4109 2438 4109 
Q 2016 4109 1675 3895 
Q 1334 3681 1139 3212 
Q 944 2744 944 2047 
Q 944 1472 1128 1050 
Q 1313 628 1683 403 
Q 2053 178 2528 178 
Q 2941 178 3256 354 
Q 3572 531 3950 1056 
L 4047 994 
Q 3728 428 3303 165 
Q 2878 -97 2294 -97 
Q 1241 -97 663 684 
Q 231 1266 231 2053 
Q 231 2688 515 3219 
Q 800 3750 1298 4042 
Q 1797 4334 2388 4334 
Q 2847 4334 3294 4109 
Q 3425 4041 3481 4041 
Q 3566 4041 3628 4100 
Q 3709 4184 3744 4334 
L 3853 4334 
z
" transform="scale(0.015625)"/>
      </defs>
      <use xlink:href="#TimesNewRomanPSMT-46"/>
      <use xlink:href="#TimesNewRomanPSMT-61" transform="translate(55.615234 0)"/>
      <use xlink:href="#TimesNewRomanPSMT-73" transform="translate(100 0)"/>
      <use xlink:href="#TimesNewRomanPSMT-65" transform="translate(138.916016 0)"/>
      <use xlink:href="#TimesNewRomanPSMT-20" transform="translate(183.300781 0)"/>
      <use xlink:href="#TimesNewRomanPSMT-43" transform="translate(208.300781 0)"/>
     </g>
    </g>
   </g>
  </g>
  <g id="axes_2">
   <g id="patch_8">
    <path d="M 65.63 406.487057 
L 256.39811 406.487057 
L 256.39811 296.524705 
L 65.63 296.524705 
z
" style="fill: #ffffff"/>
   </g>
   <g id="matplotlib.axis_3">
    <g id="xtick_7">
     <g id="line2d_33">
      <path d="M 65.63 406.487057 
L 65.63 296.524705 
" clip-path="url(#p63c92bd012)" style="fill: none; stroke-dasharray: 0.8,1.32; stroke-dashoffset: 0; stroke: #b0b0b0; stroke-opacity: 0.5; stroke-width: 0.8"/>
     </g>
     <g id="line2d_34">
      <g>
       <use xlink:href="#m7cc15facdb" x="65.63" y="406.487057" style="stroke: #000000; stroke-width: 0.8"/>
      </g>
     </g>
     <g id="text_19">
      <!-- 0.00 -->
      <g transform="translate(55.13 421.819557) scale(0.12 -0.12)">
       <use xlink:href="#TimesNewRomanPSMT-30"/>
       <use xlink:href="#TimesNewRomanPSMT-2e" transform="translate(50 0)"/>
       <use xlink:href="#TimesNewRomanPSMT-30" transform="translate(75 0)"/>
       <use xlink:href="#TimesNewRomanPSMT-30" transform="translate(125 0)"/>
      </g>
     </g>
    </g>
    <g id="xtick_8">
     <g id="line2d_35">
      <path d="M 140.061569 406.487057 
L 140.061569 296.524705 
" clip-path="url(#p63c92bd012)" style="fill: none; stroke-dasharray: 0.8,1.32; stroke-dashoffset: 0; stroke: #b0b0b0; stroke-opacity: 0.5; stroke-width: 0.8"/>
     </g>
     <g id="line2d_36">
      <g>
       <use xlink:href="#m7cc15facdb" x="140.061569" y="406.487057" style="stroke: #000000; stroke-width: 0.8"/>
      </g>
     </g>
     <g id="text_20">
      <!-- 0.05 -->
      <g transform="translate(129.561569 421.819557) scale(0.12 -0.12)">
       <use xlink:href="#TimesNewRomanPSMT-30"/>
       <use xlink:href="#TimesNewRomanPSMT-2e" transform="translate(50 0)"/>
       <use xlink:href="#TimesNewRomanPSMT-30" transform="translate(75 0)"/>
       <use xlink:href="#TimesNewRomanPSMT-35" transform="translate(125 0)"/>
      </g>
     </g>
    </g>
    <g id="xtick_9">
     <g id="line2d_37">
      <path d="M 214.493137 406.487057 
L 214.493137 296.524705 
" clip-path="url(#p63c92bd012)" style="fill: none; stroke-dasharray: 0.8,1.32; stroke-dashoffset: 0; stroke: #b0b0b0; stroke-opacity: 0.5; stroke-width: 0.8"/>
     </g>
     <g id="line2d_38">
      <g>
       <use xlink:href="#m7cc15facdb" x="214.493137" y="406.487057" style="stroke: #000000; stroke-width: 0.8"/>
      </g>
     </g>
     <g id="text_21">
      <!-- 0.10 -->
      <g transform="translate(203.993137 421.819557) scale(0.12 -0.12)">
       <use xlink:href="#TimesNewRomanPSMT-30"/>
       <use xlink:href="#TimesNewRomanPSMT-2e" transform="translate(50 0)"/>
       <use xlink:href="#TimesNewRomanPSMT-31" transform="translate(75 0)"/>
       <use xlink:href="#TimesNewRomanPSMT-30" transform="translate(125 0)"/>
      </g>
     </g>
    </g>
    <g id="text_22">
     <!-- Tempo (s) -->
     <g transform="translate(136.608118 436.718932) scale(0.12 -0.12)">
      <defs>
       <path id="TimesNewRomanPSMT-6d" d="M 1050 2338 
Q 1363 2650 1419 2697 
Q 1559 2816 1721 2881 
Q 1884 2947 2044 2947 
Q 2313 2947 2506 2790 
Q 2700 2634 2766 2338 
Q 3088 2713 3309 2830 
Q 3531 2947 3766 2947 
Q 3994 2947 4170 2830 
Q 4347 2713 4450 2447 
Q 4519 2266 4519 1878 
L 4519 647 
Q 4519 378 4559 278 
Q 4591 209 4675 161 
Q 4759 113 4950 113 
L 4950 0 
L 3538 0 
L 3538 113 
L 3597 113 
Q 3781 113 3884 184 
Q 3956 234 3988 344 
Q 4000 397 4000 647 
L 4000 1878 
Q 4000 2228 3916 2372 
Q 3794 2572 3525 2572 
Q 3359 2572 3192 2489 
Q 3025 2406 2788 2181 
L 2781 2147 
L 2788 2013 
L 2788 647 
Q 2788 353 2820 281 
Q 2853 209 2943 161 
Q 3034 113 3253 113 
L 3253 0 
L 1806 0 
L 1806 113 
Q 2044 113 2133 169 
Q 2222 225 2256 338 
Q 2272 391 2272 647 
L 2272 1878 
Q 2272 2228 2169 2381 
Q 2031 2581 1784 2581 
Q 1616 2581 1450 2491 
Q 1191 2353 1050 2181 
L 1050 647 
Q 1050 366 1089 281 
Q 1128 197 1204 155 
Q 1281 113 1516 113 
L 1516 0 
L 100 0 
L 100 113 
Q 297 113 375 155 
Q 453 197 493 289 
Q 534 381 534 647 
L 534 1741 
Q 534 2213 506 2350 
Q 484 2453 437 2492 
Q 391 2531 309 2531 
Q 222 2531 100 2484 
L 53 2597 
L 916 2947 
L 1050 2947 
L 1050 2338 
z
" transform="scale(0.015625)"/>
       <path id="TimesNewRomanPSMT-70" d="M -6 2578 
L 875 2934 
L 994 2934 
L 994 2266 
Q 1216 2644 1439 2795 
Q 1663 2947 1909 2947 
Q 2341 2947 2628 2609 
Q 2981 2197 2981 1534 
Q 2981 794 2556 309 
Q 2206 -88 1675 -88 
Q 1444 -88 1275 -22 
Q 1150 25 994 166 
L 994 -706 
Q 994 -1000 1030 -1079 
Q 1066 -1159 1155 -1206 
Q 1244 -1253 1478 -1253 
L 1478 -1369 
L -22 -1369 
L -22 -1253 
L 56 -1253 
Q 228 -1256 350 -1188 
Q 409 -1153 442 -1076 
Q 475 -1000 475 -688 
L 475 2019 
Q 475 2297 450 2372 
Q 425 2447 370 2484 
Q 316 2522 222 2522 
Q 147 2522 31 2478 
L -6 2578 
z
M 994 2081 
L 994 1013 
Q 994 666 1022 556 
Q 1066 375 1236 237 
Q 1406 100 1666 100 
Q 1978 100 2172 344 
Q 2425 663 2425 1241 
Q 2425 1897 2138 2250 
Q 1938 2494 1663 2494 
Q 1513 2494 1366 2419 
Q 1253 2363 994 2081 
z
" transform="scale(0.015625)"/>
       <path id="TimesNewRomanPSMT-28" d="M 1988 -1253 
L 1988 -1369 
Q 1516 -1131 1200 -813 
Q 750 -359 506 256 
Q 263 872 263 1534 
Q 263 2503 741 3301 
Q 1219 4100 1988 4444 
L 1988 4313 
Q 1603 4100 1356 3731 
Q 1109 3363 987 2797 
Q 866 2231 866 1616 
Q 866 947 969 400 
Q 1050 -31 1165 -292 
Q 1281 -553 1476 -793 
Q 1672 -1034 1988 -1253 
z
" transform="scale(0.015625)"/>
       <path id="TimesNewRomanPSMT-29" d="M 144 4313 
L 144 4444 
Q 619 4209 934 3891 
Q 1381 3434 1625 2820 
Q 1869 2206 1869 1541 
Q 1869 572 1392 -226 
Q 916 -1025 144 -1369 
L 144 -1253 
Q 528 -1038 776 -670 
Q 1025 -303 1145 264 
Q 1266 831 1266 1447 
Q 1266 2113 1163 2663 
Q 1084 3094 967 3353 
Q 850 3613 656 3853 
Q 463 4094 144 4313 
z
" transform="scale(0.015625)"/>
      </defs>
      <use xlink:href="#TimesNewRomanPSMT-54"/>
      <use xlink:href="#TimesNewRomanPSMT-65" transform="translate(54.083984 0)"/>
      <use xlink:href="#TimesNewRomanPSMT-6d" transform="translate(98.46875 0)"/>
      <use xlink:href="#TimesNewRomanPSMT-70" transform="translate(176.251953 0)"/>
      <use xlink:href="#TimesNewRomanPSMT-6f" transform="translate(226.251953 0)"/>
      <use xlink:href="#TimesNewRomanPSMT-20" transform="translate(276.251953 0)"/>
      <use xlink:href="#TimesNewRomanPSMT-28" transform="translate(301.251953 0)"/>
      <use xlink:href="#TimesNewRomanPSMT-73" transform="translate(334.552734 0)"/>
      <use xlink:href="#TimesNewRomanPSMT-29" transform="translate(373.46875 0)"/>
     </g>
    </g>
   </g>
   <g id="matplotlib.axis_4">
    <g id="ytick_8">
     <g id="line2d_39">
      <path d="M 65.63 384.250639 
L 256.39811 384.250639 
" clip-path="url(#p63c92bd012)" style="fill: none; stroke-dasharray: 0.8,1.32; stroke-dashoffset: 0; stroke: #b0b0b0; stroke-opacity: 0.5; stroke-width: 0.8"/>
     </g>
     <g id="line2d_40">
      <g>
       <use xlink:href="#me3bd40daf8" x="65.63" y="384.250639" style="stroke: #000000; stroke-width: 0.8"/>
      </g>
     </g>
     <g id="text_23">
      <!-- 10000 -->
      <g transform="translate(28.63 388.416889) scale(0.12 -0.12)">
       <use xlink:href="#TimesNewRomanPSMT-31"/>
       <use xlink:href="#TimesNewRomanPSMT-30" transform="translate(50 0)"/>
       <use xlink:href="#TimesNewRomanPSMT-30" transform="translate(100 0)"/>
       <use xlink:href="#TimesNewRomanPSMT-30" transform="translate(150 0)"/>
       <use xlink:href="#TimesNewRomanPSMT-30" transform="translate(200 0)"/>
      </g>
     </g>
    </g>
    <g id="ytick_9">
     <g id="line2d_41">
      <path d="M 65.63 350.544279 
L 256.39811 350.544279 
" clip-path="url(#p63c92bd012)" style="fill: none; stroke-dasharray: 0.8,1.32; stroke-dashoffset: 0; stroke: #b0b0b0; stroke-opacity: 0.5; stroke-width: 0.8"/>
     </g>
     <g id="line2d_42">
      <g>
       <use xlink:href="#me3bd40daf8" x="65.63" y="350.544279" style="stroke: #000000; stroke-width: 0.8"/>
      </g>
     </g>
     <g id="text_24">
      <!-- 12000 -->
      <g transform="translate(28.63 354.710529) scale(0.12 -0.12)">
       <use xlink:href="#TimesNewRomanPSMT-31"/>
       <use xlink:href="#TimesNewRomanPSMT-32" transform="translate(50 0)"/>
       <use xlink:href="#TimesNewRomanPSMT-30" transform="translate(100 0)"/>
       <use xlink:href="#TimesNewRomanPSMT-30" transform="translate(150 0)"/>
       <use xlink:href="#TimesNewRomanPSMT-30" transform="translate(200 0)"/>
      </g>
     </g>
    </g>
    <g id="ytick_10">
     <g id="line2d_43">
      <path d="M 65.63 316.83792 
L 256.39811 316.83792 
" clip-path="url(#p63c92bd012)" style="fill: none; stroke-dasharray: 0.8,1.32; stroke-dashoffset: 0; stroke: #b0b0b0; stroke-opacity: 0.5; stroke-width: 0.8"/>
     </g>
     <g id="line2d_44">
      <g>
       <use xlink:href="#me3bd40daf8" x="65.63" y="316.83792" style="stroke: #000000; stroke-width: 0.8"/>
      </g>
     </g>
     <g id="text_25">
      <!-- 14000 -->
      <g transform="translate(28.63 321.00417) scale(0.12 -0.12)">
       <use xlink:href="#TimesNewRomanPSMT-31"/>
       <use xlink:href="#TimesNewRomanPSMT-34" transform="translate(50 0)"/>
       <use xlink:href="#TimesNewRomanPSMT-30" transform="translate(100 0)"/>
       <use xlink:href="#TimesNewRomanPSMT-30" transform="translate(150 0)"/>
       <use xlink:href="#TimesNewRomanPSMT-30" transform="translate(200 0)"/>
      </g>
     </g>
    </g>
   </g>
   <g id="line2d_45">
    <path d="M 65.63 388.053314 
L 66.448747 387.960183 
L 66.895337 387.643242 
L 67.267495 387.108289 
L 67.714084 386.043724 
L 68.235105 384.114229 
L 68.830557 380.917138 
L 69.574873 375.453107 
L 70.542484 366.347045 
L 73.966336 331.963669 
L 74.785083 326.601498 
L 75.454967 323.478161 
L 76.05042 321.61509 
L 76.571441 320.605259 
L 77.092462 320.063077 
L 77.613483 319.853316 
L 78.506661 319.822741 
L 81.856082 319.972459 
L 85.131071 320.045034 
L 93.839564 319.948101 
L 97.41228 320.047632 
L 101.357153 319.857263 
L 104.259984 319.845158 
L 111.256552 319.994393 
L 116.39233 319.836226 
L 124.207644 319.964477 
L 128.450244 319.827668 
L 132.469549 320.021679 
L 135.297948 320.028738 
L 142.220084 319.877848 
L 147.430294 320.037845 
L 155.171177 319.907449 
L 159.488208 320.046645 
L 163.656376 319.846371 
L 166.484775 319.85277 
L 172.960322 320.010171 
L 178.765984 319.847907 
L 185.539257 320.00189 
L 190.972761 319.840869 
L 198.341487 319.9812 
L 203.030676 319.830934 
L 211.515874 319.936899 
L 215.237453 319.826717 
L 219.107894 320.013172 
L 222.010726 320.033105 
L 229.305019 319.890871 
L 234.06864 320.043273 
L 242.479407 319.934935 
L 246.200985 320.048981 
L 249.922564 319.870881 
L 252.899827 319.837711 
L 256.39811 320.016457 
L 256.39811 320.016457 
" clip-path="url(#p63c92bd012)" style="fill: none; stroke: #0000ff; stroke-width: 1.5; stroke-linecap: square"/>
   </g>
   <g id="line2d_46">
    <path d="M 65.63 390.232015 
L 66.672042 379.346138 
L 69.351578 350.266049 
L 70.244757 343.187638 
L 70.989073 338.869167 
L 71.658957 336.216425 
L 72.25441 334.747149 
L 72.775431 334.030853 
L 73.296452 333.710179 
L 73.891904 333.629274 
L 74.859515 333.512313 
L 75.306104 333.209059 
L 75.752693 332.61406 
L 76.199283 331.650535 
L 76.720304 329.988485 
L 77.315756 327.330065 
L 78.134504 323.402064 
L 81.186198 323.447058 
L 89.224807 323.328225 
L 93.318544 323.453526 
L 97.561143 323.253706 
L 100.389543 323.264844 
L 106.716226 323.421179 
L 112.745183 323.26282 
L 119.146298 323.420086 
L 125.100823 323.260848 
L 131.650801 323.415596 
L 137.382032 323.256155 
L 144.304168 323.403626 
L 149.514378 323.247098 
L 157.255261 323.374362 
L 161.572292 323.238308 
L 166.112618 323.447579 
L 168.941017 323.412113 
L 174.523385 323.253508 
L 181.594384 323.399848 
L 186.65573 323.244948 
L 194.619908 323.365903 
L 198.713645 323.236848 
L 202.658518 323.424145 
L 205.561349 323.43694 
L 212.557916 323.288918 
L 217.693695 323.445674 
L 225.583441 323.322544 
L 229.751609 323.454013 
L 233.845345 323.260103 
L 236.748176 323.260848 
L 243.298154 323.415596 
L 249.029385 323.256155 
L 255.951521 323.403626 
L 256.39811 323.379913 
L 256.39811 323.379913 
" clip-path="url(#p63c92bd012)" style="fill: none; stroke: #ff0000; stroke-width: 1.5; stroke-linecap: square"/>
   </g>
   <g id="line2d_47">
    <path d="M 65.63 389.093414 
L 66.448747 381.996689 
L 67.118631 377.909325 
L 67.714084 375.481854 
L 68.235105 374.165752 
L 68.681694 373.526252 
L 69.128284 373.223704 
L 69.723736 373.130897 
L 70.542484 373.044088 
L 70.989073 372.753261 
L 71.435662 372.134144 
L 71.882252 371.086554 
L 72.403273 369.226398 
L 72.998725 366.18893 
L 73.743041 361.052401 
L 74.710651 352.556053 
L 77.98564 321.826025 
L 83.419145 321.666905 
L 90.713439 321.809475 
L 95.551491 321.65884 
L 103.738963 321.77453 
L 107.683836 321.652751 
L 111.554278 321.837946 
L 114.457109 321.85712 
L 121.676971 321.712706 
L 126.589455 321.865364 
L 134.702496 321.747396 
L 138.7218 321.871643 
L 142.741105 321.679492 
L 145.643936 321.673923 
L 152.417209 321.826031 
L 157.850713 321.666904 
L 165.145007 321.809476 
L 169.983059 321.65884 
L 178.170532 321.77453 
L 182.115405 321.652751 
L 185.985846 321.837946 
L 188.888678 321.85712 
L 196.10854 321.712706 
L 201.021023 321.865364 
L 209.134064 321.747396 
L 213.153369 321.871643 
L 217.172674 321.679492 
L 220.075505 321.673923 
L 226.848778 321.826031 
L 232.282282 321.666904 
L 239.576576 321.809476 
L 244.414628 321.65884 
L 252.6021 321.77453 
L 256.39811 321.650305 
L 256.39811 321.650305 
" clip-path="url(#p63c92bd012)" style="fill: none; stroke: #008000; stroke-width: 1.5; stroke-linecap: square"/>
   </g>
   <g id="patch_9">
    <path d="M 65.63 406.487057 
L 65.63 296.524705 
" style="fill: none; stroke: #000000; stroke-width: 0.8; stroke-linejoin: miter; stroke-linecap: square"/>
   </g>
   <g id="patch_10">
    <path d="M 256.39811 406.487057 
L 256.39811 296.524705 
" style="fill: none; stroke: #000000; stroke-width: 0.8; stroke-linejoin: miter; stroke-linecap: square"/>
   </g>
   <g id="patch_11">
    <path d="M 65.63 406.487057 
L 256.39811 406.487057 
" style="fill: none; stroke: #000000; stroke-width: 0.8; stroke-linejoin: miter; stroke-linecap: square"/>
   </g>
   <g id="patch_12">
    <path d="M 65.63 296.524705 
L 256.39811 296.524705 
" style="fill: none; stroke: #000000; stroke-width: 0.8; stroke-linejoin: miter; stroke-linecap: square"/>
   </g>
   <g id="text_26">
    <!-- Zoom: Pré-Evento -->
    <g transform="translate(107.62718 290.524705) scale(0.144 -0.144)">
     <defs>
      <path id="TimesNewRomanPSMT-5a" d="M 3681 4238 
L 897 256 
L 2634 256 
Q 3034 256 3248 431 
Q 3463 606 3628 1141 
L 3731 1122 
L 3531 0 
L 81 0 
L 81 116 
L 2800 3984 
L 1444 3984 
Q 1106 3984 954 3911 
Q 803 3838 723 3698 
Q 644 3559 578 3178 
L 459 3178 
L 547 4238 
L 3681 4238 
z
" transform="scale(0.015625)"/>
      <path id="TimesNewRomanPSMT-3a" d="M 903 2950 
Q 1047 2950 1148 2848 
Q 1250 2747 1250 2603 
Q 1250 2459 1148 2357 
Q 1047 2256 903 2256 
Q 759 2256 657 2357 
Q 556 2459 556 2603 
Q 556 2747 657 2848 
Q 759 2950 903 2950 
z
M 897 609 
Q 1044 609 1145 506 
Q 1247 403 1247 259 
Q 1247 116 1144 14 
Q 1041 -88 897 -88 
Q 753 -88 651 14 
Q 550 116 550 259 
Q 550 403 651 506 
Q 753 609 897 609 
z
" transform="scale(0.015625)"/>
      <path id="TimesNewRomanPSMT-50" d="M 1313 1984 
L 1313 750 
Q 1313 350 1400 253 
Q 1519 116 1759 116 
L 1922 116 
L 1922 0 
L 106 0 
L 106 116 
L 266 116 
Q 534 116 650 291 
Q 713 388 713 750 
L 713 3488 
Q 713 3888 628 3984 
Q 506 4122 266 4122 
L 106 4122 
L 106 4238 
L 1659 4238 
Q 2228 4238 2556 4120 
Q 2884 4003 3109 3725 
Q 3334 3447 3334 3066 
Q 3334 2547 2992 2222 
Q 2650 1897 2025 1897 
Q 1872 1897 1694 1919 
Q 1516 1941 1313 1984 
z
M 1313 2163 
Q 1478 2131 1606 2115 
Q 1734 2100 1825 2100 
Q 2150 2100 2386 2351 
Q 2622 2603 2622 3003 
Q 2622 3278 2509 3514 
Q 2397 3750 2190 3867 
Q 1984 3984 1722 3984 
Q 1563 3984 1313 3925 
L 1313 2163 
z
" transform="scale(0.015625)"/>
      <path id="TimesNewRomanPSMT-e9" d="M 681 1784 
Q 678 1147 991 784 
Q 1303 422 1725 422 
Q 2006 422 2214 576 
Q 2422 731 2563 1106 
L 2659 1044 
Q 2594 616 2278 264 
Q 1963 -88 1488 -88 
Q 972 -88 605 314 
Q 238 716 238 1394 
Q 238 2128 614 2539 
Q 991 2950 1559 2950 
Q 2041 2950 2350 2633 
Q 2659 2316 2659 1784 
L 681 1784 
z
M 681 1966 
L 2006 1966 
Q 1991 2241 1941 2353 
Q 1863 2528 1708 2628 
Q 1553 2728 1384 2728 
Q 1125 2728 920 2526 
Q 716 2325 681 1966 
z
M 2172 4344 
L 1250 3266 
L 1144 3266 
L 1472 4344 
L 2172 4344 
z
" transform="scale(0.015625)"/>
      <path id="TimesNewRomanPSMT-45" d="M 1338 4006 
L 1338 2331 
L 2269 2331 
Q 2631 2331 2753 2441 
Q 2916 2584 2934 2947 
L 3050 2947 
L 3050 1472 
L 2934 1472 
Q 2891 1781 2847 1869 
Q 2791 1978 2662 2040 
Q 2534 2103 2269 2103 
L 1338 2103 
L 1338 706 
Q 1338 425 1363 364 
Q 1388 303 1450 267 
Q 1513 231 1688 231 
L 2406 231 
Q 2766 231 2928 281 
Q 3091 331 3241 478 
Q 3434 672 3638 1063 
L 3763 1063 
L 3397 0 
L 131 0 
L 131 116 
L 281 116 
Q 431 116 566 188 
Q 666 238 702 338 
Q 738 438 738 747 
L 738 3500 
Q 738 3903 656 3997 
Q 544 4122 281 4122 
L 131 4122 
L 131 4238 
L 3397 4238 
L 3444 3309 
L 3322 3309 
Q 3256 3644 3176 3769 
Q 3097 3894 2941 3959 
Q 2816 4006 2500 4006 
L 1338 4006 
z
" transform="scale(0.015625)"/>
      <path id="TimesNewRomanPSMT-76" d="M 53 2863 
L 1400 2863 
L 1400 2747 
L 1313 2747 
Q 1191 2747 1127 2687 
Q 1063 2628 1063 2528 
Q 1063 2419 1128 2269 
L 1794 688 
L 2463 2328 
Q 2534 2503 2534 2594 
Q 2534 2638 2509 2666 
Q 2475 2713 2422 2730 
Q 2369 2747 2206 2747 
L 2206 2863 
L 3141 2863 
L 3141 2747 
Q 2978 2734 2916 2681 
Q 2806 2588 2719 2369 
L 1703 -88 
L 1575 -88 
L 553 2328 
Q 484 2497 421 2570 
Q 359 2644 263 2694 
Q 209 2722 53 2747 
L 53 2863 
z
" transform="scale(0.015625)"/>
      <path id="TimesNewRomanPSMT-74" d="M 1031 3803 
L 1031 2863 
L 1700 2863 
L 1700 2644 
L 1031 2644 
L 1031 788 
Q 1031 509 1111 412 
Q 1191 316 1316 316 
Q 1419 316 1516 380 
Q 1613 444 1666 569 
L 1788 569 
Q 1678 263 1478 108 
Q 1278 -47 1066 -47 
Q 922 -47 784 33 
Q 647 113 581 261 
Q 516 409 516 719 
L 516 2644 
L 63 2644 
L 63 2747 
Q 234 2816 414 2980 
Q 594 3144 734 3369 
Q 806 3488 934 3803 
L 1031 3803 
z
" transform="scale(0.015625)"/>
     </defs>
     <use xlink:href="#TimesNewRomanPSMT-5a"/>
     <use xlink:href="#TimesNewRomanPSMT-6f" transform="translate(61.083984 0)"/>
     <use xlink:href="#TimesNewRomanPSMT-6f" transform="translate(111.083984 0)"/>
     <use xlink:href="#TimesNewRomanPSMT-6d" transform="translate(161.083984 0)"/>
     <use xlink:href="#TimesNewRomanPSMT-3a" transform="translate(238.867188 0)"/>
     <use xlink:href="#TimesNewRomanPSMT-20" transform="translate(266.650391 0)"/>
     <use xlink:href="#TimesNewRomanPSMT-50" transform="translate(291.650391 0)"/>
     <use xlink:href="#TimesNewRomanPSMT-72" transform="translate(347.265625 0)"/>
     <use xlink:href="#TimesNewRomanPSMT-e9" transform="translate(380.566406 0)"/>
     <use xlink:href="#TimesNewRomanPSMT-2d" transform="translate(424.951172 0)"/>
     <use xlink:href="#TimesNewRomanPSMT-45" transform="translate(458.251953 0)"/>
     <use xlink:href="#TimesNewRomanPSMT-76" transform="translate(519.335938 0)"/>
     <use xlink:href="#TimesNewRomanPSMT-65" transform="translate(569.335938 0)"/>
     <use xlink:href="#TimesNewRomanPSMT-6e" transform="translate(613.720703 0)"/>
     <use xlink:href="#TimesNewRomanPSMT-74" transform="translate(663.720703 0)"/>
     <use xlink:href="#TimesNewRomanPSMT-6f" transform="translate(691.503906 0)"/>
    </g>
   </g>
  </g>
  <g id="axes_3">
   <g id="patch_13">
    <path d="M 306.50811 406.487057 
L 497.27622 406.487057 
L 497.27622 296.524705 
L 306.50811 296.524705 
z
" style="fill: #ffffff"/>
   </g>
   <g id="matplotlib.axis_5">
    <g id="xtick_10">
     <g id="line2d_48">
      <path d="M 327.349526 406.487057 
L 327.349526 296.524705 
" clip-path="url(#p4565657919)" style="fill: none; stroke-dasharray: 0.8,1.32; stroke-dashoffset: 0; stroke: #b0b0b0; stroke-opacity: 0.5; stroke-width: 0.8"/>
     </g>
     <g id="line2d_49">
      <g>
       <use xlink:href="#m7cc15facdb" x="327.349526" y="406.487057" style="stroke: #000000; stroke-width: 0.8"/>
      </g>
     </g>
     <g id="text_27">
      <!-- 0.15 -->
      <g transform="translate(316.849526 421.819557) scale(0.12 -0.12)">
       <use xlink:href="#TimesNewRomanPSMT-30"/>
       <use xlink:href="#TimesNewRomanPSMT-2e" transform="translate(50 0)"/>
       <use xlink:href="#TimesNewRomanPSMT-31" transform="translate(75 0)"/>
       <use xlink:href="#TimesNewRomanPSMT-35" transform="translate(125 0)"/>
      </g>
     </g>
    </g>
    <g id="xtick_11">
     <g id="line2d_50">
      <path d="M 375.041554 406.487057 
L 375.041554 296.524705 
" clip-path="url(#p4565657919)" style="fill: none; stroke-dasharray: 0.8,1.32; stroke-dashoffset: 0; stroke: #b0b0b0; stroke-opacity: 0.5; stroke-width: 0.8"/>
     </g>
     <g id="line2d_51">
      <g>
       <use xlink:href="#m7cc15facdb" x="375.041554" y="406.487057" style="stroke: #000000; stroke-width: 0.8"/>
      </g>
     </g>
     <g id="text_28">
      <!-- 0.20 -->
      <g transform="translate(364.541554 421.819557) scale(0.12 -0.12)">
       <use xlink:href="#TimesNewRomanPSMT-30"/>
       <use xlink:href="#TimesNewRomanPSMT-2e" transform="translate(50 0)"/>
       <use xlink:href="#TimesNewRomanPSMT-32" transform="translate(75 0)"/>
       <use xlink:href="#TimesNewRomanPSMT-30" transform="translate(125 0)"/>
      </g>
     </g>
    </g>
    <g id="xtick_12">
     <g id="line2d_52">
      <path d="M 422.733581 406.487057 
L 422.733581 296.524705 
" clip-path="url(#p4565657919)" style="fill: none; stroke-dasharray: 0.8,1.32; stroke-dashoffset: 0; stroke: #b0b0b0; stroke-opacity: 0.5; stroke-width: 0.8"/>
     </g>
     <g id="line2d_53">
      <g>
       <use xlink:href="#m7cc15facdb" x="422.733581" y="406.487057" style="stroke: #000000; stroke-width: 0.8"/>
      </g>
     </g>
     <g id="text_29">
      <!-- 0.25 -->
      <g transform="translate(412.233581 421.819557) scale(0.12 -0.12)">
       <use xlink:href="#TimesNewRomanPSMT-30"/>
       <use xlink:href="#TimesNewRomanPSMT-2e" transform="translate(50 0)"/>
       <use xlink:href="#TimesNewRomanPSMT-32" transform="translate(75 0)"/>
       <use xlink:href="#TimesNewRomanPSMT-35" transform="translate(125 0)"/>
      </g>
     </g>
    </g>
    <g id="xtick_13">
     <g id="line2d_54">
      <path d="M 470.425609 406.487057 
L 470.425609 296.524705 
" clip-path="url(#p4565657919)" style="fill: none; stroke-dasharray: 0.8,1.32; stroke-dashoffset: 0; stroke: #b0b0b0; stroke-opacity: 0.5; stroke-width: 0.8"/>
     </g>
     <g id="line2d_55">
      <g>
       <use xlink:href="#m7cc15facdb" x="470.425609" y="406.487057" style="stroke: #000000; stroke-width: 0.8"/>
      </g>
     </g>
     <g id="text_30">
      <!-- 0.30 -->
      <g transform="translate(459.925609 421.819557) scale(0.12 -0.12)">
       <use xlink:href="#TimesNewRomanPSMT-30"/>
       <use xlink:href="#TimesNewRomanPSMT-2e" transform="translate(50 0)"/>
       <use xlink:href="#TimesNewRomanPSMT-33" transform="translate(75 0)"/>
       <use xlink:href="#TimesNewRomanPSMT-30" transform="translate(125 0)"/>
      </g>
     </g>
    </g>
    <g id="text_31">
     <!-- Tempo (s) -->
     <g transform="translate(377.486228 436.718932) scale(0.12 -0.12)">
      <use xlink:href="#TimesNewRomanPSMT-54"/>
      <use xlink:href="#TimesNewRomanPSMT-65" transform="translate(54.083984 0)"/>
      <use xlink:href="#TimesNewRomanPSMT-6d" transform="translate(98.46875 0)"/>
      <use xlink:href="#TimesNewRomanPSMT-70" transform="translate(176.251953 0)"/>
      <use xlink:href="#TimesNewRomanPSMT-6f" transform="translate(226.251953 0)"/>
      <use xlink:href="#TimesNewRomanPSMT-20" transform="translate(276.251953 0)"/>
      <use xlink:href="#TimesNewRomanPSMT-28" transform="translate(301.251953 0)"/>
      <use xlink:href="#TimesNewRomanPSMT-73" transform="translate(334.552734 0)"/>
      <use xlink:href="#TimesNewRomanPSMT-29" transform="translate(373.46875 0)"/>
     </g>
    </g>
   </g>
   <g id="matplotlib.axis_6">
    <g id="ytick_11">
     <g id="line2d_56">
      <path d="M 306.50811 406.487057 
L 497.27622 406.487057 
" clip-path="url(#p4565657919)" style="fill: none; stroke-dasharray: 0.8,1.32; stroke-dashoffset: 0; stroke: #b0b0b0; stroke-opacity: 0.5; stroke-width: 0.8"/>
     </g>
     <g id="line2d_57">
      <g>
       <use xlink:href="#me3bd40daf8" x="306.50811" y="406.487057" style="stroke: #000000; stroke-width: 0.8"/>
      </g>
     </g>
     <g id="text_32">
      <!-- 0 -->
      <g transform="translate(293.50811 410.653307) scale(0.12 -0.12)">
       <use xlink:href="#TimesNewRomanPSMT-30"/>
      </g>
     </g>
    </g>
    <g id="ytick_12">
     <g id="line2d_58">
      <path d="M 306.50811 371.037451 
L 497.27622 371.037451 
" clip-path="url(#p4565657919)" style="fill: none; stroke-dasharray: 0.8,1.32; stroke-dashoffset: 0; stroke: #b0b0b0; stroke-opacity: 0.5; stroke-width: 0.8"/>
     </g>
     <g id="line2d_59">
      <g>
       <use xlink:href="#me3bd40daf8" x="306.50811" y="371.037451" style="stroke: #000000; stroke-width: 0.8"/>
      </g>
     </g>
     <g id="text_33">
      <!-- 5000 -->
      <g transform="translate(275.50811 375.203701) scale(0.12 -0.12)">
       <use xlink:href="#TimesNewRomanPSMT-35"/>
       <use xlink:href="#TimesNewRomanPSMT-30" transform="translate(50 0)"/>
       <use xlink:href="#TimesNewRomanPSMT-30" transform="translate(100 0)"/>
       <use xlink:href="#TimesNewRomanPSMT-30" transform="translate(150 0)"/>
      </g>
     </g>
    </g>
    <g id="ytick_13">
     <g id="line2d_60">
      <path d="M 306.50811 335.587845 
L 497.27622 335.587845 
" clip-path="url(#p4565657919)" style="fill: none; stroke-dasharray: 0.8,1.32; stroke-dashoffset: 0; stroke: #b0b0b0; stroke-opacity: 0.5; stroke-width: 0.8"/>
     </g>
     <g id="line2d_61">
      <g>
       <use xlink:href="#me3bd40daf8" x="306.50811" y="335.587845" style="stroke: #000000; stroke-width: 0.8"/>
      </g>
     </g>
     <g id="text_34">
      <!-- 10000 -->
      <g transform="translate(269.50811 339.754095) scale(0.12 -0.12)">
       <use xlink:href="#TimesNewRomanPSMT-31"/>
       <use xlink:href="#TimesNewRomanPSMT-30" transform="translate(50 0)"/>
       <use xlink:href="#TimesNewRomanPSMT-30" transform="translate(100 0)"/>
       <use xlink:href="#TimesNewRomanPSMT-30" transform="translate(150 0)"/>
       <use xlink:href="#TimesNewRomanPSMT-30" transform="translate(200 0)"/>
      </g>
     </g>
    </g>
    <g id="ytick_14">
     <g id="line2d_62">
      <path d="M 306.50811 300.138239 
L 497.27622 300.138239 
" clip-path="url(#p4565657919)" style="fill: none; stroke-dasharray: 0.8,1.32; stroke-dashoffset: 0; stroke: #b0b0b0; stroke-opacity: 0.5; stroke-width: 0.8"/>
     </g>
     <g id="line2d_63">
      <g>
       <use xlink:href="#me3bd40daf8" x="306.50811" y="300.138239" style="stroke: #000000; stroke-width: 0.8"/>
      </g>
     </g>
     <g id="text_35">
      <!-- 15000 -->
      <g transform="translate(269.50811 304.304489) scale(0.12 -0.12)">
       <use xlink:href="#TimesNewRomanPSMT-31"/>
       <use xlink:href="#TimesNewRomanPSMT-35" transform="translate(50 0)"/>
       <use xlink:href="#TimesNewRomanPSMT-30" transform="translate(100 0)"/>
       <use xlink:href="#TimesNewRomanPSMT-30" transform="translate(150 0)"/>
       <use xlink:href="#TimesNewRomanPSMT-30" transform="translate(200 0)"/>
      </g>
     </g>
    </g>
   </g>
   <g id="line2d_64">
    <path d="M 306.460418 308.563949 
L 309.369632 308.538619 
L 312.946534 308.510818 
L 317.09574 308.547023 
L 320.958795 308.513065 
L 325.012617 308.548192 
L 328.923363 308.513634 
L 332.929494 308.549351 
L 335.981783 308.543672 
L 336.458704 308.780883 
L 336.935624 309.259308 
L 337.507928 310.160494 
L 338.318693 311.911091 
L 339.987914 315.602437 
L 340.60791 316.421461 
L 341.132522 316.765962 
L 341.609443 316.825881 
L 342.181747 316.669518 
L 343.564816 316.204527 
L 344.041736 316.325036 
L 344.518656 316.697836 
L 345.043269 317.424169 
L 345.710957 318.788598 
L 346.855566 321.780941 
L 347.857098 324.165191 
L 348.477094 325.14055 
L 349.001707 325.579629 
L 349.478627 325.68899 
L 350.003239 325.567095 
L 351.67246 324.99214 
L 352.817069 325.144744 
L 354.867826 325.37698 
L 357.30012 325.396451 
L 361.401634 325.376637 
L 365.407764 325.393659 
L 369.318511 325.375292 
L 373.372333 325.393174 
L 377.330771 325.377253 
L 381.336901 325.392688 
L 385.247648 325.376254 
L 389.253778 325.393687 
L 393.259908 325.378254 
L 397.218347 325.393186 
L 401.176785 325.377251 
L 405.182915 325.392685 
L 409.141354 325.377751 
L 413.099792 325.393688 
L 417.105922 325.378252 
L 421.06436 325.393187 
L 425.022799 325.377251 
L 429.028929 325.392686 
L 432.987367 325.377751 
L 436.945806 325.393688 
L 440.951936 325.378253 
L 444.910374 325.393187 
L 448.868812 325.377251 
L 452.874943 325.392686 
L 456.833381 325.377751 
L 460.791819 325.393688 
L 464.79795 325.378252 
L 468.756388 325.393187 
L 472.714826 325.377251 
L 476.720957 325.392686 
L 480.679395 325.377751 
L 484.637833 325.393688 
L 488.643963 325.378252 
L 492.602402 325.393187 
L 496.56084 325.377251 
L 497.323912 325.401253 
L 497.323912 325.401253 
" clip-path="url(#p4565657919)" style="fill: none; stroke: #0000ff; stroke-width: 1.5; stroke-linecap: square"/>
   </g>
   <g id="line2d_65">
    <path d="M 306.460418 309.982022 
L 310.418856 309.949162 
L 314.377295 309.983162 
L 318.383425 309.949733 
L 322.341863 309.982593 
L 326.300302 309.948594 
L 330.306432 309.982022 
L 334.26487 309.949162 
L 335.791015 310.114637 
L 336.315627 310.514523 
L 337.126392 311.441131 
L 338.604845 313.159282 
L 339.367917 313.696969 
L 340.083298 313.92256 
L 340.989446 313.94982 
L 342.134055 314.005469 
L 342.801743 314.265462 
L 343.469432 314.774486 
L 344.280196 315.71078 
L 346.95095 319.091566 
L 347.618638 319.461524 
L 348.334018 319.601624 
L 350.527852 319.813262 
L 351.147848 320.222937 
L 351.91092 320.751308 
L 352.721685 320.991891 
L 353.818602 321.08255 
L 361.353942 321.124291 
L 367.172369 321.117251 
L 370.224659 321.096959 
L 373.944637 321.079424 
L 378.046152 321.101232 
L 381.956898 321.081484 
L 385.915336 321.103824 
L 389.921466 321.082014 
L 393.879905 321.103301 
L 397.886035 321.082538 
L 401.844473 321.102782 
L 405.802912 321.081497 
L 409.809042 321.102261 
L 413.76748 321.082017 
L 417.725919 321.103302 
L 421.732049 321.082538 
L 425.690487 321.102782 
L 429.648925 321.081496 
L 433.655056 321.10226 
L 437.613494 321.082016 
L 441.571932 321.103302 
L 445.578063 321.082538 
L 449.536501 321.102782 
L 453.494939 321.081496 
L 457.501069 321.10226 
L 461.459508 321.082016 
L 465.417946 321.103302 
L 469.424076 321.082538 
L 473.382515 321.102782 
L 477.340953 321.081496 
L 481.347083 321.10226 
L 485.305522 321.082016 
L 489.26396 321.103302 
L 493.27009 321.082538 
L 497.228528 321.102782 
L 497.323912 321.099629 
L 497.323912 321.099629 
" clip-path="url(#p4565657919)" style="fill: none; stroke: #ff0000; stroke-width: 1.5; stroke-linecap: square"/>
   </g>
   <g id="line2d_66">
    <path d="M 306.460418 309.252256 
L 321.006487 309.268061 
L 323.9157 309.293515 
L 327.492602 309.320742 
L 331.641809 309.285172 
L 335.457171 309.318242 
L 335.934091 309.132162 
L 337.984848 308.061063 
L 338.604845 308.1166 
L 339.320225 308.418684 
L 341.32329 309.414724 
L 341.943287 309.388361 
L 342.563283 309.123115 
L 343.326356 308.529221 
L 345.234037 306.914346 
L 345.901725 306.699332 
L 346.521721 306.742196 
L 347.237102 307.034658 
L 349.287859 308.045142 
L 349.907855 308.014334 
L 350.527852 307.747733 
L 351.338616 307.116949 
L 351.91092 306.792205 
L 352.673993 306.604196 
L 354.104754 306.521441 
L 357.30012 306.622778 
L 360.018565 306.592183 
L 363.452391 306.561954 
L 367.792366 306.599341 
L 371.512344 306.565768 
L 375.66155 306.602279 
L 379.524604 306.568052 
L 383.530735 306.605261 
L 387.489173 306.568633 
L 391.447611 306.606434 
L 395.453742 306.569216 
L 399.41218 306.605851 
L 403.370618 306.568048 
L 407.376749 306.605267 
L 411.335187 306.568629 
L 415.293625 306.606433 
L 419.299755 306.569214 
L 423.258194 306.605851 
L 427.216632 306.568048 
L 431.222762 306.605266 
L 435.181201 306.568629 
L 439.139639 306.606433 
L 443.145769 306.569214 
L 447.104207 306.605851 
L 451.062646 306.568048 
L 455.068776 306.605266 
L 459.027214 306.568629 
L 462.985653 306.606433 
L 466.991783 306.569214 
L 470.950221 306.605851 
L 474.90866 306.568048 
L 478.91479 306.605266 
L 482.873228 306.568629 
L 486.831666 306.606433 
L 490.837797 306.569214 
L 494.796235 306.605851 
L 497.323912 306.537301 
L 497.323912 306.537301 
" clip-path="url(#p4565657919)" style="fill: none; stroke: #008000; stroke-width: 1.5; stroke-linecap: square"/>
   </g>
   <g id="line2d_67">
    <path d="M 354.200138 406.487057 
L 354.200138 296.524705 
" clip-path="url(#p4565657919)" style="fill: none; stroke-dasharray: 5.55,2.4; stroke-dashoffset: 0; stroke: #000000; stroke-opacity: 0.3; stroke-width: 1.5"/>
   </g>
   <g id="patch_14">
    <path d="M 306.50811 406.487057 
L 306.50811 296.524705 
" style="fill: none; stroke: #000000; stroke-width: 0.8; stroke-linejoin: miter; stroke-linecap: square"/>
   </g>
   <g id="patch_15">
    <path d="M 497.27622 406.487057 
L 497.27622 296.524705 
" style="fill: none; stroke: #000000; stroke-width: 0.8; stroke-linejoin: miter; stroke-linecap: square"/>
   </g>
   <g id="patch_16">
    <path d="M 306.50811 406.487057 
L 497.27622 406.487057 
" style="fill: none; stroke: #000000; stroke-width: 0.8; stroke-linejoin: miter; stroke-linecap: square"/>
   </g>
   <g id="patch_17">
    <path d="M 306.50811 296.524705 
L 497.27622 296.524705 
" style="fill: none; stroke: #000000; stroke-width: 0.8; stroke-linejoin: miter; stroke-linecap: square"/>
   </g>
   <g id="text_36">
    <!-- Zoom: Evento Principal -->
    <g transform="translate(332.70579 290.524705) scale(0.144 -0.144)">
     <defs>
      <path id="TimesNewRomanPSMT-69" d="M 928 4444 
Q 1059 4444 1151 4351 
Q 1244 4259 1244 4128 
Q 1244 3997 1151 3903 
Q 1059 3809 928 3809 
Q 797 3809 703 3903 
Q 609 3997 609 4128 
Q 609 4259 701 4351 
Q 794 4444 928 4444 
z
M 1188 2947 
L 1188 647 
Q 1188 378 1227 289 
Q 1266 200 1342 156 
Q 1419 113 1622 113 
L 1622 0 
L 231 0 
L 231 113 
Q 441 113 512 153 
Q 584 194 626 287 
Q 669 381 669 647 
L 669 1750 
Q 669 2216 641 2353 
Q 619 2453 572 2492 
Q 525 2531 444 2531 
Q 356 2531 231 2484 
L 188 2597 
L 1050 2947 
L 1188 2947 
z
" transform="scale(0.015625)"/>
      <path id="TimesNewRomanPSMT-63" d="M 2631 1088 
Q 2516 522 2178 217 
Q 1841 -88 1431 -88 
Q 944 -88 581 321 
Q 219 731 219 1428 
Q 219 2103 620 2525 
Q 1022 2947 1584 2947 
Q 2006 2947 2278 2723 
Q 2550 2500 2550 2259 
Q 2550 2141 2473 2067 
Q 2397 1994 2259 1994 
Q 2075 1994 1981 2113 
Q 1928 2178 1911 2362 
Q 1894 2547 1784 2644 
Q 1675 2738 1481 2738 
Q 1169 2738 978 2506 
Q 725 2200 725 1697 
Q 725 1184 976 792 
Q 1228 400 1656 400 
Q 1963 400 2206 609 
Q 2378 753 2541 1131 
L 2631 1088 
z
" transform="scale(0.015625)"/>
      <path id="TimesNewRomanPSMT-6c" d="M 1184 4444 
L 1184 647 
Q 1184 378 1223 290 
Q 1263 203 1344 158 
Q 1425 113 1647 113 
L 1647 0 
L 244 0 
L 244 113 
Q 441 113 512 153 
Q 584 194 625 287 
Q 666 381 666 647 
L 666 3247 
Q 666 3731 644 3842 
Q 622 3953 573 3993 
Q 525 4034 450 4034 
Q 369 4034 244 3984 
L 191 4094 
L 1044 4444 
L 1184 4444 
z
" transform="scale(0.015625)"/>
     </defs>
     <use xlink:href="#TimesNewRomanPSMT-5a"/>
     <use xlink:href="#TimesNewRomanPSMT-6f" transform="translate(61.083984 0)"/>
     <use xlink:href="#TimesNewRomanPSMT-6f" transform="translate(111.083984 0)"/>
     <use xlink:href="#TimesNewRomanPSMT-6d" transform="translate(161.083984 0)"/>
     <use xlink:href="#TimesNewRomanPSMT-3a" transform="translate(238.867188 0)"/>
     <use xlink:href="#TimesNewRomanPSMT-20" transform="translate(266.650391 0)"/>
     <use xlink:href="#TimesNewRomanPSMT-45" transform="translate(291.650391 0)"/>
     <use xlink:href="#TimesNewRomanPSMT-76" transform="translate(352.734375 0)"/>
     <use xlink:href="#TimesNewRomanPSMT-65" transform="translate(402.734375 0)"/>
     <use xlink:href="#TimesNewRomanPSMT-6e" transform="translate(447.119141 0)"/>
     <use xlink:href="#TimesNewRomanPSMT-74" transform="translate(497.119141 0)"/>
     <use xlink:href="#TimesNewRomanPSMT-6f" transform="translate(524.902344 0)"/>
     <use xlink:href="#TimesNewRomanPSMT-20" transform="translate(574.902344 0)"/>
     <use xlink:href="#TimesNewRomanPSMT-50" transform="translate(599.902344 0)"/>
     <use xlink:href="#TimesNewRomanPSMT-72" transform="translate(655.517578 0)"/>
     <use xlink:href="#TimesNewRomanPSMT-69" transform="translate(688.818359 0)"/>
     <use xlink:href="#TimesNewRomanPSMT-6e" transform="translate(716.601562 0)"/>
     <use xlink:href="#TimesNewRomanPSMT-63" transform="translate(766.601562 0)"/>
     <use xlink:href="#TimesNewRomanPSMT-69" transform="translate(810.986328 0)"/>
     <use xlink:href="#TimesNewRomanPSMT-70" transform="translate(838.769531 0)"/>
     <use xlink:href="#TimesNewRomanPSMT-61" transform="translate(888.769531 0)"/>
     <use xlink:href="#TimesNewRomanPSMT-6c" transform="translate(933.154297 0)"/>
    </g>
   </g>
  </g>
 </g>
 <defs>
  <clipPath id="pefc31597de">
   <rect x="65.63" y="29.04" width="431.64622" height="219.924705"/>
  </clipPath>
  <clipPath id="p63c92bd012">
   <rect x="65.63" y="296.524705" width="190.76811" height="109.962352"/>
  </clipPath>
  <clipPath id="p4565657919">
   <rect x="306.50811" y="296.524705" width="190.76811" height="109.962352"/>
  </clipPath>
 </defs>
</svg>
