<?xml version="1.0" encoding="utf-8" standalone="no"?>
<!DOCTYPE svg PUBLIC "-//W3C//DTD SVG 1.1//EN"
  "http://www.w3.org/Graphics/SVG/1.1/DTD/svg11.dtd">
<svg xmlns:xlink="http://www.w3.org/1999/xlink" width="453.543307pt" height="283.464567pt" viewBox="0 0 453.543307 283.464567" xmlns="http://www.w3.org/2000/svg" version="1.1">
 <metadata>
  <rdf:RDF xmlns:dc="http://purl.org/dc/elements/1.1/" xmlns:cc="http://creativecommons.org/ns#" xmlns:rdf="http://www.w3.org/1999/02/22-rdf-syntax-ns#">
   <cc:Work>
    <dc:type rdf:resource="http://purl.org/dc/dcmitype/StillImage"/>
    <dc:date>2026-01-19T15:57:28.933470</dc:date>
    <dc:format>image/svg+xml</dc:format>
    <dc:creator>
     <cc:Agent>
      <dc:title>Matplotlib v3.10.6, https://matplotlib.org/</dc:title>
     </cc:Agent>
    </dc:creator>
   </cc:Work>
  </rdf:RDF>
 </metadata>
 <defs>
  <style type="text/css">*{stroke-linejoin: round; stroke-linecap: butt}</style>
 </defs>
 <g id="figure_1">
  <g id="patch_1">
   <path d="M 0 283.464567 
L 453.543307 283.464567 
L 453.543307 0 
L 0 0 
z
" style="fill: #ffffff"/>
  </g>
  <g id="axes_1">
   <g id="patch_2">
    <path d="M 41.56625 236.408317 
L 440.583307 236.408317 
L 440.583307 29.04 
L 41.56625 29.04 
z
" style="fill: #ffffff"/>
   </g>
   <g id="matplotlib.axis_1">
    <g id="xtick_1">
     <g id="line2d_1">
      <path d="M 59.703389 236.408317 
L 59.703389 29.04 
" clip-path="url(#pe982101773)" style="fill: none; stroke-dasharray: 2.96,1.28; stroke-dashoffset: 0; stroke: #ffffff; stroke-opacity: 0.6; stroke-width: 0.8"/>
     </g>
     <g id="text_1">
      <!-- 0.0 -->
      <g transform="translate(52.203389 251.740817) scale(0.12 -0.12)">
       <defs>
        <path id="TimesNewRomanPSMT-30" d="M 231 2094 
Q 231 2819 450 3342 
Q 669 3866 1031 4122 
Q 1313 4325 1613 4325 
Q 2100 4325 2488 3828 
Q 2972 3213 2972 2159 
Q 2972 1422 2759 906 
Q 2547 391 2217 158 
Q 1888 -75 1581 -75 
Q 975 -75 572 641 
Q 231 1244 231 2094 
z
M 844 2016 
Q 844 1141 1059 588 
Q 1238 122 1591 122 
Q 1759 122 1940 273 
Q 2122 425 2216 781 
Q 2359 1319 2359 2297 
Q 2359 3022 2209 3506 
Q 2097 3866 1919 4016 
Q 1791 4119 1609 4119 
Q 1397 4119 1231 3928 
Q 1006 3669 925 3112 
Q 844 2556 844 2016 
z
" transform="scale(0.015625)"/>
        <path id="TimesNewRomanPSMT-2e" d="M 800 606 
Q 947 606 1047 504 
Q 1147 403 1147 259 
Q 1147 116 1045 14 
Q 944 -88 800 -88 
Q 656 -88 554 14 
Q 453 116 453 259 
Q 453 406 554 506 
Q 656 606 800 606 
z
" transform="scale(0.015625)"/>
       </defs>
       <use xlink:href="#TimesNewRomanPSMT-30"/>
       <use xlink:href="#TimesNewRomanPSMT-2e" transform="translate(50 0)"/>
       <use xlink:href="#TimesNewRomanPSMT-30" transform="translate(75 0)"/>
      </g>
     </g>
    </g>
    <g id="xtick_2">
     <g id="line2d_2">
      <path d="M 132.251945 236.408317 
L 132.251945 29.04 
" clip-path="url(#pe982101773)" style="fill: none; stroke-dasharray: 2.96,1.28; stroke-dashoffset: 0; stroke: #ffffff; stroke-opacity: 0.6; stroke-width: 0.8"/>
     </g>
     <g id="text_2">
      <!-- 0.1 -->
      <g transform="translate(124.751945 251.740817) scale(0.12 -0.12)">
       <defs>
        <path id="TimesNewRomanPSMT-31" d="M 750 3822 
L 1781 4325 
L 1884 4325 
L 1884 747 
Q 1884 391 1914 303 
Q 1944 216 2037 169 
Q 2131 122 2419 116 
L 2419 0 
L 825 0 
L 825 116 
Q 1125 122 1212 167 
Q 1300 213 1334 289 
Q 1369 366 1369 747 
L 1369 3034 
Q 1369 3497 1338 3628 
Q 1316 3728 1258 3775 
Q 1200 3822 1119 3822 
Q 1003 3822 797 3725 
L 750 3822 
z
" transform="scale(0.015625)"/>
       </defs>
       <use xlink:href="#TimesNewRomanPSMT-30"/>
       <use xlink:href="#TimesNewRomanPSMT-2e" transform="translate(50 0)"/>
       <use xlink:href="#TimesNewRomanPSMT-31" transform="translate(75 0)"/>
      </g>
     </g>
    </g>
    <g id="xtick_3">
     <g id="line2d_3">
      <path d="M 204.800501 236.408317 
L 204.800501 29.04 
" clip-path="url(#pe982101773)" style="fill: none; stroke-dasharray: 2.96,1.28; stroke-dashoffset: 0; stroke: #ffffff; stroke-opacity: 0.6; stroke-width: 0.8"/>
     </g>
     <g id="text_3">
      <!-- 0.2 -->
      <g transform="translate(197.300501 251.740817) scale(0.12 -0.12)">
       <defs>
        <path id="TimesNewRomanPSMT-32" d="M 2934 816 
L 2638 0 
L 138 0 
L 138 116 
Q 1241 1122 1691 1759 
Q 2141 2397 2141 2925 
Q 2141 3328 1894 3587 
Q 1647 3847 1303 3847 
Q 991 3847 742 3664 
Q 494 3481 375 3128 
L 259 3128 
Q 338 3706 661 4015 
Q 984 4325 1469 4325 
Q 1984 4325 2329 3994 
Q 2675 3663 2675 3213 
Q 2675 2891 2525 2569 
Q 2294 2063 1775 1497 
Q 997 647 803 472 
L 1909 472 
Q 2247 472 2383 497 
Q 2519 522 2628 598 
Q 2738 675 2819 816 
L 2934 816 
z
" transform="scale(0.015625)"/>
       </defs>
       <use xlink:href="#TimesNewRomanPSMT-30"/>
       <use xlink:href="#TimesNewRomanPSMT-2e" transform="translate(50 0)"/>
       <use xlink:href="#TimesNewRomanPSMT-32" transform="translate(75 0)"/>
      </g>
     </g>
    </g>
    <g id="xtick_4">
     <g id="line2d_4">
      <path d="M 277.349056 236.408317 
L 277.349056 29.04 
" clip-path="url(#pe982101773)" style="fill: none; stroke-dasharray: 2.96,1.28; stroke-dashoffset: 0; stroke: #ffffff; stroke-opacity: 0.6; stroke-width: 0.8"/>
     </g>
     <g id="text_4">
      <!-- 0.3 -->
      <g transform="translate(269.849056 251.740817) scale(0.12 -0.12)">
       <defs>
        <path id="TimesNewRomanPSMT-33" d="M 325 3431 
Q 506 3859 782 4092 
Q 1059 4325 1472 4325 
Q 1981 4325 2253 3994 
Q 2459 3747 2459 3466 
Q 2459 3003 1878 2509 
Q 2269 2356 2469 2072 
Q 2669 1788 2669 1403 
Q 2669 853 2319 450 
Q 1863 -75 997 -75 
Q 569 -75 414 31 
Q 259 138 259 259 
Q 259 350 332 419 
Q 406 488 509 488 
Q 588 488 669 463 
Q 722 447 909 348 
Q 1097 250 1169 231 
Q 1284 197 1416 197 
Q 1734 197 1970 444 
Q 2206 691 2206 1028 
Q 2206 1275 2097 1509 
Q 2016 1684 1919 1775 
Q 1784 1900 1550 2001 
Q 1316 2103 1072 2103 
L 972 2103 
L 972 2197 
Q 1219 2228 1467 2375 
Q 1716 2522 1828 2728 
Q 1941 2934 1941 3181 
Q 1941 3503 1739 3701 
Q 1538 3900 1238 3900 
Q 753 3900 428 3381 
L 325 3431 
z
" transform="scale(0.015625)"/>
       </defs>
       <use xlink:href="#TimesNewRomanPSMT-30"/>
       <use xlink:href="#TimesNewRomanPSMT-2e" transform="translate(50 0)"/>
       <use xlink:href="#TimesNewRomanPSMT-33" transform="translate(75 0)"/>
      </g>
     </g>
    </g>
    <g id="xtick_5">
     <g id="line2d_5">
      <path d="M 349.897612 236.408317 
L 349.897612 29.04 
" clip-path="url(#pe982101773)" style="fill: none; stroke-dasharray: 2.96,1.28; stroke-dashoffset: 0; stroke: #ffffff; stroke-opacity: 0.6; stroke-width: 0.8"/>
     </g>
     <g id="text_5">
      <!-- 0.4 -->
      <g transform="translate(342.397612 251.740817) scale(0.12 -0.12)">
       <defs>
        <path id="TimesNewRomanPSMT-34" d="M 2978 1563 
L 2978 1119 
L 2409 1119 
L 2409 0 
L 1894 0 
L 1894 1119 
L 100 1119 
L 100 1519 
L 2066 4325 
L 2409 4325 
L 2409 1563 
L 2978 1563 
z
M 1894 1563 
L 1894 3666 
L 406 1563 
L 1894 1563 
z
" transform="scale(0.015625)"/>
       </defs>
       <use xlink:href="#TimesNewRomanPSMT-30"/>
       <use xlink:href="#TimesNewRomanPSMT-2e" transform="translate(50 0)"/>
       <use xlink:href="#TimesNewRomanPSMT-34" transform="translate(75 0)"/>
      </g>
     </g>
    </g>
    <g id="xtick_6">
     <g id="line2d_6">
      <path d="M 422.446168 236.408317 
L 422.446168 29.04 
" clip-path="url(#pe982101773)" style="fill: none; stroke-dasharray: 2.96,1.28; stroke-dashoffset: 0; stroke: #ffffff; stroke-opacity: 0.6; stroke-width: 0.8"/>
     </g>
     <g id="text_6">
      <!-- 0.5 -->
      <g transform="translate(414.946168 251.740817) scale(0.12 -0.12)">
       <defs>
        <path id="TimesNewRomanPSMT-35" d="M 2778 4238 
L 2534 3706 
L 1259 3706 
L 981 3138 
Q 1809 3016 2294 2522 
Q 2709 2097 2709 1522 
Q 2709 1188 2573 903 
Q 2438 619 2231 419 
Q 2025 219 1772 97 
Q 1413 -75 1034 -75 
Q 653 -75 479 54 
Q 306 184 306 341 
Q 306 428 378 495 
Q 450 563 559 563 
Q 641 563 702 538 
Q 763 513 909 409 
Q 1144 247 1384 247 
Q 1750 247 2026 523 
Q 2303 800 2303 1197 
Q 2303 1581 2056 1914 
Q 1809 2247 1375 2428 
Q 1034 2569 447 2591 
L 1259 4238 
L 2778 4238 
z
" transform="scale(0.015625)"/>
       </defs>
       <use xlink:href="#TimesNewRomanPSMT-30"/>
       <use xlink:href="#TimesNewRomanPSMT-2e" transform="translate(50 0)"/>
       <use xlink:href="#TimesNewRomanPSMT-35" transform="translate(75 0)"/>
      </g>
     </g>
    </g>
    <g id="text_7">
     <!-- Tempo (s) -->
     <g transform="translate(216.668841 266.640192) scale(0.12 -0.12)">
      <defs>
       <path id="TimesNewRomanPSMT-54" d="M 3703 4238 
L 3750 3244 
L 3631 3244 
Q 3597 3506 3538 3619 
Q 3441 3800 3280 3886 
Q 3119 3972 2856 3972 
L 2259 3972 
L 2259 734 
Q 2259 344 2344 247 
Q 2463 116 2709 116 
L 2856 116 
L 2856 0 
L 1059 0 
L 1059 116 
L 1209 116 
Q 1478 116 1591 278 
Q 1659 378 1659 734 
L 1659 3972 
L 1150 3972 
Q 853 3972 728 3928 
Q 566 3869 450 3700 
Q 334 3531 313 3244 
L 194 3244 
L 244 4238 
L 3703 4238 
z
" transform="scale(0.015625)"/>
       <path id="TimesNewRomanPSMT-65" d="M 681 1784 
Q 678 1147 991 784 
Q 1303 422 1725 422 
Q 2006 422 2214 576 
Q 2422 731 2563 1106 
L 2659 1044 
Q 2594 616 2278 264 
Q 1963 -88 1488 -88 
Q 972 -88 605 314 
Q 238 716 238 1394 
Q 238 2128 614 2539 
Q 991 2950 1559 2950 
Q 2041 2950 2350 2633 
Q 2659 2316 2659 1784 
L 681 1784 
z
M 681 1966 
L 2006 1966 
Q 1991 2241 1941 2353 
Q 1863 2528 1708 2628 
Q 1553 2728 1384 2728 
Q 1125 2728 920 2526 
Q 716 2325 681 1966 
z
" transform="scale(0.015625)"/>
       <path id="TimesNewRomanPSMT-6d" d="M 1050 2338 
Q 1363 2650 1419 2697 
Q 1559 2816 1721 2881 
Q 1884 2947 2044 2947 
Q 2313 2947 2506 2790 
Q 2700 2634 2766 2338 
Q 3088 2713 3309 2830 
Q 3531 2947 3766 2947 
Q 3994 2947 4170 2830 
Q 4347 2713 4450 2447 
Q 4519 2266 4519 1878 
L 4519 647 
Q 4519 378 4559 278 
Q 4591 209 4675 161 
Q 4759 113 4950 113 
L 4950 0 
L 3538 0 
L 3538 113 
L 3597 113 
Q 3781 113 3884 184 
Q 3956 234 3988 344 
Q 4000 397 4000 647 
L 4000 1878 
Q 4000 2228 3916 2372 
Q 3794 2572 3525 2572 
Q 3359 2572 3192 2489 
Q 3025 2406 2788 2181 
L 2781 2147 
L 2788 2013 
L 2788 647 
Q 2788 353 2820 281 
Q 2853 209 2943 161 
Q 3034 113 3253 113 
L 3253 0 
L 1806 0 
L 1806 113 
Q 2044 113 2133 169 
Q 2222 225 2256 338 
Q 2272 391 2272 647 
L 2272 1878 
Q 2272 2228 2169 2381 
Q 2031 2581 1784 2581 
Q 1616 2581 1450 2491 
Q 1191 2353 1050 2181 
L 1050 647 
Q 1050 366 1089 281 
Q 1128 197 1204 155 
Q 1281 113 1516 113 
L 1516 0 
L 100 0 
L 100 113 
Q 297 113 375 155 
Q 453 197 493 289 
Q 534 381 534 647 
L 534 1741 
Q 534 2213 506 2350 
Q 484 2453 437 2492 
Q 391 2531 309 2531 
Q 222 2531 100 2484 
L 53 2597 
L 916 2947 
L 1050 2947 
L 1050 2338 
z
" transform="scale(0.015625)"/>
       <path id="TimesNewRomanPSMT-70" d="M -6 2578 
L 875 2934 
L 994 2934 
L 994 2266 
Q 1216 2644 1439 2795 
Q 1663 2947 1909 2947 
Q 2341 2947 2628 2609 
Q 2981 2197 2981 1534 
Q 2981 794 2556 309 
Q 2206 -88 1675 -88 
Q 1444 -88 1275 -22 
Q 1150 25 994 166 
L 994 -706 
Q 994 -1000 1030 -1079 
Q 1066 -1159 1155 -1206 
Q 1244 -1253 1478 -1253 
L 1478 -1369 
L -22 -1369 
L -22 -1253 
L 56 -1253 
Q 228 -1256 350 -1188 
Q 409 -1153 442 -1076 
Q 475 -1000 475 -688 
L 475 2019 
Q 475 2297 450 2372 
Q 425 2447 370 2484 
Q 316 2522 222 2522 
Q 147 2522 31 2478 
L -6 2578 
z
M 994 2081 
L 994 1013 
Q 994 666 1022 556 
Q 1066 375 1236 237 
Q 1406 100 1666 100 
Q 1978 100 2172 344 
Q 2425 663 2425 1241 
Q 2425 1897 2138 2250 
Q 1938 2494 1663 2494 
Q 1513 2494 1366 2419 
Q 1253 2363 994 2081 
z
" transform="scale(0.015625)"/>
       <path id="TimesNewRomanPSMT-6f" d="M 1600 2947 
Q 2250 2947 2644 2453 
Q 2978 2031 2978 1484 
Q 2978 1100 2793 706 
Q 2609 313 2286 112 
Q 1963 -88 1566 -88 
Q 919 -88 538 428 
Q 216 863 216 1403 
Q 216 1797 411 2186 
Q 606 2575 925 2761 
Q 1244 2947 1600 2947 
z
M 1503 2744 
Q 1338 2744 1170 2645 
Q 1003 2547 900 2300 
Q 797 2053 797 1666 
Q 797 1041 1045 587 
Q 1294 134 1700 134 
Q 2003 134 2200 384 
Q 2397 634 2397 1244 
Q 2397 2006 2069 2444 
Q 1847 2744 1503 2744 
z
" transform="scale(0.015625)"/>
       <path id="TimesNewRomanPSMT-20" transform="scale(0.015625)"/>
       <path id="TimesNewRomanPSMT-28" d="M 1988 -1253 
L 1988 -1369 
Q 1516 -1131 1200 -813 
Q 750 -359 506 256 
Q 263 872 263 1534 
Q 263 2503 741 3301 
Q 1219 4100 1988 4444 
L 1988 4313 
Q 1603 4100 1356 3731 
Q 1109 3363 987 2797 
Q 866 2231 866 1616 
Q 866 947 969 400 
Q 1050 -31 1165 -292 
Q 1281 -553 1476 -793 
Q 1672 -1034 1988 -1253 
z
" transform="scale(0.015625)"/>
       <path id="TimesNewRomanPSMT-73" d="M 2050 2947 
L 2050 1972 
L 1947 1972 
Q 1828 2431 1642 2597 
Q 1456 2763 1169 2763 
Q 950 2763 815 2647 
Q 681 2531 681 2391 
Q 681 2216 781 2091 
Q 878 1963 1175 1819 
L 1631 1597 
Q 2266 1288 2266 781 
Q 2266 391 1970 151 
Q 1675 -88 1309 -88 
Q 1047 -88 709 6 
Q 606 38 541 38 
Q 469 38 428 -44 
L 325 -44 
L 325 978 
L 428 978 
Q 516 541 762 319 
Q 1009 97 1316 97 
Q 1531 97 1667 223 
Q 1803 350 1803 528 
Q 1803 744 1651 891 
Q 1500 1038 1047 1263 
Q 594 1488 453 1669 
Q 313 1847 313 2119 
Q 313 2472 555 2709 
Q 797 2947 1181 2947 
Q 1350 2947 1591 2875 
Q 1750 2828 1803 2828 
Q 1853 2828 1881 2850 
Q 1909 2872 1947 2947 
L 2050 2947 
z
" transform="scale(0.015625)"/>
       <path id="TimesNewRomanPSMT-29" d="M 144 4313 
L 144 4444 
Q 619 4209 934 3891 
Q 1381 3434 1625 2820 
Q 1869 2206 1869 1541 
Q 1869 572 1392 -226 
Q 916 -1025 144 -1369 
L 144 -1253 
Q 528 -1038 776 -670 
Q 1025 -303 1145 264 
Q 1266 831 1266 1447 
Q 1266 2113 1163 2663 
Q 1084 3094 967 3353 
Q 850 3613 656 3853 
Q 463 4094 144 4313 
z
" transform="scale(0.015625)"/>
      </defs>
      <use xlink:href="#TimesNewRomanPSMT-54"/>
      <use xlink:href="#TimesNewRomanPSMT-65" transform="translate(54.083984 0)"/>
      <use xlink:href="#TimesNewRomanPSMT-6d" transform="translate(98.46875 0)"/>
      <use xlink:href="#TimesNewRomanPSMT-70" transform="translate(176.251953 0)"/>
      <use xlink:href="#TimesNewRomanPSMT-6f" transform="translate(226.251953 0)"/>
      <use xlink:href="#TimesNewRomanPSMT-20" transform="translate(276.251953 0)"/>
      <use xlink:href="#TimesNewRomanPSMT-28" transform="translate(301.251953 0)"/>
      <use xlink:href="#TimesNewRomanPSMT-73" transform="translate(334.552734 0)"/>
      <use xlink:href="#TimesNewRomanPSMT-29" transform="translate(373.46875 0)"/>
     </g>
    </g>
   </g>
   <g id="matplotlib.axis_2">
    <g id="ytick_1">
     <g id="line2d_7">
      <path d="M 41.56625 226.982484 
L 440.583307 226.982484 
" clip-path="url(#pe982101773)" style="fill: none; stroke-dasharray: 2.96,1.28; stroke-dashoffset: 0; stroke: #ffffff; stroke-opacity: 0.6; stroke-width: 0.8"/>
     </g>
     <g id="text_8">
      <!-- 0 -->
      <g transform="translate(28.56625 231.148734) scale(0.12 -0.12)">
       <use xlink:href="#TimesNewRomanPSMT-30"/>
      </g>
     </g>
    </g>
    <g id="ytick_2">
     <g id="line2d_8">
      <path d="M 41.56625 196.396698 
L 440.583307 196.396698 
" clip-path="url(#pe982101773)" style="fill: none; stroke-dasharray: 2.96,1.28; stroke-dashoffset: 0; stroke: #ffffff; stroke-opacity: 0.6; stroke-width: 0.8"/>
     </g>
     <g id="text_9">
      <!-- 1 -->
      <g transform="translate(28.56625 200.562948) scale(0.12 -0.12)">
       <use xlink:href="#TimesNewRomanPSMT-31"/>
      </g>
     </g>
    </g>
    <g id="ytick_3">
     <g id="line2d_9">
      <path d="M 41.56625 165.810912 
L 440.583307 165.810912 
" clip-path="url(#pe982101773)" style="fill: none; stroke-dasharray: 2.96,1.28; stroke-dashoffset: 0; stroke: #ffffff; stroke-opacity: 0.6; stroke-width: 0.8"/>
     </g>
     <g id="text_10">
      <!-- 2 -->
      <g transform="translate(28.56625 169.977162) scale(0.12 -0.12)">
       <use xlink:href="#TimesNewRomanPSMT-32"/>
      </g>
     </g>
    </g>
    <g id="ytick_4">
     <g id="line2d_10">
      <path d="M 41.56625 135.225126 
L 440.583307 135.225126 
" clip-path="url(#pe982101773)" style="fill: none; stroke-dasharray: 2.96,1.28; stroke-dashoffset: 0; stroke: #ffffff; stroke-opacity: 0.6; stroke-width: 0.8"/>
     </g>
     <g id="text_11">
      <!-- 3 -->
      <g transform="translate(28.56625 139.391376) scale(0.12 -0.12)">
       <use xlink:href="#TimesNewRomanPSMT-33"/>
      </g>
     </g>
    </g>
    <g id="ytick_5">
     <g id="line2d_11">
      <path d="M 41.56625 104.63934 
L 440.583307 104.63934 
" clip-path="url(#pe982101773)" style="fill: none; stroke-dasharray: 2.96,1.28; stroke-dashoffset: 0; stroke: #ffffff; stroke-opacity: 0.6; stroke-width: 0.8"/>
     </g>
     <g id="text_12">
      <!-- 4 -->
      <g transform="translate(28.56625 108.80559) scale(0.12 -0.12)">
       <use xlink:href="#TimesNewRomanPSMT-34"/>
      </g>
     </g>
    </g>
    <g id="ytick_6">
     <g id="line2d_12">
      <path d="M 41.56625 74.053554 
L 440.583307 74.053554 
" clip-path="url(#pe982101773)" style="fill: none; stroke-dasharray: 2.96,1.28; stroke-dashoffset: 0; stroke: #ffffff; stroke-opacity: 0.6; stroke-width: 0.8"/>
     </g>
     <g id="text_13">
      <!-- 5 -->
      <g transform="translate(28.56625 78.219804) scale(0.12 -0.12)">
       <use xlink:href="#TimesNewRomanPSMT-35"/>
      </g>
     </g>
    </g>
    <g id="ytick_7">
     <g id="line2d_13">
      <path d="M 41.56625 43.467768 
L 440.583307 43.467768 
" clip-path="url(#pe982101773)" style="fill: none; stroke-dasharray: 2.96,1.28; stroke-dashoffset: 0; stroke: #ffffff; stroke-opacity: 0.6; stroke-width: 0.8"/>
     </g>
     <g id="text_14">
      <!-- 6 -->
      <g transform="translate(28.56625 47.634018) scale(0.12 -0.12)">
       <defs>
        <path id="TimesNewRomanPSMT-36" d="M 2869 4325 
L 2869 4209 
Q 2456 4169 2195 4045 
Q 1934 3922 1679 3669 
Q 1425 3416 1258 3105 
Q 1091 2794 978 2366 
Q 1428 2675 1881 2675 
Q 2316 2675 2634 2325 
Q 2953 1975 2953 1425 
Q 2953 894 2631 456 
Q 2244 -75 1606 -75 
Q 1172 -75 869 213 
Q 275 772 275 1663 
Q 275 2231 503 2743 
Q 731 3256 1154 3653 
Q 1578 4050 1965 4187 
Q 2353 4325 2688 4325 
L 2869 4325 
z
M 925 2138 
Q 869 1716 869 1456 
Q 869 1156 980 804 
Q 1091 453 1309 247 
Q 1469 100 1697 100 
Q 1969 100 2183 356 
Q 2397 613 2397 1088 
Q 2397 1622 2184 2012 
Q 1972 2403 1581 2403 
Q 1463 2403 1327 2353 
Q 1191 2303 925 2138 
z
" transform="scale(0.015625)"/>
       </defs>
       <use xlink:href="#TimesNewRomanPSMT-36"/>
      </g>
     </g>
    </g>
    <g id="text_15">
     <!-- Corrente de Sequência Zero (A) -->
     <g transform="translate(21.999375 209.691033) rotate(-90) scale(0.12 -0.12)">
      <defs>
       <path id="TimesNewRomanPSMT-43" d="M 3853 4334 
L 3950 2894 
L 3853 2894 
Q 3659 3541 3300 3825 
Q 2941 4109 2438 4109 
Q 2016 4109 1675 3895 
Q 1334 3681 1139 3212 
Q 944 2744 944 2047 
Q 944 1472 1128 1050 
Q 1313 628 1683 403 
Q 2053 178 2528 178 
Q 2941 178 3256 354 
Q 3572 531 3950 1056 
L 4047 994 
Q 3728 428 3303 165 
Q 2878 -97 2294 -97 
Q 1241 -97 663 684 
Q 231 1266 231 2053 
Q 231 2688 515 3219 
Q 800 3750 1298 4042 
Q 1797 4334 2388 4334 
Q 2847 4334 3294 4109 
Q 3425 4041 3481 4041 
Q 3566 4041 3628 4100 
Q 3709 4184 3744 4334 
L 3853 4334 
z
" transform="scale(0.015625)"/>
       <path id="TimesNewRomanPSMT-72" d="M 1038 2947 
L 1038 2303 
Q 1397 2947 1775 2947 
Q 1947 2947 2059 2842 
Q 2172 2738 2172 2600 
Q 2172 2478 2090 2393 
Q 2009 2309 1897 2309 
Q 1788 2309 1652 2417 
Q 1516 2525 1450 2525 
Q 1394 2525 1328 2463 
Q 1188 2334 1038 2041 
L 1038 669 
Q 1038 431 1097 309 
Q 1138 225 1241 169 
Q 1344 113 1538 113 
L 1538 0 
L 72 0 
L 72 113 
Q 291 113 397 181 
Q 475 231 506 341 
Q 522 394 522 644 
L 522 1753 
Q 522 2253 501 2348 
Q 481 2444 426 2487 
Q 372 2531 291 2531 
Q 194 2531 72 2484 
L 41 2597 
L 906 2947 
L 1038 2947 
z
" transform="scale(0.015625)"/>
       <path id="TimesNewRomanPSMT-6e" d="M 1034 2341 
Q 1538 2947 1994 2947 
Q 2228 2947 2397 2830 
Q 2566 2713 2666 2444 
Q 2734 2256 2734 1869 
L 2734 647 
Q 2734 375 2778 278 
Q 2813 200 2889 156 
Q 2966 113 3172 113 
L 3172 0 
L 1756 0 
L 1756 113 
L 1816 113 
Q 2016 113 2095 173 
Q 2175 234 2206 353 
Q 2219 400 2219 647 
L 2219 1819 
Q 2219 2209 2117 2386 
Q 2016 2563 1775 2563 
Q 1403 2563 1034 2156 
L 1034 647 
Q 1034 356 1069 288 
Q 1113 197 1189 155 
Q 1266 113 1500 113 
L 1500 0 
L 84 0 
L 84 113 
L 147 113 
Q 366 113 442 223 
Q 519 334 519 647 
L 519 1709 
Q 519 2225 495 2337 
Q 472 2450 423 2490 
Q 375 2531 294 2531 
Q 206 2531 84 2484 
L 38 2597 
L 900 2947 
L 1034 2947 
L 1034 2341 
z
" transform="scale(0.015625)"/>
       <path id="TimesNewRomanPSMT-74" d="M 1031 3803 
L 1031 2863 
L 1700 2863 
L 1700 2644 
L 1031 2644 
L 1031 788 
Q 1031 509 1111 412 
Q 1191 316 1316 316 
Q 1419 316 1516 380 
Q 1613 444 1666 569 
L 1788 569 
Q 1678 263 1478 108 
Q 1278 -47 1066 -47 
Q 922 -47 784 33 
Q 647 113 581 261 
Q 516 409 516 719 
L 516 2644 
L 63 2644 
L 63 2747 
Q 234 2816 414 2980 
Q 594 3144 734 3369 
Q 806 3488 934 3803 
L 1031 3803 
z
" transform="scale(0.015625)"/>
       <path id="TimesNewRomanPSMT-64" d="M 2222 322 
Q 2013 103 1813 7 
Q 1613 -88 1381 -88 
Q 913 -88 563 304 
Q 213 697 213 1313 
Q 213 1928 600 2439 
Q 988 2950 1597 2950 
Q 1975 2950 2222 2709 
L 2222 3238 
Q 2222 3728 2198 3840 
Q 2175 3953 2125 3993 
Q 2075 4034 2000 4034 
Q 1919 4034 1784 3984 
L 1744 4094 
L 2597 4444 
L 2738 4444 
L 2738 1134 
Q 2738 631 2761 520 
Q 2784 409 2836 365 
Q 2888 322 2956 322 
Q 3041 322 3181 375 
L 3216 266 
L 2366 -88 
L 2222 -88 
L 2222 322 
z
M 2222 541 
L 2222 2016 
Q 2203 2228 2109 2403 
Q 2016 2578 1861 2667 
Q 1706 2756 1559 2756 
Q 1284 2756 1069 2509 
Q 784 2184 784 1559 
Q 784 928 1059 592 
Q 1334 256 1672 256 
Q 1956 256 2222 541 
z
" transform="scale(0.015625)"/>
       <path id="TimesNewRomanPSMT-53" d="M 2934 4334 
L 2934 2869 
L 2819 2869 
Q 2763 3291 2617 3541 
Q 2472 3791 2203 3937 
Q 1934 4084 1647 4084 
Q 1322 4084 1109 3886 
Q 897 3688 897 3434 
Q 897 3241 1031 3081 
Q 1225 2847 1953 2456 
Q 2547 2138 2764 1967 
Q 2981 1797 3098 1565 
Q 3216 1334 3216 1081 
Q 3216 600 2842 251 
Q 2469 -97 1881 -97 
Q 1697 -97 1534 -69 
Q 1438 -53 1133 45 
Q 828 144 747 144 
Q 669 144 623 97 
Q 578 50 556 -97 
L 441 -97 
L 441 1356 
L 556 1356 
Q 638 900 775 673 
Q 913 447 1195 297 
Q 1478 147 1816 147 
Q 2206 147 2432 353 
Q 2659 559 2659 841 
Q 2659 997 2573 1156 
Q 2488 1316 2306 1453 
Q 2184 1547 1640 1851 
Q 1097 2156 867 2337 
Q 638 2519 519 2737 
Q 400 2956 400 3219 
Q 400 3675 750 4004 
Q 1100 4334 1641 4334 
Q 1978 4334 2356 4169 
Q 2531 4091 2603 4091 
Q 2684 4091 2736 4139 
Q 2788 4188 2819 4334 
L 2934 4334 
z
" transform="scale(0.015625)"/>
       <path id="TimesNewRomanPSMT-71" d="M 2734 2947 
L 2734 -734 
Q 2734 -1009 2771 -1087 
Q 2809 -1166 2889 -1209 
Q 2969 -1253 3200 -1253 
L 3200 -1369 
L 1756 -1369 
L 1756 -1253 
L 1816 -1253 
Q 1991 -1253 2081 -1203 
Q 2144 -1169 2181 -1080 
Q 2219 -991 2219 -734 
L 2219 497 
Q 1934 159 1721 35 
Q 1509 -88 1281 -88 
Q 866 -88 539 290 
Q 213 669 213 1303 
Q 213 2031 644 2489 
Q 1075 2947 1684 2947 
Q 1863 2947 2013 2897 
Q 2163 2847 2281 2747 
Q 2463 2834 2628 2947 
L 2734 2947 
z
M 2219 694 
L 2219 2038 
Q 2219 2272 2158 2406 
Q 2097 2541 1940 2634 
Q 1784 2728 1588 2728 
Q 1238 2728 988 2431 
Q 738 2134 738 1531 
Q 738 953 992 653 
Q 1247 353 1606 353 
Q 1791 353 1934 433 
Q 2078 513 2219 694 
z
" transform="scale(0.015625)"/>
       <path id="TimesNewRomanPSMT-75" d="M 2709 2863 
L 2709 1128 
Q 2709 631 2732 520 
Q 2756 409 2807 365 
Q 2859 322 2928 322 
Q 3025 322 3147 375 
L 3191 266 
L 2334 -88 
L 2194 -88 
L 2194 519 
Q 1825 119 1631 15 
Q 1438 -88 1222 -88 
Q 981 -88 804 51 
Q 628 191 559 409 
Q 491 628 491 1028 
L 491 2306 
Q 491 2509 447 2587 
Q 403 2666 317 2708 
Q 231 2750 6 2747 
L 6 2863 
L 1009 2863 
L 1009 947 
Q 1009 547 1148 422 
Q 1288 297 1484 297 
Q 1619 297 1789 381 
Q 1959 466 2194 703 
L 2194 2325 
Q 2194 2569 2105 2655 
Q 2016 2741 1734 2747 
L 1734 2863 
L 2709 2863 
z
" transform="scale(0.015625)"/>
       <path id="TimesNewRomanPSMT-ea" d="M 681 1784 
Q 678 1147 991 784 
Q 1303 422 1725 422 
Q 2006 422 2214 576 
Q 2422 731 2563 1106 
L 2659 1044 
Q 2594 616 2278 264 
Q 1963 -88 1488 -88 
Q 972 -88 605 314 
Q 238 716 238 1394 
Q 238 2128 614 2539 
Q 991 2950 1559 2950 
Q 2041 2950 2350 2633 
Q 2659 2316 2659 1784 
L 681 1784 
z
M 681 1966 
L 2006 1966 
Q 1991 2241 1941 2353 
Q 1863 2528 1708 2628 
Q 1553 2728 1384 2728 
Q 1125 2728 920 2526 
Q 716 2325 681 1966 
z
M 1259 4328 
L 1834 4328 
L 2428 3294 
L 2331 3294 
L 1478 3959 
L 763 3294 
L 669 3294 
L 1259 4328 
z
" transform="scale(0.015625)"/>
       <path id="TimesNewRomanPSMT-63" d="M 2631 1088 
Q 2516 522 2178 217 
Q 1841 -88 1431 -88 
Q 944 -88 581 321 
Q 219 731 219 1428 
Q 219 2103 620 2525 
Q 1022 2947 1584 2947 
Q 2006 2947 2278 2723 
Q 2550 2500 2550 2259 
Q 2550 2141 2473 2067 
Q 2397 1994 2259 1994 
Q 2075 1994 1981 2113 
Q 1928 2178 1911 2362 
Q 1894 2547 1784 2644 
Q 1675 2738 1481 2738 
Q 1169 2738 978 2506 
Q 725 2200 725 1697 
Q 725 1184 976 792 
Q 1228 400 1656 400 
Q 1963 400 2206 609 
Q 2378 753 2541 1131 
L 2631 1088 
z
" transform="scale(0.015625)"/>
       <path id="TimesNewRomanPSMT-69" d="M 928 4444 
Q 1059 4444 1151 4351 
Q 1244 4259 1244 4128 
Q 1244 3997 1151 3903 
Q 1059 3809 928 3809 
Q 797 3809 703 3903 
Q 609 3997 609 4128 
Q 609 4259 701 4351 
Q 794 4444 928 4444 
z
M 1188 2947 
L 1188 647 
Q 1188 378 1227 289 
Q 1266 200 1342 156 
Q 1419 113 1622 113 
L 1622 0 
L 231 0 
L 231 113 
Q 441 113 512 153 
Q 584 194 626 287 
Q 669 381 669 647 
L 669 1750 
Q 669 2216 641 2353 
Q 619 2453 572 2492 
Q 525 2531 444 2531 
Q 356 2531 231 2484 
L 188 2597 
L 1050 2947 
L 1188 2947 
z
" transform="scale(0.015625)"/>
       <path id="TimesNewRomanPSMT-61" d="M 1822 413 
Q 1381 72 1269 19 
Q 1100 -59 909 -59 
Q 613 -59 420 144 
Q 228 347 228 678 
Q 228 888 322 1041 
Q 450 1253 767 1440 
Q 1084 1628 1822 1897 
L 1822 2009 
Q 1822 2438 1686 2597 
Q 1550 2756 1291 2756 
Q 1094 2756 978 2650 
Q 859 2544 859 2406 
L 866 2225 
Q 866 2081 792 2003 
Q 719 1925 600 1925 
Q 484 1925 411 2006 
Q 338 2088 338 2228 
Q 338 2497 613 2722 
Q 888 2947 1384 2947 
Q 1766 2947 2009 2819 
Q 2194 2722 2281 2516 
Q 2338 2381 2338 1966 
L 2338 994 
Q 2338 584 2353 492 
Q 2369 400 2405 369 
Q 2441 338 2488 338 
Q 2538 338 2575 359 
Q 2641 400 2828 588 
L 2828 413 
Q 2478 -56 2159 -56 
Q 2006 -56 1915 50 
Q 1825 156 1822 413 
z
M 1822 616 
L 1822 1706 
Q 1350 1519 1213 1441 
Q 966 1303 859 1153 
Q 753 1003 753 825 
Q 753 600 887 451 
Q 1022 303 1197 303 
Q 1434 303 1822 616 
z
" transform="scale(0.015625)"/>
       <path id="TimesNewRomanPSMT-5a" d="M 3681 4238 
L 897 256 
L 2634 256 
Q 3034 256 3248 431 
Q 3463 606 3628 1141 
L 3731 1122 
L 3531 0 
L 81 0 
L 81 116 
L 2800 3984 
L 1444 3984 
Q 1106 3984 954 3911 
Q 803 3838 723 3698 
Q 644 3559 578 3178 
L 459 3178 
L 547 4238 
L 3681 4238 
z
" transform="scale(0.015625)"/>
       <path id="TimesNewRomanPSMT-41" d="M 2928 1419 
L 1288 1419 
L 1000 750 
Q 894 503 894 381 
Q 894 284 986 211 
Q 1078 138 1384 116 
L 1384 0 
L 50 0 
L 50 116 
Q 316 163 394 238 
Q 553 388 747 847 
L 2238 4334 
L 2347 4334 
L 3822 809 
Q 4000 384 4145 257 
Q 4291 131 4550 116 
L 4550 0 
L 2878 0 
L 2878 116 
Q 3131 128 3220 200 
Q 3309 272 3309 375 
Q 3309 513 3184 809 
L 2928 1419 
z
M 2841 1650 
L 2122 3363 
L 1384 1650 
L 2841 1650 
z
" transform="scale(0.015625)"/>
      </defs>
      <use xlink:href="#TimesNewRomanPSMT-43"/>
      <use xlink:href="#TimesNewRomanPSMT-6f" transform="translate(66.699219 0)"/>
      <use xlink:href="#TimesNewRomanPSMT-72" transform="translate(116.699219 0)"/>
      <use xlink:href="#TimesNewRomanPSMT-72" transform="translate(150 0)"/>
      <use xlink:href="#TimesNewRomanPSMT-65" transform="translate(183.300781 0)"/>
      <use xlink:href="#TimesNewRomanPSMT-6e" transform="translate(227.685547 0)"/>
      <use xlink:href="#TimesNewRomanPSMT-74" transform="translate(277.685547 0)"/>
      <use xlink:href="#TimesNewRomanPSMT-65" transform="translate(305.46875 0)"/>
      <use xlink:href="#TimesNewRomanPSMT-20" transform="translate(349.853516 0)"/>
      <use xlink:href="#TimesNewRomanPSMT-64" transform="translate(374.853516 0)"/>
      <use xlink:href="#TimesNewRomanPSMT-65" transform="translate(424.853516 0)"/>
      <use xlink:href="#TimesNewRomanPSMT-20" transform="translate(469.238281 0)"/>
      <use xlink:href="#TimesNewRomanPSMT-53" transform="translate(494.238281 0)"/>
      <use xlink:href="#TimesNewRomanPSMT-65" transform="translate(549.853516 0)"/>
      <use xlink:href="#TimesNewRomanPSMT-71" transform="translate(594.238281 0)"/>
      <use xlink:href="#TimesNewRomanPSMT-75" transform="translate(644.238281 0)"/>
      <use xlink:href="#TimesNewRomanPSMT-ea" transform="translate(694.238281 0)"/>
      <use xlink:href="#TimesNewRomanPSMT-6e" transform="translate(738.623047 0)"/>
      <use xlink:href="#TimesNewRomanPSMT-63" transform="translate(788.623047 0)"/>
      <use xlink:href="#TimesNewRomanPSMT-69" transform="translate(833.007812 0)"/>
      <use xlink:href="#TimesNewRomanPSMT-61" transform="translate(860.791016 0)"/>
      <use xlink:href="#TimesNewRomanPSMT-20" transform="translate(905.175781 0)"/>
      <use xlink:href="#TimesNewRomanPSMT-5a" transform="translate(930.175781 0)"/>
      <use xlink:href="#TimesNewRomanPSMT-65" transform="translate(991.259766 0)"/>
      <use xlink:href="#TimesNewRomanPSMT-72" transform="translate(1035.644531 0)"/>
      <use xlink:href="#TimesNewRomanPSMT-6f" transform="translate(1068.945312 0)"/>
      <use xlink:href="#TimesNewRomanPSMT-20" transform="translate(1118.945312 0)"/>
      <use xlink:href="#TimesNewRomanPSMT-28" transform="translate(1143.945312 0)"/>
      <use xlink:href="#TimesNewRomanPSMT-41" transform="translate(1177.246094 0)"/>
      <use xlink:href="#TimesNewRomanPSMT-29" transform="translate(1249.462891 0)"/>
     </g>
    </g>
   </g>
   <g id="line2d_14">
    <path d="M 59.703389 142.401654 
L 60.066132 141.145275 
L 60.320052 140.853382 
L 61.081812 140.522928 
L 61.372006 139.552213 
L 61.6622 137.467544 
L 61.988668 133.554038 
L 62.387686 126.380285 
L 63.004348 110.856798 
L 64.455319 71.001234 
L 65.071982 59.567635 
L 65.543548 54.269984 
L 65.797468 52.640419 
L 65.942565 54.209465 
L 66.232759 56.315637 
L 66.41413 56.578112 
L 66.522953 56.414648 
L 66.740599 55.634122 
L 66.994519 53.245904 
L 68.082747 41.162875 
L 68.44549 38.469453 
L 68.481764 38.465833 
L 68.554313 39.008944 
L 68.590587 38.890492 
L 68.663136 38.501398 
L 68.735684 38.543547 
L 68.844507 38.519296 
L 69.46117 45.2512 
L 70.295478 61.983807 
L 70.730769 71.483328 
L 71.202335 78.102263 
L 71.456255 79.493717 
L 71.565078 79.536473 
L 71.673901 79.241827 
L 71.891546 77.792301 
L 72.109192 75.253729 
L 72.834678 62.703699 
L 73.487615 52.283106 
L 73.814083 49.794959 
L 74.031729 49.029363 
L 74.068003 49.250368 
L 74.358197 50.869342 
L 74.539569 52.851966 
L 75.083683 63.837538 
L 75.954265 83.943076 
L 76.24446 87.108096 
L 76.389557 87.512674 
L 76.425831 87.482184 
L 76.534654 87.06944 
L 76.716025 85.361321 
L 77.00622 80.018031 
L 77.514059 65.618544 
L 77.949351 52.998157 
L 77.985625 53.089559 
L 78.021899 53.065856 
L 78.058174 53.135537 
L 78.166996 53.527139 
L 78.203271 53.799047 
L 78.239545 53.583551 
L 78.275819 53.366715 
L 78.312094 53.6402 
L 78.348368 53.809672 
L 78.420916 53.719244 
L 78.457191 53.776425 
L 78.529739 54.840775 
L 78.747385 57.458687 
L 78.892482 59.441693 
L 79.72679 79.863088 
L 80.633647 101.276077 
L 80.960116 103.976983 
L 81.068939 104.04269 
L 81.177761 103.775296 
L 81.359133 102.484156 
L 81.721876 97.907071 
L 82.77383 79.716129 
L 83.245395 75.822611 
L 83.28167 75.884918 
L 83.463041 76.946938 
L 83.753235 81.984308 
L 84.079704 91.162084 
L 85.095384 122.905593 
L 85.385578 127.331412 
L 85.566949 128.170395 
L 85.603223 128.154333 
L 85.712046 127.74416 
L 85.929692 125.497546 
L 86.328709 117.516454 
L 87.126743 100.730214 
L 87.380663 99.024044 
L 87.416937 98.975966 
L 87.598309 100.024013 
L 87.852229 103.622521 
L 88.069874 108.60811 
L 88.54144 123.084985 
L 89.412023 149.078688 
L 89.702217 152.440604 
L 89.774765 152.60275 
L 89.81104 152.578076 
L 89.919862 152.077267 
L 90.137508 149.339151 
L 90.500251 140.800428 
L 91.407108 118.479781 
L 91.661028 116.525257 
L 91.769851 116.498163 
L 91.914948 117.344492 
L 92.241416 121.800164 
L 92.78553 135.077909 
L 93.511016 152.510407 
L 93.764936 154.887129 
L 93.837484 154.972196 
L 93.873759 154.906805 
L 93.982582 154.291988 
L 94.163953 151.822548 
L 94.490421 143.426897 
L 95.034536 122.757367 
L 95.614924 104.258278 
L 95.868844 101.19675 
L 96.013941 100.89208 
L 96.159038 101.563149 
L 96.412958 104.48794 
L 96.84825 113.164152 
L 97.682558 130.231807 
L 97.936478 131.771635 
L 98.009026 131.685143 
L 98.154124 130.75557 
L 98.371769 127.493414 
L 98.734512 117.83111 
L 99.859015 84.376297 
L 100.149209 81.396342 
L 100.33058 80.954654 
L 100.403129 81.084031 
L 100.511952 81.546649 
L 100.765872 83.947595 
L 101.164889 90.641525 
L 102.180568 108.671991 
L 102.398214 109.494583 
L 102.507037 109.229 
L 102.688408 107.74773 
L 102.978603 102.90904 
L 103.63154 86.107678 
L 104.211928 74.159466 
L 104.538396 70.79062 
L 104.756042 70.041805 
L 104.864865 70.101836 
L 105.082511 71.132781 
L 105.408979 74.791762 
L 105.916819 84.11236 
L 106.678579 98.014213 
L 106.968773 100.273552 
L 107.077596 100.449452 
L 107.11387 100.422509 
L 107.222693 100.088437 
L 107.440339 98.314754 
L 107.766807 93.391212 
L 109.108955 70.197358 
L 109.39915 68.767197 
L 109.507973 68.735722 
L 109.689344 69.426832 
L 109.90699 71.37722 
L 110.269732 77.25719 
L 111.648155 103.929827 
L 111.829526 104.43912 
L 111.938349 104.215472 
L 112.119721 103.01967 
L 112.446189 98.720435 
L 113.860886 77.030479 
L 114.078532 76.564018 
L 114.223629 77.059019 
L 114.477549 79.62031 
L 114.804017 85.889292 
L 115.384406 101.896005 
L 116.001068 116.915449 
L 116.327537 120.507392 
L 116.472634 120.790955 
L 116.581457 120.469139 
L 116.762828 118.984447 
L 117.089297 113.838596 
L 118.358896 90.237125 
L 118.395171 90.199139 
L 118.431445 90.243128 
L 118.540268 90.823972 
L 118.721639 93.18064 
L 119.084382 102.018334 
L 120.607902 144.92697 
L 120.752999 145.462126 
L 120.789273 145.43051 
L 120.898096 144.939107 
L 121.079467 142.88935 
L 121.405936 136.134431 
L 122.312793 115.150649 
L 122.566713 113.446472 
L 122.602987 113.409203 
L 122.639261 113.468252 
L 122.748084 113.894482 
L 122.96573 116.214379 
L 123.292198 122.631513 
L 124.053958 144.558386 
L 124.525524 155.549512 
L 124.779444 157.851628 
L 124.851992 157.881605 
L 124.960815 157.379928 
L 125.142186 155.118394 
L 125.468655 147.23749 
L 126.774529 110.985602 
L 126.9559 110.257337 
L 127.028449 110.359752 
L 127.173546 111.209015 
L 127.46374 115.134338 
L 127.97158 126.480053 
L 128.624517 139.97935 
L 128.878437 141.685726 
L 128.950986 141.603803 
L 129.096083 140.619152 
L 129.313728 137.084798 
L 129.676471 126.376258 
L 130.800974 88.898988 
L 131.054894 87.038569 
L 131.127442 86.980176 
L 131.163716 87.044256 
L 131.272539 87.417511 
L 131.526459 89.739034 
L 131.889202 95.671599 
L 132.97743 115.858036 
L 133.195076 116.774662 
L 133.267625 116.662896 
L 133.412722 115.783661 
L 133.666642 112.206906 
L 134.065659 102.440891 
L 135.045064 77.541023 
L 135.371533 73.799887 
L 135.625453 72.927217 
L 135.77055 73.220105 
L 135.988195 74.716999 
L 136.314664 79.062386 
L 137.076424 94.15598 
L 137.511715 100.707987 
L 137.765635 102.147632 
L 137.838184 102.160844 
L 137.874458 102.09716 
L 138.019555 101.38707 
L 138.273475 98.479984 
L 138.672492 90.748955 
L 139.615623 71.927336 
L 139.942092 68.779275 
L 140.159737 68.088855 
L 140.26856 68.167929 
L 140.449932 69.004132 
L 140.667577 71.055487 
L 141.03032 76.779297 
L 142.336194 100.746775 
L 142.55384 101.497563 
L 142.662663 101.307389 
L 142.844034 100.191115 
L 143.134228 96.639502 
L 143.714617 86.165033 
L 144.367554 75.735911 
L 144.730296 72.849252 
L 144.911668 72.539619 
L 145.056765 72.96492 
L 145.274411 74.822138 
L 145.600879 80.276224 
L 146.253816 97.079689 
L 146.870479 110.397552 
L 147.160673 112.882473 
L 147.269496 113.022523 
L 147.30577 112.973019 
L 147.450867 112.312843 
L 147.704787 109.551876 
L 148.140079 101.672632 
L 148.974387 86.314997 
L 149.228307 84.27504 
L 149.33713 84.136542 
L 149.445953 84.52027 
L 149.627324 86.301801 
L 149.953792 92.925583 
L 150.534181 110.982177 
L 151.259666 131.6548 
L 151.586135 135.606064 
L 151.694958 135.852572 
L 151.731232 135.812493 
L 151.840055 135.335441 
L 152.057701 132.875542 
L 152.420443 125.416357 
L 153.291026 106.655862 
L 153.508672 105.631423 
L 153.617494 106.005652 
L 153.798866 107.791059 
L 154.125334 114.1644 
L 154.741997 132.626537 
L 155.431208 152.300443 
L 155.721403 156.110417 
L 155.830225 156.436696 
L 155.8665 156.402028 
L 155.975323 155.869263 
L 156.192968 152.963931 
L 156.555711 143.835312 
L 157.535117 117.209333 
L 157.789036 115.256745 
L 157.861585 115.218669 
L 157.897859 115.293992 
L 158.006682 115.812865 
L 158.260602 118.807277 
L 158.623345 126.282457 
L 159.639025 149.431389 
L 159.85667 150.617476 
L 159.929219 150.470451 
L 160.074316 149.322454 
L 160.328236 144.663872 
L 160.727253 132.014197 
L 161.706658 99.261206 
L 161.996853 96.096299 
L 162.105676 95.860215 
L 162.14195 95.917216 
L 162.250773 96.319678 
L 162.468418 98.410463 
L 162.794887 103.945165 
L 163.883115 124.762324 
L 164.064487 125.410874 
L 164.137035 125.25657 
L 164.282132 124.205751 
L 164.536052 120.012713 
L 164.935069 108.513987 
L 165.805652 82.412027 
L 166.13212 78.24932 
L 166.38604 77.332301 
L 166.494863 77.515218 
L 166.63996 78.24769 
L 166.857606 80.331934 
L 167.220349 85.993088 
L 168.344851 105.512279 
L 168.562497 106.310146 
L 168.635046 106.204718 
L 168.780143 105.424211 
L 169.034063 102.318837 
L 169.43308 94.039766 
L 170.376211 73.361767 
L 170.738954 69.446824 
L 170.956599 68.628357 
L 171.065422 68.689345 
L 171.174245 69.035843 
L 171.428165 71.075264 
L 171.754633 75.857991 
L 172.40757 89.376648 
L 172.91541 97.964991 
L 173.205605 99.964375 
L 173.278153 100.041503 
L 173.314427 100.01544 
L 173.42325 99.676411 
L 173.640896 97.896662 
L 174.003639 92.327674 
L 175.164416 72.362307 
L 175.45461 70.45895 
L 175.599707 70.243897 
L 175.70853 70.437711 
L 175.889901 71.435929 
L 176.180095 74.851857 
L 176.615387 83.480749 
L 177.703615 106.129222 
L 177.957535 107.694824 
L 178.030084 107.748753 
L 178.066358 107.709794 
L 178.211455 107.133019 
L 178.429101 105.114446 
L 178.828118 98.806793 
L 179.95262 79.857365 
L 180.20654 78.416539 
L 180.279089 78.421341 
L 180.387912 78.819816 
L 180.569283 80.637429 
L 180.859477 86.319936 
L 181.403591 102.585983 
L 182.129077 122.366972 
L 182.455545 126.10111 
L 182.564368 126.345211 
L 182.600643 126.313382 
L 182.709465 125.884526 
L 182.927111 123.647734 
L 183.289854 116.823052 
L 184.196711 98.490258 
L 184.414356 97.389361 
L 184.523179 97.688487 
L 184.668276 98.943577 
L 184.922196 103.296957 
L 185.357488 115.33523 
L 186.518265 149.252412 
L 186.772185 151.302635 
L 186.844733 151.277693 
L 186.953556 150.728773 
L 187.171202 147.921982 
L 187.533944 139.440282 
L 188.404527 118.326035 
L 188.658447 116.536883 
L 188.730996 116.542821 
L 188.839818 116.979821 
L 189.057464 119.268311 
L 189.383933 125.589711 
L 190.109418 145.56446 
L 190.580984 155.573125 
L 190.798629 157.205549 
L 190.871178 157.19396 
L 190.980001 156.628572 
L 191.161372 154.246618 
L 191.487841 146.018097 
L 192.866263 105.305269 
L 193.01136 104.966163 
L 193.120183 105.33098 
L 193.301555 106.976194 
L 193.628023 112.483121 
L 194.825074 135.639825 
L 194.933897 135.860907 
L 194.970171 135.80803 
L 195.078994 135.257283 
L 195.260366 133.025771 
L 195.55056 126.294793 
L 196.094674 107.085495 
L 196.675062 88.995126 
L 197.001531 84.203653 
L 197.219177 83.252336 
L 197.291725 83.296608 
L 197.436822 83.889762 
L 197.690742 86.386304 
L 198.089759 93.203943 
L 199.069165 111.111204 
L 199.28681 112.188486 
L 199.359359 112.144572 
L 199.504456 111.420805 
L 199.722102 108.770526 
L 200.084844 100.869061 
L 201.173073 74.764493 
L 201.499541 71.610339 
L 201.717187 71.050832 
L 201.82601 71.235261 
L 202.007381 72.215776 
L 202.297575 75.419591 
L 202.769141 83.871046 
L 203.603449 99.035702 
L 203.893644 101.028406 
L 203.966192 101.107842 
L 204.002467 101.081947 
L 204.111289 100.741995 
L 204.328935 98.925803 
L 204.655404 93.832279 
L 205.997552 69.961458 
L 206.287746 68.536336 
L 206.396569 68.535418 
L 206.541666 69.012537 
L 206.759312 70.766982 
L 207.08578 75.597443 
L 207.666169 88.388212 
L 208.282831 100.598331 
L 208.573026 103.242437 
L 208.718123 103.543685 
L 208.754397 103.510038 
L 208.899494 102.952114 
L 209.11714 100.950959 
L 209.516157 94.667039 
L 210.531837 77.734797 
L 210.858305 75.490821 
L 210.967128 75.345598 
L 211.003402 75.373547 
L 211.112225 75.700711 
L 211.293596 77.094425 
L 211.583791 81.539091 
L 212.055356 93.225682 
L 212.925939 115.03367 
L 213.252407 118.330635 
L 213.36123 118.535495 
L 213.397504 118.503101 
L 213.506327 118.111459 
L 213.723973 116.098242 
L 214.086716 109.928256 
L 215.211218 88.785323 
L 215.320041 88.407915 
L 215.356316 88.418081 
L 215.465138 88.873226 
L 215.64651 91.021325 
L 215.972978 98.489061 
L 216.66219 121.443125 
L 217.278852 139.073105 
L 217.569046 142.842275 
L 217.714144 143.211492 
L 217.822966 142.806949 
L 218.004338 140.913339 
L 218.330806 134.446005 
L 219.310212 113.10505 
L 219.527857 112.217166 
L 219.63668 112.557106 
L 219.818052 114.225232 
L 220.108246 119.369894 
L 220.616086 133.268044 
L 221.450394 155.947413 
L 221.704314 158.578693 
L 221.776863 158.709188 
L 221.813137 158.664898 
L 221.92196 158.092728 
L 222.139605 155.056446 
L 222.502348 145.541581 
L 223.554302 115.053142 
L 223.808222 112.920184 
L 223.880771 112.844573 
L 223.917045 112.892647 
L 224.062142 113.63126 
L 224.316062 116.789136 
L 224.751353 126.057841 
L 225.549388 143.446053 
L 225.803308 145.152854 
L 225.875856 145.061178 
L 226.020953 144.04497 
L 226.238599 140.453615 
L 226.601342 129.721869 
L 227.762119 91.280089 
L 228.016038 89.637225 
L 228.088587 89.662336 
L 228.233684 90.285376 
L 228.487604 92.962365 
L 228.886621 100.158181 
L 229.829752 118.155888 
L 230.047398 119.378268 
L 230.119947 119.361009 
L 230.228769 118.912331 
L 230.410141 117.031073 
L 230.700335 111.313611 
L 231.316998 93.04825 
L 231.861112 79.658837 
L 232.223855 75.160445 
L 232.4415 74.26731 
L 232.550323 74.31905 
L 232.69542 74.890641 
L 232.94934 77.196363 
L 233.348357 83.583145 
L 234.436586 102.556083 
L 234.654231 103.403701 
L 234.72678 103.322376 
L 234.871877 102.603187 
L 235.125797 99.655603 
L 235.524814 91.762218 
L 236.467945 72.348841 
L 236.830688 68.849067 
L 237.048334 68.258851 
L 237.157157 68.412994 
L 237.338528 69.342864 
L 237.592448 72.014226 
L 237.991465 78.921068 
L 239.115968 99.987025 
L 239.369887 101.212998 
L 239.442436 101.183155 
L 239.587533 100.622457 
L 239.805179 98.625955 
L 240.204196 92.318839 
L 241.25615 74.624601 
L 241.582618 72.322403 
L 241.727716 72.108182 
L 241.836538 72.320292 
L 242.01791 73.43502 
L 242.27183 76.633149 
L 242.670847 84.99446 
L 243.759075 109.836868 
L 244.012995 111.7775 
L 244.121818 111.903285 
L 244.158092 111.851299 
L 244.303189 111.190993 
L 244.557109 108.476051 
L 244.992401 100.723627 
L 245.899258 84.506867 
L 246.153177 82.842702 
L 246.225726 82.817999 
L 246.334549 83.213159 
L 246.51592 85.067097 
L 246.806114 90.889752 
L 247.350229 107.596986 
L 248.111988 129.644371 
L 248.438457 133.77483 
L 248.54728 134.098141 
L 248.583554 134.085039 
L 248.692377 133.689635 
L 248.873748 131.91161 
L 249.200217 125.883758 
L 250.215897 104.877378 
L 250.360994 104.354007 
L 250.397268 104.384346 
L 250.506091 104.858468 
L 250.723736 107.418309 
L 251.050205 114.506366 
L 251.703142 134.896275 
L 252.356079 152.9339 
L 252.646273 156.126724 
L 252.718822 156.242014 
L 252.755096 156.192258 
L 252.863919 155.616351 
L 253.081565 152.654066 
L 253.444307 143.597403 
L 254.387439 118.646017 
L 254.641358 116.658312 
L 254.713907 116.613235 
L 254.750181 116.675816 
L 254.895278 117.471822 
L 255.149198 120.752839 
L 255.548215 129.493836 
L 256.491347 151.429164 
L 256.708992 152.844401 
L 256.781541 152.772444 
L 256.926638 151.767382 
L 257.144284 148.159807 
L 257.507026 137.520682 
L 258.667803 99.871304 
L 258.921723 98.072738 
L 258.994272 98.094438 
L 259.103095 98.528781 
L 259.32074 100.675748 
L 259.683483 107.112298 
L 260.699163 126.976332 
L 260.880534 127.828275 
L 260.916809 127.823408 
L 261.025631 127.437967 
L 261.207003 125.538177 
L 261.497197 119.405386 
L 262.005037 102.567355 
L 262.6217 84.255415 
L 262.984442 79.362906 
L 263.202088 78.520581 
L 263.274637 78.558772 
L 263.419734 79.086391 
L 263.637379 80.929952 
L 264.000122 86.351698 
L 265.233448 107.18155 
L 265.378545 107.528009 
L 265.414819 107.495276 
L 265.523642 107.10474 
L 265.705013 105.491627 
L 265.995207 100.674359 
L 266.648144 84.75411 
L 267.228533 73.231633 
L 267.591276 69.695667 
L 267.808921 69.157494 
L 267.917744 69.350026 
L 268.099116 70.352804 
L 268.38931 73.634472 
L 268.860875 82.328182 
L 269.695184 98.050998 
L 269.985378 100.230296 
L 270.094201 100.355374 
L 270.130475 100.310001 
L 270.275572 99.699054 
L 270.493218 97.577778 
L 270.892235 90.887887 
L 271.907915 72.795563 
L 272.234383 70.233427 
L 272.415755 69.873465 
L 272.524577 70.05777 
L 272.705949 71.060909 
L 272.959869 73.929733 
L 273.358886 81.441205 
L 274.519663 105.443527 
L 274.773583 106.867695 
L 274.846131 106.879519 
L 274.882406 106.820176 
L 275.027503 106.162761 
L 275.281423 103.565674 
L 275.716714 96.245197 
L 276.659845 80.264592 
L 276.950039 78.161529 
L 277.058862 78.033554 
L 277.095137 78.085851 
L 277.240234 78.80627 
L 277.457879 81.479516 
L 277.784348 88.696256 
L 279.199045 124.453889 
L 279.380416 125.14348 
L 279.452965 125.030437 
L 279.598062 124.164158 
L 279.851982 120.830249 
L 280.323547 110.748004 
L 280.976484 97.531547 
L 281.230404 95.815095 
L 281.302953 95.892562 
L 281.44805 96.836743 
L 281.70197 100.812062 
L 282.100987 111.44317 
L 283.370587 148.548626 
L 283.588232 150.236364 
L 283.660781 150.258125 
L 283.769604 149.781894 
L 283.950975 147.707207 
L 284.277444 140.761082 
L 285.256849 117.543412 
L 285.474495 116.188068 
L 285.547043 116.197578 
L 285.655866 116.634315 
L 285.873512 118.921921 
L 286.19998 125.266729 
L 286.889192 144.445393 
L 287.397031 155.797072 
L 287.650951 157.692291 
L 287.7235 157.60396 
L 287.868597 156.548412 
L 288.086243 152.865736 
L 288.448986 142.297644 
L 289.50094 108.84036 
L 289.75486 106.488336 
L 289.827408 106.381456 
L 289.863682 106.416663 
L 289.972505 106.859319 
L 290.190151 109.099646 
L 290.552894 115.84879 
L 291.568573 136.464643 
L 291.749945 137.234668 
L 291.822493 137.101021 
L 291.96759 136.036051 
L 292.185236 132.462824 
L 292.547979 121.999465 
L 293.636207 87.012971 
L 293.926401 84.259851 
L 294.035224 84.041814 
L 294.071499 84.059737 
L 294.180321 84.370683 
L 294.397967 86.063054 
L 294.724436 90.82923 
L 296.03031 113.035732 
L 296.139132 113.164072 
L 296.247955 112.818863 
L 296.429327 111.18085 
L 296.719521 106.020182 
L 297.299909 90.333867 
L 297.880298 76.864597 
L 298.243041 72.458784 
L 298.49696 71.433821 
L 298.605783 71.517397 
L 298.75088 72.110481 
L 299.0048 74.412186 
L 299.403817 80.750896 
L 300.52832 100.420457 
L 300.745966 101.311042 
L 300.818514 101.258974 
L 300.963611 100.625471 
L 301.181257 98.42247 
L 301.544 92.135496 
L 302.668502 71.064281 
L 302.994971 68.668793 
L 303.140068 68.419044 
L 303.176342 68.43956 
L 303.285165 68.705285 
L 303.466537 69.833445 
L 303.756731 73.367892 
L 304.192022 81.86926 
L 305.135153 100.908935 
L 305.425348 103.036696 
L 305.53417 103.132021 
L 305.642993 102.843105 
L 305.824365 101.55836 
L 306.150833 97.185828 
L 307.56553 75.373831 
L 307.783176 74.758042 
L 307.891998 74.956454 
L 308.07337 76.120299 
L 308.32729 79.552061 
L 308.726307 88.555935 
L 309.814535 115.15178 
L 310.104729 117.394692 
L 310.177278 117.456023 
L 310.213552 117.411916 
L 310.358649 116.752658 
L 310.612569 113.925281 
L 311.047861 105.690616 
L 311.918443 88.958471 
L 312.136089 87.646985 
L 312.208638 87.709686 
L 312.353735 88.651163 
L 312.57138 92.009558 
L 312.970397 102.691179 
L 314.239997 140.054466 
L 314.493917 141.934128 
L 314.566466 141.893576 
L 314.711563 141.05545 
L 314.929208 138.082367 
L 315.328225 128.958444 
L 316.017437 113.407332 
L 316.271357 111.304439 
L 316.343905 111.229756 
L 316.380179 111.281462 
L 316.525277 112.066251 
L 316.742922 114.84709 
L 317.105665 122.877648 
L 318.520362 158.395679 
L 318.629185 158.596643 
L 318.665459 158.517742 
L 318.810556 157.475672 
L 319.028202 153.873804 
L 319.427219 142.601529 
L 320.297802 116.920516 
L 320.587996 113.751722 
L 320.696819 113.546347 
L 320.733093 113.59366 
L 320.87819 114.330891 
L 321.13211 117.497403 
L 321.567401 126.823307 
L 322.40171 144.963534 
L 322.619355 146.373326 
L 322.691904 146.323318 
L 322.800727 145.727349 
L 323.018372 142.65659 
L 323.344841 133.854588 
L 324.686989 91.590185 
L 324.868361 90.83131 
L 324.940909 90.904201 
L 325.086006 91.625191 
L 325.339926 94.477989 
L 325.775217 102.691761 
L 326.609526 118.887433 
L 326.863446 120.492682 
L 326.935994 120.469888 
L 327.044817 120.004974 
L 327.226189 118.073401 
L 327.516383 112.212375 
L 328.133046 93.493277 
L 328.67716 79.978883 
L 329.039902 75.602486 
L 329.257548 74.810375 
L 329.366371 74.913329 
L 329.511468 75.550842 
L 329.765388 77.956033 
L 330.164405 84.436667 
L 331.216359 102.905971 
L 331.434005 103.901951 
L 331.506553 103.872353 
L 331.651651 103.254757 
L 331.869296 100.98316 
L 332.232039 94.301575 
L 333.392816 70.96196 
L 333.719284 68.528726 
L 333.864381 68.287081 
L 333.900656 68.310618 
L 334.045753 68.742823 
L 334.263399 70.396985 
L 334.589867 74.959205 
L 335.20653 87.782677 
L 335.823192 98.830935 
L 336.113387 100.881634 
L 336.22221 100.959899 
L 336.331032 100.655915 
L 336.512404 99.342836 
L 336.838872 94.883773 
L 338.253569 72.568603 
L 338.471215 71.790834 
L 338.580038 71.853952 
L 338.725135 72.447344 
L 338.94278 74.475138 
L 339.269249 79.968396 
L 339.885912 95.245462 
L 340.502574 108.306497 
L 340.792769 110.907377 
L 340.901591 111.124293 
L 340.937866 111.103709 
L 341.046688 110.770112 
L 341.264334 108.96707 
L 341.627077 103.37101 
L 342.824128 82.714378 
L 343.041774 81.914997 
L 343.150597 82.248986 
L 343.331968 84.000463 
L 343.622162 89.696835 
L 344.166276 106.296236 
L 344.928036 128.27579 
L 345.254505 132.412077 
L 345.363328 132.746429 
L 345.399602 132.738094 
L 345.508425 132.360127 
L 345.689796 130.620645 
L 346.016265 124.681537 
L 347.031944 103.7667 
L 347.177041 103.193582 
L 347.213316 103.210543 
L 347.322139 103.645096 
L 347.50351 105.584409 
L 347.829978 112.24584 
L 348.410367 130.011611 
L 349.172127 151.97394 
L 349.462321 155.391743 
L 349.53487 155.570688 
L 349.571144 155.553426 
L 349.679967 155.076375 
L 349.861338 152.926398 
L 350.187807 145.588602 
L 351.276035 118.074309 
L 351.493681 116.88609 
L 351.566229 116.950218 
L 351.711326 117.736276 
L 351.965246 121.004779 
L 352.364263 129.760126 
L 353.343669 152.556598 
L 353.561314 153.776131 
L 353.633863 153.629902 
L 353.77896 152.471381 
L 354.03288 147.782312 
L 354.431897 135.087537 
L 355.411303 102.24567 
L 355.701497 99.316233 
L 355.774045 99.20649 
L 355.81032 99.237703 
L 355.919142 99.65536 
L 356.136788 101.770117 
L 356.499531 108.224836 
L 357.515211 128.25846 
L 357.732856 129.138395 
L 357.841679 128.763321 
L 358.023051 126.873307 
L 358.313245 120.728471 
L 358.821085 103.775549 
L 359.437747 85.098396 
L 359.80049 80.046236 
L 360.018136 79.151592 
L 360.090684 79.18569 
L 360.199507 79.509947 
L 360.417153 81.14183 
L 360.743621 85.672807 
L 362.122044 107.923191 
L 362.194593 107.97758 
L 362.230867 107.931684 
L 362.375964 107.256833 
L 362.59361 104.807227 
L 362.956352 97.574993 
L 364.117129 72.269082 
L 364.443598 69.603664 
L 364.624969 69.278609 
L 364.770066 69.638219 
L 364.987712 71.185796 
L 365.31418 75.554691 
L 365.930843 87.91089 
L 366.511232 97.980069 
L 366.801426 100.043778 
L 366.910249 100.12906 
L 367.019071 99.826969 
L 367.200443 98.492283 
L 367.526911 93.892397 
L 368.941608 70.50661 
L 369.195528 69.549293 
L 369.304351 69.639742 
L 369.449448 70.222823 
L 369.703368 72.590066 
L 370.066111 78.67859 
L 371.480808 105.794586 
L 371.625905 106.151607 
L 371.662179 106.131636 
L 371.771002 105.815501 
L 371.952373 104.492771 
L 372.278842 100.072749 
L 373.693539 77.918827 
L 373.87491 77.450125 
L 373.947459 77.573733 
L 374.092556 78.404788 
L 374.310201 81.185145 
L 374.672944 89.415946 
L 375.942544 122.200824 
L 376.196464 123.692994 
L 376.269012 123.628198 
L 376.414109 122.864903 
L 376.668029 119.715774 
L 377.103321 110.707836 
L 377.865081 95.36981 
L 378.082726 94.090901 
L 378.155275 94.18218 
L 378.300372 95.184641 
L 378.518018 98.546615 
L 378.917035 109.02167 
L 380.259183 147.699959 
L 380.476829 148.920791 
L 380.549377 148.787777 
L 380.694474 147.729082 
L 380.948394 143.624598 
L 381.456234 130.387405 
L 382.000348 117.973033 
L 382.290542 115.499381 
L 382.363091 115.454153 
L 382.399365 115.528734 
L 382.508188 116.050576 
L 382.725834 118.515796 
L 383.052302 125.072754 
L 384.466999 157.885698 
L 384.539548 157.954455 
L 384.575822 157.879703 
L 384.720919 156.847341 
L 384.938565 153.202301 
L 385.301308 142.731576 
L 386.353262 109.848036 
L 386.607182 107.594432 
L 386.67973 107.513241 
L 386.716004 107.553592 
L 386.861101 108.294054 
L 387.115021 111.455936 
L 387.550313 120.579345 
L 388.312073 136.758302 
L 388.565993 138.601828 
L 388.638541 138.577172 
L 388.747364 138.040201 
L 388.928735 135.800531 
L 389.21893 128.943601 
L 389.763044 109.07359 
L 390.343432 90.302447 
L 390.669901 85.70386 
L 390.887546 85.019339 
L 390.996369 85.303668 
L 391.177741 86.578809 
L 391.467935 90.432223 
L 391.975775 100.556152 
L 392.628712 112.485892 
L 392.882632 114.266878 
L 392.95518 114.332955 
L 392.991454 114.286612 
L 393.136552 113.565273 
L 393.354197 110.899196 
L 393.71694 102.902427 
L 394.841443 75.647865 
L 395.167911 72.668728 
L 395.349283 72.241691 
L 395.421831 72.311485 
L 395.566928 72.861884 
L 395.784574 74.67589 
L 396.147317 79.994002 
L 397.416916 101.409071 
L 397.598288 101.84591 
L 397.707111 101.578752 
L 397.888482 100.26327 
L 398.178676 96.17011 
L 398.795339 83.251497 
L 399.412002 72.33394 
L 399.774744 69.182607 
L 399.956116 68.742499 
L 400.064939 68.886715 
L 400.210036 69.536662 
L 400.463956 71.96698 
L 400.826698 77.961604 
L 402.132572 102.235546 
L 402.350218 102.853116 
L 402.459041 102.589296 
L 402.640412 101.353393 
L 402.966881 97.063901 
L 404.381578 75.167578 
L 404.599223 74.413041 
L 404.708046 74.528406 
L 404.853143 75.228243 
L 405.070789 77.538149 
L 405.433532 84.527432 
L 406.811954 115.508309 
L 406.993326 116.1807 
L 407.065874 116.104965 
L 407.210971 115.384799 
L 407.464891 112.497626 
L 407.900183 104.301917 
L 408.770765 87.73976 
L 408.988411 86.34422 
L 409.024685 86.311837 
L 409.06096 86.361296 
L 409.169782 86.878205 
L 409.387428 89.711787 
L 409.713897 97.592792 
L 411.201142 139.371424 
L 411.382513 140.133682 
L 411.455062 139.993385 
L 411.600159 138.974743 
L 411.854079 135.108796 
L 412.361919 122.757989 
L 412.906033 111.450056 
L 413.159953 109.723453 
L 413.232502 109.765986 
L 413.341324 110.274304 
L 413.55897 112.793842 
L 413.885439 119.616156 
L 414.538376 139.234132 
L 415.155038 155.358152 
L 415.408958 158.045321 
L 415.481507 158.194214 
L 415.517781 158.159997 
L 415.626604 157.619877 
L 415.807975 155.322206 
L 416.134444 147.530158 
L 416.714832 133.312833 
L 417.150124 127.925921 
L 417.404043 126.698333 
L 417.512866 126.641771 
L 417.549141 126.679254 
L 417.694238 127.117682 
L 417.948158 128.823577 
L 418.383449 133.646956 
L 419.471677 146.60731 
L 419.761872 148.024488 
L 419.906969 148.167104 
L 420.015792 148.005057 
L 420.197163 147.212322 
L 420.487357 144.658713 
L 421.35794 135.696153 
L 421.430488 135.650484 
L 421.466763 135.689899 
L 421.61186 136.215541 
L 421.86578 138.364397 
L 422.301071 144.589475 
L 422.446168 147.13025 
L 422.446168 147.13025 
" clip-path="url(#pe982101773)" style="fill: none; stroke: #000000; stroke-width: 1.5; stroke-linecap: round"/>
   </g>
   <g id="line2d_15">
    <path d="M 59.703389 226.982484 
L 422.446168 226.982484 
L 422.446168 226.982484 
" clip-path="url(#pe982101773)" style="fill: none; stroke-dasharray: 5.55,2.4; stroke-dashoffset: 0; stroke: #ff0000; stroke-width: 1.5"/>
   </g>
   <g id="patch_3">
    <path d="M 41.56625 236.408317 
L 41.56625 29.04 
" style="fill: none; stroke: #000000; stroke-width: 0.8; stroke-linejoin: miter; stroke-linecap: square"/>
   </g>
   <g id="patch_4">
    <path d="M 440.583307 236.408317 
L 440.583307 29.04 
" style="fill: none; stroke: #000000; stroke-width: 0.8; stroke-linejoin: miter; stroke-linecap: square"/>
   </g>
   <g id="patch_5">
    <path d="M 41.56625 236.408317 
L 440.583307 236.408317 
" style="fill: none; stroke: #000000; stroke-width: 0.8; stroke-linejoin: miter; stroke-linecap: square"/>
   </g>
   <g id="patch_6">
    <path d="M 41.56625 29.04 
L 440.583307 29.04 
" style="fill: none; stroke: #000000; stroke-width: 0.8; stroke-linejoin: miter; stroke-linecap: square"/>
   </g>
   <g id="text_16">
    <!-- Par 7 - Comparação I0 - I_818 -->
    <g transform="translate(153.103154 23.04) scale(0.144 -0.144)">
     <defs>
      <path id="TimesNewRomanPSMT-50" d="M 1313 1984 
L 1313 750 
Q 1313 350 1400 253 
Q 1519 116 1759 116 
L 1922 116 
L 1922 0 
L 106 0 
L 106 116 
L 266 116 
Q 534 116 650 291 
Q 713 388 713 750 
L 713 3488 
Q 713 3888 628 3984 
Q 506 4122 266 4122 
L 106 4122 
L 106 4238 
L 1659 4238 
Q 2228 4238 2556 4120 
Q 2884 4003 3109 3725 
Q 3334 3447 3334 3066 
Q 3334 2547 2992 2222 
Q 2650 1897 2025 1897 
Q 1872 1897 1694 1919 
Q 1516 1941 1313 1984 
z
M 1313 2163 
Q 1478 2131 1606 2115 
Q 1734 2100 1825 2100 
Q 2150 2100 2386 2351 
Q 2622 2603 2622 3003 
Q 2622 3278 2509 3514 
Q 2397 3750 2190 3867 
Q 1984 3984 1722 3984 
Q 1563 3984 1313 3925 
L 1313 2163 
z
" transform="scale(0.015625)"/>
      <path id="TimesNewRomanPSMT-37" d="M 644 4238 
L 2916 4238 
L 2916 4119 
L 1503 -88 
L 1153 -88 
L 2419 3728 
L 1253 3728 
Q 900 3728 750 3644 
Q 488 3500 328 3200 
L 238 3234 
L 644 4238 
z
" transform="scale(0.015625)"/>
      <path id="TimesNewRomanPSMT-2d" d="M 259 1672 
L 1875 1672 
L 1875 1200 
L 259 1200 
L 259 1672 
z
" transform="scale(0.015625)"/>
      <path id="TimesNewRomanPSMT-e7" d="M 2631 1088 
Q 2516 522 2178 217 
Q 1841 -88 1431 -88 
Q 944 -88 581 321 
Q 219 731 219 1428 
Q 219 2103 620 2525 
Q 1022 2947 1584 2947 
Q 2006 2947 2278 2723 
Q 2550 2500 2550 2259 
Q 2550 2141 2473 2067 
Q 2397 1994 2259 1994 
Q 2075 1994 1981 2113 
Q 1928 2178 1911 2362 
Q 1894 2547 1784 2644 
Q 1675 2738 1481 2738 
Q 1169 2738 978 2506 
Q 725 2200 725 1697 
Q 725 1184 976 792 
Q 1228 400 1656 400 
Q 1963 400 2206 609 
Q 2378 753 2541 1131 
L 2631 1088 
z
M 1469 50 
L 1656 50 
L 1500 -197 
Q 1697 -247 1794 -365 
Q 1891 -484 1891 -653 
Q 1891 -878 1703 -1048 
Q 1516 -1219 1219 -1219 
Q 1103 -1219 925 -1197 
L 925 -1063 
Q 1013 -1075 1075 -1075 
Q 1234 -1075 1343 -970 
Q 1453 -866 1453 -731 
Q 1453 -638 1381 -569 
Q 1309 -500 1203 -500 
Q 1172 -500 1122 -506 
L 1469 50 
z
" transform="scale(0.015625)"/>
      <path id="TimesNewRomanPSMT-e3" d="M 1822 413 
Q 1381 72 1269 19 
Q 1100 -59 909 -59 
Q 613 -59 420 144 
Q 228 347 228 678 
Q 228 888 322 1041 
Q 450 1253 767 1440 
Q 1084 1628 1822 1897 
L 1822 2009 
Q 1822 2438 1686 2597 
Q 1550 2756 1291 2756 
Q 1094 2756 978 2650 
Q 859 2544 859 2406 
L 866 2225 
Q 866 2081 792 2003 
Q 719 1925 600 1925 
Q 484 1925 411 2006 
Q 338 2088 338 2228 
Q 338 2497 613 2722 
Q 888 2947 1384 2947 
Q 1766 2947 2009 2819 
Q 2194 2722 2281 2516 
Q 2338 2381 2338 1966 
L 2338 994 
Q 2338 584 2353 492 
Q 2369 400 2405 369 
Q 2441 338 2488 338 
Q 2538 338 2575 359 
Q 2641 400 2828 588 
L 2828 413 
Q 2478 -56 2159 -56 
Q 2006 -56 1915 50 
Q 1825 156 1822 413 
z
M 1822 616 
L 1822 1706 
Q 1350 1519 1213 1441 
Q 966 1303 859 1153 
Q 753 1003 753 825 
Q 753 600 887 451 
Q 1022 303 1197 303 
Q 1434 303 1822 616 
z
M 534 3428 
L 434 3428 
Q 447 3856 612 4047 
Q 778 4238 1022 4238 
Q 1150 4238 1256 4197 
Q 1397 4144 1655 3973 
Q 1913 3803 2038 3803 
Q 2138 3803 2214 3887 
Q 2291 3972 2334 4238 
L 2431 4238 
Q 2434 3947 2354 3776 
Q 2275 3606 2129 3511 
Q 1984 3416 1838 3416 
Q 1591 3416 1225 3666 
Q 1028 3800 959 3828 
Q 891 3856 825 3856 
Q 697 3856 622 3744 
Q 588 3691 534 3428 
z
" transform="scale(0.015625)"/>
      <path id="TimesNewRomanPSMT-49" d="M 1975 116 
L 1975 0 
L 159 0 
L 159 116 
L 309 116 
Q 572 116 691 269 
Q 766 369 766 750 
L 766 3488 
Q 766 3809 725 3913 
Q 694 3991 597 4047 
Q 459 4122 309 4122 
L 159 4122 
L 159 4238 
L 1975 4238 
L 1975 4122 
L 1822 4122 
Q 1563 4122 1444 3969 
Q 1366 3869 1366 3488 
L 1366 750 
Q 1366 428 1406 325 
Q 1438 247 1538 191 
Q 1672 116 1822 116 
L 1975 116 
z
" transform="scale(0.015625)"/>
      <path id="TimesNewRomanPSMT-5f" d="M 3256 -1381 
L -53 -1381 
L -53 -1119 
L 3256 -1119 
L 3256 -1381 
z
" transform="scale(0.015625)"/>
      <path id="TimesNewRomanPSMT-38" d="M 1228 2134 
Q 725 2547 579 2797 
Q 434 3047 434 3316 
Q 434 3728 753 4026 
Q 1072 4325 1600 4325 
Q 2113 4325 2425 4047 
Q 2738 3769 2738 3413 
Q 2738 3175 2569 2928 
Q 2400 2681 1866 2347 
Q 2416 1922 2594 1678 
Q 2831 1359 2831 1006 
Q 2831 559 2490 242 
Q 2150 -75 1597 -75 
Q 994 -75 656 303 
Q 388 606 388 966 
Q 388 1247 577 1523 
Q 766 1800 1228 2134 
z
M 1719 2469 
Q 2094 2806 2194 3001 
Q 2294 3197 2294 3444 
Q 2294 3772 2109 3958 
Q 1925 4144 1606 4144 
Q 1288 4144 1088 3959 
Q 888 3775 888 3528 
Q 888 3366 970 3203 
Q 1053 3041 1206 2894 
L 1719 2469 
z
M 1375 2016 
Q 1116 1797 991 1539 
Q 866 1281 866 981 
Q 866 578 1086 336 
Q 1306 94 1647 94 
Q 1984 94 2187 284 
Q 2391 475 2391 747 
Q 2391 972 2272 1150 
Q 2050 1481 1375 2016 
z
" transform="scale(0.015625)"/>
     </defs>
     <use xlink:href="#TimesNewRomanPSMT-50"/>
     <use xlink:href="#TimesNewRomanPSMT-61" transform="translate(55.615234 0)"/>
     <use xlink:href="#TimesNewRomanPSMT-72" transform="translate(100 0)"/>
     <use xlink:href="#TimesNewRomanPSMT-20" transform="translate(133.300781 0)"/>
     <use xlink:href="#TimesNewRomanPSMT-37" transform="translate(158.300781 0)"/>
     <use xlink:href="#TimesNewRomanPSMT-20" transform="translate(208.300781 0)"/>
     <use xlink:href="#TimesNewRomanPSMT-2d" transform="translate(233.300781 0)"/>
     <use xlink:href="#TimesNewRomanPSMT-20" transform="translate(266.601562 0)"/>
     <use xlink:href="#TimesNewRomanPSMT-43" transform="translate(291.601562 0)"/>
     <use xlink:href="#TimesNewRomanPSMT-6f" transform="translate(358.300781 0)"/>
     <use xlink:href="#TimesNewRomanPSMT-6d" transform="translate(408.300781 0)"/>
     <use xlink:href="#TimesNewRomanPSMT-70" transform="translate(486.083984 0)"/>
     <use xlink:href="#TimesNewRomanPSMT-61" transform="translate(536.083984 0)"/>
     <use xlink:href="#TimesNewRomanPSMT-72" transform="translate(580.46875 0)"/>
     <use xlink:href="#TimesNewRomanPSMT-61" transform="translate(613.769531 0)"/>
     <use xlink:href="#TimesNewRomanPSMT-e7" transform="translate(658.154297 0)"/>
     <use xlink:href="#TimesNewRomanPSMT-e3" transform="translate(702.539062 0)"/>
     <use xlink:href="#TimesNewRomanPSMT-6f" transform="translate(746.923828 0)"/>
     <use xlink:href="#TimesNewRomanPSMT-20" transform="translate(796.923828 0)"/>
     <use xlink:href="#TimesNewRomanPSMT-49" transform="translate(821.923828 0)"/>
     <use xlink:href="#TimesNewRomanPSMT-30" transform="translate(855.224609 0)"/>
     <use xlink:href="#TimesNewRomanPSMT-20" transform="translate(905.224609 0)"/>
     <use xlink:href="#TimesNewRomanPSMT-2d" transform="translate(930.224609 0)"/>
     <use xlink:href="#TimesNewRomanPSMT-20" transform="translate(963.525391 0)"/>
     <use xlink:href="#TimesNewRomanPSMT-49" transform="translate(988.525391 0)"/>
     <use xlink:href="#TimesNewRomanPSMT-5f" transform="translate(1021.826172 0)"/>
     <use xlink:href="#TimesNewRomanPSMT-38" transform="translate(1071.826172 0)"/>
     <use xlink:href="#TimesNewRomanPSMT-31" transform="translate(1121.826172 0)"/>
     <use xlink:href="#TimesNewRomanPSMT-38" transform="translate(1171.826172 0)"/>
    </g>
   </g>
   <g id="legend_1">
    <g id="patch_7">
     <path d="M 314.738932 72.57375 
L 432.183307 72.57375 
Q 434.583307 72.57375 434.583307 70.17375 
L 434.583307 37.44 
Q 434.583307 35.04 432.183307 35.04 
L 314.738932 35.04 
Q 312.338932 35.04 312.338932 37.44 
L 312.338932 70.17375 
Q 312.338932 72.57375 314.738932 72.57375 
z
" style="fill: #ffffff; opacity: 0.8; stroke: #cccccc; stroke-linejoin: miter"/>
    </g>
    <g id="line2d_16">
     <path d="M 317.138932 44.04 
L 329.138932 44.04 
L 341.138932 44.04 
" style="fill: none; stroke: #000000; stroke-width: 1.5; stroke-linecap: round"/>
    </g>
    <g id="text_17">
     <!-- MRT s/terra (I0) -->
     <g transform="translate(350.738932 48.24) scale(0.12 -0.12)">
      <defs>
       <path id="TimesNewRomanPSMT-4d" d="M 2619 0 
L 981 3566 
L 981 734 
Q 981 344 1066 247 
Q 1181 116 1431 116 
L 1581 116 
L 1581 0 
L 106 0 
L 106 116 
L 256 116 
Q 525 116 638 278 
Q 706 378 706 734 
L 706 3503 
Q 706 3784 644 3909 
Q 600 4000 483 4061 
Q 366 4122 106 4122 
L 106 4238 
L 1306 4238 
L 2844 922 
L 4356 4238 
L 5556 4238 
L 5556 4122 
L 5409 4122 
Q 5138 4122 5025 3959 
Q 4956 3859 4956 3503 
L 4956 734 
Q 4956 344 5044 247 
Q 5159 116 5409 116 
L 5556 116 
L 5556 0 
L 3756 0 
L 3756 116 
L 3906 116 
Q 4178 116 4288 278 
Q 4356 378 4356 734 
L 4356 3566 
L 2722 0 
L 2619 0 
z
" transform="scale(0.015625)"/>
       <path id="TimesNewRomanPSMT-52" d="M 4325 0 
L 3194 0 
L 1759 1981 
Q 1600 1975 1500 1975 
Q 1459 1975 1412 1976 
Q 1366 1978 1316 1981 
L 1316 750 
Q 1316 350 1403 253 
Q 1522 116 1759 116 
L 1925 116 
L 1925 0 
L 109 0 
L 109 116 
L 269 116 
Q 538 116 653 291 
Q 719 388 719 750 
L 719 3488 
Q 719 3888 631 3984 
Q 509 4122 269 4122 
L 109 4122 
L 109 4238 
L 1653 4238 
Q 2328 4238 2648 4139 
Q 2969 4041 3192 3777 
Q 3416 3513 3416 3147 
Q 3416 2756 3161 2468 
Q 2906 2181 2372 2063 
L 3247 847 
Q 3547 428 3762 290 
Q 3978 153 4325 116 
L 4325 0 
z
M 1316 2178 
Q 1375 2178 1419 2176 
Q 1463 2175 1491 2175 
Q 2097 2175 2405 2437 
Q 2713 2700 2713 3106 
Q 2713 3503 2464 3751 
Q 2216 4000 1806 4000 
Q 1625 4000 1316 3941 
L 1316 2178 
z
" transform="scale(0.015625)"/>
       <path id="TimesNewRomanPSMT-2f" d="M 1794 4444 
L 259 -88 
L 9 -88 
L 1544 4444 
L 1794 4444 
z
" transform="scale(0.015625)"/>
      </defs>
      <use xlink:href="#TimesNewRomanPSMT-4d"/>
      <use xlink:href="#TimesNewRomanPSMT-52" transform="translate(88.916016 0)"/>
      <use xlink:href="#TimesNewRomanPSMT-54" transform="translate(149.615234 0)"/>
      <use xlink:href="#TimesNewRomanPSMT-20" transform="translate(208.949219 0)"/>
      <use xlink:href="#TimesNewRomanPSMT-73" transform="translate(233.949219 0)"/>
      <use xlink:href="#TimesNewRomanPSMT-2f" transform="translate(272.865234 0)"/>
      <use xlink:href="#TimesNewRomanPSMT-74" transform="translate(300.648438 0)"/>
      <use xlink:href="#TimesNewRomanPSMT-65" transform="translate(328.431641 0)"/>
      <use xlink:href="#TimesNewRomanPSMT-72" transform="translate(372.816406 0)"/>
      <use xlink:href="#TimesNewRomanPSMT-72" transform="translate(406.117188 0)"/>
      <use xlink:href="#TimesNewRomanPSMT-61" transform="translate(439.417969 0)"/>
      <use xlink:href="#TimesNewRomanPSMT-20" transform="translate(483.802734 0)"/>
      <use xlink:href="#TimesNewRomanPSMT-28" transform="translate(508.802734 0)"/>
      <use xlink:href="#TimesNewRomanPSMT-49" transform="translate(542.103516 0)"/>
      <use xlink:href="#TimesNewRomanPSMT-30" transform="translate(575.404297 0)"/>
      <use xlink:href="#TimesNewRomanPSMT-29" transform="translate(625.404297 0)"/>
     </g>
    </g>
    <g id="line2d_17">
     <path d="M 317.138932 61.006875 
L 329.138932 61.006875 
L 341.138932 61.006875 
" style="fill: none; stroke-dasharray: 5.55,2.4; stroke-dashoffset: 0; stroke: #ff0000; stroke-width: 1.5"/>
    </g>
    <g id="text_18">
     <!-- T2F s/terra (I0) -->
     <g transform="translate(350.738932 65.206875) scale(0.12 -0.12)">
      <defs>
       <path id="TimesNewRomanPSMT-46" d="M 1309 4006 
L 1309 2341 
L 2081 2341 
Q 2347 2341 2470 2458 
Q 2594 2575 2634 2922 
L 2750 2922 
L 2750 1488 
L 2634 1488 
Q 2631 1734 2570 1850 
Q 2509 1966 2401 2023 
Q 2294 2081 2081 2081 
L 1309 2081 
L 1309 750 
Q 1309 428 1350 325 
Q 1381 247 1481 191 
Q 1619 116 1769 116 
L 1922 116 
L 1922 0 
L 103 0 
L 103 116 
L 253 116 
Q 516 116 634 269 
Q 709 369 709 750 
L 709 3488 
Q 709 3809 669 3913 
Q 638 3991 541 4047 
Q 406 4122 253 4122 
L 103 4122 
L 103 4238 
L 3256 4238 
L 3297 3306 
L 3188 3306 
Q 3106 3603 2998 3742 
Q 2891 3881 2733 3943 
Q 2575 4006 2244 4006 
L 1309 4006 
z
" transform="scale(0.015625)"/>
      </defs>
      <use xlink:href="#TimesNewRomanPSMT-54"/>
      <use xlink:href="#TimesNewRomanPSMT-32" transform="translate(61.083984 0)"/>
      <use xlink:href="#TimesNewRomanPSMT-46" transform="translate(111.083984 0)"/>
      <use xlink:href="#TimesNewRomanPSMT-20" transform="translate(166.699219 0)"/>
      <use xlink:href="#TimesNewRomanPSMT-73" transform="translate(191.699219 0)"/>
      <use xlink:href="#TimesNewRomanPSMT-2f" transform="translate(230.615234 0)"/>
      <use xlink:href="#TimesNewRomanPSMT-74" transform="translate(258.398438 0)"/>
      <use xlink:href="#TimesNewRomanPSMT-65" transform="translate(286.181641 0)"/>
      <use xlink:href="#TimesNewRomanPSMT-72" transform="translate(330.566406 0)"/>
      <use xlink:href="#TimesNewRomanPSMT-72" transform="translate(363.867188 0)"/>
      <use xlink:href="#TimesNewRomanPSMT-61" transform="translate(397.167969 0)"/>
      <use xlink:href="#TimesNewRomanPSMT-20" transform="translate(441.552734 0)"/>
      <use xlink:href="#TimesNewRomanPSMT-28" transform="translate(466.552734 0)"/>
      <use xlink:href="#TimesNewRomanPSMT-49" transform="translate(499.853516 0)"/>
      <use xlink:href="#TimesNewRomanPSMT-30" transform="translate(533.154297 0)"/>
      <use xlink:href="#TimesNewRomanPSMT-29" transform="translate(583.154297 0)"/>
     </g>
    </g>
   </g>
  </g>
 </g>
 <defs>
  <clipPath id="pe982101773">
   <rect x="41.56625" y="29.04" width="399.017057" height="207.368317"/>
  </clipPath>
 </defs>
</svg>
